%TF.GenerationSoftware,KiCad,Pcbnew,(6.0.5)*%
%TF.CreationDate,2022-07-12T00:37:25-04:00*%
%TF.ProjectId,grouped,67726f75-7065-4642-9e6b-696361645f70,rev?*%
%TF.SameCoordinates,Original*%
%TF.FileFunction,Copper,L1,Top*%
%TF.FilePolarity,Positive*%
%FSLAX46Y46*%
G04 Gerber Fmt 4.6, Leading zero omitted, Abs format (unit mm)*
G04 Created by KiCad (PCBNEW (6.0.5)) date 2022-07-12 00:37:25*
%MOMM*%
%LPD*%
G01*
G04 APERTURE LIST*
G04 Aperture macros list*
%AMRoundRect*
0 Rectangle with rounded corners*
0 $1 Rounding radius*
0 $2 $3 $4 $5 $6 $7 $8 $9 X,Y pos of 4 corners*
0 Add a 4 corners polygon primitive as box body*
4,1,4,$2,$3,$4,$5,$6,$7,$8,$9,$2,$3,0*
0 Add four circle primitives for the rounded corners*
1,1,$1+$1,$2,$3*
1,1,$1+$1,$4,$5*
1,1,$1+$1,$6,$7*
1,1,$1+$1,$8,$9*
0 Add four rect primitives between the rounded corners*
20,1,$1+$1,$2,$3,$4,$5,0*
20,1,$1+$1,$4,$5,$6,$7,0*
20,1,$1+$1,$6,$7,$8,$9,0*
20,1,$1+$1,$8,$9,$2,$3,0*%
G04 Aperture macros list end*
%TA.AperFunction,SMDPad,CuDef*%
%ADD10RoundRect,0.200000X0.275000X-0.200000X0.275000X0.200000X-0.275000X0.200000X-0.275000X-0.200000X0*%
%TD*%
%TA.AperFunction,SMDPad,CuDef*%
%ADD11RoundRect,0.250000X-0.250000X-0.475000X0.250000X-0.475000X0.250000X0.475000X-0.250000X0.475000X0*%
%TD*%
%TA.AperFunction,ComponentPad*%
%ADD12R,1.700000X1.700000*%
%TD*%
%TA.AperFunction,ComponentPad*%
%ADD13O,1.700000X1.700000*%
%TD*%
%TA.AperFunction,SMDPad,CuDef*%
%ADD14R,2.120000X2.100000*%
%TD*%
%TA.AperFunction,SMDPad,CuDef*%
%ADD15R,0.920000X2.100000*%
%TD*%
%TA.AperFunction,SMDPad,CuDef*%
%ADD16RoundRect,0.200000X-0.275000X0.200000X-0.275000X-0.200000X0.275000X-0.200000X0.275000X0.200000X0*%
%TD*%
%TA.AperFunction,SMDPad,CuDef*%
%ADD17RoundRect,0.250000X0.250000X0.475000X-0.250000X0.475000X-0.250000X-0.475000X0.250000X-0.475000X0*%
%TD*%
%TA.AperFunction,SMDPad,CuDef*%
%ADD18R,1.525000X0.700000*%
%TD*%
%TA.AperFunction,SMDPad,CuDef*%
%ADD19RoundRect,0.100000X-0.100000X0.637500X-0.100000X-0.637500X0.100000X-0.637500X0.100000X0.637500X0*%
%TD*%
%TA.AperFunction,SMDPad,CuDef*%
%ADD20R,0.520000X0.270000*%
%TD*%
%TA.AperFunction,SMDPad,CuDef*%
%ADD21R,0.520000X0.360000*%
%TD*%
%TA.AperFunction,SMDPad,CuDef*%
%ADD22RoundRect,0.150000X0.150000X-0.587500X0.150000X0.587500X-0.150000X0.587500X-0.150000X-0.587500X0*%
%TD*%
%TA.AperFunction,SMDPad,CuDef*%
%ADD23R,1.650000X1.450000*%
%TD*%
%TA.AperFunction,SMDPad,CuDef*%
%ADD24R,0.800000X1.000000*%
%TD*%
%TA.AperFunction,SMDPad,CuDef*%
%ADD25R,0.600000X1.000000*%
%TD*%
%TA.AperFunction,SMDPad,CuDef*%
%ADD26RoundRect,0.200000X0.200000X0.275000X-0.200000X0.275000X-0.200000X-0.275000X0.200000X-0.275000X0*%
%TD*%
%TA.AperFunction,ComponentPad*%
%ADD27R,1.600000X1.600000*%
%TD*%
%TA.AperFunction,ComponentPad*%
%ADD28O,1.600000X1.600000*%
%TD*%
%TA.AperFunction,SMDPad,CuDef*%
%ADD29R,0.492000X0.300000*%
%TD*%
%TA.AperFunction,ComponentPad*%
%ADD30R,1.130000X1.130000*%
%TD*%
%TA.AperFunction,ComponentPad*%
%ADD31C,1.130000*%
%TD*%
%TA.AperFunction,ComponentPad*%
%ADD32C,5.460000*%
%TD*%
%TA.AperFunction,SMDPad,CuDef*%
%ADD33R,0.650000X1.525000*%
%TD*%
%TA.AperFunction,ViaPad*%
%ADD34C,0.457200*%
%TD*%
%TA.AperFunction,ViaPad*%
%ADD35C,0.457000*%
%TD*%
%TA.AperFunction,Conductor*%
%ADD36C,0.254000*%
%TD*%
%TA.AperFunction,Conductor*%
%ADD37C,0.762000*%
%TD*%
%TA.AperFunction,Conductor*%
%ADD38C,0.508000*%
%TD*%
G04 APERTURE END LIST*
D10*
X204750000Y-234925000D03*
X204750000Y-233275000D03*
D11*
X198250000Y-234100000D03*
X200150000Y-234100000D03*
D12*
X255200000Y-206100000D03*
D13*
X257740000Y-206100000D03*
X260280000Y-206100000D03*
X262820000Y-206100000D03*
X265360000Y-206100000D03*
X267900000Y-206100000D03*
X270440000Y-206100000D03*
X272980000Y-206100000D03*
D14*
X258875000Y-272340000D03*
D15*
X260895000Y-272340000D03*
D14*
X258875000Y-263340000D03*
D15*
X260895000Y-263340000D03*
D16*
X255200000Y-299275000D03*
X255200000Y-300925000D03*
X240200000Y-263275000D03*
X240200000Y-264925000D03*
D11*
X201800000Y-237400000D03*
X203700000Y-237400000D03*
D16*
X264200000Y-299275000D03*
X264200000Y-300925000D03*
D17*
X202500000Y-240000000D03*
X200600000Y-240000000D03*
D16*
X255200000Y-290275000D03*
X255200000Y-291925000D03*
X264200000Y-272275000D03*
X264200000Y-273925000D03*
D18*
X310383751Y-119110000D03*
X310383751Y-117840000D03*
X310383751Y-116570000D03*
X310383751Y-115300000D03*
X310383751Y-114030000D03*
X310383751Y-112760000D03*
X310383751Y-111490000D03*
X304959751Y-111490000D03*
X304959751Y-112760000D03*
X304959751Y-114030000D03*
X304959751Y-115300000D03*
X304959751Y-116570000D03*
X304959751Y-117840000D03*
X304959751Y-119110000D03*
D16*
X240200000Y-299275000D03*
X240200000Y-300925000D03*
X264200000Y-290275000D03*
X264200000Y-291925000D03*
X264200000Y-245275000D03*
X264200000Y-246925000D03*
D14*
X249875000Y-272340000D03*
D15*
X251895000Y-272340000D03*
D14*
X249875000Y-299340000D03*
D15*
X251895000Y-299340000D03*
D19*
X252975000Y-216737500D03*
X252325000Y-216737500D03*
X251675000Y-216737500D03*
X251025000Y-216737500D03*
X250375000Y-216737500D03*
X249725000Y-216737500D03*
X249075000Y-216737500D03*
X248425000Y-216737500D03*
X248425000Y-222462500D03*
X249075000Y-222462500D03*
X249725000Y-222462500D03*
X250375000Y-222462500D03*
X251025000Y-222462500D03*
X251675000Y-222462500D03*
X252325000Y-222462500D03*
X252975000Y-222462500D03*
D14*
X249875000Y-308340000D03*
D15*
X251895000Y-308340000D03*
D20*
X254210000Y-240200000D03*
X254210000Y-241000000D03*
D21*
X255190000Y-240600000D03*
D22*
X239630000Y-251537500D03*
X241530000Y-251537500D03*
X240580000Y-249662500D03*
D23*
X199800000Y-236200000D03*
X199800000Y-237900000D03*
D24*
X233250000Y-225800000D03*
D25*
X234200000Y-225800000D03*
D24*
X235150000Y-225800000D03*
X235150000Y-223400000D03*
X233250000Y-223400000D03*
D16*
X255200000Y-272275000D03*
X255200000Y-273925000D03*
D12*
X307421751Y-203800000D03*
D13*
X304881751Y-203800000D03*
X302341751Y-203800000D03*
X299801751Y-203800000D03*
X297261751Y-203800000D03*
X294721751Y-203800000D03*
X292181751Y-203800000D03*
X289641751Y-203800000D03*
D16*
X240200000Y-290275000D03*
X240200000Y-291925000D03*
D14*
X249875000Y-263340000D03*
D15*
X251895000Y-263340000D03*
D22*
X239630000Y-287537500D03*
X241530000Y-287537500D03*
X240580000Y-285662500D03*
D16*
X240200000Y-254275000D03*
X240200000Y-255925000D03*
X240200000Y-281275000D03*
X240200000Y-282925000D03*
X200600000Y-272000000D03*
X200600000Y-273650000D03*
D18*
X301383751Y-119110000D03*
X301383751Y-117840000D03*
X301383751Y-116570000D03*
X301383751Y-115300000D03*
X301383751Y-114030000D03*
X301383751Y-112760000D03*
X301383751Y-111490000D03*
X295959751Y-111490000D03*
X295959751Y-112760000D03*
X295959751Y-114030000D03*
X295959751Y-115300000D03*
X295959751Y-116570000D03*
X295959751Y-117840000D03*
X295959751Y-119110000D03*
D22*
X239630000Y-260537500D03*
X241530000Y-260537500D03*
X240580000Y-258662500D03*
D26*
X261025000Y-240600000D03*
X259375000Y-240600000D03*
D22*
X239630000Y-269537500D03*
X241530000Y-269537500D03*
X240580000Y-267662500D03*
D14*
X249875000Y-281340000D03*
D15*
X251895000Y-281340000D03*
D10*
X200600000Y-270425000D03*
X200600000Y-268775000D03*
D22*
X239630000Y-305537500D03*
X241530000Y-305537500D03*
X240580000Y-303662500D03*
D26*
X252025000Y-240600000D03*
X250375000Y-240600000D03*
D12*
X336421751Y-203800000D03*
D13*
X333881751Y-203800000D03*
X331341751Y-203800000D03*
X328801751Y-203800000D03*
X326261751Y-203800000D03*
X323721751Y-203800000D03*
X321181751Y-203800000D03*
D16*
X240200000Y-272275000D03*
X240200000Y-273925000D03*
D14*
X258875000Y-254340000D03*
D15*
X260895000Y-254340000D03*
D18*
X310383751Y-155110000D03*
X310383751Y-153840000D03*
X310383751Y-152570000D03*
X310383751Y-151300000D03*
X310383751Y-150030000D03*
X310383751Y-148760000D03*
X310383751Y-147490000D03*
X304959751Y-147490000D03*
X304959751Y-148760000D03*
X304959751Y-150030000D03*
X304959751Y-151300000D03*
X304959751Y-152570000D03*
X304959751Y-153840000D03*
X304959751Y-155110000D03*
D14*
X249875000Y-254340000D03*
D15*
X251895000Y-254340000D03*
D14*
X258875000Y-281340000D03*
D15*
X260895000Y-281340000D03*
D20*
X263210000Y-240200000D03*
X263210000Y-241000000D03*
D21*
X264190000Y-240600000D03*
D11*
X197100000Y-240000000D03*
X199000000Y-240000000D03*
D16*
X255200000Y-263275000D03*
X255200000Y-264925000D03*
D14*
X258875000Y-290340000D03*
D15*
X260895000Y-290340000D03*
D14*
X258875000Y-245340000D03*
D15*
X260895000Y-245340000D03*
D16*
X255200000Y-254275000D03*
X255200000Y-255925000D03*
X264200000Y-281275000D03*
X264200000Y-282925000D03*
D14*
X249875000Y-290340000D03*
D15*
X251895000Y-290340000D03*
D16*
X264200000Y-263275000D03*
X264200000Y-264925000D03*
D27*
X181935028Y-253550000D03*
D28*
X181935028Y-256090000D03*
X181935028Y-258630000D03*
X181935028Y-261170000D03*
X181935028Y-263710000D03*
X181935028Y-266250000D03*
X181935028Y-268790000D03*
X181935028Y-271330000D03*
X181935028Y-273870000D03*
X181935028Y-276410000D03*
X181935028Y-278950000D03*
X181935028Y-281490000D03*
X181935028Y-284030000D03*
X181935028Y-286570000D03*
X181935028Y-289110000D03*
X197175028Y-289110000D03*
X197175028Y-286570000D03*
X197175028Y-284030000D03*
X197175028Y-281490000D03*
X197175028Y-278950000D03*
X197175028Y-276410000D03*
X197175028Y-273870000D03*
X197175028Y-271330000D03*
X197175028Y-268790000D03*
X197175028Y-266250000D03*
X197175028Y-263710000D03*
X197175028Y-261170000D03*
X197175028Y-258630000D03*
X197175028Y-256090000D03*
X197175028Y-253550000D03*
D14*
X258875000Y-308340000D03*
D15*
X260895000Y-308340000D03*
D16*
X255200000Y-281275000D03*
X255200000Y-282925000D03*
D26*
X203275000Y-233300000D03*
X201625000Y-233300000D03*
D29*
X201632000Y-234700000D03*
X201632000Y-235200000D03*
X201632000Y-235700000D03*
X203300000Y-235700000D03*
X203300000Y-235200000D03*
X203300000Y-234700000D03*
D16*
X255200000Y-245275000D03*
X255200000Y-246925000D03*
D12*
X226200000Y-206100000D03*
D13*
X228740000Y-206100000D03*
X231280000Y-206100000D03*
X233820000Y-206100000D03*
X236360000Y-206100000D03*
X238900000Y-206100000D03*
X241440000Y-206100000D03*
D30*
X282021751Y-178020000D03*
D31*
X282021751Y-175480000D03*
X282021751Y-172940000D03*
X282021751Y-170400000D03*
X274081751Y-170400000D03*
X274081751Y-172940000D03*
X274081751Y-175480000D03*
X274081751Y-178020000D03*
D22*
X239630000Y-242537500D03*
X241530000Y-242537500D03*
X240580000Y-240662500D03*
D32*
X199620000Y-211450000D03*
X194720000Y-208500000D03*
X199620000Y-205450000D03*
D16*
X240200000Y-308275000D03*
X240200000Y-309925000D03*
D14*
X249875000Y-245340000D03*
D15*
X251895000Y-245340000D03*
D16*
X255200000Y-308275000D03*
X255200000Y-309925000D03*
X264200000Y-254275000D03*
X264200000Y-255925000D03*
D22*
X239630000Y-296537500D03*
X241530000Y-296537500D03*
X240580000Y-294662500D03*
D18*
X301383751Y-155110000D03*
X301383751Y-153840000D03*
X301383751Y-152570000D03*
X301383751Y-151300000D03*
X301383751Y-150030000D03*
X301383751Y-148760000D03*
X301383751Y-147490000D03*
X295959751Y-147490000D03*
X295959751Y-148760000D03*
X295959751Y-150030000D03*
X295959751Y-151300000D03*
X295959751Y-152570000D03*
X295959751Y-153840000D03*
X295959751Y-155110000D03*
D33*
X230995000Y-235012000D03*
X232265000Y-235012000D03*
X233535000Y-235012000D03*
X234805000Y-235012000D03*
X234805000Y-229588000D03*
X233535000Y-229588000D03*
X232265000Y-229588000D03*
X230995000Y-229588000D03*
D22*
X239630000Y-278537500D03*
X241530000Y-278537500D03*
X240580000Y-276662500D03*
D16*
X239700000Y-245275000D03*
X239700000Y-246925000D03*
D14*
X258875000Y-299340000D03*
D15*
X260895000Y-299340000D03*
D16*
X264200000Y-308275000D03*
X264200000Y-309925000D03*
D34*
X197200000Y-238900000D03*
X204000000Y-234700000D03*
X205600000Y-235300000D03*
X234617500Y-233970500D03*
X197800000Y-235200000D03*
X203600000Y-239300000D03*
X203200000Y-241100000D03*
X196600000Y-241100000D03*
X197400000Y-233600000D03*
X234455000Y-226700000D03*
X197200000Y-241100000D03*
X233955000Y-226700000D03*
X202600000Y-241100000D03*
X250055000Y-222000000D03*
X196200000Y-240100000D03*
X196200000Y-239500000D03*
X203600000Y-239900000D03*
X250655000Y-222000000D03*
X197400000Y-234800000D03*
X203600000Y-240500000D03*
X202600000Y-238900000D03*
X262655000Y-241000000D03*
X247955000Y-222500000D03*
X198400000Y-235200000D03*
X250655000Y-222500000D03*
X196600000Y-238900000D03*
X250055000Y-222500000D03*
X263155000Y-241400000D03*
X204000000Y-235300000D03*
X205100000Y-235700000D03*
X250055000Y-223000000D03*
X197400000Y-234200000D03*
X254155000Y-241400000D03*
X203200000Y-238900000D03*
X253655000Y-241000000D03*
X197800000Y-233000000D03*
X202200000Y-235700000D03*
X196200000Y-240700000D03*
X250655000Y-223000000D03*
X204500000Y-235700000D03*
X205600000Y-234700000D03*
X235117500Y-233970500D03*
X198400000Y-233000000D03*
X244100000Y-221200000D03*
X205200000Y-269700000D03*
X204300000Y-268800000D03*
X251700000Y-221400000D03*
X241455000Y-294400000D03*
X241455000Y-240900000D03*
X199200000Y-239000000D03*
X241455000Y-249400000D03*
X200600000Y-273700000D03*
X202400000Y-233300000D03*
X253455000Y-222500000D03*
X241455000Y-276400000D03*
X241455000Y-303400000D03*
X253455000Y-222000000D03*
X199800000Y-239600000D03*
X241455000Y-267900000D03*
X241455000Y-303900000D03*
X253455000Y-223000000D03*
X241455000Y-258900000D03*
X241455000Y-240400000D03*
X241455000Y-285900000D03*
X241455000Y-285400000D03*
X199800000Y-239000000D03*
X241455000Y-249900000D03*
X241455000Y-267400000D03*
X198600000Y-239000000D03*
X200400000Y-239000000D03*
X199800000Y-240200000D03*
X201000000Y-239000000D03*
X241455000Y-294900000D03*
X241455000Y-276900000D03*
X200600000Y-268800000D03*
X241455000Y-258400000D03*
X255255000Y-245300000D03*
X255255000Y-290300000D03*
X255255000Y-281300000D03*
X255255000Y-263300000D03*
X255255000Y-272300000D03*
X255255000Y-299300000D03*
X255255000Y-254300000D03*
X255255000Y-308300000D03*
X255155000Y-240600000D03*
D35*
X308921751Y-170800000D03*
X308321751Y-169800000D03*
X307721751Y-170800000D03*
D34*
X309171751Y-115300000D03*
X309171751Y-151300000D03*
D35*
X299284251Y-169804627D03*
X299884251Y-170804627D03*
X298684251Y-170804627D03*
D34*
X300171751Y-151300000D03*
X300171751Y-115300000D03*
X264255000Y-263300000D03*
X264255000Y-299300000D03*
X264255000Y-254300000D03*
X264255000Y-245300000D03*
X264255000Y-272300000D03*
X264255000Y-308300000D03*
X264155000Y-240600000D03*
X264255000Y-290300000D03*
X264255000Y-281300000D03*
X200150000Y-233200000D03*
X233500000Y-222600000D03*
X232517500Y-233970500D03*
X233000000Y-224200000D03*
X201000000Y-234100000D03*
X232517500Y-236170500D03*
X233000000Y-222600000D03*
X200100000Y-235000000D03*
X232017500Y-236170500D03*
X232017500Y-233970500D03*
X199500000Y-234100000D03*
X233500000Y-224200000D03*
D35*
X300021751Y-158800000D03*
X309021751Y-158800000D03*
X307721751Y-158700000D03*
X310221751Y-145800000D03*
X307721751Y-157000000D03*
X301221751Y-145800000D03*
X297421751Y-158800000D03*
X306421751Y-158800000D03*
X298621751Y-160700000D03*
X307621751Y-145800000D03*
X298621751Y-158600000D03*
X298621751Y-145800000D03*
X300021751Y-122800000D03*
X309021751Y-122800000D03*
X301221751Y-109800000D03*
X307821751Y-120800000D03*
X307821751Y-123100000D03*
X310221751Y-109800000D03*
X297421751Y-122800000D03*
X306421751Y-122800000D03*
X298621751Y-124700000D03*
X298621751Y-109800000D03*
X298621751Y-122500000D03*
X307621751Y-109800000D03*
D34*
X312021751Y-110300000D03*
X321721751Y-131600000D03*
X299651751Y-209900000D03*
X303021751Y-128300000D03*
D35*
X271721751Y-181900000D03*
D34*
X290771751Y-209900000D03*
X300761751Y-209900000D03*
X303021751Y-164300000D03*
X312021751Y-101300000D03*
X303021751Y-155300000D03*
D35*
X281996751Y-167265000D03*
D34*
X303021751Y-119300000D03*
X312021751Y-137300000D03*
X296321751Y-209900000D03*
X291881751Y-209900000D03*
D35*
X272221751Y-181900000D03*
D34*
X303021751Y-146300000D03*
X303021751Y-137300000D03*
X297431751Y-209900000D03*
X314696751Y-132500000D03*
X298541751Y-209900000D03*
X304091751Y-209900000D03*
X306311751Y-209900000D03*
X312021751Y-119300000D03*
X303021751Y-101300000D03*
X294101751Y-209900000D03*
X312021751Y-128300000D03*
X302981751Y-209900000D03*
X303021751Y-110300000D03*
X301871751Y-209900000D03*
X312021751Y-164300000D03*
X312021751Y-155300000D03*
D35*
X281996751Y-166765000D03*
D34*
X289661751Y-209900000D03*
X321721751Y-131000000D03*
D35*
X271221751Y-181900000D03*
D34*
X314696751Y-131900000D03*
D35*
X281996751Y-166265000D03*
D34*
X295211751Y-209900000D03*
X307421751Y-209900000D03*
X305201751Y-209900000D03*
X292991751Y-209900000D03*
X312021751Y-146300000D03*
X306721751Y-172750000D03*
X321721751Y-132800000D03*
X308021751Y-172750000D03*
X297740501Y-172750000D03*
X321721751Y-133400000D03*
X298390501Y-173850000D03*
X307371751Y-173850000D03*
X299040501Y-172750000D03*
X320271751Y-114900000D03*
X321021751Y-115700000D03*
X306421751Y-150800000D03*
X306421751Y-115800000D03*
X320271751Y-150900000D03*
X321021751Y-116450000D03*
X318771751Y-116450000D03*
X300171751Y-116550000D03*
X320271751Y-115700000D03*
X300171751Y-152550000D03*
X297421751Y-151800000D03*
X321771751Y-115700000D03*
X320271751Y-152450000D03*
X320271751Y-116450000D03*
X318771751Y-114100000D03*
X321021751Y-151700000D03*
X320271751Y-114100000D03*
X309171751Y-116550000D03*
X321771751Y-114100000D03*
X309171751Y-152550000D03*
X309171751Y-114050000D03*
X319521751Y-116450000D03*
X321021751Y-150900000D03*
X321021751Y-152450000D03*
X319521751Y-115700000D03*
X318771751Y-114900000D03*
X321021751Y-150100000D03*
X318771751Y-115700000D03*
X309171751Y-150050000D03*
X321021751Y-114100000D03*
X319521751Y-114900000D03*
X318771751Y-152450000D03*
X321771751Y-152450000D03*
X300171751Y-114050000D03*
X319521751Y-150100000D03*
X321021751Y-114900000D03*
X318771751Y-150900000D03*
X297421751Y-150800000D03*
X319521751Y-151700000D03*
X321771751Y-150900000D03*
X320271751Y-151700000D03*
X318771751Y-150100000D03*
X319521751Y-152450000D03*
X306421751Y-151800000D03*
X321771751Y-114900000D03*
X297421751Y-114800000D03*
X319521751Y-114100000D03*
X297421751Y-115800000D03*
X321771751Y-150100000D03*
X320271751Y-150100000D03*
X318771751Y-151700000D03*
X306421751Y-114800000D03*
X319521751Y-150900000D03*
X300171751Y-150050000D03*
X321771751Y-116450000D03*
X321771751Y-151700000D03*
X304959751Y-153840000D03*
D35*
X309921751Y-117800000D03*
X310383751Y-112760000D03*
D34*
X304959751Y-117840000D03*
D35*
X301383751Y-148760000D03*
X301383751Y-112760000D03*
D34*
X295959751Y-117840000D03*
X295959751Y-112760000D03*
D35*
X300921751Y-117800000D03*
D34*
X295959751Y-148760000D03*
D35*
X300921751Y-153800000D03*
D34*
X295959751Y-153840000D03*
X304959751Y-112760000D03*
X304959751Y-148760000D03*
D35*
X310383751Y-148760000D03*
X309921751Y-153800000D03*
D34*
X299921751Y-155550000D03*
X299921751Y-147050000D03*
X297421751Y-147050000D03*
X297421751Y-155550000D03*
X299921751Y-119550000D03*
X299921751Y-111050000D03*
X297421751Y-111050000D03*
X297421751Y-119550000D03*
X308921751Y-155550000D03*
X308921751Y-147050000D03*
X306421751Y-147050000D03*
X306421751Y-155550000D03*
X308921751Y-119550000D03*
X308921751Y-111050000D03*
X306421751Y-111050000D03*
X306421751Y-119550000D03*
X303671751Y-151300000D03*
X294671751Y-151300000D03*
X303671751Y-115300000D03*
X294671751Y-115300000D03*
D36*
X287341751Y-206100000D02*
X289641751Y-203800000D01*
X272980000Y-206100000D02*
X287341751Y-206100000D01*
X249762500Y-222500000D02*
X249725000Y-222462500D01*
X263155000Y-241055000D02*
X263210000Y-241000000D01*
X250655000Y-222500000D02*
X250412500Y-222500000D01*
X234617500Y-234877500D02*
X234822500Y-235082500D01*
X254155000Y-241055000D02*
X254210000Y-241000000D01*
X250337500Y-222500000D02*
X250375000Y-222462500D01*
X250055000Y-222500000D02*
X250337500Y-222500000D01*
X250655000Y-222092500D02*
X251025000Y-222462500D01*
X202200000Y-235700000D02*
X201632000Y-235700000D01*
X250655000Y-223000000D02*
X250655000Y-222742500D01*
X248387500Y-222500000D02*
X248425000Y-222462500D01*
X235117500Y-234787500D02*
X234822500Y-235082500D01*
X254155000Y-241400000D02*
X254155000Y-241055000D01*
X247955000Y-222500000D02*
X248387500Y-222500000D01*
X250412500Y-222500000D02*
X250375000Y-222462500D01*
X250055000Y-222132500D02*
X249725000Y-222462500D01*
X250655000Y-222000000D02*
X250655000Y-222092500D01*
X234455000Y-226700000D02*
X234455000Y-226055000D01*
X233955000Y-226700000D02*
X233955000Y-226045000D01*
X250655000Y-222500000D02*
X250987500Y-222500000D01*
X234455000Y-226055000D02*
X234200000Y-225800000D01*
X250055000Y-222142500D02*
X250375000Y-222462500D01*
X235117500Y-233970500D02*
X235117500Y-234787500D01*
X250055000Y-223000000D02*
X250055000Y-222792500D01*
X233955000Y-226045000D02*
X234200000Y-225800000D01*
X250987500Y-222500000D02*
X251025000Y-222462500D01*
X262655000Y-241000000D02*
X263210000Y-241000000D01*
X250655000Y-222000000D02*
X250655000Y-222182500D01*
X234617500Y-233970500D02*
X234617500Y-234877500D01*
X263155000Y-241400000D02*
X263155000Y-241055000D01*
X253655000Y-241000000D02*
X254210000Y-241000000D01*
X250655000Y-223000000D02*
X250655000Y-222832500D01*
X250655000Y-222832500D02*
X251025000Y-222462500D01*
X250655000Y-222742500D02*
X250375000Y-222462500D01*
X250055000Y-222000000D02*
X250055000Y-222142500D01*
X250055000Y-222000000D02*
X250055000Y-222132500D01*
X250655000Y-222182500D02*
X250375000Y-222462500D01*
X250055000Y-222782500D02*
X250375000Y-222462500D01*
X250055000Y-222792500D02*
X249725000Y-222462500D01*
X250055000Y-222500000D02*
X249762500Y-222500000D01*
X250055000Y-223000000D02*
X250055000Y-222782500D01*
X248575000Y-238800000D02*
X250375000Y-240600000D01*
X228100000Y-249800000D02*
X239100000Y-238800000D01*
X181935028Y-263710000D02*
X184090000Y-263710000D01*
X184090000Y-263710000D02*
X198000000Y-249800000D01*
X239100000Y-238800000D02*
X248575000Y-238800000D01*
X198000000Y-249800000D02*
X228100000Y-249800000D01*
X181935028Y-268790000D02*
X185725028Y-265000000D01*
X221625000Y-265000000D02*
X239700000Y-246925000D01*
X185725028Y-265000000D02*
X221625000Y-265000000D01*
X181935028Y-271330000D02*
X185665028Y-267600000D01*
X185665028Y-267600000D02*
X228525000Y-267600000D01*
X228525000Y-267600000D02*
X240200000Y-255925000D01*
X230239589Y-274885411D02*
X240200000Y-264925000D01*
X181935028Y-273870000D02*
X182950439Y-274885411D01*
X182950439Y-274885411D02*
X230239589Y-274885411D01*
X182950439Y-277425411D02*
X236699589Y-277425411D01*
X236699589Y-277425411D02*
X240200000Y-273925000D01*
X181935028Y-276410000D02*
X182950439Y-277425411D01*
X181935028Y-278950000D02*
X182950439Y-279965411D01*
X237240411Y-279965411D02*
X240200000Y-282925000D01*
X182950439Y-279965411D02*
X237240411Y-279965411D01*
X183459617Y-283014589D02*
X197595626Y-283014589D01*
X181935028Y-281490000D02*
X183459617Y-283014589D01*
X206506037Y-291925000D02*
X240200000Y-291925000D01*
X197595626Y-283014589D02*
X206506037Y-291925000D01*
X181935028Y-284030000D02*
X186330000Y-284030000D01*
X186330000Y-284030000D02*
X199200000Y-296900000D01*
X236175000Y-296900000D02*
X240200000Y-300925000D01*
X199200000Y-296900000D02*
X236175000Y-296900000D01*
X186170000Y-286570000D02*
X198000000Y-298400000D01*
X228675000Y-298400000D02*
X240200000Y-309925000D01*
X181935028Y-286570000D02*
X186170000Y-286570000D01*
X198000000Y-298400000D02*
X228675000Y-298400000D01*
X251755000Y-220700000D02*
X252325000Y-221270000D01*
X231280000Y-208380000D02*
X231280000Y-206100000D01*
X244100000Y-221200000D02*
X231280000Y-208380000D01*
X197175028Y-271330000D02*
X199930000Y-271330000D01*
X244100000Y-221200000D02*
X244600000Y-220700000D01*
X202900000Y-272000000D02*
X200600000Y-272000000D01*
X199930000Y-271330000D02*
X200600000Y-272000000D01*
X252325000Y-221270000D02*
X252325000Y-222462500D01*
X205200000Y-269700000D02*
X202900000Y-272000000D01*
X244600000Y-220700000D02*
X251755000Y-220700000D01*
X251700000Y-222437500D02*
X251675000Y-222462500D01*
X251700000Y-221400000D02*
X251700000Y-222437500D01*
X197175028Y-268790000D02*
X198965000Y-268790000D01*
X200600000Y-270425000D02*
X202675000Y-270425000D01*
X202675000Y-270425000D02*
X204300000Y-268800000D01*
X198965000Y-268790000D02*
X200600000Y-270425000D01*
X253437500Y-222000000D02*
X252975000Y-222462500D01*
X253455000Y-222500000D02*
X253012500Y-222500000D01*
X253012500Y-222500000D02*
X252975000Y-222462500D01*
X241455000Y-276900000D02*
X240817500Y-276900000D01*
X253455000Y-223000000D02*
X253455000Y-222942500D01*
X241455000Y-294900000D02*
X240817500Y-294900000D01*
X241455000Y-258400000D02*
X240842500Y-258400000D01*
X241455000Y-240400000D02*
X240842500Y-240400000D01*
X241455000Y-240900000D02*
X240817500Y-240900000D01*
X241455000Y-249400000D02*
X240842500Y-249400000D01*
X241455000Y-303400000D02*
X240842500Y-303400000D01*
X241455000Y-267400000D02*
X240842500Y-267400000D01*
X240842500Y-294400000D02*
X240580000Y-294662500D01*
X241455000Y-285900000D02*
X240817500Y-285900000D01*
X240817500Y-240900000D02*
X240580000Y-240662500D01*
X240817500Y-267900000D02*
X240580000Y-267662500D01*
X241455000Y-267900000D02*
X240817500Y-267900000D01*
X240842500Y-276400000D02*
X240580000Y-276662500D01*
X240842500Y-303400000D02*
X240580000Y-303662500D01*
X241455000Y-294400000D02*
X240842500Y-294400000D01*
X240817500Y-294900000D02*
X240580000Y-294662500D01*
X241455000Y-249900000D02*
X240817500Y-249900000D01*
X240842500Y-285400000D02*
X240580000Y-285662500D01*
X240842500Y-258400000D02*
X240580000Y-258662500D01*
X240842500Y-249400000D02*
X240580000Y-249662500D01*
X240842500Y-267400000D02*
X240580000Y-267662500D01*
X240842500Y-240400000D02*
X240580000Y-240662500D01*
X240817500Y-285900000D02*
X240580000Y-285662500D01*
X253455000Y-222942500D02*
X252975000Y-222462500D01*
X240817500Y-258900000D02*
X240580000Y-258662500D01*
X202400000Y-233300000D02*
X201625000Y-233300000D01*
X241455000Y-303900000D02*
X240817500Y-303900000D01*
X240817500Y-249900000D02*
X240580000Y-249662500D01*
X253455000Y-222000000D02*
X253437500Y-222000000D01*
X241455000Y-258900000D02*
X240817500Y-258900000D01*
X241455000Y-285400000D02*
X240842500Y-285400000D01*
X241455000Y-276400000D02*
X240842500Y-276400000D01*
X240817500Y-276900000D02*
X240580000Y-276662500D01*
X240817500Y-303900000D02*
X240580000Y-303662500D01*
D37*
X241530000Y-242537500D02*
X248884500Y-242537500D01*
X249875000Y-243528000D02*
X249875000Y-245340000D01*
X258875000Y-243528000D02*
X258875000Y-245340000D01*
X248884500Y-242537500D02*
X249875000Y-243528000D01*
X257884500Y-242537500D02*
X258875000Y-243528000D01*
X248884500Y-242537500D02*
X257884500Y-242537500D01*
D38*
X251895000Y-245340000D02*
X251895000Y-246139822D01*
X252680178Y-246925000D02*
X255200000Y-246925000D01*
X251895000Y-246139822D02*
X252680178Y-246925000D01*
X251895000Y-255139822D02*
X252680178Y-255925000D01*
X251895000Y-254340000D02*
X251895000Y-255139822D01*
X252680178Y-255925000D02*
X255200000Y-255925000D01*
D37*
X248884500Y-251537500D02*
X249875000Y-252528000D01*
X258875000Y-252528000D02*
X258875000Y-254340000D01*
X249875000Y-252528000D02*
X249875000Y-254340000D01*
X257884500Y-251537500D02*
X258875000Y-252528000D01*
X241530000Y-251537500D02*
X248884500Y-251537500D01*
X248884500Y-251537500D02*
X257884500Y-251537500D01*
D38*
X251895000Y-263340000D02*
X251895000Y-264139822D01*
X252680178Y-264925000D02*
X255200000Y-264925000D01*
X251895000Y-264139822D02*
X252680178Y-264925000D01*
X252680178Y-273925000D02*
X255200000Y-273925000D01*
X251895000Y-272340000D02*
X251895000Y-273139822D01*
X251895000Y-273139822D02*
X252680178Y-273925000D01*
D37*
X257884500Y-260537500D02*
X258875000Y-261528000D01*
X241530000Y-260537500D02*
X248884500Y-260537500D01*
X258875000Y-261528000D02*
X258875000Y-263340000D01*
X248884500Y-260537500D02*
X249875000Y-261528000D01*
X249875000Y-261528000D02*
X249875000Y-263340000D01*
X248884500Y-260537500D02*
X257884500Y-260537500D01*
D38*
X251895000Y-281340000D02*
X251895000Y-282139822D01*
X251895000Y-282139822D02*
X252680178Y-282925000D01*
X252680178Y-282925000D02*
X255200000Y-282925000D01*
X251895000Y-290340000D02*
X251895000Y-291139822D01*
X252680178Y-291925000D02*
X255200000Y-291925000D01*
X251895000Y-291139822D02*
X252680178Y-291925000D01*
D37*
X248884500Y-269537500D02*
X249875000Y-270528000D01*
X249875000Y-270528000D02*
X249875000Y-272340000D01*
X241530000Y-269537500D02*
X248884500Y-269537500D01*
X257884500Y-269537500D02*
X258875000Y-270528000D01*
X258875000Y-270528000D02*
X258875000Y-272340000D01*
X248884500Y-269537500D02*
X257884500Y-269537500D01*
D38*
X252680178Y-300925000D02*
X255200000Y-300925000D01*
X251895000Y-300139822D02*
X252680178Y-300925000D01*
X251895000Y-299340000D02*
X251895000Y-300139822D01*
X251895000Y-309139822D02*
X252680178Y-309925000D01*
X252680178Y-309925000D02*
X255200000Y-309925000D01*
X251895000Y-308340000D02*
X251895000Y-309139822D01*
D37*
X248692500Y-278537500D02*
X249875000Y-279720000D01*
X258875000Y-279528000D02*
X258875000Y-281340000D01*
X249875000Y-279720000D02*
X249875000Y-281340000D01*
X257884500Y-278537500D02*
X258875000Y-279528000D01*
X248692500Y-278537500D02*
X257884500Y-278537500D01*
X241530000Y-278537500D02*
X248692500Y-278537500D01*
D38*
X260895000Y-245340000D02*
X260895000Y-246139822D01*
X260895000Y-246139822D02*
X261680178Y-246925000D01*
X261680178Y-246925000D02*
X264200000Y-246925000D01*
X260895000Y-254340000D02*
X260895000Y-255139822D01*
X260895000Y-255139822D02*
X261680178Y-255925000D01*
X261680178Y-255925000D02*
X264200000Y-255925000D01*
D37*
X248884500Y-287537500D02*
X257884500Y-287537500D01*
X249875000Y-288528000D02*
X249875000Y-290340000D01*
X258875000Y-288528000D02*
X258875000Y-290340000D01*
X248884500Y-287537500D02*
X249875000Y-288528000D01*
X241530000Y-287537500D02*
X248884500Y-287537500D01*
X257884500Y-287537500D02*
X258875000Y-288528000D01*
D38*
X261680178Y-264925000D02*
X264200000Y-264925000D01*
X260895000Y-264139822D02*
X261680178Y-264925000D01*
X260895000Y-263340000D02*
X260895000Y-264139822D01*
X260895000Y-272340000D02*
X260895000Y-273139822D01*
X260895000Y-273139822D02*
X261680178Y-273925000D01*
X261680178Y-273925000D02*
X264200000Y-273925000D01*
D37*
X257884500Y-296537500D02*
X258875000Y-297528000D01*
X248884500Y-296537500D02*
X257884500Y-296537500D01*
X248617500Y-296537500D02*
X248884500Y-296537500D01*
X258875000Y-297528000D02*
X258875000Y-299340000D01*
X249875000Y-297528000D02*
X249875000Y-299340000D01*
X241530000Y-296537500D02*
X248617500Y-296537500D01*
X248884500Y-296537500D02*
X249875000Y-297528000D01*
D38*
X260895000Y-282139822D02*
X261680178Y-282925000D01*
X260895000Y-281340000D02*
X260895000Y-282139822D01*
X261680178Y-282925000D02*
X264200000Y-282925000D01*
X260895000Y-290340000D02*
X260895000Y-291139822D01*
X261680178Y-291925000D02*
X264200000Y-291925000D01*
X260895000Y-291139822D02*
X261680178Y-291925000D01*
D37*
X241530000Y-305537500D02*
X248884500Y-305537500D01*
X248884500Y-305537500D02*
X249875000Y-306528000D01*
X249875000Y-306528000D02*
X249875000Y-308340000D01*
X248884500Y-305537500D02*
X257884500Y-305537500D01*
X257884500Y-305537500D02*
X258875000Y-306528000D01*
X258875000Y-306528000D02*
X258875000Y-308340000D01*
D38*
X261680178Y-300925000D02*
X264200000Y-300925000D01*
X260895000Y-299340000D02*
X260895000Y-300139822D01*
X260895000Y-300139822D02*
X261680178Y-300925000D01*
X260895000Y-309139822D02*
X261680178Y-309925000D01*
X260895000Y-308340000D02*
X260895000Y-309139822D01*
X261680178Y-309925000D02*
X264200000Y-309925000D01*
D36*
X240200000Y-254275000D02*
X240200000Y-252107500D01*
X240200000Y-252107500D02*
X239630000Y-251537500D01*
X240200000Y-270107500D02*
X239630000Y-269537500D01*
X240200000Y-272275000D02*
X240200000Y-270107500D01*
X240200000Y-297107500D02*
X239630000Y-296537500D01*
X240200000Y-299275000D02*
X240200000Y-297107500D01*
D38*
X252025000Y-240600000D02*
X252425000Y-240200000D01*
X252425000Y-240200000D02*
X254210000Y-240200000D01*
D36*
X310383751Y-151300000D02*
X309171751Y-151300000D01*
X308921751Y-170400000D02*
X308321751Y-169800000D01*
X307721751Y-170400000D02*
X308321751Y-169800000D01*
X310383751Y-115300000D02*
X309171751Y-115300000D01*
X307721751Y-170800000D02*
X307721751Y-170400000D01*
X308921751Y-170800000D02*
X308921751Y-170400000D01*
X301383751Y-151300000D02*
X300171751Y-151300000D01*
X299884251Y-170804627D02*
X299884251Y-170404627D01*
X298684251Y-170804627D02*
X298684251Y-170404627D01*
X299884251Y-170404627D02*
X299284251Y-169804627D01*
X301383751Y-115300000D02*
X300171751Y-115300000D01*
X298684251Y-170404627D02*
X299284251Y-169804627D01*
X253617500Y-216737500D02*
X255200000Y-215155000D01*
X252975000Y-216737500D02*
X253617500Y-216737500D01*
X255200000Y-215155000D02*
X255200000Y-206100000D01*
X252325000Y-216737500D02*
X252325000Y-217325000D01*
X253600000Y-217800000D02*
X257740000Y-213660000D01*
X252800000Y-217800000D02*
X253600000Y-217800000D01*
X257740000Y-213660000D02*
X257740000Y-206100000D01*
X252325000Y-217325000D02*
X252800000Y-217800000D01*
X251675000Y-216737500D02*
X251675000Y-217271071D01*
X251675000Y-217271071D02*
X252603929Y-218200000D01*
X254455000Y-218200000D02*
X260280000Y-212375000D01*
X260280000Y-212375000D02*
X260280000Y-206100000D01*
X252603929Y-218200000D02*
X254455000Y-218200000D01*
X262820000Y-211180000D02*
X262820000Y-206100000D01*
X251025000Y-216737500D02*
X251025000Y-217271071D01*
X255400000Y-218600000D02*
X262820000Y-211180000D01*
X252353929Y-218600000D02*
X255400000Y-218600000D01*
X251025000Y-217271071D02*
X252353929Y-218600000D01*
X250375000Y-217271071D02*
X252103929Y-219000000D01*
X252103929Y-219000000D02*
X256400000Y-219000000D01*
X250375000Y-216737500D02*
X250375000Y-217271071D01*
X256400000Y-219000000D02*
X265360000Y-210040000D01*
X265360000Y-210040000D02*
X265360000Y-206100000D01*
X249725000Y-216737500D02*
X249725000Y-217271071D01*
X257300000Y-219400000D02*
X267900000Y-208800000D01*
X251853929Y-219400000D02*
X257300000Y-219400000D01*
X267900000Y-208800000D02*
X267900000Y-206100000D01*
X249725000Y-217271071D02*
X251853929Y-219400000D01*
X270440000Y-207560000D02*
X270440000Y-206100000D01*
X258200000Y-219800000D02*
X270440000Y-207560000D01*
X249075000Y-216737500D02*
X249075000Y-217271071D01*
X249075000Y-217271071D02*
X251603929Y-219800000D01*
X251603929Y-219800000D02*
X258200000Y-219800000D01*
X272980000Y-206220000D02*
X272980000Y-206100000D01*
X251353929Y-220200000D02*
X259000000Y-220200000D01*
X259000000Y-220200000D02*
X272980000Y-206220000D01*
X248425000Y-217271071D02*
X251353929Y-220200000D01*
X248425000Y-216737500D02*
X248425000Y-217271071D01*
X197900000Y-248300000D02*
X227900000Y-248300000D01*
X227900000Y-248300000D02*
X238600000Y-237600000D01*
X238600000Y-237600000D02*
X256375000Y-237600000D01*
X180919617Y-262780383D02*
X181500000Y-262200000D01*
X180919617Y-265234589D02*
X180919617Y-262780383D01*
X181935028Y-266250000D02*
X180919617Y-265234589D01*
X184000000Y-262200000D02*
X197900000Y-248300000D01*
X256375000Y-237600000D02*
X259375000Y-240600000D01*
X181500000Y-262200000D02*
X184000000Y-262200000D01*
X200800000Y-235200000D02*
X201632000Y-235200000D01*
D38*
X199800000Y-236200000D02*
X200600000Y-236200000D01*
X200600000Y-236200000D02*
X201800000Y-237400000D01*
D36*
X199800000Y-236200000D02*
X200800000Y-235200000D01*
X203700000Y-237400000D02*
X203700000Y-236100000D01*
X203700000Y-236100000D02*
X203300000Y-235700000D01*
X232017500Y-236170500D02*
X232017500Y-235347500D01*
X233500000Y-224200000D02*
X233500000Y-223650000D01*
X232017500Y-233970500D02*
X232017500Y-234817500D01*
D38*
X200100000Y-234150000D02*
X200150000Y-234100000D01*
D36*
X200150000Y-234100000D02*
X201032000Y-234100000D01*
X232017500Y-234817500D02*
X232282500Y-235082500D01*
X233500000Y-222600000D02*
X233500000Y-223150000D01*
X233000000Y-223650000D02*
X233250000Y-223400000D01*
X232517500Y-236170500D02*
X232517500Y-235317500D01*
X233000000Y-224200000D02*
X233000000Y-223650000D01*
X201032000Y-234100000D02*
X201632000Y-234700000D01*
X233000000Y-222600000D02*
X233000000Y-223150000D01*
D38*
X199500000Y-234100000D02*
X200150000Y-234100000D01*
D36*
X233000000Y-223150000D02*
X233250000Y-223400000D01*
X232517500Y-233970500D02*
X232517500Y-234847500D01*
X232517500Y-235317500D02*
X232282500Y-235082500D01*
X233500000Y-223650000D02*
X233250000Y-223400000D01*
X233500000Y-223150000D02*
X233250000Y-223400000D01*
X232017500Y-235347500D02*
X232282500Y-235082500D01*
D38*
X200150000Y-233200000D02*
X200150000Y-234100000D01*
D36*
X232517500Y-234847500D02*
X232282500Y-235082500D01*
D38*
X200100000Y-235000000D02*
X200100000Y-234150000D01*
D36*
X203275000Y-234675000D02*
X203300000Y-234700000D01*
X203275000Y-233300000D02*
X203275000Y-234675000D01*
X203275000Y-233300000D02*
X204725000Y-233300000D01*
X204725000Y-233300000D02*
X204750000Y-233275000D01*
X249075000Y-222996071D02*
X247621071Y-224450000D01*
X247621071Y-224450000D02*
X235150000Y-224450000D01*
X235150000Y-224450000D02*
X235150000Y-223400000D01*
X235150000Y-225800000D02*
X235150000Y-224450000D01*
X249075000Y-222462500D02*
X249075000Y-222996071D01*
X235150000Y-217650000D02*
X228740000Y-211240000D01*
X235150000Y-223400000D02*
X235150000Y-217650000D01*
X228740000Y-211240000D02*
X228740000Y-206100000D01*
X309021751Y-158800000D02*
X309021751Y-158200000D01*
X308621751Y-157800000D02*
X301021751Y-157800000D01*
X301021751Y-157800000D02*
X300021751Y-158800000D01*
X310821751Y-200400000D02*
X307421751Y-203800000D01*
X309021751Y-158800000D02*
X309021751Y-167700000D01*
X310821751Y-169500000D02*
X310821751Y-200400000D01*
X309021751Y-158200000D02*
X308621751Y-157800000D01*
X309021751Y-167700000D02*
X310821751Y-169500000D01*
X309621751Y-146400000D02*
X310221751Y-145800000D01*
X307721751Y-146400000D02*
X309621751Y-146400000D01*
X304881751Y-169860000D02*
X304881751Y-203800000D01*
X307721751Y-146400000D02*
X307721751Y-157000000D01*
X304721751Y-169700000D02*
X304881751Y-169860000D01*
X301621751Y-145400000D02*
X305821751Y-145400000D01*
X305821751Y-145400000D02*
X306821751Y-146400000D01*
X306821751Y-146400000D02*
X307721751Y-146400000D01*
X307721751Y-158700000D02*
X307721751Y-166700000D01*
X301221751Y-145800000D02*
X301621751Y-145400000D01*
X307721751Y-166700000D02*
X304721751Y-169700000D01*
X301421751Y-202880000D02*
X302341751Y-203800000D01*
X301421751Y-159600000D02*
X301421751Y-202880000D01*
X305621751Y-159600000D02*
X301421751Y-159600000D01*
X298221751Y-159600000D02*
X297421751Y-158800000D01*
X301421751Y-159600000D02*
X298221751Y-159600000D01*
X306421751Y-158800000D02*
X305621751Y-159600000D01*
X299821751Y-144600000D02*
X298621751Y-145800000D01*
X307621751Y-145800000D02*
X306421751Y-144600000D01*
X298621751Y-160700000D02*
X298621751Y-167200000D01*
X298621751Y-167200000D02*
X296121751Y-169700000D01*
X296121751Y-200120000D02*
X299801751Y-203800000D01*
X298621751Y-145800000D02*
X298621751Y-158600000D01*
X306421751Y-144600000D02*
X299821751Y-144600000D01*
X296121751Y-169700000D02*
X296121751Y-200120000D01*
X293821751Y-143100000D02*
X293821751Y-200360000D01*
X309021751Y-127900000D02*
X293821751Y-143100000D01*
X301021751Y-121800000D02*
X300021751Y-122800000D01*
X308621751Y-121800000D02*
X301021751Y-121800000D01*
X309021751Y-122800000D02*
X309021751Y-127900000D01*
X309021751Y-122800000D02*
X309021751Y-122200000D01*
X309021751Y-122200000D02*
X308621751Y-121800000D01*
X293821751Y-200360000D02*
X297261751Y-203800000D01*
X307821751Y-123100000D02*
X307821751Y-126400000D01*
X309621751Y-110400000D02*
X310221751Y-109800000D01*
X305821751Y-109400000D02*
X306821751Y-110400000D01*
X292321751Y-141900000D02*
X292321751Y-201400000D01*
X307821751Y-126400000D02*
X292321751Y-141900000D01*
X307821751Y-110400000D02*
X307821751Y-120800000D01*
X306821751Y-110400000D02*
X307821751Y-110400000D01*
X307821751Y-110400000D02*
X309621751Y-110400000D01*
X301621751Y-109400000D02*
X305821751Y-109400000D01*
X301221751Y-109800000D02*
X301621751Y-109400000D01*
X292321751Y-201400000D02*
X294721751Y-203800000D01*
X298221751Y-123600000D02*
X297421751Y-122800000D01*
X300221751Y-130400000D02*
X290821751Y-139800000D01*
X300221751Y-123600000D02*
X300221751Y-130400000D01*
X300221751Y-123600000D02*
X298221751Y-123600000D01*
X305621751Y-123600000D02*
X300221751Y-123600000D01*
X306421751Y-122800000D02*
X305621751Y-123600000D01*
X290821751Y-139800000D02*
X290821751Y-202440000D01*
X290821751Y-202440000D02*
X292181751Y-203800000D01*
X298621751Y-124700000D02*
X298621751Y-127700000D01*
X299821751Y-108600000D02*
X298621751Y-109800000D01*
X298621751Y-127700000D02*
X288921751Y-137400000D01*
X307621751Y-109800000D02*
X306421751Y-108600000D01*
X306421751Y-108600000D02*
X299821751Y-108600000D01*
X288921751Y-137400000D02*
X288921751Y-203080000D01*
X298621751Y-109800000D02*
X298621751Y-122500000D01*
X288921751Y-203080000D02*
X289641751Y-203800000D01*
X305651751Y-116570000D02*
X306421751Y-115800000D01*
X301383751Y-152570000D02*
X300191751Y-152570000D01*
D37*
X304959751Y-152570000D02*
X301383751Y-152570000D01*
D36*
X305651751Y-152570000D02*
X306421751Y-151800000D01*
X301383751Y-116570000D02*
X300191751Y-116570000D01*
X310383751Y-150030000D02*
X309191751Y-150030000D01*
X304959751Y-150030000D02*
X305651751Y-150030000D01*
X305651751Y-150030000D02*
X306421751Y-150800000D01*
D37*
X304959751Y-114030000D02*
X301383751Y-114030000D01*
D36*
X296651751Y-150030000D02*
X297421751Y-150800000D01*
D37*
X304959751Y-116570000D02*
X301383751Y-116570000D01*
D36*
X301383751Y-150030000D02*
X300191751Y-150030000D01*
X309191751Y-152570000D02*
X309171751Y-152550000D01*
X310383751Y-152570000D02*
X309191751Y-152570000D01*
X304959751Y-152570000D02*
X305651751Y-152570000D01*
X301383751Y-114030000D02*
X300191751Y-114030000D01*
X310383751Y-114030000D02*
X309191751Y-114030000D01*
X305651751Y-114030000D02*
X306421751Y-114800000D01*
D37*
X304959751Y-150030000D02*
X301383751Y-150030000D01*
D36*
X296651751Y-116570000D02*
X297421751Y-115800000D01*
X310383751Y-116570000D02*
X309191751Y-116570000D01*
X296651751Y-114030000D02*
X297421751Y-114800000D01*
X309191751Y-150030000D02*
X309171751Y-150050000D01*
X296651751Y-152570000D02*
X297421751Y-151800000D01*
X233535000Y-227935000D02*
X233535000Y-229588000D01*
X233250000Y-227650000D02*
X233535000Y-227935000D01*
X233250000Y-225800000D02*
X233250000Y-227650000D01*
X240200000Y-306107500D02*
X239630000Y-305537500D01*
X240200000Y-308275000D02*
X240200000Y-306107500D01*
X240200000Y-290275000D02*
X240200000Y-288107500D01*
X240200000Y-288107500D02*
X239630000Y-287537500D01*
X240200000Y-279107500D02*
X239630000Y-278537500D01*
X240200000Y-281275000D02*
X240200000Y-279107500D01*
X240200000Y-261107500D02*
X239630000Y-260537500D01*
X240200000Y-263275000D02*
X240200000Y-261107500D01*
D38*
X261425000Y-240200000D02*
X263210000Y-240200000D01*
X261025000Y-240600000D02*
X261425000Y-240200000D01*
D36*
X239700000Y-245275000D02*
X239700000Y-242607500D01*
X239700000Y-242607500D02*
X239630000Y-242537500D01*
X300943751Y-155550000D02*
X301383751Y-155110000D01*
X299921751Y-155550000D02*
X300943751Y-155550000D01*
X299921751Y-147050000D02*
X300943751Y-147050000D01*
X300943751Y-147050000D02*
X301383751Y-147490000D01*
X296399751Y-147050000D02*
X295959751Y-147490000D01*
X297421751Y-147050000D02*
X296399751Y-147050000D01*
X296399751Y-155550000D02*
X295959751Y-155110000D01*
X297421751Y-155550000D02*
X296399751Y-155550000D01*
X299921751Y-119550000D02*
X300943751Y-119550000D01*
X300943751Y-119550000D02*
X301383751Y-119110000D01*
X299921751Y-111050000D02*
X300943751Y-111050000D01*
X300943751Y-111050000D02*
X301383751Y-111490000D01*
X296399751Y-111050000D02*
X295959751Y-111490000D01*
X297421751Y-111050000D02*
X296399751Y-111050000D01*
X297421751Y-119550000D02*
X296399751Y-119550000D01*
X296399751Y-119550000D02*
X295959751Y-119110000D01*
X309943751Y-155550000D02*
X310383751Y-155110000D01*
X308921751Y-155550000D02*
X309943751Y-155550000D01*
X309943751Y-147050000D02*
X310383751Y-147490000D01*
X308921751Y-147050000D02*
X309943751Y-147050000D01*
X306421751Y-147050000D02*
X305399751Y-147050000D01*
X305399751Y-147050000D02*
X304959751Y-147490000D01*
X305399751Y-155550000D02*
X304959751Y-155110000D01*
X306421751Y-155550000D02*
X305399751Y-155550000D01*
X309943751Y-119550000D02*
X310383751Y-119110000D01*
X308921751Y-119550000D02*
X309943751Y-119550000D01*
X308921751Y-111050000D02*
X309943751Y-111050000D01*
X309943751Y-111050000D02*
X310383751Y-111490000D01*
X305399751Y-111050000D02*
X304959751Y-111490000D01*
X306421751Y-111050000D02*
X305399751Y-111050000D01*
X306421751Y-119550000D02*
X305399751Y-119550000D01*
X305399751Y-119550000D02*
X304959751Y-119110000D01*
X304959751Y-151300000D02*
X303671751Y-151300000D01*
X304959751Y-115300000D02*
X303671751Y-115300000D01*
X295959751Y-151300000D02*
X294671751Y-151300000D01*
X295959751Y-115300000D02*
X294671751Y-115300000D01*
%TA.AperFunction,Conductor*%
G36*
X197412172Y-238702421D02*
G01*
X197490225Y-238717947D01*
X197535642Y-238736759D01*
X197591295Y-238773945D01*
X197626055Y-238808705D01*
X197663241Y-238864358D01*
X197682054Y-238909777D01*
X197697579Y-238987829D01*
X197700000Y-239012410D01*
X197700000Y-240987590D01*
X197697579Y-241012171D01*
X197682054Y-241090223D01*
X197663241Y-241135642D01*
X197626056Y-241191294D01*
X197591295Y-241226055D01*
X197535642Y-241263241D01*
X197490225Y-241282053D01*
X197421875Y-241295649D01*
X197412171Y-241297579D01*
X197387590Y-241300000D01*
X196212410Y-241300000D01*
X196187829Y-241297579D01*
X196178125Y-241295649D01*
X196109775Y-241282053D01*
X196064358Y-241263241D01*
X196008705Y-241226055D01*
X195973944Y-241191294D01*
X195936759Y-241135642D01*
X195917946Y-241090223D01*
X195902421Y-241012171D01*
X195900000Y-240987590D01*
X195900000Y-239012410D01*
X195902421Y-238987829D01*
X195917946Y-238909777D01*
X195936759Y-238864358D01*
X195973945Y-238808705D01*
X196008705Y-238773945D01*
X196064358Y-238736759D01*
X196109775Y-238717947D01*
X196187828Y-238702421D01*
X196212410Y-238700000D01*
X197387590Y-238700000D01*
X197412172Y-238702421D01*
G37*
%TD.AperFunction*%
%TA.AperFunction,Conductor*%
G36*
X198512172Y-232802421D02*
G01*
X198590225Y-232817947D01*
X198635642Y-232836759D01*
X198691295Y-232873945D01*
X198726055Y-232908705D01*
X198763241Y-232964358D01*
X198782054Y-233009777D01*
X198797579Y-233087829D01*
X198800000Y-233112410D01*
X198800000Y-235087590D01*
X198797579Y-235112171D01*
X198782054Y-235190223D01*
X198763241Y-235235642D01*
X198726056Y-235291294D01*
X198691295Y-235326055D01*
X198635642Y-235363241D01*
X198590225Y-235382053D01*
X198521876Y-235395649D01*
X198512171Y-235397579D01*
X198487590Y-235400000D01*
X197312410Y-235400000D01*
X197287829Y-235397579D01*
X197278124Y-235395649D01*
X197209775Y-235382053D01*
X197164358Y-235363241D01*
X197108705Y-235326055D01*
X197073944Y-235291294D01*
X197036759Y-235235642D01*
X197017946Y-235190223D01*
X197002421Y-235112171D01*
X197000000Y-235087590D01*
X197000000Y-233112410D01*
X197002421Y-233087829D01*
X197017946Y-233009777D01*
X197036759Y-232964358D01*
X197073945Y-232908705D01*
X197108705Y-232873945D01*
X197164358Y-232836759D01*
X197209775Y-232817947D01*
X197287828Y-232802421D01*
X197312410Y-232800000D01*
X198487590Y-232800000D01*
X198512172Y-232802421D01*
G37*
%TD.AperFunction*%
%TA.AperFunction,Conductor*%
G36*
X203512172Y-238702421D02*
G01*
X203590225Y-238717947D01*
X203635642Y-238736759D01*
X203691295Y-238773945D01*
X203726055Y-238808705D01*
X203763241Y-238864358D01*
X203782054Y-238909777D01*
X203797579Y-238987829D01*
X203800000Y-239012410D01*
X203800000Y-240987590D01*
X203797579Y-241012171D01*
X203782054Y-241090223D01*
X203763241Y-241135642D01*
X203726056Y-241191294D01*
X203691295Y-241226055D01*
X203635642Y-241263241D01*
X203590225Y-241282053D01*
X203521875Y-241295649D01*
X203512171Y-241297579D01*
X203487590Y-241300000D01*
X202312410Y-241300000D01*
X202287829Y-241297579D01*
X202278125Y-241295649D01*
X202209775Y-241282053D01*
X202164358Y-241263241D01*
X202108705Y-241226055D01*
X202073944Y-241191294D01*
X202036759Y-241135642D01*
X202017946Y-241090223D01*
X202002421Y-241012171D01*
X202000000Y-240987590D01*
X202000000Y-239012410D01*
X202002421Y-238987829D01*
X202017946Y-238909777D01*
X202036759Y-238864358D01*
X202073945Y-238808705D01*
X202108705Y-238773945D01*
X202164358Y-238736759D01*
X202209775Y-238717947D01*
X202287828Y-238702421D01*
X202312410Y-238700000D01*
X203487590Y-238700000D01*
X203512172Y-238702421D01*
G37*
%TD.AperFunction*%
%TA.AperFunction,Conductor*%
G36*
X200912172Y-237602421D02*
G01*
X200990225Y-237617947D01*
X201035642Y-237636759D01*
X201091295Y-237673945D01*
X201126055Y-237708705D01*
X201163241Y-237764358D01*
X201182054Y-237809778D01*
X201197273Y-237886293D01*
X201199357Y-237901658D01*
X201199500Y-237903608D01*
X201199500Y-237908218D01*
X201199833Y-237910480D01*
X201200000Y-237915046D01*
X201200000Y-240787590D01*
X201197579Y-240812171D01*
X201182054Y-240890223D01*
X201163241Y-240935642D01*
X201126056Y-240991294D01*
X201091295Y-241026055D01*
X201035642Y-241063241D01*
X200990225Y-241082053D01*
X200921876Y-241095649D01*
X200912171Y-241097579D01*
X200887590Y-241100000D01*
X198712410Y-241100000D01*
X198687829Y-241097579D01*
X198678124Y-241095649D01*
X198609775Y-241082053D01*
X198564358Y-241063241D01*
X198508705Y-241026055D01*
X198473944Y-240991294D01*
X198436759Y-240935642D01*
X198417946Y-240890223D01*
X198402421Y-240812171D01*
X198400000Y-240787590D01*
X198400000Y-237912410D01*
X198402421Y-237887829D01*
X198417946Y-237809777D01*
X198436759Y-237764358D01*
X198473945Y-237708705D01*
X198508705Y-237673945D01*
X198564358Y-237636759D01*
X198609775Y-237617947D01*
X198687828Y-237602421D01*
X198712410Y-237600000D01*
X200887590Y-237600000D01*
X200912172Y-237602421D01*
G37*
%TD.AperFunction*%
%TA.AperFunction,Conductor*%
G36*
X205412172Y-234302421D02*
G01*
X205490225Y-234317947D01*
X205535642Y-234336759D01*
X205591295Y-234373945D01*
X205626055Y-234408705D01*
X205663241Y-234464358D01*
X205682054Y-234509777D01*
X205697579Y-234587829D01*
X205700000Y-234612410D01*
X205700000Y-235487590D01*
X205697579Y-235512171D01*
X205682054Y-235590223D01*
X205663241Y-235635642D01*
X205626056Y-235691294D01*
X205591295Y-235726055D01*
X205535642Y-235763241D01*
X205490225Y-235782053D01*
X205421876Y-235795649D01*
X205412171Y-235797579D01*
X205387590Y-235800000D01*
X204212410Y-235800000D01*
X204187829Y-235797579D01*
X204178124Y-235795649D01*
X204109775Y-235782053D01*
X204064358Y-235763241D01*
X204008705Y-235726055D01*
X203973944Y-235691294D01*
X203936759Y-235635642D01*
X203917946Y-235590223D01*
X203902421Y-235512171D01*
X203900000Y-235487590D01*
X203900000Y-234612410D01*
X203902421Y-234587829D01*
X203917946Y-234509777D01*
X203936759Y-234464358D01*
X203973945Y-234408705D01*
X204008705Y-234373945D01*
X204064358Y-234336759D01*
X204109775Y-234317947D01*
X204187828Y-234302421D01*
X204212410Y-234300000D01*
X205387590Y-234300000D01*
X205412172Y-234302421D01*
G37*
%TD.AperFunction*%
M02*
