M48
; DRILL file {KiCad (6.0.5)} date Tue Jul 12 00:37:33 2022
; FORMAT={-:-/ absolute / metric / decimal}
; #@! TF.CreationDate,2022-07-12T00:37:33-04:00
; #@! TF.GenerationSoftware,Kicad,Pcbnew,(6.0.5)
; #@! TF.FileFunction,Plated,1,4,PTH
FMAT,2
METRIC
; #@! TA.AperFunction,Plated,PTH,ViaDrill
T1C0.229
; #@! TA.AperFunction,Plated,PTH,ViaDrill
T2C0.229
; #@! TA.AperFunction,Plated,PTH,ComponentDrill
T3C0.730
; #@! TA.AperFunction,Plated,PTH,ComponentDrill
T4C1.000
; #@! TA.AperFunction,Plated,PTH,ComponentDrill
T5C3.640
%
G90
G05
T1
X196.2Y-239.5
X196.2Y-240.1
X196.2Y-240.7
X196.6Y-238.9
X196.6Y-241.1
X197.2Y-238.9
X197.2Y-241.1
X197.4Y-233.6
X197.4Y-234.2
X197.4Y-234.8
X197.8Y-233.0
X197.8Y-235.2
X198.4Y-233.0
X198.4Y-235.2
X198.6Y-239.0
X199.2Y-239.0
X199.5Y-234.1
X199.8Y-239.0
X199.8Y-239.6
X199.8Y-240.2
X200.1Y-235.0
X200.15Y-233.2
X200.4Y-239.0
X200.6Y-268.8
X200.6Y-273.7
X201.0Y-234.1
X201.0Y-239.0
X202.2Y-235.7
X202.4Y-233.3
X202.6Y-238.9
X202.6Y-241.1
X203.2Y-238.9
X203.2Y-241.1
X203.6Y-239.3
X203.6Y-239.9
X203.6Y-240.5
X204.0Y-234.7
X204.0Y-235.3
X204.3Y-268.8
X204.5Y-235.7
X205.1Y-235.7
X205.2Y-269.7
X205.6Y-234.7
X205.6Y-235.3
X232.017Y-233.97
X232.017Y-236.17
X232.517Y-233.97
X232.517Y-236.17
X233.0Y-222.6
X233.0Y-224.2
X233.5Y-222.6
X233.5Y-224.2
X233.955Y-226.7
X234.455Y-226.7
X234.617Y-233.97
X235.117Y-233.97
X241.455Y-240.4
X241.455Y-240.9
X241.455Y-249.4
X241.455Y-249.9
X241.455Y-258.4
X241.455Y-258.9
X241.455Y-267.4
X241.455Y-267.9
X241.455Y-276.4
X241.455Y-276.9
X241.455Y-285.4
X241.455Y-285.9
X241.455Y-294.4
X241.455Y-294.9
X241.455Y-303.4
X241.455Y-303.9
X244.1Y-221.2
X247.955Y-222.5
X250.055Y-222.0
X250.055Y-222.5
X250.055Y-223.0
X250.655Y-222.0
X250.655Y-222.5
X250.655Y-223.0
X251.7Y-221.4
X253.455Y-222.0
X253.455Y-222.5
X253.455Y-223.0
X253.655Y-241.0
X254.155Y-241.4
X255.155Y-240.6
X255.255Y-245.3
X255.255Y-254.3
X255.255Y-263.3
X255.255Y-272.3
X255.255Y-281.3
X255.255Y-290.3
X255.255Y-299.3
X255.255Y-308.3
X262.655Y-241.0
X263.155Y-241.4
X264.155Y-240.6
X264.255Y-245.3
X264.255Y-254.3
X264.255Y-263.3
X264.255Y-272.3
X264.255Y-281.3
X264.255Y-290.3
X264.255Y-299.3
X264.255Y-308.3
X289.662Y-209.9
X290.772Y-209.9
X291.882Y-209.9
X292.992Y-209.9
X294.102Y-209.9
X294.672Y-115.3
X294.672Y-151.3
X295.212Y-209.9
X295.96Y-112.76
X295.96Y-117.84
X295.96Y-148.76
X295.96Y-153.84
X296.322Y-209.9
X297.422Y-111.05
X297.422Y-114.8
X297.422Y-115.8
X297.422Y-119.55
X297.422Y-147.05
X297.422Y-150.8
X297.422Y-151.8
X297.422Y-155.55
X297.432Y-209.9
X297.741Y-172.75
X298.391Y-173.85
X298.542Y-209.9
X299.041Y-172.75
X299.652Y-209.9
X299.922Y-111.05
X299.922Y-119.55
X299.922Y-147.05
X299.922Y-155.55
X300.172Y-114.05
X300.172Y-115.3
X300.172Y-116.55
X300.172Y-150.05
X300.172Y-151.3
X300.172Y-152.55
X300.762Y-209.9
X301.872Y-209.9
X302.982Y-209.9
X303.022Y-101.3
X303.022Y-110.3
X303.022Y-119.3
X303.022Y-128.3
X303.022Y-137.3
X303.022Y-146.3
X303.022Y-155.3
X303.022Y-164.3
X303.672Y-115.3
X303.672Y-151.3
X304.092Y-209.9
X304.96Y-112.76
X304.96Y-117.84
X304.96Y-148.76
X304.96Y-153.84
X305.202Y-209.9
X306.312Y-209.9
X306.422Y-111.05
X306.422Y-114.8
X306.422Y-115.8
X306.422Y-119.55
X306.422Y-147.05
X306.422Y-150.8
X306.422Y-151.8
X306.422Y-155.55
X306.722Y-172.75
X307.372Y-173.85
X307.422Y-209.9
X308.022Y-172.75
X308.922Y-111.05
X308.922Y-119.55
X308.922Y-147.05
X308.922Y-155.55
X309.172Y-114.05
X309.172Y-115.3
X309.172Y-116.55
X309.172Y-150.05
X309.172Y-151.3
X309.172Y-152.55
X312.022Y-101.3
X312.022Y-110.3
X312.022Y-119.3
X312.022Y-128.3
X312.022Y-137.3
X312.022Y-146.3
X312.022Y-155.3
X312.022Y-164.3
X314.697Y-131.9
X314.697Y-132.5
X318.772Y-114.1
X318.772Y-114.9
X318.772Y-115.7
X318.772Y-116.45
X318.772Y-150.1
X318.772Y-150.9
X318.772Y-151.7
X318.772Y-152.45
X319.522Y-114.1
X319.522Y-114.9
X319.522Y-115.7
X319.522Y-116.45
X319.522Y-150.1
X319.522Y-150.9
X319.522Y-151.7
X319.522Y-152.45
X320.272Y-114.1
X320.272Y-114.9
X320.272Y-115.7
X320.272Y-116.45
X320.272Y-150.1
X320.272Y-150.9
X320.272Y-151.7
X320.272Y-152.45
X321.022Y-114.1
X321.022Y-114.9
X321.022Y-115.7
X321.022Y-116.45
X321.022Y-150.1
X321.022Y-150.9
X321.022Y-151.7
X321.022Y-152.45
X321.722Y-131.0
X321.722Y-131.6
X321.722Y-132.8
X321.722Y-133.4
X321.772Y-114.1
X321.772Y-114.9
X321.772Y-115.7
X321.772Y-116.45
X321.772Y-150.1
X321.772Y-150.9
X321.772Y-151.7
X321.772Y-152.45
T2
X271.222Y-181.9
X271.722Y-181.9
X272.222Y-181.9
X281.997Y-166.265
X281.997Y-166.765
X281.997Y-167.265
X297.422Y-122.8
X297.422Y-158.8
X298.622Y-109.8
X298.622Y-122.5
X298.622Y-124.7
X298.622Y-145.8
X298.622Y-158.6
X298.622Y-160.7
X298.684Y-170.805
X299.284Y-169.805
X299.884Y-170.805
X300.022Y-122.8
X300.022Y-158.8
X300.922Y-117.8
X300.922Y-153.8
X301.222Y-109.8
X301.222Y-145.8
X301.384Y-112.76
X301.384Y-148.76
X306.422Y-122.8
X306.422Y-158.8
X307.622Y-109.8
X307.622Y-145.8
X307.722Y-157.0
X307.722Y-158.7
X307.722Y-170.8
X307.822Y-120.8
X307.822Y-123.1
X308.322Y-169.8
X308.922Y-170.8
X309.022Y-122.8
X309.022Y-158.8
X309.922Y-117.8
X309.922Y-153.8
X310.222Y-109.8
X310.222Y-145.8
X310.384Y-112.76
X310.384Y-148.76
T3
X274.082Y-170.4
X274.082Y-172.94
X274.082Y-175.48
X274.082Y-178.02
X282.022Y-170.4
X282.022Y-172.94
X282.022Y-175.48
X282.022Y-178.02
T4
X181.935Y-253.55
X181.935Y-256.09
X181.935Y-258.63
X181.935Y-261.17
X181.935Y-263.71
X181.935Y-266.25
X181.935Y-268.79
X181.935Y-271.33
X181.935Y-273.87
X181.935Y-276.41
X181.935Y-278.95
X181.935Y-281.49
X181.935Y-284.03
X181.935Y-286.57
X181.935Y-289.11
X197.175Y-253.55
X197.175Y-256.09
X197.175Y-258.63
X197.175Y-261.17
X197.175Y-263.71
X197.175Y-266.25
X197.175Y-268.79
X197.175Y-271.33
X197.175Y-273.87
X197.175Y-276.41
X197.175Y-278.95
X197.175Y-281.49
X197.175Y-284.03
X197.175Y-286.57
X197.175Y-289.11
X226.2Y-206.1
X228.74Y-206.1
X231.28Y-206.1
X233.82Y-206.1
X236.36Y-206.1
X238.9Y-206.1
X241.44Y-206.1
X255.2Y-206.1
X257.74Y-206.1
X260.28Y-206.1
X262.82Y-206.1
X265.36Y-206.1
X267.9Y-206.1
X270.44Y-206.1
X272.98Y-206.1
X289.642Y-203.8
X292.182Y-203.8
X294.722Y-203.8
X297.262Y-203.8
X299.802Y-203.8
X302.342Y-203.8
X304.882Y-203.8
X307.422Y-203.8
X321.182Y-203.8
X323.722Y-203.8
X326.262Y-203.8
X328.802Y-203.8
X331.342Y-203.8
X333.882Y-203.8
X336.422Y-203.8
T5
X194.72Y-208.5
X199.62Y-205.45
X199.62Y-211.45
T0
M30
