%TF.GenerationSoftware,KiCad,Pcbnew,(6.0.5)*%
%TF.CreationDate,2022-07-12T00:37:26-04:00*%
%TF.ProjectId,grouped,67726f75-7065-4642-9e6b-696361645f70,rev?*%
%TF.SameCoordinates,Original*%
%TF.FileFunction,Profile,NP*%
%FSLAX46Y46*%
G04 Gerber Fmt 4.6, Leading zero omitted, Abs format (unit mm)*
G04 Created by KiCad (PCBNEW (6.0.5)) date 2022-07-12 00:37:26*
%MOMM*%
%LPD*%
G01*
G04 APERTURE LIST*
%TA.AperFunction,Profile*%
%ADD10C,0.050000*%
%TD*%
G04 APERTURE END LIST*
D10*
X378700000Y-330100000D02*
X378700000Y-224100000D01*
X284588249Y-194800000D02*
X284603732Y-202000000D01*
X273518019Y-196281981D02*
X181200000Y-196281981D01*
X278018019Y-208000000D02*
X284603732Y-208000000D01*
X374200000Y-334600000D02*
G75*
G03*
X378700000Y-330100000I0J4500000D01*
G01*
X188421751Y-190300000D02*
X280088249Y-190300000D01*
X374200000Y-219600000D02*
X282533502Y-219600000D01*
X226200000Y-334600000D02*
X374200000Y-334600000D01*
X176700000Y-296100000D02*
G75*
G03*
X181200000Y-300600000I4500000J0D01*
G01*
X278018019Y-200781981D02*
X278018019Y-202000000D01*
X183921700Y-185800000D02*
G75*
G03*
X188421751Y-190300000I4500000J0D01*
G01*
X378700000Y-224100000D02*
G75*
G03*
X374200000Y-219600000I-4500000J0D01*
G01*
X221700000Y-330100000D02*
G75*
G03*
X226200000Y-334600000I4500000J0D01*
G01*
X340921751Y-209159009D02*
X340921751Y-79800000D01*
X181200000Y-300600000D02*
X217200000Y-300600000D01*
X181200000Y-196282000D02*
G75*
G03*
X176700000Y-200781981I0J-4500000D01*
G01*
X284588300Y-194800000D02*
G75*
G03*
X280088249Y-190300000I-4500000J0D01*
G01*
X278018019Y-200781981D02*
G75*
G03*
X273518019Y-196281981I-4500019J-19D01*
G01*
X336421751Y-75300000D02*
X188421751Y-75300000D01*
X188421751Y-75300051D02*
G75*
G03*
X183921751Y-79800000I-51J-4499949D01*
G01*
X183921751Y-79800000D02*
X183921751Y-185800000D01*
X278033500Y-215100000D02*
G75*
G03*
X282533502Y-219600000I4500000J0D01*
G01*
X176700000Y-200781981D02*
X176700000Y-296100000D01*
X278018019Y-202000000D02*
X284603732Y-202000000D01*
X221700000Y-305100000D02*
G75*
G03*
X217200000Y-300600000I-4500000J0D01*
G01*
X284603800Y-209150000D02*
G75*
G03*
X289103732Y-213650000I4500000J0D01*
G01*
X284603732Y-209150000D02*
X284603732Y-208000000D01*
X336421751Y-213659051D02*
G75*
G03*
X340921751Y-209159009I-51J4500051D01*
G01*
X278033502Y-215100000D02*
X278018019Y-208000000D01*
X340921800Y-79800000D02*
G75*
G03*
X336421751Y-75300000I-4500000J0D01*
G01*
X289103732Y-213650000D02*
X336421751Y-213659009D01*
X221700000Y-305100000D02*
X221700000Y-330100000D01*
M02*
