%TF.GenerationSoftware,KiCad,Pcbnew,(6.0.5)*%
%TF.CreationDate,2022-07-12T00:37:25-04:00*%
%TF.ProjectId,grouped,67726f75-7065-4642-9e6b-696361645f70,rev?*%
%TF.SameCoordinates,Original*%
%TF.FileFunction,Soldermask,Bot*%
%TF.FilePolarity,Negative*%
%FSLAX46Y46*%
G04 Gerber Fmt 4.6, Leading zero omitted, Abs format (unit mm)*
G04 Created by KiCad (PCBNEW (6.0.5)) date 2022-07-12 00:37:25*
%MOMM*%
%LPD*%
G01*
G04 APERTURE LIST*
G04 Aperture macros list*
%AMRoundRect*
0 Rectangle with rounded corners*
0 $1 Rounding radius*
0 $2 $3 $4 $5 $6 $7 $8 $9 X,Y pos of 4 corners*
0 Add a 4 corners polygon primitive as box body*
4,1,4,$2,$3,$4,$5,$6,$7,$8,$9,$2,$3,0*
0 Add four circle primitives for the rounded corners*
1,1,$1+$1,$2,$3*
1,1,$1+$1,$4,$5*
1,1,$1+$1,$6,$7*
1,1,$1+$1,$8,$9*
0 Add four rect primitives between the rounded corners*
20,1,$1+$1,$2,$3,$4,$5,0*
20,1,$1+$1,$4,$5,$6,$7,0*
20,1,$1+$1,$6,$7,$8,$9,0*
20,1,$1+$1,$8,$9,$2,$3,0*%
G04 Aperture macros list end*
%ADD10R,1.700000X1.700000*%
%ADD11O,1.700000X1.700000*%
%ADD12C,2.500000*%
%ADD13R,1.600000X1.600000*%
%ADD14O,1.600000X1.600000*%
%ADD15R,1.130000X1.130000*%
%ADD16C,1.130000*%
%ADD17C,5.460000*%
%ADD18R,1.250000X1.000000*%
%ADD19RoundRect,0.200000X0.275000X-0.200000X0.275000X0.200000X-0.275000X0.200000X-0.275000X-0.200000X0*%
%ADD20R,0.420000X0.640000*%
%ADD21RoundRect,0.250000X-0.250000X-0.475000X0.250000X-0.475000X0.250000X0.475000X-0.250000X0.475000X0*%
%ADD22RoundRect,0.250000X0.475000X-0.250000X0.475000X0.250000X-0.475000X0.250000X-0.475000X-0.250000X0*%
%ADD23RoundRect,0.200000X-0.275000X0.200000X-0.275000X-0.200000X0.275000X-0.200000X0.275000X0.200000X0*%
%ADD24RoundRect,0.200000X-0.200000X-0.275000X0.200000X-0.275000X0.200000X0.275000X-0.200000X0.275000X0*%
%ADD25RoundRect,0.150000X-0.150000X0.587500X-0.150000X-0.587500X0.150000X-0.587500X0.150000X0.587500X0*%
%ADD26RoundRect,0.200000X0.200000X0.275000X-0.200000X0.275000X-0.200000X-0.275000X0.200000X-0.275000X0*%
%ADD27RoundRect,0.250000X0.425000X-0.450000X0.425000X0.450000X-0.425000X0.450000X-0.425000X-0.450000X0*%
%ADD28RoundRect,0.250000X-0.425000X0.450000X-0.425000X-0.450000X0.425000X-0.450000X0.425000X0.450000X0*%
%ADD29RoundRect,0.250000X0.787500X0.925000X-0.787500X0.925000X-0.787500X-0.925000X0.787500X-0.925000X0*%
G04 APERTURE END LIST*
D10*
X255200000Y-206100000D03*
D11*
X257740000Y-206100000D03*
X260280000Y-206100000D03*
X262820000Y-206100000D03*
X265360000Y-206100000D03*
X267900000Y-206100000D03*
X270440000Y-206100000D03*
X272980000Y-206100000D03*
D12*
X226200000Y-224100000D03*
X374200000Y-224100000D03*
D10*
X307421751Y-203800000D03*
D11*
X304881751Y-203800000D03*
X302341751Y-203800000D03*
X299801751Y-203800000D03*
X297261751Y-203800000D03*
X294721751Y-203800000D03*
X292181751Y-203800000D03*
X289641751Y-203800000D03*
D12*
X226200000Y-330100000D03*
D10*
X336421751Y-203800000D03*
D11*
X333881751Y-203800000D03*
X331341751Y-203800000D03*
X328801751Y-203800000D03*
X326261751Y-203800000D03*
X323721751Y-203800000D03*
X321181751Y-203800000D03*
D13*
X181935028Y-253550000D03*
D14*
X181935028Y-256090000D03*
X181935028Y-258630000D03*
X181935028Y-261170000D03*
X181935028Y-263710000D03*
X181935028Y-266250000D03*
X181935028Y-268790000D03*
X181935028Y-271330000D03*
X181935028Y-273870000D03*
X181935028Y-276410000D03*
X181935028Y-278950000D03*
X181935028Y-281490000D03*
X181935028Y-284030000D03*
X181935028Y-286570000D03*
X181935028Y-289110000D03*
X197175028Y-289110000D03*
X197175028Y-286570000D03*
X197175028Y-284030000D03*
X197175028Y-281490000D03*
X197175028Y-278950000D03*
X197175028Y-276410000D03*
X197175028Y-273870000D03*
X197175028Y-271330000D03*
X197175028Y-268790000D03*
X197175028Y-266250000D03*
X197175028Y-263710000D03*
X197175028Y-261170000D03*
X197175028Y-258630000D03*
X197175028Y-256090000D03*
X197175028Y-253550000D03*
D10*
X226200000Y-206100000D03*
D11*
X228740000Y-206100000D03*
X231280000Y-206100000D03*
X233820000Y-206100000D03*
X236360000Y-206100000D03*
X238900000Y-206100000D03*
X241440000Y-206100000D03*
D15*
X282021751Y-178020000D03*
D16*
X282021751Y-175480000D03*
X282021751Y-172940000D03*
X282021751Y-170400000D03*
X274081751Y-170400000D03*
X274081751Y-172940000D03*
X274081751Y-175480000D03*
X274081751Y-178020000D03*
D17*
X199620000Y-211450000D03*
X194720000Y-208500000D03*
X199620000Y-205450000D03*
D12*
X374200000Y-330100000D03*
D18*
X303041751Y-100460000D03*
X303041751Y-102660000D03*
D19*
X297421751Y-112625000D03*
X297421751Y-110975000D03*
D20*
X306421751Y-158750000D03*
X306421751Y-157250000D03*
D12*
X336421751Y-185800000D03*
D19*
X307421751Y-209125000D03*
X307421751Y-207475000D03*
D20*
X297421751Y-122750000D03*
X297421751Y-121250000D03*
D19*
X297221751Y-209125000D03*
X297221751Y-207475000D03*
D20*
X300021751Y-158750000D03*
X300021751Y-157250000D03*
X310221751Y-145750000D03*
X310221751Y-144250000D03*
D18*
X303041751Y-163460000D03*
X303041751Y-165660000D03*
D21*
X315471751Y-132200000D03*
X317371751Y-132200000D03*
D22*
X284251751Y-178560000D03*
X284251751Y-176660000D03*
D18*
X312041751Y-163460000D03*
X312041751Y-165660000D03*
D23*
X293871751Y-170800000D03*
X293871751Y-172450000D03*
D12*
X188421751Y-185800000D03*
D18*
X303041751Y-136460000D03*
X303041751Y-138660000D03*
D20*
X309021751Y-158750000D03*
X309021751Y-157250000D03*
D18*
X303041751Y-127460000D03*
X303041751Y-129660000D03*
D23*
X299921751Y-117975000D03*
X299921751Y-119625000D03*
D24*
X319346751Y-131300000D03*
X320996751Y-131300000D03*
D25*
X297421751Y-170862500D03*
X299321751Y-170862500D03*
X298371751Y-172737500D03*
D23*
X299921751Y-110975000D03*
X299921751Y-112625000D03*
D18*
X312041751Y-127460000D03*
X312041751Y-129660000D03*
X303041751Y-145460000D03*
X303041751Y-147660000D03*
D23*
X308921751Y-117975000D03*
X308921751Y-119625000D03*
D19*
X306421751Y-119625000D03*
X306421751Y-117975000D03*
X304921751Y-209125000D03*
X304921751Y-207475000D03*
X306421751Y-155625000D03*
X306421751Y-153975000D03*
D23*
X302871751Y-170800000D03*
X302871751Y-172450000D03*
D20*
X306421751Y-122750000D03*
X306421751Y-121250000D03*
D12*
X336421751Y-79800000D03*
D20*
X297421751Y-158750000D03*
X297421751Y-157250000D03*
X298621751Y-145700000D03*
X298621751Y-144200000D03*
X310221751Y-109750000D03*
X310221751Y-108250000D03*
D18*
X303041751Y-118460000D03*
X303041751Y-120660000D03*
X312041751Y-109460000D03*
X312041751Y-111660000D03*
X312041751Y-154460000D03*
X312041751Y-156660000D03*
D19*
X292221751Y-209125000D03*
X292221751Y-207475000D03*
X299821751Y-209125000D03*
X299821751Y-207475000D03*
D23*
X299921751Y-146975000D03*
X299921751Y-148625000D03*
X299921751Y-153975000D03*
X299921751Y-155625000D03*
D19*
X297421751Y-155625000D03*
X297421751Y-153975000D03*
D26*
X282976751Y-180610000D03*
X281326751Y-180610000D03*
D19*
X302321751Y-209125000D03*
X302321751Y-207475000D03*
X294721751Y-209125000D03*
X294721751Y-207475000D03*
D20*
X298621751Y-109700000D03*
X298621751Y-108200000D03*
X307621751Y-109700000D03*
X307621751Y-108200000D03*
X307621751Y-145700000D03*
X307621751Y-144200000D03*
D23*
X308921751Y-110975000D03*
X308921751Y-112625000D03*
D20*
X301221751Y-109750000D03*
X301221751Y-108250000D03*
X301221751Y-145750000D03*
X301221751Y-144250000D03*
D27*
X284551751Y-174260000D03*
X284551751Y-171560000D03*
D23*
X308921751Y-153975000D03*
X308921751Y-155625000D03*
D18*
X312041751Y-136460000D03*
X312041751Y-138660000D03*
D23*
X284651751Y-180485000D03*
X284651751Y-182135000D03*
D28*
X271751751Y-178160000D03*
X271751751Y-180860000D03*
D26*
X320996751Y-133060000D03*
X319346751Y-133060000D03*
D19*
X306421751Y-148625000D03*
X306421751Y-146975000D03*
D18*
X303041751Y-154460000D03*
X303041751Y-156660000D03*
D12*
X188421751Y-79800000D03*
D18*
X312041751Y-145460000D03*
X312041751Y-147660000D03*
D19*
X297421751Y-119625000D03*
X297421751Y-117975000D03*
D18*
X303041751Y-109460000D03*
X303041751Y-111660000D03*
D19*
X306421751Y-112625000D03*
X306421751Y-110975000D03*
D18*
X312041751Y-118460000D03*
X312041751Y-120660000D03*
D29*
X280314251Y-166710000D03*
X275389251Y-166710000D03*
D23*
X308921751Y-146975000D03*
X308921751Y-148625000D03*
D18*
X312041751Y-100460000D03*
X312041751Y-102660000D03*
D20*
X300021751Y-122750000D03*
X300021751Y-121250000D03*
D19*
X297421751Y-148625000D03*
X297421751Y-146975000D03*
D20*
X309021751Y-122750000D03*
X309021751Y-121250000D03*
D25*
X306421751Y-170862500D03*
X308321751Y-170862500D03*
X307371751Y-172737500D03*
D19*
X289621751Y-209125000D03*
X289621751Y-207475000D03*
M02*
