%FSLAX45Y45*%
G04 Gerber Fmt 4.5, Leading zero omitted, Abs format (unit mm)*
G04 Created by KiCad (PCBNEW (6.0.5)) date 2022-11-15 17:21:21*
%MOMM*%
%LPD*%
G01*
G04 APERTURE LIST*
%TA.AperFunction,Profile*%
%ADD10C,0.050000*%
%TD*%
%ADD11C,0.200000*%
G04 APERTURE END LIST*
D10*
X24210000Y-15980000D02*
X24210000Y-5880000D01*
X8610000Y-15980000D02*
G75*
G03*
X9260000Y-16630000I650000J0D01*
G01*
X24210000Y-5880000D02*
G75*
G03*
X23560000Y-5230000I-650000J0D01*
G01*
X9260000Y-28270000D02*
X23560000Y-28270000D01*
X8610000Y-27620000D02*
G75*
G03*
X9260000Y-28270000I650000J0D01*
G01*
X23560000Y-5230000D02*
X9260000Y-5230000D01*
X21880000Y-16630000D02*
X23560000Y-16630000D01*
X20880000Y-16630000D02*
X20880000Y-16630000D01*
X9260000Y-16630000D02*
X20880000Y-16630000D01*
X8610000Y-17520000D02*
X8610000Y-27620000D01*
X23560000Y-28270000D02*
G75*
G03*
X24210000Y-27620000I0J650000D01*
G01*
X9260000Y-5230000D02*
G75*
G03*
X8610000Y-5880000I0J-650000D01*
G01*
X20880000Y-16630000D02*
X20880000Y-16870000D01*
X21880000Y-16870000D02*
X21880000Y-16870000D01*
X21880000Y-16870000D02*
X21880000Y-16870000D01*
X20880000Y-16870000D02*
X9260000Y-16870000D01*
X23560000Y-16870000D02*
X21880000Y-16870000D01*
X9260000Y-16870000D02*
G75*
G03*
X8610000Y-17520000I0J-650000D01*
G01*
X24210000Y-27620000D02*
X24210000Y-17520000D01*
X24210000Y-17520000D02*
G75*
G03*
X23560000Y-16870000I-650000J0D01*
G01*
X21880000Y-16630000D02*
X21880000Y-16870000D01*
X23560000Y-16630000D02*
G75*
G03*
X24210000Y-15980000I0J650000D01*
G01*
X8610000Y-5880000D02*
X8610000Y-15980000D01*
D11*
X8865119Y-28582976D02*
X8865119Y-28382976D01*
X8912738Y-28382976D01*
X8941310Y-28392500D01*
X8960357Y-28411548D01*
X8969881Y-28430595D01*
X8979405Y-28468690D01*
X8979405Y-28497262D01*
X8969881Y-28535357D01*
X8960357Y-28554405D01*
X8941310Y-28573452D01*
X8912738Y-28582976D01*
X8865119Y-28582976D01*
X9065119Y-28582976D02*
X9065119Y-28449643D01*
X9065119Y-28487738D02*
X9074643Y-28468690D01*
X9084167Y-28459167D01*
X9103214Y-28449643D01*
X9122262Y-28449643D01*
X9188929Y-28582976D02*
X9188929Y-28449643D01*
X9188929Y-28382976D02*
X9179405Y-28392500D01*
X9188929Y-28402024D01*
X9198452Y-28392500D01*
X9188929Y-28382976D01*
X9188929Y-28402024D01*
X9312738Y-28582976D02*
X9293690Y-28573452D01*
X9284167Y-28554405D01*
X9284167Y-28382976D01*
X9417500Y-28582976D02*
X9398452Y-28573452D01*
X9388929Y-28554405D01*
X9388929Y-28382976D01*
X9646071Y-28582976D02*
X9646071Y-28382976D01*
X9712738Y-28525833D01*
X9779405Y-28382976D01*
X9779405Y-28582976D01*
X9960357Y-28582976D02*
X9960357Y-28478214D01*
X9950833Y-28459167D01*
X9931786Y-28449643D01*
X9893690Y-28449643D01*
X9874643Y-28459167D01*
X9960357Y-28573452D02*
X9941310Y-28582976D01*
X9893690Y-28582976D01*
X9874643Y-28573452D01*
X9865119Y-28554405D01*
X9865119Y-28535357D01*
X9874643Y-28516309D01*
X9893690Y-28506786D01*
X9941310Y-28506786D01*
X9960357Y-28497262D01*
X10055595Y-28449643D02*
X10055595Y-28649643D01*
X10055595Y-28459167D02*
X10074643Y-28449643D01*
X10112738Y-28449643D01*
X10131786Y-28459167D01*
X10141310Y-28468690D01*
X10150833Y-28487738D01*
X10150833Y-28544881D01*
X10141310Y-28563928D01*
X10131786Y-28573452D01*
X10112738Y-28582976D01*
X10074643Y-28582976D01*
X10055595Y-28573452D01*
X10236548Y-28563928D02*
X10246071Y-28573452D01*
X10236548Y-28582976D01*
X10227024Y-28573452D01*
X10236548Y-28563928D01*
X10236548Y-28582976D01*
X10236548Y-28459167D02*
X10246071Y-28468690D01*
X10236548Y-28478214D01*
X10227024Y-28468690D01*
X10236548Y-28459167D01*
X10236548Y-28478214D01*
M02*
