M48
; DRILL file {KiCad (6.0.5)} date Tue Nov 15 17:21:20 2022
; FORMAT={-:-/ absolute / metric / decimal}
; #@! TF.CreationDate,2022-11-15T17:21:20-05:00
; #@! TF.GenerationSoftware,Kicad,Pcbnew,(6.0.5)
; #@! TF.FileFunction,Plated,1,4,PTH
FMAT,2
METRIC
; #@! TA.AperFunction,Plated,PTH,ViaDrill
T1C0.229
; #@! TA.AperFunction,Plated,PTH,ViaDrill
T2C0.229
; #@! TA.AperFunction,Plated,PTH,ComponentDrill
T3C0.800
; #@! TA.AperFunction,Plated,PTH,ComponentDrill
T4C1.000
; #@! TA.AperFunction,Plated,PTH,ComponentDrill
T5C4.300
%
G90
G05
T1
X89.3Y-190.4
X89.3Y-195.6
X89.9Y-190.4
X89.9Y-195.6
X90.5Y-190.4
X90.5Y-195.6
X91.6Y-125.2
X91.6Y-125.8
X91.6Y-131.7
X91.6Y-190.3
X91.6Y-195.5
X91.7Y-121.1
X92.2Y-189.8
X92.2Y-195.0
X92.3Y-121.6
X92.7Y-131.7
X92.8Y-125.2
X92.8Y-125.8
X94.1Y-189.9
X94.1Y-190.4
X94.1Y-195.1
X94.1Y-195.6
X94.4Y-76.1
X94.4Y-81.5
X95.0Y-75.6
X95.0Y-82.0
X95.4Y-205.2
X95.4Y-214.2
X95.4Y-223.2
X95.4Y-232.2
X95.4Y-241.2
X95.4Y-250.2
X95.4Y-259.2
X95.4Y-268.2
X96.0Y-121.9
X96.0Y-204.7
X96.0Y-213.7
X96.0Y-222.7
X96.0Y-231.7
X96.0Y-240.7
X96.0Y-249.7
X96.0Y-258.7
X96.0Y-267.7
X96.298Y-187.773
X96.5Y-122.8
X96.5Y-125.1
X96.6Y-195.3
X96.7Y-199.3
X96.7Y-208.3
X96.7Y-217.3
X96.7Y-226.3
X96.7Y-235.3
X96.7Y-244.3
X96.7Y-253.3
X96.7Y-262.3
X96.8Y-196.8
X96.8Y-197.4
X96.8Y-198.0
X96.898Y-188.273
X96.898Y-193.398
X96.898Y-194.298
X97.0Y-123.4
X97.1Y-195.9
X97.2Y-199.9
X97.2Y-208.9
X97.2Y-217.9
X97.2Y-226.9
X97.2Y-235.9
X97.2Y-244.9
X97.2Y-253.9
X97.2Y-262.9
X97.5Y-126.5
X97.8Y-206.2
X97.8Y-215.2
X97.8Y-224.2
X97.8Y-233.2
X97.8Y-242.2
X97.8Y-251.2
X97.8Y-260.2
X97.8Y-269.2
X97.898Y-190.773
X97.898Y-191.373
X97.898Y-191.974
X98.0Y-122.8
X98.1Y-195.3
X98.2Y-199.325
X98.2Y-204.5
X98.2Y-205.2
X98.2Y-208.325
X98.2Y-213.5
X98.2Y-214.2
X98.2Y-217.325
X98.2Y-222.5
X98.2Y-223.2
X98.2Y-226.325
X98.2Y-231.5
X98.2Y-232.2
X98.2Y-235.325
X98.2Y-240.5
X98.2Y-241.2
X98.2Y-244.325
X98.2Y-249.5
X98.2Y-250.2
X98.2Y-253.325
X98.2Y-258.5
X98.2Y-259.2
X98.2Y-262.325
X98.2Y-267.5
X98.2Y-268.2
X98.3Y-202.1
X98.3Y-203.0
X98.3Y-203.9
X98.3Y-206.8
X98.3Y-211.1
X98.3Y-212.0
X98.3Y-212.9
X98.3Y-215.8
X98.3Y-220.1
X98.3Y-221.0
X98.3Y-221.9
X98.3Y-224.8
X98.3Y-229.1
X98.3Y-230.0
X98.3Y-230.9
X98.3Y-233.8
X98.3Y-238.1
X98.3Y-239.0
X98.3Y-239.9
X98.3Y-242.8
X98.3Y-247.1
X98.3Y-248.0
X98.3Y-248.9
X98.3Y-251.8
X98.3Y-256.1
X98.3Y-257.0
X98.3Y-257.9
X98.3Y-260.8
X98.3Y-265.1
X98.3Y-266.0
X98.3Y-266.9
X98.3Y-269.8
X98.5Y-123.4
X98.6Y-126.5
X98.6Y-195.9
X98.698Y-187.373
X98.698Y-187.974
X98.8Y-199.925
X98.8Y-208.925
X98.8Y-217.925
X98.8Y-226.925
X98.8Y-235.925
X98.8Y-244.925
X98.8Y-253.925
X98.8Y-262.925
X98.9Y-196.8
X98.9Y-197.4
X98.9Y-198.0
X98.9Y-200.825
X98.9Y-201.425
X98.9Y-204.5
X98.9Y-205.2
X98.9Y-209.825
X98.9Y-210.425
X98.9Y-213.5
X98.9Y-214.2
X98.9Y-218.825
X98.9Y-219.425
X98.9Y-222.5
X98.9Y-223.2
X98.9Y-227.825
X98.9Y-228.425
X98.9Y-231.5
X98.9Y-232.2
X98.9Y-236.825
X98.9Y-237.425
X98.9Y-240.5
X98.9Y-241.2
X98.9Y-245.825
X98.9Y-246.425
X98.9Y-249.5
X98.9Y-250.2
X98.9Y-254.825
X98.9Y-255.425
X98.9Y-258.5
X98.9Y-259.2
X98.9Y-263.825
X98.9Y-264.425
X98.9Y-267.5
X98.9Y-268.2
X99.2Y-202.1
X99.2Y-203.0
X99.2Y-203.9
X99.2Y-211.1
X99.2Y-212.0
X99.2Y-212.9
X99.2Y-220.1
X99.2Y-221.0
X99.2Y-221.9
X99.2Y-229.1
X99.2Y-230.0
X99.2Y-230.9
X99.2Y-238.1
X99.2Y-239.0
X99.2Y-239.9
X99.2Y-247.1
X99.2Y-248.0
X99.2Y-248.9
X99.2Y-256.1
X99.2Y-257.0
X99.2Y-257.9
X99.2Y-265.1
X99.2Y-266.0
X99.2Y-266.9
X99.6Y-124.3
X99.6Y-125.9
X99.698Y-187.373
X99.698Y-187.974
X100.1Y-202.1
X100.1Y-203.0
X100.1Y-203.9
X100.1Y-211.1
X100.1Y-212.0
X100.1Y-212.9
X100.1Y-220.1
X100.1Y-221.0
X100.1Y-221.9
X100.1Y-229.1
X100.1Y-230.0
X100.1Y-230.9
X100.1Y-238.1
X100.1Y-239.0
X100.1Y-239.9
X100.1Y-247.1
X100.1Y-248.0
X100.1Y-248.9
X100.1Y-256.1
X100.1Y-257.0
X100.1Y-257.9
X100.1Y-265.1
X100.1Y-266.0
X100.1Y-266.9
X100.2Y-124.9
X100.2Y-126.4
X100.3Y-201.2
X100.3Y-210.2
X100.3Y-219.2
X100.3Y-228.2
X100.3Y-237.2
X100.3Y-246.2
X100.3Y-255.2
X100.3Y-264.2
X101.05Y-203.975
X101.05Y-212.975
X101.05Y-221.975
X101.05Y-230.975
X101.05Y-239.975
X101.05Y-248.975
X101.05Y-257.975
X101.05Y-266.975
X101.4Y-199.3
X101.4Y-208.3
X101.4Y-217.3
X101.4Y-226.3
X101.4Y-235.3
X101.4Y-244.3
X101.4Y-253.3
X101.4Y-262.3
X101.9Y-199.9
X101.9Y-208.9
X101.9Y-217.9
X101.9Y-226.9
X101.9Y-235.9
X101.9Y-244.9
X101.9Y-253.9
X101.9Y-262.9
X102.4Y-206.4
X102.4Y-215.4
X102.4Y-224.4
X102.4Y-233.4
X102.4Y-242.4
X102.4Y-251.4
X102.4Y-260.4
X102.4Y-269.4
X103.0Y-205.9
X103.0Y-214.9
X103.0Y-223.9
X103.0Y-232.9
X103.0Y-241.9
X103.0Y-250.9
X103.0Y-259.9
X103.0Y-268.9
X104.8Y-174.7
X104.8Y-176.2
X104.8Y-177.7
X104.8Y-179.2
X104.8Y-180.7
X104.8Y-182.2
X104.8Y-183.7
X104.8Y-185.2
X105.8Y-200.9
X105.8Y-209.9
X105.8Y-218.9
X105.8Y-227.9
X105.8Y-236.9
X105.8Y-245.9
X105.8Y-254.9
X105.8Y-263.9
X106.4Y-200.4
X106.4Y-209.4
X106.4Y-218.4
X106.4Y-227.4
X106.4Y-236.4
X106.4Y-245.4
X106.4Y-254.4
X106.4Y-263.4
X106.5Y-174.7
X106.5Y-176.2
X106.5Y-177.7
X106.5Y-179.2
X106.5Y-180.7
X106.5Y-182.2
X106.5Y-183.7
X106.5Y-185.2
X106.8Y-90.6
X106.8Y-99.6
X106.8Y-108.6
X106.8Y-117.6
X106.8Y-126.6
X106.8Y-135.6
X106.8Y-144.6
X106.8Y-153.6
X106.9Y-89.6
X106.9Y-98.6
X106.9Y-107.6
X106.9Y-116.6
X106.9Y-125.6
X106.9Y-134.6
X106.9Y-143.6
X106.9Y-152.6
X107.0Y-206.8
X107.0Y-215.8
X107.0Y-224.8
X107.0Y-233.8
X107.0Y-242.8
X107.0Y-251.8
X107.0Y-260.8
X107.0Y-269.8
X107.6Y-206.3
X107.6Y-215.3
X107.6Y-224.3
X107.6Y-233.3
X107.6Y-242.3
X107.6Y-251.3
X107.6Y-260.3
X107.6Y-269.3
X107.9Y-93.2
X107.9Y-102.2
X107.9Y-111.2
X107.9Y-120.2
X107.9Y-129.2
X107.9Y-138.2
X107.9Y-147.2
X107.9Y-156.2
X108.3Y-93.8
X108.3Y-102.8
X108.3Y-111.8
X108.3Y-120.8
X108.3Y-129.8
X108.3Y-138.8
X108.3Y-147.8
X108.3Y-156.8
X108.6Y-185.175
X109.6Y-56.8
X109.6Y-173.1
X110.1Y-56.1
X110.1Y-70.2
X110.1Y-71.8
X110.1Y-172.4
X110.1Y-185.175
X111.1Y-56.1
X111.1Y-56.787
X111.1Y-172.4
X111.1Y-173.088
X111.6Y-185.175
X111.8Y-70.2
X111.8Y-71.8
X111.8Y-79.1
X112.4Y-79.6
X113.1Y-185.175
X113.4Y-173.787
X113.8Y-83.3
X113.8Y-92.3
X113.8Y-101.3
X113.8Y-110.3
X113.8Y-119.3
X113.8Y-128.3
X113.8Y-137.3
X113.8Y-146.3
X114.1Y-56.2
X114.1Y-56.787
X114.1Y-172.5
X114.1Y-173.088
X114.4Y-83.8
X114.4Y-92.8
X114.4Y-101.8
X114.4Y-110.8
X114.4Y-119.8
X114.4Y-128.8
X114.4Y-137.8
X114.4Y-146.8
X114.6Y-185.175
X115.1Y-56.2
X115.1Y-172.5
X115.6Y-56.787
X115.6Y-173.088
X116.0Y-199.7
X116.0Y-208.7
X116.0Y-217.7
X116.0Y-226.7
X116.0Y-235.7
X116.0Y-244.7
X116.0Y-253.7
X116.0Y-262.7
X116.1Y-185.175
X117.4Y-78.3
X117.5Y-194.2
X117.6Y-185.175
X118.0Y-199.7
X118.0Y-208.7
X118.0Y-217.7
X118.0Y-226.7
X118.0Y-235.7
X118.0Y-244.7
X118.0Y-253.7
X118.0Y-262.7
X118.1Y-194.2
X118.3Y-84.5
X118.3Y-85.1
X118.3Y-85.7
X118.3Y-93.5
X118.3Y-94.1
X118.3Y-94.7
X118.3Y-102.5
X118.3Y-103.1
X118.3Y-103.7
X118.3Y-111.5
X118.3Y-112.1
X118.3Y-112.7
X118.3Y-120.5
X118.3Y-121.1
X118.3Y-121.7
X118.3Y-129.5
X118.3Y-130.1
X118.3Y-130.7
X118.3Y-138.5
X118.3Y-139.1
X118.3Y-139.7
X118.3Y-147.5
X118.3Y-148.1
X118.3Y-148.7
X118.4Y-77.9
X119.1Y-185.175
X119.3Y-195.1
X120.3Y-195.1
X120.8Y-79.1
X120.8Y-186.3
X121.4Y-79.6
X121.4Y-185.7
X122.2Y-183.2
X122.3Y-186.3
X122.8Y-83.3
X122.8Y-92.3
X122.8Y-101.3
X122.8Y-110.3
X122.8Y-119.3
X122.8Y-128.3
X122.8Y-137.3
X122.8Y-146.3
X122.9Y-182.1
X122.9Y-183.2
X122.9Y-185.7
X123.4Y-83.8
X123.4Y-92.8
X123.4Y-101.8
X123.4Y-110.8
X123.4Y-119.8
X123.4Y-128.8
X123.4Y-137.8
X123.4Y-146.8
X123.5Y-182.1
X123.5Y-183.2
X123.775Y-191.7
X123.8Y-186.3
X124.2Y-182.1
X124.2Y-183.2
X124.4Y-185.7
X125.0Y-199.7
X125.0Y-208.7
X125.0Y-217.7
X125.0Y-226.7
X125.0Y-235.7
X125.0Y-244.7
X125.0Y-253.7
X125.0Y-262.7
X125.5Y-182.1
X125.5Y-183.2
X125.5Y-191.7
X126.4Y-78.3
X126.4Y-186.7
X126.4Y-187.3
X126.5Y-194.2
X126.8Y-182.2
X126.9Y-188.3
X127.0Y-199.7
X127.0Y-208.7
X127.0Y-217.7
X127.0Y-226.7
X127.0Y-235.7
X127.0Y-244.7
X127.0Y-253.7
X127.0Y-262.7
X127.1Y-194.2
X127.3Y-84.5
X127.3Y-85.1
X127.3Y-85.7
X127.3Y-93.5
X127.3Y-94.1
X127.3Y-94.7
X127.3Y-102.5
X127.3Y-103.1
X127.3Y-103.7
X127.3Y-111.5
X127.3Y-112.1
X127.3Y-112.7
X127.3Y-120.5
X127.3Y-121.1
X127.3Y-121.7
X127.3Y-129.5
X127.3Y-130.1
X127.3Y-130.7
X127.3Y-138.5
X127.3Y-139.1
X127.3Y-139.7
X127.3Y-147.5
X127.3Y-148.1
X127.3Y-148.7
X127.4Y-77.9
X127.4Y-181.9
X127.5Y-188.9
X128.3Y-195.1
X128.5Y-188.0
X129.0Y-188.0
X129.3Y-182.4
X129.3Y-195.1
X129.5Y-188.0
X129.8Y-79.1
X130.4Y-79.6
X130.9Y-188.0
X131.1Y-182.8
X131.4Y-188.0
X131.7Y-182.4
X131.8Y-83.3
X131.8Y-92.3
X131.8Y-101.3
X131.8Y-110.3
X131.8Y-119.3
X131.8Y-128.3
X131.8Y-137.3
X131.8Y-146.3
X131.9Y-188.0
X132.4Y-68.6
X132.4Y-83.8
X132.4Y-92.8
X132.4Y-101.8
X132.4Y-110.8
X132.4Y-119.8
X132.4Y-128.8
X132.4Y-137.8
X132.4Y-146.8
X132.775Y-191.7
X132.8Y-62.5
X132.9Y-68.0
X133.3Y-61.9
X133.9Y-60.3
X134.0Y-199.7
X134.0Y-208.7
X134.0Y-217.7
X134.0Y-226.7
X134.0Y-235.7
X134.0Y-244.7
X134.0Y-253.7
X134.0Y-262.7
X134.3Y-61.9
X134.4Y-60.9
X134.5Y-191.7
X134.8Y-62.5
X135.4Y-60.9
X135.4Y-78.3
X135.5Y-194.2
X135.7Y-174.1
X135.7Y-176.4
X135.9Y-60.3
X136.0Y-61.9
X136.0Y-63.0
X136.0Y-199.7
X136.0Y-208.7
X136.0Y-217.7
X136.0Y-226.7
X136.0Y-235.7
X136.0Y-244.7
X136.0Y-253.7
X136.0Y-262.7
X136.1Y-174.6
X136.1Y-194.2
X136.3Y-84.5
X136.3Y-85.1
X136.3Y-85.7
X136.3Y-93.5
X136.3Y-94.1
X136.3Y-94.7
X136.3Y-102.5
X136.3Y-103.1
X136.3Y-103.7
X136.3Y-111.5
X136.3Y-112.1
X136.3Y-112.7
X136.3Y-120.5
X136.3Y-121.1
X136.3Y-121.7
X136.3Y-129.5
X136.3Y-130.1
X136.3Y-130.7
X136.3Y-138.5
X136.3Y-139.1
X136.3Y-139.7
X136.3Y-147.5
X136.3Y-148.1
X136.3Y-148.7
X136.4Y-77.9
X136.65Y-180.15
X136.65Y-184.25
X136.7Y-67.8
X136.7Y-68.8
X137.15Y-183.65
X137.3Y-67.8
X137.3Y-68.9
X137.3Y-195.1
X137.65Y-180.85
X138.0Y-62.0
X138.0Y-63.0
X138.3Y-195.1
X138.7Y-176.6
X138.8Y-79.1
X139.4Y-79.6
X139.7Y-179.8
X139.85Y-175.95
X139.9Y-180.5
X140.3Y-183.7
X140.3Y-185.2
X140.5Y-182.2
X140.75Y-174.15
X140.8Y-83.3
X140.8Y-92.3
X140.8Y-101.3
X140.8Y-110.3
X140.8Y-119.3
X140.8Y-128.3
X140.8Y-137.3
X140.8Y-146.3
X140.8Y-176.4
X140.9Y-184.2
X140.9Y-185.7
X141.0Y-182.9
X141.15Y-174.65
X141.4Y-83.8
X141.4Y-92.8
X141.4Y-101.8
X141.4Y-110.8
X141.4Y-119.8
X141.4Y-128.8
X141.4Y-137.8
X141.4Y-146.8
X141.775Y-191.7
X141.9Y-181.4
X141.9Y-183.2
X141.9Y-185.2
X142.4Y-183.2
X142.4Y-185.2
X142.5Y-182.0
X142.6Y-65.2
X142.688Y-64.411
X142.9Y-183.2
X142.9Y-185.2
X143.0Y-199.7
X143.0Y-208.7
X143.0Y-217.7
X143.0Y-226.7
X143.0Y-235.7
X143.0Y-244.7
X143.0Y-253.7
X143.0Y-262.7
X143.1Y-63.9
X143.2Y-67.8
X143.2Y-68.9
X143.5Y-191.7
X143.725Y-176.625
X144.0Y-180.846
X144.0Y-183.647
X144.4Y-78.3
X144.5Y-194.2
X144.6Y-184.246
X144.825Y-176.025
X145.0Y-199.7
X145.0Y-208.7
X145.0Y-217.7
X145.0Y-226.7
X145.0Y-235.7
X145.0Y-244.7
X145.0Y-253.7
X145.0Y-262.7
X145.1Y-194.2
X145.2Y-180.147
X145.3Y-84.5
X145.3Y-85.1
X145.3Y-85.7
X145.3Y-93.5
X145.3Y-94.1
X145.3Y-94.7
X145.3Y-102.5
X145.3Y-103.1
X145.3Y-103.7
X145.3Y-111.5
X145.3Y-112.1
X145.3Y-112.7
X145.3Y-120.5
X145.3Y-121.1
X145.3Y-121.7
X145.3Y-129.5
X145.3Y-130.1
X145.3Y-130.7
X145.3Y-138.5
X145.3Y-139.1
X145.3Y-139.7
X145.3Y-147.5
X145.3Y-148.1
X145.3Y-148.7
X145.4Y-77.9
X145.9Y-174.15
X145.9Y-176.5
X146.3Y-174.65
X146.3Y-195.1
X147.1Y-179.793
X147.3Y-180.493
X147.3Y-195.1
X147.7Y-183.7
X147.7Y-185.2
X147.8Y-79.1
X147.9Y-182.2
X148.1Y-63.9
X148.3Y-184.2
X148.3Y-185.7
X148.4Y-79.6
X148.4Y-182.9
X148.9Y-176.6
X149.3Y-181.393
X149.3Y-183.3
X149.3Y-185.2
X149.8Y-83.3
X149.8Y-92.3
X149.8Y-101.3
X149.8Y-110.3
X149.8Y-119.3
X149.8Y-128.3
X149.8Y-137.3
X149.8Y-146.3
X149.8Y-183.3
X149.8Y-185.2
X149.9Y-181.993
X150.0Y-176.0
X150.3Y-183.3
X150.3Y-185.2
X150.4Y-83.8
X150.4Y-92.8
X150.4Y-101.8
X150.4Y-110.8
X150.4Y-119.8
X150.4Y-128.8
X150.4Y-137.8
X150.4Y-146.8
X150.775Y-191.7
X151.3Y-64.4
X152.0Y-199.7
X152.0Y-208.7
X152.0Y-217.7
X152.0Y-226.7
X152.0Y-235.7
X152.0Y-244.7
X152.0Y-253.7
X152.0Y-262.7
X152.5Y-191.7
X153.4Y-78.3
X153.5Y-194.2
X154.0Y-199.7
X154.0Y-208.7
X154.0Y-217.7
X154.0Y-226.7
X154.0Y-235.7
X154.0Y-244.7
X154.0Y-253.7
X154.0Y-262.7
X154.1Y-194.2
X154.3Y-84.5
X154.3Y-85.1
X154.3Y-85.7
X154.3Y-93.5
X154.3Y-94.1
X154.3Y-94.7
X154.3Y-102.5
X154.3Y-103.1
X154.3Y-103.7
X154.3Y-111.5
X154.3Y-112.1
X154.3Y-112.7
X154.3Y-120.5
X154.3Y-121.1
X154.3Y-121.7
X154.3Y-129.5
X154.3Y-130.1
X154.3Y-130.7
X154.3Y-138.5
X154.3Y-139.1
X154.3Y-139.7
X154.3Y-147.5
X154.3Y-148.1
X154.3Y-148.7
X154.4Y-77.9
X155.3Y-195.1
X156.3Y-195.1
X156.8Y-79.1
X157.4Y-79.6
X158.8Y-83.3
X158.8Y-92.3
X158.8Y-101.3
X158.8Y-110.3
X158.8Y-119.3
X158.8Y-128.3
X158.8Y-137.3
X158.8Y-146.3
X158.9Y-65.2
X159.4Y-83.8
X159.4Y-92.8
X159.4Y-101.8
X159.4Y-110.8
X159.4Y-119.8
X159.4Y-128.8
X159.4Y-137.8
X159.4Y-146.8
X159.775Y-191.7
X161.0Y-199.7
X161.0Y-208.7
X161.0Y-217.7
X161.0Y-226.7
X161.0Y-235.7
X161.0Y-244.7
X161.0Y-253.7
X161.0Y-262.7
X161.5Y-191.7
X162.4Y-78.3
X162.5Y-194.2
X163.0Y-199.7
X163.0Y-208.7
X163.0Y-217.7
X163.0Y-226.7
X163.0Y-235.7
X163.0Y-244.7
X163.0Y-253.7
X163.0Y-262.7
X163.1Y-194.2
X163.3Y-84.5
X163.3Y-85.1
X163.3Y-85.7
X163.3Y-93.5
X163.3Y-94.1
X163.3Y-94.7
X163.3Y-102.5
X163.3Y-103.1
X163.3Y-103.7
X163.3Y-111.5
X163.3Y-112.1
X163.3Y-112.7
X163.3Y-120.5
X163.3Y-121.1
X163.3Y-121.7
X163.3Y-129.5
X163.3Y-130.1
X163.3Y-130.7
X163.3Y-138.5
X163.3Y-139.1
X163.3Y-139.7
X163.3Y-147.5
X163.3Y-148.1
X163.3Y-148.7
X163.4Y-77.9
X164.3Y-195.1
X165.3Y-195.1
X165.8Y-79.1
X166.4Y-79.6
X167.8Y-83.3
X167.8Y-92.3
X167.8Y-101.3
X167.8Y-110.3
X167.8Y-119.3
X167.8Y-128.3
X167.8Y-137.3
X167.8Y-146.3
X168.4Y-83.8
X168.4Y-92.8
X168.4Y-101.8
X168.4Y-110.8
X168.4Y-119.8
X168.4Y-128.8
X168.4Y-137.8
X168.4Y-146.8
X168.775Y-191.7
X169.1Y-173.5
X169.5Y-172.9
X170.0Y-199.7
X170.0Y-208.7
X170.0Y-217.7
X170.0Y-226.7
X170.0Y-235.7
X170.0Y-244.7
X170.0Y-253.7
X170.0Y-262.7
X170.5Y-191.7
X171.1Y-180.3
X171.1Y-180.9
X171.1Y-181.5
X171.4Y-78.3
X171.5Y-194.2
X171.8Y-174.5
X171.8Y-175.1
X171.8Y-175.7
X172.0Y-199.7
X172.0Y-208.7
X172.0Y-217.7
X172.0Y-226.7
X172.0Y-235.7
X172.0Y-244.7
X172.0Y-253.7
X172.0Y-262.7
X172.1Y-194.2
X172.3Y-84.5
X172.3Y-85.1
X172.3Y-85.7
X172.3Y-93.5
X172.3Y-94.1
X172.3Y-94.7
X172.3Y-102.5
X172.3Y-103.1
X172.3Y-103.7
X172.3Y-111.5
X172.3Y-112.1
X172.3Y-112.7
X172.3Y-120.5
X172.3Y-121.1
X172.3Y-121.7
X172.3Y-129.5
X172.3Y-130.1
X172.3Y-130.7
X172.3Y-138.5
X172.3Y-139.1
X172.3Y-139.7
X172.3Y-147.5
X172.3Y-148.1
X172.3Y-148.7
X172.4Y-77.9
X172.4Y-174.8
X172.4Y-175.4
X172.425Y-171.7
X172.425Y-173.2
X173.1Y-174.6
X173.3Y-195.1
X173.7Y-175.6
X174.0Y-171.7
X174.0Y-173.2
X174.3Y-195.1
X174.4Y-174.6
X174.8Y-79.1
X175.0Y-175.6
X175.4Y-79.6
X175.7Y-174.6
X176.3Y-175.6
X176.8Y-83.3
X176.8Y-92.3
X176.8Y-101.3
X176.8Y-110.3
X176.8Y-119.3
X176.8Y-128.3
X176.8Y-137.3
X176.8Y-146.3
X177.0Y-174.6
X177.4Y-83.8
X177.4Y-92.8
X177.4Y-101.8
X177.4Y-110.8
X177.4Y-119.8
X177.4Y-128.8
X177.4Y-137.8
X177.4Y-146.8
X177.6Y-175.6
X177.775Y-191.7
X178.3Y-174.7
X178.3Y-175.3
X179.0Y-199.7
X179.0Y-208.7
X179.0Y-217.7
X179.0Y-226.7
X179.0Y-235.7
X179.0Y-244.7
X179.0Y-253.7
X179.0Y-262.7
X179.5Y-191.7
X180.4Y-78.3
X180.5Y-194.2
X181.0Y-199.7
X181.0Y-208.7
X181.0Y-217.7
X181.0Y-226.7
X181.0Y-235.7
X181.0Y-244.7
X181.0Y-253.7
X181.0Y-262.7
X181.1Y-194.2
X181.3Y-84.5
X181.3Y-85.1
X181.3Y-85.7
X181.3Y-93.5
X181.3Y-94.1
X181.3Y-94.7
X181.3Y-102.5
X181.3Y-103.1
X181.3Y-103.7
X181.3Y-111.5
X181.3Y-112.1
X181.3Y-112.7
X181.3Y-120.5
X181.3Y-121.1
X181.3Y-121.7
X181.3Y-129.5
X181.3Y-130.1
X181.3Y-130.7
X181.3Y-138.5
X181.3Y-139.1
X181.3Y-139.7
X181.3Y-147.5
X181.3Y-148.1
X181.3Y-148.7
X181.4Y-77.9
X182.3Y-195.1
X183.3Y-195.1
X183.8Y-79.1
X184.4Y-79.6
X185.8Y-83.3
X185.8Y-92.3
X185.8Y-101.3
X185.8Y-110.3
X185.8Y-119.3
X185.8Y-128.3
X185.8Y-137.3
X185.8Y-146.3
X186.4Y-83.8
X186.4Y-92.8
X186.4Y-101.8
X186.4Y-110.8
X186.4Y-119.8
X186.4Y-128.8
X186.4Y-137.8
X186.4Y-146.8
X186.775Y-191.7
X188.0Y-199.7
X188.0Y-208.7
X188.0Y-217.7
X188.0Y-226.7
X188.0Y-235.7
X188.0Y-244.7
X188.0Y-253.7
X188.0Y-262.7
X188.5Y-191.7
X189.4Y-78.3
X189.5Y-194.2
X190.0Y-199.7
X190.0Y-208.7
X190.0Y-217.7
X190.0Y-226.7
X190.0Y-235.7
X190.0Y-244.7
X190.0Y-253.7
X190.0Y-262.7
X190.1Y-194.2
X190.3Y-84.5
X190.3Y-85.1
X190.3Y-85.7
X190.3Y-93.5
X190.3Y-94.1
X190.3Y-94.7
X190.3Y-102.5
X190.3Y-103.1
X190.3Y-103.7
X190.3Y-111.5
X190.3Y-112.1
X190.3Y-112.7
X190.3Y-120.5
X190.3Y-121.1
X190.3Y-121.7
X190.3Y-129.5
X190.3Y-130.1
X190.3Y-130.7
X190.3Y-138.5
X190.3Y-139.1
X190.3Y-139.7
X190.3Y-147.5
X190.3Y-148.1
X190.3Y-148.7
X190.4Y-77.9
X190.875Y-62.6
X190.875Y-64.5
X191.3Y-195.1
X191.875Y-63.3
X191.875Y-65.2
X192.3Y-195.1
X192.8Y-79.1
X192.875Y-65.2
X192.975Y-63.0
X193.375Y-62.7
X193.4Y-79.6
X193.475Y-64.2
X193.775Y-62.4
X194.175Y-62.1
X194.775Y-64.2
X194.8Y-83.3
X194.8Y-92.3
X194.8Y-101.3
X194.8Y-110.3
X194.8Y-119.3
X194.8Y-128.3
X194.8Y-137.3
X194.8Y-146.3
X195.4Y-83.8
X195.4Y-92.8
X195.4Y-101.8
X195.4Y-110.8
X195.4Y-119.8
X195.4Y-128.8
X195.4Y-137.8
X195.4Y-146.8
X195.475Y-65.2
X197.0Y-199.7
X197.0Y-208.7
X197.0Y-217.7
X197.0Y-226.7
X197.0Y-235.7
X197.0Y-244.7
X197.0Y-253.7
X197.0Y-262.7
X197.475Y-60.0
X197.475Y-63.2
X197.5Y-191.7
X197.575Y-60.9
X197.575Y-62.3
X198.4Y-78.3
X198.5Y-194.2
X198.875Y-63.2
X199.0Y-199.7
X199.0Y-208.7
X199.0Y-217.7
X199.0Y-226.7
X199.0Y-235.7
X199.0Y-244.7
X199.0Y-253.7
X199.0Y-262.7
X199.1Y-194.2
X199.3Y-84.5
X199.3Y-85.1
X199.3Y-85.7
X199.3Y-93.5
X199.3Y-94.1
X199.3Y-94.7
X199.3Y-102.5
X199.3Y-103.1
X199.3Y-103.7
X199.3Y-111.5
X199.3Y-112.1
X199.3Y-112.7
X199.3Y-120.5
X199.3Y-121.1
X199.3Y-121.7
X199.3Y-129.5
X199.3Y-130.1
X199.3Y-130.7
X199.3Y-138.5
X199.3Y-139.1
X199.3Y-139.7
X199.3Y-147.5
X199.3Y-148.1
X199.3Y-148.7
X199.375Y-62.2
X199.4Y-77.9
X200.3Y-195.1
X201.275Y-62.2
X201.275Y-63.2
X201.3Y-195.1
X201.8Y-79.1
X202.4Y-79.6
X203.8Y-83.3
X203.8Y-92.3
X203.8Y-101.3
X203.8Y-110.3
X203.8Y-119.3
X203.8Y-128.3
X203.8Y-137.3
X203.8Y-146.3
X204.4Y-83.8
X204.4Y-92.8
X204.4Y-101.8
X204.4Y-110.8
X204.4Y-119.8
X204.4Y-128.8
X204.4Y-137.8
X204.4Y-146.8
X206.0Y-199.7
X206.0Y-208.7
X206.0Y-217.7
X206.0Y-226.7
X206.0Y-235.7
X206.0Y-244.7
X206.0Y-253.7
X206.0Y-262.7
X206.5Y-191.7
X207.4Y-78.3
X207.5Y-194.2
X208.0Y-199.7
X208.0Y-208.7
X208.0Y-217.7
X208.0Y-226.7
X208.0Y-235.7
X208.0Y-244.7
X208.0Y-253.7
X208.0Y-262.7
X208.1Y-194.2
X208.3Y-84.5
X208.3Y-85.1
X208.3Y-85.7
X208.3Y-93.5
X208.3Y-94.1
X208.3Y-94.7
X208.3Y-102.5
X208.3Y-103.1
X208.3Y-103.7
X208.3Y-111.5
X208.3Y-112.1
X208.3Y-112.7
X208.3Y-120.5
X208.3Y-121.1
X208.3Y-121.7
X208.3Y-129.5
X208.3Y-130.1
X208.3Y-130.7
X208.3Y-138.5
X208.3Y-139.1
X208.3Y-139.7
X208.3Y-147.5
X208.3Y-148.1
X208.3Y-148.7
X208.4Y-77.9
X209.3Y-195.1
X210.3Y-195.1
X210.8Y-79.1
X211.4Y-79.6
X212.8Y-83.3
X212.8Y-92.3
X212.8Y-101.3
X212.8Y-110.3
X212.8Y-119.3
X212.8Y-128.3
X212.8Y-137.3
X212.8Y-146.3
X213.4Y-83.8
X213.4Y-92.8
X213.4Y-101.8
X213.4Y-110.8
X213.4Y-119.8
X213.4Y-128.8
X213.4Y-137.8
X213.4Y-146.8
X215.0Y-199.7
X215.0Y-208.7
X215.0Y-217.7
X215.0Y-226.7
X215.0Y-235.7
X215.0Y-244.7
X215.0Y-253.7
X215.0Y-262.7
X215.5Y-191.7
X216.4Y-78.3
X216.5Y-194.2
X217.0Y-199.7
X217.0Y-208.7
X217.0Y-217.7
X217.0Y-226.7
X217.0Y-235.7
X217.0Y-244.7
X217.0Y-253.7
X217.0Y-262.7
X217.1Y-194.2
X217.3Y-84.5
X217.3Y-85.1
X217.3Y-85.7
X217.3Y-93.5
X217.3Y-94.1
X217.3Y-94.7
X217.3Y-102.5
X217.3Y-103.1
X217.3Y-103.7
X217.3Y-111.5
X217.3Y-112.1
X217.3Y-112.7
X217.3Y-120.5
X217.3Y-121.1
X217.3Y-121.7
X217.3Y-129.5
X217.3Y-130.1
X217.3Y-130.7
X217.3Y-138.5
X217.3Y-139.1
X217.3Y-139.7
X217.3Y-147.5
X217.3Y-148.1
X217.3Y-148.7
X217.4Y-77.9
X218.3Y-195.1
X219.3Y-195.1
X224.5Y-191.7
T2
X95.725Y-201.7
X95.725Y-210.7
X95.725Y-219.7
X95.725Y-228.7
X95.725Y-237.7
X95.725Y-246.7
X95.725Y-255.7
X95.725Y-264.7
X108.6Y-186.825
X110.1Y-186.825
X111.6Y-186.825
X112.6Y-175.4
X113.1Y-186.825
X114.6Y-186.825
X116.1Y-186.825
X117.6Y-186.825
X119.1Y-186.825
X121.6Y-182.1
T4
X91.1Y-74.98
X91.1Y-77.52
X91.1Y-80.06
X91.1Y-82.6
T5
X92.6Y-58.8
X92.6Y-159.8
X92.6Y-175.2
X92.6Y-276.2
X235.6Y-58.8
X235.6Y-159.8
X235.6Y-175.2
X235.6Y-276.2
T3
X210.8Y-57.7G85X210.8Y-59.9
G05
X216.7Y-56.0G85X214.5Y-56.0
G05
X216.9Y-61.8G85X214.3Y-61.8
G05
T0
M30
