%TF.GenerationSoftware,KiCad,Pcbnew,(6.0.5)*%
%TF.CreationDate,2022-11-15T17:21:09-05:00*%
%TF.ProjectId,OPSpec_v0.1.0-rounded,4f505370-6563-45f7-9630-2e312e302d72,rev?*%
%TF.SameCoordinates,Original*%
%TF.FileFunction,Profile,NP*%
%FSLAX46Y46*%
G04 Gerber Fmt 4.6, Leading zero omitted, Abs format (unit mm)*
G04 Created by KiCad (PCBNEW (6.0.5)) date 2022-11-15 17:21:09*
%MOMM*%
%LPD*%
G01*
G04 APERTURE LIST*
%TA.AperFunction,Profile*%
%ADD10C,0.050000*%
%TD*%
G04 APERTURE END LIST*
D10*
X242100000Y-159800000D02*
X242100000Y-58800000D01*
X86100000Y-159800000D02*
G75*
G03*
X92600000Y-166300000I6500000J0D01*
G01*
X242100000Y-58800000D02*
G75*
G03*
X235600000Y-52300000I-6500000J0D01*
G01*
X92600000Y-282700000D02*
X235600000Y-282700000D01*
X86100000Y-276200000D02*
G75*
G03*
X92600000Y-282700000I6500000J0D01*
G01*
X235600000Y-52300000D02*
X92600000Y-52300000D01*
X218800000Y-166300000D02*
X235600000Y-166300000D01*
X208800000Y-166300000D02*
X208800000Y-166300000D01*
X92600000Y-166300000D02*
X208800000Y-166300000D01*
X86100000Y-175200000D02*
X86100000Y-276200000D01*
X235600000Y-282700000D02*
G75*
G03*
X242100000Y-276200000I0J6500000D01*
G01*
X92600000Y-52300000D02*
G75*
G03*
X86100000Y-58800000I0J-6500000D01*
G01*
X208800000Y-166300000D02*
X208800000Y-168700000D01*
X218800000Y-168700000D02*
X218800000Y-168700000D01*
X218800000Y-168700000D02*
X218800000Y-168700000D01*
X208800000Y-168700000D02*
X92600000Y-168700000D01*
X235600000Y-168700000D02*
X218800000Y-168700000D01*
X92600000Y-168700000D02*
G75*
G03*
X86100000Y-175200000I0J-6500000D01*
G01*
X242100000Y-276200000D02*
X242100000Y-175200000D01*
X242100000Y-175200000D02*
G75*
G03*
X235600000Y-168700000I-6500000J0D01*
G01*
X218800000Y-166300000D02*
X218800000Y-168700000D01*
X235600000Y-166300000D02*
G75*
G03*
X242100000Y-159800000I0J6500000D01*
G01*
X86100000Y-58800000D02*
X86100000Y-159800000D01*
M02*
