%FSLAX45Y45*%
G04 Gerber Fmt 4.5, Leading zero omitted, Abs format (unit mm)*
G04 Created by KiCad (PCBNEW (6.0.5)) date 2022-11-15 17:21:21*
%MOMM*%
%LPD*%
G01*
G04 APERTURE LIST*
%TA.AperFunction,Profile*%
%ADD10C,0.050000*%
%TD*%
%ADD11C,0.200000*%
%ADD12C,0.022860*%
%ADD13C,0.022900*%
%ADD14C,0.080000*%
%ADD15C,0.100000*%
%ADD16C,0.430000*%
G04 APERTURE END LIST*
D10*
X24210000Y-15980000D02*
X24210000Y-5880000D01*
X8610000Y-15980000D02*
G75*
G03*
X9260000Y-16630000I650000J0D01*
G01*
X24210000Y-5880000D02*
G75*
G03*
X23560000Y-5230000I-650000J0D01*
G01*
X9260000Y-28270000D02*
X23560000Y-28270000D01*
X8610000Y-27620000D02*
G75*
G03*
X9260000Y-28270000I650000J0D01*
G01*
X23560000Y-5230000D02*
X9260000Y-5230000D01*
X21880000Y-16630000D02*
X23560000Y-16630000D01*
X20880000Y-16630000D02*
X20880000Y-16630000D01*
X9260000Y-16630000D02*
X20880000Y-16630000D01*
X8610000Y-17520000D02*
X8610000Y-27620000D01*
X23560000Y-28270000D02*
G75*
G03*
X24210000Y-27620000I0J650000D01*
G01*
X9260000Y-5230000D02*
G75*
G03*
X8610000Y-5880000I0J-650000D01*
G01*
X20880000Y-16630000D02*
X20880000Y-16870000D01*
X21880000Y-16870000D02*
X21880000Y-16870000D01*
X21880000Y-16870000D02*
X21880000Y-16870000D01*
X20880000Y-16870000D02*
X9260000Y-16870000D01*
X23560000Y-16870000D02*
X21880000Y-16870000D01*
X9260000Y-16870000D02*
G75*
G03*
X8610000Y-17520000I0J-650000D01*
G01*
X24210000Y-27620000D02*
X24210000Y-17520000D01*
X24210000Y-17520000D02*
G75*
G03*
X23560000Y-16870000I-650000J0D01*
G01*
X21880000Y-16630000D02*
X21880000Y-16870000D01*
X23560000Y-16630000D02*
G75*
G03*
X24210000Y-15980000I0J650000D01*
G01*
X8610000Y-5880000D02*
X8610000Y-15980000D01*
D11*
D12*
X8918570Y-19028570D02*
X8941430Y-19051430D01*
X8941430Y-19028570D02*
X8918570Y-19051430D01*
X8918570Y-19548570D02*
X8941430Y-19571430D01*
X8941430Y-19548570D02*
X8918570Y-19571430D01*
X8978570Y-19028570D02*
X9001430Y-19051430D01*
X9001430Y-19028570D02*
X8978570Y-19051430D01*
X8978570Y-19548570D02*
X9001430Y-19571430D01*
X9001430Y-19548570D02*
X8978570Y-19571430D01*
X9038570Y-19028570D02*
X9061430Y-19051430D01*
X9061430Y-19028570D02*
X9038570Y-19051430D01*
X9038570Y-19548570D02*
X9061430Y-19571430D01*
X9061430Y-19548570D02*
X9038570Y-19571430D01*
X9148570Y-12508570D02*
X9171430Y-12531430D01*
X9171430Y-12508570D02*
X9148570Y-12531430D01*
X9148570Y-12568570D02*
X9171430Y-12591430D01*
X9171430Y-12568570D02*
X9148570Y-12591430D01*
X9148570Y-13158570D02*
X9171430Y-13181430D01*
X9171430Y-13158570D02*
X9148570Y-13181430D01*
X9148570Y-19018570D02*
X9171430Y-19041430D01*
X9171430Y-19018570D02*
X9148570Y-19041430D01*
X9148570Y-19538570D02*
X9171430Y-19561430D01*
X9171430Y-19538570D02*
X9148570Y-19561430D01*
X9158570Y-12098570D02*
X9181430Y-12121430D01*
X9181430Y-12098570D02*
X9158570Y-12121430D01*
X9208570Y-18968570D02*
X9231430Y-18991430D01*
X9231430Y-18968570D02*
X9208570Y-18991430D01*
X9208570Y-19488570D02*
X9231430Y-19511430D01*
X9231430Y-19488570D02*
X9208570Y-19511430D01*
X9218570Y-12148570D02*
X9241430Y-12171430D01*
X9241430Y-12148570D02*
X9218570Y-12171430D01*
X9258570Y-13158570D02*
X9281430Y-13181430D01*
X9281430Y-13158570D02*
X9258570Y-13181430D01*
X9268570Y-12508570D02*
X9291430Y-12531430D01*
X9291430Y-12508570D02*
X9268570Y-12531430D01*
X9268570Y-12568570D02*
X9291430Y-12591430D01*
X9291430Y-12568570D02*
X9268570Y-12591430D01*
X9398570Y-18978570D02*
X9421430Y-19001430D01*
X9421430Y-18978570D02*
X9398570Y-19001430D01*
X9398570Y-19028570D02*
X9421430Y-19051430D01*
X9421430Y-19028570D02*
X9398570Y-19051430D01*
X9398570Y-19498570D02*
X9421430Y-19521430D01*
X9421430Y-19498570D02*
X9398570Y-19521430D01*
X9398570Y-19548570D02*
X9421430Y-19571430D01*
X9421430Y-19548570D02*
X9398570Y-19571430D01*
X9428570Y-7598570D02*
X9451430Y-7621430D01*
X9451430Y-7598570D02*
X9428570Y-7621430D01*
X9428570Y-8138570D02*
X9451430Y-8161430D01*
X9451430Y-8138570D02*
X9428570Y-8161430D01*
X9488570Y-7548570D02*
X9511430Y-7571430D01*
X9511430Y-7548570D02*
X9488570Y-7571430D01*
X9488570Y-8188570D02*
X9511430Y-8211430D01*
X9511430Y-8188570D02*
X9488570Y-8211430D01*
X9528570Y-20508570D02*
X9551430Y-20531430D01*
X9551430Y-20508570D02*
X9528570Y-20531430D01*
X9528570Y-21408570D02*
X9551430Y-21431430D01*
X9551430Y-21408570D02*
X9528570Y-21431430D01*
X9528570Y-22308570D02*
X9551430Y-22331430D01*
X9551430Y-22308570D02*
X9528570Y-22331430D01*
X9528570Y-23208570D02*
X9551430Y-23231430D01*
X9551430Y-23208570D02*
X9528570Y-23231430D01*
X9528570Y-24108570D02*
X9551430Y-24131430D01*
X9551430Y-24108570D02*
X9528570Y-24131430D01*
X9528570Y-25008570D02*
X9551430Y-25031430D01*
X9551430Y-25008570D02*
X9528570Y-25031430D01*
X9528570Y-25908570D02*
X9551430Y-25931430D01*
X9551430Y-25908570D02*
X9528570Y-25931430D01*
X9528570Y-26808570D02*
X9551430Y-26831430D01*
X9551430Y-26808570D02*
X9528570Y-26831430D01*
X9588570Y-12178570D02*
X9611430Y-12201430D01*
X9611430Y-12178570D02*
X9588570Y-12201430D01*
X9588570Y-20458570D02*
X9611430Y-20481430D01*
X9611430Y-20458570D02*
X9588570Y-20481430D01*
X9588570Y-21358570D02*
X9611430Y-21381430D01*
X9611430Y-21358570D02*
X9588570Y-21381430D01*
X9588570Y-22258570D02*
X9611430Y-22281430D01*
X9611430Y-22258570D02*
X9588570Y-22281430D01*
X9588570Y-23158570D02*
X9611430Y-23181430D01*
X9611430Y-23158570D02*
X9588570Y-23181430D01*
X9588570Y-24058570D02*
X9611430Y-24081430D01*
X9611430Y-24058570D02*
X9588570Y-24081430D01*
X9588570Y-24958570D02*
X9611430Y-24981430D01*
X9611430Y-24958570D02*
X9588570Y-24981430D01*
X9588570Y-25858570D02*
X9611430Y-25881430D01*
X9611430Y-25858570D02*
X9588570Y-25881430D01*
X9588570Y-26758570D02*
X9611430Y-26781430D01*
X9611430Y-26758570D02*
X9588570Y-26781430D01*
X9618420Y-18765920D02*
X9641280Y-18788780D01*
X9641280Y-18765920D02*
X9618420Y-18788780D01*
X9638570Y-12268570D02*
X9661430Y-12291430D01*
X9661430Y-12268570D02*
X9638570Y-12291430D01*
X9638570Y-12498570D02*
X9661430Y-12521430D01*
X9661430Y-12498570D02*
X9638570Y-12521430D01*
X9648570Y-19518570D02*
X9671430Y-19541430D01*
X9671430Y-19518570D02*
X9648570Y-19541430D01*
X9658570Y-19918570D02*
X9681430Y-19941430D01*
X9681430Y-19918570D02*
X9658570Y-19941430D01*
X9658570Y-20818570D02*
X9681430Y-20841430D01*
X9681430Y-20818570D02*
X9658570Y-20841430D01*
X9658570Y-21718570D02*
X9681430Y-21741430D01*
X9681430Y-21718570D02*
X9658570Y-21741430D01*
X9658570Y-22618570D02*
X9681430Y-22641430D01*
X9681430Y-22618570D02*
X9658570Y-22641430D01*
X9658570Y-23518570D02*
X9681430Y-23541430D01*
X9681430Y-23518570D02*
X9658570Y-23541430D01*
X9658570Y-24418570D02*
X9681430Y-24441430D01*
X9681430Y-24418570D02*
X9658570Y-24441430D01*
X9658570Y-25318570D02*
X9681430Y-25341430D01*
X9681430Y-25318570D02*
X9658570Y-25341430D01*
X9658570Y-26218570D02*
X9681430Y-26241430D01*
X9681430Y-26218570D02*
X9658570Y-26241430D01*
X9668570Y-19668570D02*
X9691430Y-19691430D01*
X9691430Y-19668570D02*
X9668570Y-19691430D01*
X9668570Y-19728570D02*
X9691430Y-19751430D01*
X9691430Y-19728570D02*
X9668570Y-19751430D01*
X9668570Y-19788570D02*
X9691430Y-19811430D01*
X9691430Y-19788570D02*
X9668570Y-19811430D01*
X9678420Y-18815920D02*
X9701280Y-18838780D01*
X9701280Y-18815920D02*
X9678420Y-18838780D01*
X9678420Y-19328420D02*
X9701280Y-19351280D01*
X9701280Y-19328420D02*
X9678420Y-19351280D01*
X9678420Y-19418420D02*
X9701280Y-19441280D01*
X9701280Y-19418420D02*
X9678420Y-19441280D01*
X9688570Y-12328570D02*
X9711430Y-12351430D01*
X9711430Y-12328570D02*
X9688570Y-12351430D01*
X9698570Y-19578570D02*
X9721430Y-19601430D01*
X9721430Y-19578570D02*
X9698570Y-19601430D01*
X9708570Y-19978570D02*
X9731430Y-20001430D01*
X9731430Y-19978570D02*
X9708570Y-20001430D01*
X9708570Y-20878570D02*
X9731430Y-20901430D01*
X9731430Y-20878570D02*
X9708570Y-20901430D01*
X9708570Y-21778570D02*
X9731430Y-21801430D01*
X9731430Y-21778570D02*
X9708570Y-21801430D01*
X9708570Y-22678570D02*
X9731430Y-22701430D01*
X9731430Y-22678570D02*
X9708570Y-22701430D01*
X9708570Y-23578570D02*
X9731430Y-23601430D01*
X9731430Y-23578570D02*
X9708570Y-23601430D01*
X9708570Y-24478570D02*
X9731430Y-24501430D01*
X9731430Y-24478570D02*
X9708570Y-24501430D01*
X9708570Y-25378570D02*
X9731430Y-25401430D01*
X9731430Y-25378570D02*
X9708570Y-25401430D01*
X9708570Y-26278570D02*
X9731430Y-26301430D01*
X9731430Y-26278570D02*
X9708570Y-26301430D01*
X9738570Y-12638570D02*
X9761430Y-12661430D01*
X9761430Y-12638570D02*
X9738570Y-12661430D01*
X9768570Y-20608570D02*
X9791430Y-20631430D01*
X9791430Y-20608570D02*
X9768570Y-20631430D01*
X9768570Y-21508570D02*
X9791430Y-21531430D01*
X9791430Y-21508570D02*
X9768570Y-21531430D01*
X9768570Y-22408570D02*
X9791430Y-22431430D01*
X9791430Y-22408570D02*
X9768570Y-22431430D01*
X9768570Y-23308570D02*
X9791430Y-23331430D01*
X9791430Y-23308570D02*
X9768570Y-23331430D01*
X9768570Y-24208570D02*
X9791430Y-24231430D01*
X9791430Y-24208570D02*
X9768570Y-24231430D01*
X9768570Y-25108570D02*
X9791430Y-25131430D01*
X9791430Y-25108570D02*
X9768570Y-25131430D01*
X9768570Y-26008570D02*
X9791430Y-26031430D01*
X9791430Y-26008570D02*
X9768570Y-26031430D01*
X9768570Y-26908570D02*
X9791430Y-26931430D01*
X9791430Y-26908570D02*
X9768570Y-26931430D01*
X9778420Y-19065920D02*
X9801280Y-19088780D01*
X9801280Y-19065920D02*
X9778420Y-19088780D01*
X9778420Y-19125920D02*
X9801280Y-19148780D01*
X9801280Y-19125920D02*
X9778420Y-19148780D01*
X9778420Y-19185920D02*
X9801280Y-19208780D01*
X9801280Y-19185920D02*
X9778420Y-19208780D01*
X9788570Y-12268570D02*
X9811430Y-12291430D01*
X9811430Y-12268570D02*
X9788570Y-12291430D01*
X9798570Y-19518570D02*
X9821430Y-19541430D01*
X9821430Y-19518570D02*
X9798570Y-19541430D01*
X9808570Y-19921070D02*
X9831430Y-19943930D01*
X9831430Y-19921070D02*
X9808570Y-19943930D01*
X9808570Y-20438570D02*
X9831430Y-20461430D01*
X9831430Y-20438570D02*
X9808570Y-20461430D01*
X9808570Y-20508570D02*
X9831430Y-20531430D01*
X9831430Y-20508570D02*
X9808570Y-20531430D01*
X9808570Y-20821070D02*
X9831430Y-20843930D01*
X9831430Y-20821070D02*
X9808570Y-20843930D01*
X9808570Y-21338570D02*
X9831430Y-21361430D01*
X9831430Y-21338570D02*
X9808570Y-21361430D01*
X9808570Y-21408570D02*
X9831430Y-21431430D01*
X9831430Y-21408570D02*
X9808570Y-21431430D01*
X9808570Y-21721070D02*
X9831430Y-21743930D01*
X9831430Y-21721070D02*
X9808570Y-21743930D01*
X9808570Y-22238570D02*
X9831430Y-22261430D01*
X9831430Y-22238570D02*
X9808570Y-22261430D01*
X9808570Y-22308570D02*
X9831430Y-22331430D01*
X9831430Y-22308570D02*
X9808570Y-22331430D01*
X9808570Y-22621070D02*
X9831430Y-22643930D01*
X9831430Y-22621070D02*
X9808570Y-22643930D01*
X9808570Y-23138570D02*
X9831430Y-23161430D01*
X9831430Y-23138570D02*
X9808570Y-23161430D01*
X9808570Y-23208570D02*
X9831430Y-23231430D01*
X9831430Y-23208570D02*
X9808570Y-23231430D01*
X9808570Y-23521070D02*
X9831430Y-23543930D01*
X9831430Y-23521070D02*
X9808570Y-23543930D01*
X9808570Y-24038570D02*
X9831430Y-24061430D01*
X9831430Y-24038570D02*
X9808570Y-24061430D01*
X9808570Y-24108570D02*
X9831430Y-24131430D01*
X9831430Y-24108570D02*
X9808570Y-24131430D01*
X9808570Y-24421070D02*
X9831430Y-24443930D01*
X9831430Y-24421070D02*
X9808570Y-24443930D01*
X9808570Y-24938570D02*
X9831430Y-24961430D01*
X9831430Y-24938570D02*
X9808570Y-24961430D01*
X9808570Y-25008570D02*
X9831430Y-25031430D01*
X9831430Y-25008570D02*
X9808570Y-25031430D01*
X9808570Y-25321070D02*
X9831430Y-25343930D01*
X9831430Y-25321070D02*
X9808570Y-25343930D01*
X9808570Y-25838570D02*
X9831430Y-25861430D01*
X9831430Y-25838570D02*
X9808570Y-25861430D01*
X9808570Y-25908570D02*
X9831430Y-25931430D01*
X9831430Y-25908570D02*
X9808570Y-25931430D01*
X9808570Y-26221070D02*
X9831430Y-26243930D01*
X9831430Y-26221070D02*
X9808570Y-26243930D01*
X9808570Y-26738570D02*
X9831430Y-26761430D01*
X9831430Y-26738570D02*
X9808570Y-26761430D01*
X9808570Y-26808570D02*
X9831430Y-26831430D01*
X9831430Y-26808570D02*
X9808570Y-26831430D01*
X9818570Y-20198570D02*
X9841430Y-20221430D01*
X9841430Y-20198570D02*
X9818570Y-20221430D01*
X9818570Y-20288570D02*
X9841430Y-20311430D01*
X9841430Y-20288570D02*
X9818570Y-20311430D01*
X9818570Y-20378570D02*
X9841430Y-20401430D01*
X9841430Y-20378570D02*
X9818570Y-20401430D01*
X9818570Y-20668570D02*
X9841430Y-20691430D01*
X9841430Y-20668570D02*
X9818570Y-20691430D01*
X9818570Y-21098570D02*
X9841430Y-21121430D01*
X9841430Y-21098570D02*
X9818570Y-21121430D01*
X9818570Y-21188570D02*
X9841430Y-21211430D01*
X9841430Y-21188570D02*
X9818570Y-21211430D01*
X9818570Y-21278570D02*
X9841430Y-21301430D01*
X9841430Y-21278570D02*
X9818570Y-21301430D01*
X9818570Y-21568570D02*
X9841430Y-21591430D01*
X9841430Y-21568570D02*
X9818570Y-21591430D01*
X9818570Y-21998570D02*
X9841430Y-22021430D01*
X9841430Y-21998570D02*
X9818570Y-22021430D01*
X9818570Y-22088570D02*
X9841430Y-22111430D01*
X9841430Y-22088570D02*
X9818570Y-22111430D01*
X9818570Y-22178570D02*
X9841430Y-22201430D01*
X9841430Y-22178570D02*
X9818570Y-22201430D01*
X9818570Y-22468570D02*
X9841430Y-22491430D01*
X9841430Y-22468570D02*
X9818570Y-22491430D01*
X9818570Y-22898570D02*
X9841430Y-22921430D01*
X9841430Y-22898570D02*
X9818570Y-22921430D01*
X9818570Y-22988570D02*
X9841430Y-23011430D01*
X9841430Y-22988570D02*
X9818570Y-23011430D01*
X9818570Y-23078570D02*
X9841430Y-23101430D01*
X9841430Y-23078570D02*
X9818570Y-23101430D01*
X9818570Y-23368570D02*
X9841430Y-23391430D01*
X9841430Y-23368570D02*
X9818570Y-23391430D01*
X9818570Y-23798570D02*
X9841430Y-23821430D01*
X9841430Y-23798570D02*
X9818570Y-23821430D01*
X9818570Y-23888570D02*
X9841430Y-23911430D01*
X9841430Y-23888570D02*
X9818570Y-23911430D01*
X9818570Y-23978570D02*
X9841430Y-24001430D01*
X9841430Y-23978570D02*
X9818570Y-24001430D01*
X9818570Y-24268570D02*
X9841430Y-24291430D01*
X9841430Y-24268570D02*
X9818570Y-24291430D01*
X9818570Y-24698570D02*
X9841430Y-24721430D01*
X9841430Y-24698570D02*
X9818570Y-24721430D01*
X9818570Y-24788570D02*
X9841430Y-24811430D01*
X9841430Y-24788570D02*
X9818570Y-24811430D01*
X9818570Y-24878570D02*
X9841430Y-24901430D01*
X9841430Y-24878570D02*
X9818570Y-24901430D01*
X9818570Y-25168570D02*
X9841430Y-25191430D01*
X9841430Y-25168570D02*
X9818570Y-25191430D01*
X9818570Y-25598570D02*
X9841430Y-25621430D01*
X9841430Y-25598570D02*
X9818570Y-25621430D01*
X9818570Y-25688570D02*
X9841430Y-25711430D01*
X9841430Y-25688570D02*
X9818570Y-25711430D01*
X9818570Y-25778570D02*
X9841430Y-25801430D01*
X9841430Y-25778570D02*
X9818570Y-25801430D01*
X9818570Y-26068570D02*
X9841430Y-26091430D01*
X9841430Y-26068570D02*
X9818570Y-26091430D01*
X9818570Y-26498570D02*
X9841430Y-26521430D01*
X9841430Y-26498570D02*
X9818570Y-26521430D01*
X9818570Y-26588570D02*
X9841430Y-26611430D01*
X9841430Y-26588570D02*
X9818570Y-26611430D01*
X9818570Y-26678570D02*
X9841430Y-26701430D01*
X9841430Y-26678570D02*
X9818570Y-26701430D01*
X9818570Y-26968570D02*
X9841430Y-26991430D01*
X9841430Y-26968570D02*
X9818570Y-26991430D01*
X9838570Y-12328570D02*
X9861430Y-12351430D01*
X9861430Y-12328570D02*
X9838570Y-12351430D01*
X9848570Y-12638570D02*
X9871430Y-12661430D01*
X9871430Y-12638570D02*
X9848570Y-12661430D01*
X9848570Y-19578570D02*
X9871430Y-19601430D01*
X9871430Y-19578570D02*
X9848570Y-19601430D01*
X9858420Y-18725920D02*
X9881280Y-18748780D01*
X9881280Y-18725920D02*
X9858420Y-18748780D01*
X9858420Y-18785920D02*
X9881280Y-18808780D01*
X9881280Y-18785920D02*
X9858420Y-18808780D01*
X9868570Y-19981070D02*
X9891430Y-20003930D01*
X9891430Y-19981070D02*
X9868570Y-20003930D01*
X9868570Y-20881070D02*
X9891430Y-20903930D01*
X9891430Y-20881070D02*
X9868570Y-20903930D01*
X9868570Y-21781070D02*
X9891430Y-21803930D01*
X9891430Y-21781070D02*
X9868570Y-21803930D01*
X9868570Y-22681070D02*
X9891430Y-22703930D01*
X9891430Y-22681070D02*
X9868570Y-22703930D01*
X9868570Y-23581070D02*
X9891430Y-23603930D01*
X9891430Y-23581070D02*
X9868570Y-23603930D01*
X9868570Y-24481070D02*
X9891430Y-24503930D01*
X9891430Y-24481070D02*
X9868570Y-24503930D01*
X9868570Y-25381070D02*
X9891430Y-25403930D01*
X9891430Y-25381070D02*
X9868570Y-25403930D01*
X9868570Y-26281070D02*
X9891430Y-26303930D01*
X9891430Y-26281070D02*
X9868570Y-26303930D01*
X9878570Y-19668570D02*
X9901430Y-19691430D01*
X9901430Y-19668570D02*
X9878570Y-19691430D01*
X9878570Y-19728570D02*
X9901430Y-19751430D01*
X9901430Y-19728570D02*
X9878570Y-19751430D01*
X9878570Y-19788570D02*
X9901430Y-19811430D01*
X9901430Y-19788570D02*
X9878570Y-19811430D01*
X9878570Y-20071070D02*
X9901430Y-20093930D01*
X9901430Y-20071070D02*
X9878570Y-20093930D01*
X9878570Y-20131070D02*
X9901430Y-20153930D01*
X9901430Y-20131070D02*
X9878570Y-20153930D01*
X9878570Y-20438570D02*
X9901430Y-20461430D01*
X9901430Y-20438570D02*
X9878570Y-20461430D01*
X9878570Y-20508570D02*
X9901430Y-20531430D01*
X9901430Y-20508570D02*
X9878570Y-20531430D01*
X9878570Y-20971070D02*
X9901430Y-20993930D01*
X9901430Y-20971070D02*
X9878570Y-20993930D01*
X9878570Y-21031070D02*
X9901430Y-21053930D01*
X9901430Y-21031070D02*
X9878570Y-21053930D01*
X9878570Y-21338570D02*
X9901430Y-21361430D01*
X9901430Y-21338570D02*
X9878570Y-21361430D01*
X9878570Y-21408570D02*
X9901430Y-21431430D01*
X9901430Y-21408570D02*
X9878570Y-21431430D01*
X9878570Y-21871070D02*
X9901430Y-21893930D01*
X9901430Y-21871070D02*
X9878570Y-21893930D01*
X9878570Y-21931070D02*
X9901430Y-21953930D01*
X9901430Y-21931070D02*
X9878570Y-21953930D01*
X9878570Y-22238570D02*
X9901430Y-22261430D01*
X9901430Y-22238570D02*
X9878570Y-22261430D01*
X9878570Y-22308570D02*
X9901430Y-22331430D01*
X9901430Y-22308570D02*
X9878570Y-22331430D01*
X9878570Y-22771070D02*
X9901430Y-22793930D01*
X9901430Y-22771070D02*
X9878570Y-22793930D01*
X9878570Y-22831070D02*
X9901430Y-22853930D01*
X9901430Y-22831070D02*
X9878570Y-22853930D01*
X9878570Y-23138570D02*
X9901430Y-23161430D01*
X9901430Y-23138570D02*
X9878570Y-23161430D01*
X9878570Y-23208570D02*
X9901430Y-23231430D01*
X9901430Y-23208570D02*
X9878570Y-23231430D01*
X9878570Y-23671070D02*
X9901430Y-23693930D01*
X9901430Y-23671070D02*
X9878570Y-23693930D01*
X9878570Y-23731070D02*
X9901430Y-23753930D01*
X9901430Y-23731070D02*
X9878570Y-23753930D01*
X9878570Y-24038570D02*
X9901430Y-24061430D01*
X9901430Y-24038570D02*
X9878570Y-24061430D01*
X9878570Y-24108570D02*
X9901430Y-24131430D01*
X9901430Y-24108570D02*
X9878570Y-24131430D01*
X9878570Y-24571070D02*
X9901430Y-24593930D01*
X9901430Y-24571070D02*
X9878570Y-24593930D01*
X9878570Y-24631070D02*
X9901430Y-24653930D01*
X9901430Y-24631070D02*
X9878570Y-24653930D01*
X9878570Y-24938570D02*
X9901430Y-24961430D01*
X9901430Y-24938570D02*
X9878570Y-24961430D01*
X9878570Y-25008570D02*
X9901430Y-25031430D01*
X9901430Y-25008570D02*
X9878570Y-25031430D01*
X9878570Y-25471070D02*
X9901430Y-25493930D01*
X9901430Y-25471070D02*
X9878570Y-25493930D01*
X9878570Y-25531070D02*
X9901430Y-25553930D01*
X9901430Y-25531070D02*
X9878570Y-25553930D01*
X9878570Y-25838570D02*
X9901430Y-25861430D01*
X9901430Y-25838570D02*
X9878570Y-25861430D01*
X9878570Y-25908570D02*
X9901430Y-25931430D01*
X9901430Y-25908570D02*
X9878570Y-25931430D01*
X9878570Y-26371070D02*
X9901430Y-26393930D01*
X9901430Y-26371070D02*
X9878570Y-26393930D01*
X9878570Y-26431070D02*
X9901430Y-26453930D01*
X9901430Y-26431070D02*
X9878570Y-26453930D01*
X9878570Y-26738570D02*
X9901430Y-26761430D01*
X9901430Y-26738570D02*
X9878570Y-26761430D01*
X9878570Y-26808570D02*
X9901430Y-26831430D01*
X9901430Y-26808570D02*
X9878570Y-26831430D01*
X9908570Y-20198570D02*
X9931430Y-20221430D01*
X9931430Y-20198570D02*
X9908570Y-20221430D01*
X9908570Y-20288570D02*
X9931430Y-20311430D01*
X9931430Y-20288570D02*
X9908570Y-20311430D01*
X9908570Y-20378570D02*
X9931430Y-20401430D01*
X9931430Y-20378570D02*
X9908570Y-20401430D01*
X9908570Y-21098570D02*
X9931430Y-21121430D01*
X9931430Y-21098570D02*
X9908570Y-21121430D01*
X9908570Y-21188570D02*
X9931430Y-21211430D01*
X9931430Y-21188570D02*
X9908570Y-21211430D01*
X9908570Y-21278570D02*
X9931430Y-21301430D01*
X9931430Y-21278570D02*
X9908570Y-21301430D01*
X9908570Y-21998570D02*
X9931430Y-22021430D01*
X9931430Y-21998570D02*
X9908570Y-22021430D01*
X9908570Y-22088570D02*
X9931430Y-22111430D01*
X9931430Y-22088570D02*
X9908570Y-22111430D01*
X9908570Y-22178570D02*
X9931430Y-22201430D01*
X9931430Y-22178570D02*
X9908570Y-22201430D01*
X9908570Y-22898570D02*
X9931430Y-22921430D01*
X9931430Y-22898570D02*
X9908570Y-22921430D01*
X9908570Y-22988570D02*
X9931430Y-23011430D01*
X9931430Y-22988570D02*
X9908570Y-23011430D01*
X9908570Y-23078570D02*
X9931430Y-23101430D01*
X9931430Y-23078570D02*
X9908570Y-23101430D01*
X9908570Y-23798570D02*
X9931430Y-23821430D01*
X9931430Y-23798570D02*
X9908570Y-23821430D01*
X9908570Y-23888570D02*
X9931430Y-23911430D01*
X9931430Y-23888570D02*
X9908570Y-23911430D01*
X9908570Y-23978570D02*
X9931430Y-24001430D01*
X9931430Y-23978570D02*
X9908570Y-24001430D01*
X9908570Y-24698570D02*
X9931430Y-24721430D01*
X9931430Y-24698570D02*
X9908570Y-24721430D01*
X9908570Y-24788570D02*
X9931430Y-24811430D01*
X9931430Y-24788570D02*
X9908570Y-24811430D01*
X9908570Y-24878570D02*
X9931430Y-24901430D01*
X9931430Y-24878570D02*
X9908570Y-24901430D01*
X9908570Y-25598570D02*
X9931430Y-25621430D01*
X9931430Y-25598570D02*
X9908570Y-25621430D01*
X9908570Y-25688570D02*
X9931430Y-25711430D01*
X9931430Y-25688570D02*
X9908570Y-25711430D01*
X9908570Y-25778570D02*
X9931430Y-25801430D01*
X9931430Y-25778570D02*
X9908570Y-25801430D01*
X9908570Y-26498570D02*
X9931430Y-26521430D01*
X9931430Y-26498570D02*
X9908570Y-26521430D01*
X9908570Y-26588570D02*
X9931430Y-26611430D01*
X9931430Y-26588570D02*
X9908570Y-26611430D01*
X9908570Y-26678570D02*
X9931430Y-26701430D01*
X9931430Y-26678570D02*
X9908570Y-26701430D01*
X9948570Y-12418570D02*
X9971430Y-12441430D01*
X9971430Y-12418570D02*
X9948570Y-12441430D01*
X9948570Y-12578570D02*
X9971430Y-12601430D01*
X9971430Y-12578570D02*
X9948570Y-12601430D01*
X9958420Y-18725920D02*
X9981280Y-18748780D01*
X9981280Y-18725920D02*
X9958420Y-18748780D01*
X9958420Y-18785920D02*
X9981280Y-18808780D01*
X9981280Y-18785920D02*
X9958420Y-18808780D01*
X9998570Y-20198570D02*
X10021430Y-20221430D01*
X10021430Y-20198570D02*
X9998570Y-20221430D01*
X9998570Y-20288570D02*
X10021430Y-20311430D01*
X10021430Y-20288570D02*
X9998570Y-20311430D01*
X9998570Y-20378570D02*
X10021430Y-20401430D01*
X10021430Y-20378570D02*
X9998570Y-20401430D01*
X9998570Y-21098570D02*
X10021430Y-21121430D01*
X10021430Y-21098570D02*
X9998570Y-21121430D01*
X9998570Y-21188570D02*
X10021430Y-21211430D01*
X10021430Y-21188570D02*
X9998570Y-21211430D01*
X9998570Y-21278570D02*
X10021430Y-21301430D01*
X10021430Y-21278570D02*
X9998570Y-21301430D01*
X9998570Y-21998570D02*
X10021430Y-22021430D01*
X10021430Y-21998570D02*
X9998570Y-22021430D01*
X9998570Y-22088570D02*
X10021430Y-22111430D01*
X10021430Y-22088570D02*
X9998570Y-22111430D01*
X9998570Y-22178570D02*
X10021430Y-22201430D01*
X10021430Y-22178570D02*
X9998570Y-22201430D01*
X9998570Y-22898570D02*
X10021430Y-22921430D01*
X10021430Y-22898570D02*
X9998570Y-22921430D01*
X9998570Y-22988570D02*
X10021430Y-23011430D01*
X10021430Y-22988570D02*
X9998570Y-23011430D01*
X9998570Y-23078570D02*
X10021430Y-23101430D01*
X10021430Y-23078570D02*
X9998570Y-23101430D01*
X9998570Y-23798570D02*
X10021430Y-23821430D01*
X10021430Y-23798570D02*
X9998570Y-23821430D01*
X9998570Y-23888570D02*
X10021430Y-23911430D01*
X10021430Y-23888570D02*
X9998570Y-23911430D01*
X9998570Y-23978570D02*
X10021430Y-24001430D01*
X10021430Y-23978570D02*
X9998570Y-24001430D01*
X9998570Y-24698570D02*
X10021430Y-24721430D01*
X10021430Y-24698570D02*
X9998570Y-24721430D01*
X9998570Y-24788570D02*
X10021430Y-24811430D01*
X10021430Y-24788570D02*
X9998570Y-24811430D01*
X9998570Y-24878570D02*
X10021430Y-24901430D01*
X10021430Y-24878570D02*
X9998570Y-24901430D01*
X9998570Y-25598570D02*
X10021430Y-25621430D01*
X10021430Y-25598570D02*
X9998570Y-25621430D01*
X9998570Y-25688570D02*
X10021430Y-25711430D01*
X10021430Y-25688570D02*
X9998570Y-25711430D01*
X9998570Y-25778570D02*
X10021430Y-25801430D01*
X10021430Y-25778570D02*
X9998570Y-25801430D01*
X9998570Y-26498570D02*
X10021430Y-26521430D01*
X10021430Y-26498570D02*
X9998570Y-26521430D01*
X9998570Y-26588570D02*
X10021430Y-26611430D01*
X10021430Y-26588570D02*
X9998570Y-26611430D01*
X9998570Y-26678570D02*
X10021430Y-26701430D01*
X10021430Y-26678570D02*
X9998570Y-26701430D01*
X10008570Y-12478570D02*
X10031430Y-12501430D01*
X10031430Y-12478570D02*
X10008570Y-12501430D01*
X10008570Y-12628570D02*
X10031430Y-12651430D01*
X10031430Y-12628570D02*
X10008570Y-12651430D01*
X10018570Y-20108570D02*
X10041430Y-20131430D01*
X10041430Y-20108570D02*
X10018570Y-20131430D01*
X10018570Y-21008570D02*
X10041430Y-21031430D01*
X10041430Y-21008570D02*
X10018570Y-21031430D01*
X10018570Y-21908570D02*
X10041430Y-21931430D01*
X10041430Y-21908570D02*
X10018570Y-21931430D01*
X10018570Y-22808570D02*
X10041430Y-22831430D01*
X10041430Y-22808570D02*
X10018570Y-22831430D01*
X10018570Y-23708570D02*
X10041430Y-23731430D01*
X10041430Y-23708570D02*
X10018570Y-23731430D01*
X10018570Y-24608570D02*
X10041430Y-24631430D01*
X10041430Y-24608570D02*
X10018570Y-24631430D01*
X10018570Y-25508570D02*
X10041430Y-25531430D01*
X10041430Y-25508570D02*
X10018570Y-25531430D01*
X10018570Y-26408570D02*
X10041430Y-26431430D01*
X10041430Y-26408570D02*
X10018570Y-26431430D01*
X10093570Y-20386070D02*
X10116430Y-20408930D01*
X10116430Y-20386070D02*
X10093570Y-20408930D01*
X10093570Y-21286070D02*
X10116430Y-21308930D01*
X10116430Y-21286070D02*
X10093570Y-21308930D01*
X10093570Y-22186070D02*
X10116430Y-22208930D01*
X10116430Y-22186070D02*
X10093570Y-22208930D01*
X10093570Y-23086070D02*
X10116430Y-23108930D01*
X10116430Y-23086070D02*
X10093570Y-23108930D01*
X10093570Y-23986070D02*
X10116430Y-24008930D01*
X10116430Y-23986070D02*
X10093570Y-24008930D01*
X10093570Y-24886070D02*
X10116430Y-24908930D01*
X10116430Y-24886070D02*
X10093570Y-24908930D01*
X10093570Y-25786070D02*
X10116430Y-25808930D01*
X10116430Y-25786070D02*
X10093570Y-25808930D01*
X10093570Y-26686070D02*
X10116430Y-26708930D01*
X10116430Y-26686070D02*
X10093570Y-26708930D01*
X10128570Y-19918570D02*
X10151430Y-19941430D01*
X10151430Y-19918570D02*
X10128570Y-19941430D01*
X10128570Y-20818570D02*
X10151430Y-20841430D01*
X10151430Y-20818570D02*
X10128570Y-20841430D01*
X10128570Y-21718570D02*
X10151430Y-21741430D01*
X10151430Y-21718570D02*
X10128570Y-21741430D01*
X10128570Y-22618570D02*
X10151430Y-22641430D01*
X10151430Y-22618570D02*
X10128570Y-22641430D01*
X10128570Y-23518570D02*
X10151430Y-23541430D01*
X10151430Y-23518570D02*
X10128570Y-23541430D01*
X10128570Y-24418570D02*
X10151430Y-24441430D01*
X10151430Y-24418570D02*
X10128570Y-24441430D01*
X10128570Y-25318570D02*
X10151430Y-25341430D01*
X10151430Y-25318570D02*
X10128570Y-25341430D01*
X10128570Y-26218570D02*
X10151430Y-26241430D01*
X10151430Y-26218570D02*
X10128570Y-26241430D01*
X10178570Y-19978570D02*
X10201430Y-20001430D01*
X10201430Y-19978570D02*
X10178570Y-20001430D01*
X10178570Y-20878570D02*
X10201430Y-20901430D01*
X10201430Y-20878570D02*
X10178570Y-20901430D01*
X10178570Y-21778570D02*
X10201430Y-21801430D01*
X10201430Y-21778570D02*
X10178570Y-21801430D01*
X10178570Y-22678570D02*
X10201430Y-22701430D01*
X10201430Y-22678570D02*
X10178570Y-22701430D01*
X10178570Y-23578570D02*
X10201430Y-23601430D01*
X10201430Y-23578570D02*
X10178570Y-23601430D01*
X10178570Y-24478570D02*
X10201430Y-24501430D01*
X10201430Y-24478570D02*
X10178570Y-24501430D01*
X10178570Y-25378570D02*
X10201430Y-25401430D01*
X10201430Y-25378570D02*
X10178570Y-25401430D01*
X10178570Y-26278570D02*
X10201430Y-26301430D01*
X10201430Y-26278570D02*
X10178570Y-26301430D01*
X10228570Y-20628570D02*
X10251430Y-20651430D01*
X10251430Y-20628570D02*
X10228570Y-20651430D01*
X10228570Y-21528570D02*
X10251430Y-21551430D01*
X10251430Y-21528570D02*
X10228570Y-21551430D01*
X10228570Y-22428570D02*
X10251430Y-22451430D01*
X10251430Y-22428570D02*
X10228570Y-22451430D01*
X10228570Y-23328570D02*
X10251430Y-23351430D01*
X10251430Y-23328570D02*
X10228570Y-23351430D01*
X10228570Y-24228570D02*
X10251430Y-24251430D01*
X10251430Y-24228570D02*
X10228570Y-24251430D01*
X10228570Y-25128570D02*
X10251430Y-25151430D01*
X10251430Y-25128570D02*
X10228570Y-25151430D01*
X10228570Y-26028570D02*
X10251430Y-26051430D01*
X10251430Y-26028570D02*
X10228570Y-26051430D01*
X10228570Y-26928570D02*
X10251430Y-26951430D01*
X10251430Y-26928570D02*
X10228570Y-26951430D01*
X10288570Y-20578570D02*
X10311430Y-20601430D01*
X10311430Y-20578570D02*
X10288570Y-20601430D01*
X10288570Y-21478570D02*
X10311430Y-21501430D01*
X10311430Y-21478570D02*
X10288570Y-21501430D01*
X10288570Y-22378570D02*
X10311430Y-22401430D01*
X10311430Y-22378570D02*
X10288570Y-22401430D01*
X10288570Y-23278570D02*
X10311430Y-23301430D01*
X10311430Y-23278570D02*
X10288570Y-23301430D01*
X10288570Y-24178570D02*
X10311430Y-24201430D01*
X10311430Y-24178570D02*
X10288570Y-24201430D01*
X10288570Y-25078570D02*
X10311430Y-25101430D01*
X10311430Y-25078570D02*
X10288570Y-25101430D01*
X10288570Y-25978570D02*
X10311430Y-26001430D01*
X10311430Y-25978570D02*
X10288570Y-26001430D01*
X10288570Y-26878570D02*
X10311430Y-26901430D01*
X10311430Y-26878570D02*
X10288570Y-26901430D01*
X10468570Y-17458570D02*
X10491430Y-17481430D01*
X10491430Y-17458570D02*
X10468570Y-17481430D01*
X10468570Y-17608570D02*
X10491430Y-17631430D01*
X10491430Y-17608570D02*
X10468570Y-17631430D01*
X10468570Y-17758570D02*
X10491430Y-17781430D01*
X10491430Y-17758570D02*
X10468570Y-17781430D01*
X10468570Y-17908570D02*
X10491430Y-17931430D01*
X10491430Y-17908570D02*
X10468570Y-17931430D01*
X10468570Y-18058570D02*
X10491430Y-18081430D01*
X10491430Y-18058570D02*
X10468570Y-18081430D01*
X10468570Y-18208570D02*
X10491430Y-18231430D01*
X10491430Y-18208570D02*
X10468570Y-18231430D01*
X10468570Y-18358570D02*
X10491430Y-18381430D01*
X10491430Y-18358570D02*
X10468570Y-18381430D01*
X10468570Y-18508570D02*
X10491430Y-18531430D01*
X10491430Y-18508570D02*
X10468570Y-18531430D01*
X10568570Y-20078570D02*
X10591430Y-20101430D01*
X10591430Y-20078570D02*
X10568570Y-20101430D01*
X10568570Y-20978570D02*
X10591430Y-21001430D01*
X10591430Y-20978570D02*
X10568570Y-21001430D01*
X10568570Y-21878570D02*
X10591430Y-21901430D01*
X10591430Y-21878570D02*
X10568570Y-21901430D01*
X10568570Y-22778570D02*
X10591430Y-22801430D01*
X10591430Y-22778570D02*
X10568570Y-22801430D01*
X10568570Y-23678570D02*
X10591430Y-23701430D01*
X10591430Y-23678570D02*
X10568570Y-23701430D01*
X10568570Y-24578570D02*
X10591430Y-24601430D01*
X10591430Y-24578570D02*
X10568570Y-24601430D01*
X10568570Y-25478570D02*
X10591430Y-25501430D01*
X10591430Y-25478570D02*
X10568570Y-25501430D01*
X10568570Y-26378570D02*
X10591430Y-26401430D01*
X10591430Y-26378570D02*
X10568570Y-26401430D01*
X10628570Y-20028570D02*
X10651430Y-20051430D01*
X10651430Y-20028570D02*
X10628570Y-20051430D01*
X10628570Y-20928570D02*
X10651430Y-20951430D01*
X10651430Y-20928570D02*
X10628570Y-20951430D01*
X10628570Y-21828570D02*
X10651430Y-21851430D01*
X10651430Y-21828570D02*
X10628570Y-21851430D01*
X10628570Y-22728570D02*
X10651430Y-22751430D01*
X10651430Y-22728570D02*
X10628570Y-22751430D01*
X10628570Y-23628570D02*
X10651430Y-23651430D01*
X10651430Y-23628570D02*
X10628570Y-23651430D01*
X10628570Y-24528570D02*
X10651430Y-24551430D01*
X10651430Y-24528570D02*
X10628570Y-24551430D01*
X10628570Y-25428570D02*
X10651430Y-25451430D01*
X10651430Y-25428570D02*
X10628570Y-25451430D01*
X10628570Y-26328570D02*
X10651430Y-26351430D01*
X10651430Y-26328570D02*
X10628570Y-26351430D01*
X10638570Y-17458570D02*
X10661430Y-17481430D01*
X10661430Y-17458570D02*
X10638570Y-17481430D01*
X10638570Y-17608570D02*
X10661430Y-17631430D01*
X10661430Y-17608570D02*
X10638570Y-17631430D01*
X10638570Y-17758570D02*
X10661430Y-17781430D01*
X10661430Y-17758570D02*
X10638570Y-17781430D01*
X10638570Y-17908570D02*
X10661430Y-17931430D01*
X10661430Y-17908570D02*
X10638570Y-17931430D01*
X10638570Y-18058570D02*
X10661430Y-18081430D01*
X10661430Y-18058570D02*
X10638570Y-18081430D01*
X10638570Y-18208570D02*
X10661430Y-18231430D01*
X10661430Y-18208570D02*
X10638570Y-18231430D01*
X10638570Y-18358570D02*
X10661430Y-18381430D01*
X10661430Y-18358570D02*
X10638570Y-18381430D01*
X10638570Y-18508570D02*
X10661430Y-18531430D01*
X10661430Y-18508570D02*
X10638570Y-18531430D01*
X10668570Y-9048570D02*
X10691430Y-9071430D01*
X10691430Y-9048570D02*
X10668570Y-9071430D01*
X10668570Y-9948570D02*
X10691430Y-9971430D01*
X10691430Y-9948570D02*
X10668570Y-9971430D01*
X10668570Y-10848570D02*
X10691430Y-10871430D01*
X10691430Y-10848570D02*
X10668570Y-10871430D01*
X10668570Y-11748570D02*
X10691430Y-11771430D01*
X10691430Y-11748570D02*
X10668570Y-11771430D01*
X10668570Y-12648570D02*
X10691430Y-12671430D01*
X10691430Y-12648570D02*
X10668570Y-12671430D01*
X10668570Y-13548570D02*
X10691430Y-13571430D01*
X10691430Y-13548570D02*
X10668570Y-13571430D01*
X10668570Y-14448570D02*
X10691430Y-14471430D01*
X10691430Y-14448570D02*
X10668570Y-14471430D01*
X10668570Y-15348570D02*
X10691430Y-15371430D01*
X10691430Y-15348570D02*
X10668570Y-15371430D01*
X10678570Y-8948570D02*
X10701430Y-8971430D01*
X10701430Y-8948570D02*
X10678570Y-8971430D01*
X10678570Y-9848570D02*
X10701430Y-9871430D01*
X10701430Y-9848570D02*
X10678570Y-9871430D01*
X10678570Y-10748570D02*
X10701430Y-10771430D01*
X10701430Y-10748570D02*
X10678570Y-10771430D01*
X10678570Y-11648570D02*
X10701430Y-11671430D01*
X10701430Y-11648570D02*
X10678570Y-11671430D01*
X10678570Y-12548570D02*
X10701430Y-12571430D01*
X10701430Y-12548570D02*
X10678570Y-12571430D01*
X10678570Y-13448570D02*
X10701430Y-13471430D01*
X10701430Y-13448570D02*
X10678570Y-13471430D01*
X10678570Y-14348570D02*
X10701430Y-14371430D01*
X10701430Y-14348570D02*
X10678570Y-14371430D01*
X10678570Y-15248570D02*
X10701430Y-15271430D01*
X10701430Y-15248570D02*
X10678570Y-15271430D01*
X10688570Y-20668570D02*
X10711430Y-20691430D01*
X10711430Y-20668570D02*
X10688570Y-20691430D01*
X10688570Y-21568570D02*
X10711430Y-21591430D01*
X10711430Y-21568570D02*
X10688570Y-21591430D01*
X10688570Y-22468570D02*
X10711430Y-22491430D01*
X10711430Y-22468570D02*
X10688570Y-22491430D01*
X10688570Y-23368570D02*
X10711430Y-23391430D01*
X10711430Y-23368570D02*
X10688570Y-23391430D01*
X10688570Y-24268570D02*
X10711430Y-24291430D01*
X10711430Y-24268570D02*
X10688570Y-24291430D01*
X10688570Y-25168570D02*
X10711430Y-25191430D01*
X10711430Y-25168570D02*
X10688570Y-25191430D01*
X10688570Y-26068570D02*
X10711430Y-26091430D01*
X10711430Y-26068570D02*
X10688570Y-26091430D01*
X10688570Y-26968570D02*
X10711430Y-26991430D01*
X10711430Y-26968570D02*
X10688570Y-26991430D01*
X10748570Y-20618570D02*
X10771430Y-20641430D01*
X10771430Y-20618570D02*
X10748570Y-20641430D01*
X10748570Y-21518570D02*
X10771430Y-21541430D01*
X10771430Y-21518570D02*
X10748570Y-21541430D01*
X10748570Y-22418570D02*
X10771430Y-22441430D01*
X10771430Y-22418570D02*
X10748570Y-22441430D01*
X10748570Y-23318570D02*
X10771430Y-23341430D01*
X10771430Y-23318570D02*
X10748570Y-23341430D01*
X10748570Y-24218570D02*
X10771430Y-24241430D01*
X10771430Y-24218570D02*
X10748570Y-24241430D01*
X10748570Y-25118570D02*
X10771430Y-25141430D01*
X10771430Y-25118570D02*
X10748570Y-25141430D01*
X10748570Y-26018570D02*
X10771430Y-26041430D01*
X10771430Y-26018570D02*
X10748570Y-26041430D01*
X10748570Y-26918570D02*
X10771430Y-26941430D01*
X10771430Y-26918570D02*
X10748570Y-26941430D01*
X10778570Y-9308570D02*
X10801430Y-9331430D01*
X10801430Y-9308570D02*
X10778570Y-9331430D01*
X10778570Y-10208570D02*
X10801430Y-10231430D01*
X10801430Y-10208570D02*
X10778570Y-10231430D01*
X10778570Y-11108570D02*
X10801430Y-11131430D01*
X10801430Y-11108570D02*
X10778570Y-11131430D01*
X10778570Y-12008570D02*
X10801430Y-12031430D01*
X10801430Y-12008570D02*
X10778570Y-12031430D01*
X10778570Y-12908570D02*
X10801430Y-12931430D01*
X10801430Y-12908570D02*
X10778570Y-12931430D01*
X10778570Y-13808570D02*
X10801430Y-13831430D01*
X10801430Y-13808570D02*
X10778570Y-13831430D01*
X10778570Y-14708570D02*
X10801430Y-14731430D01*
X10801430Y-14708570D02*
X10778570Y-14731430D01*
X10778570Y-15608570D02*
X10801430Y-15631430D01*
X10801430Y-15608570D02*
X10778570Y-15631430D01*
X10818570Y-9368570D02*
X10841430Y-9391430D01*
X10841430Y-9368570D02*
X10818570Y-9391430D01*
X10818570Y-10268570D02*
X10841430Y-10291430D01*
X10841430Y-10268570D02*
X10818570Y-10291430D01*
X10818570Y-11168570D02*
X10841430Y-11191430D01*
X10841430Y-11168570D02*
X10818570Y-11191430D01*
X10818570Y-12068570D02*
X10841430Y-12091430D01*
X10841430Y-12068570D02*
X10818570Y-12091430D01*
X10818570Y-12968570D02*
X10841430Y-12991430D01*
X10841430Y-12968570D02*
X10818570Y-12991430D01*
X10818570Y-13868570D02*
X10841430Y-13891430D01*
X10841430Y-13868570D02*
X10818570Y-13891430D01*
X10818570Y-14768570D02*
X10841430Y-14791430D01*
X10841430Y-14768570D02*
X10818570Y-14791430D01*
X10818570Y-15668570D02*
X10841430Y-15691430D01*
X10841430Y-15668570D02*
X10818570Y-15691430D01*
X10848570Y-18506070D02*
X10871430Y-18528930D01*
X10871430Y-18506070D02*
X10848570Y-18528930D01*
X10948570Y-5668570D02*
X10971430Y-5691430D01*
X10971430Y-5668570D02*
X10948570Y-5691430D01*
X10948570Y-17298570D02*
X10971430Y-17321430D01*
X10971430Y-17298570D02*
X10948570Y-17321430D01*
X10998570Y-5598570D02*
X11021430Y-5621430D01*
X11021430Y-5598570D02*
X10998570Y-5621430D01*
X10998570Y-7008570D02*
X11021430Y-7031430D01*
X11021430Y-7008570D02*
X10998570Y-7031430D01*
X10998570Y-7168570D02*
X11021430Y-7191430D01*
X11021430Y-7168570D02*
X10998570Y-7191430D01*
X10998570Y-17228570D02*
X11021430Y-17251430D01*
X11021430Y-17228570D02*
X10998570Y-17251430D01*
X10998570Y-18506070D02*
X11021430Y-18528930D01*
X11021430Y-18506070D02*
X10998570Y-18528930D01*
X11098570Y-5598570D02*
X11121430Y-5621430D01*
X11121430Y-5598570D02*
X11098570Y-5621430D01*
X11098570Y-5667320D02*
X11121430Y-5690180D01*
X11121430Y-5667320D02*
X11098570Y-5690180D01*
X11098570Y-17228570D02*
X11121430Y-17251430D01*
X11121430Y-17228570D02*
X11098570Y-17251430D01*
X11098570Y-17297320D02*
X11121430Y-17320180D01*
X11121430Y-17297320D02*
X11098570Y-17320180D01*
X11148570Y-18506070D02*
X11171430Y-18528930D01*
X11171430Y-18506070D02*
X11148570Y-18528930D01*
X11168570Y-7008570D02*
X11191430Y-7031430D01*
X11191430Y-7008570D02*
X11168570Y-7031430D01*
X11168570Y-7168570D02*
X11191430Y-7191430D01*
X11191430Y-7168570D02*
X11168570Y-7191430D01*
X11168570Y-7898570D02*
X11191430Y-7921430D01*
X11191430Y-7898570D02*
X11168570Y-7921430D01*
X11228570Y-7948570D02*
X11251430Y-7971430D01*
X11251430Y-7948570D02*
X11228570Y-7971430D01*
X11298570Y-18506070D02*
X11321430Y-18528930D01*
X11321430Y-18506070D02*
X11298570Y-18528930D01*
X11328570Y-17367320D02*
X11351430Y-17390180D01*
X11351430Y-17367320D02*
X11328570Y-17390180D01*
X11368570Y-8318570D02*
X11391430Y-8341430D01*
X11391430Y-8318570D02*
X11368570Y-8341430D01*
X11368570Y-9218570D02*
X11391430Y-9241430D01*
X11391430Y-9218570D02*
X11368570Y-9241430D01*
X11368570Y-10118570D02*
X11391430Y-10141430D01*
X11391430Y-10118570D02*
X11368570Y-10141430D01*
X11368570Y-11018570D02*
X11391430Y-11041430D01*
X11391430Y-11018570D02*
X11368570Y-11041430D01*
X11368570Y-11918570D02*
X11391430Y-11941430D01*
X11391430Y-11918570D02*
X11368570Y-11941430D01*
X11368570Y-12818570D02*
X11391430Y-12841430D01*
X11391430Y-12818570D02*
X11368570Y-12841430D01*
X11368570Y-13718570D02*
X11391430Y-13741430D01*
X11391430Y-13718570D02*
X11368570Y-13741430D01*
X11368570Y-14618570D02*
X11391430Y-14641430D01*
X11391430Y-14618570D02*
X11368570Y-14641430D01*
X11398570Y-5608570D02*
X11421430Y-5631430D01*
X11421430Y-5608570D02*
X11398570Y-5631430D01*
X11398570Y-5667320D02*
X11421430Y-5690180D01*
X11421430Y-5667320D02*
X11398570Y-5690180D01*
X11398570Y-17238570D02*
X11421430Y-17261430D01*
X11421430Y-17238570D02*
X11398570Y-17261430D01*
X11398570Y-17297320D02*
X11421430Y-17320180D01*
X11421430Y-17297320D02*
X11398570Y-17320180D01*
X11428570Y-8368570D02*
X11451430Y-8391430D01*
X11451430Y-8368570D02*
X11428570Y-8391430D01*
X11428570Y-9268570D02*
X11451430Y-9291430D01*
X11451430Y-9268570D02*
X11428570Y-9291430D01*
X11428570Y-10168570D02*
X11451430Y-10191430D01*
X11451430Y-10168570D02*
X11428570Y-10191430D01*
X11428570Y-11068570D02*
X11451430Y-11091430D01*
X11451430Y-11068570D02*
X11428570Y-11091430D01*
X11428570Y-11968570D02*
X11451430Y-11991430D01*
X11451430Y-11968570D02*
X11428570Y-11991430D01*
X11428570Y-12868570D02*
X11451430Y-12891430D01*
X11451430Y-12868570D02*
X11428570Y-12891430D01*
X11428570Y-13768570D02*
X11451430Y-13791430D01*
X11451430Y-13768570D02*
X11428570Y-13791430D01*
X11428570Y-14668570D02*
X11451430Y-14691430D01*
X11451430Y-14668570D02*
X11428570Y-14691430D01*
X11448570Y-18506070D02*
X11471430Y-18528930D01*
X11471430Y-18506070D02*
X11448570Y-18528930D01*
X11498570Y-5608570D02*
X11521430Y-5631430D01*
X11521430Y-5608570D02*
X11498570Y-5631430D01*
X11498570Y-17238570D02*
X11521430Y-17261430D01*
X11521430Y-17238570D02*
X11498570Y-17261430D01*
X11548570Y-5667320D02*
X11571430Y-5690180D01*
X11571430Y-5667320D02*
X11548570Y-5690180D01*
X11548570Y-17297320D02*
X11571430Y-17320180D01*
X11571430Y-17297320D02*
X11548570Y-17320180D01*
X11588570Y-19958570D02*
X11611430Y-19981430D01*
X11611430Y-19958570D02*
X11588570Y-19981430D01*
X11588570Y-20858570D02*
X11611430Y-20881430D01*
X11611430Y-20858570D02*
X11588570Y-20881430D01*
X11588570Y-21758570D02*
X11611430Y-21781430D01*
X11611430Y-21758570D02*
X11588570Y-21781430D01*
X11588570Y-22658570D02*
X11611430Y-22681430D01*
X11611430Y-22658570D02*
X11588570Y-22681430D01*
X11588570Y-23558570D02*
X11611430Y-23581430D01*
X11611430Y-23558570D02*
X11588570Y-23581430D01*
X11588570Y-24458570D02*
X11611430Y-24481430D01*
X11611430Y-24458570D02*
X11588570Y-24481430D01*
X11588570Y-25358570D02*
X11611430Y-25381430D01*
X11611430Y-25358570D02*
X11588570Y-25381430D01*
X11588570Y-26258570D02*
X11611430Y-26281430D01*
X11611430Y-26258570D02*
X11588570Y-26281430D01*
X11598570Y-18506070D02*
X11621430Y-18528930D01*
X11621430Y-18506070D02*
X11598570Y-18528930D01*
X11728570Y-7818570D02*
X11751430Y-7841430D01*
X11751430Y-7818570D02*
X11728570Y-7841430D01*
X11738570Y-19408570D02*
X11761430Y-19431430D01*
X11761430Y-19408570D02*
X11738570Y-19431430D01*
X11748570Y-18506070D02*
X11771430Y-18528930D01*
X11771430Y-18506070D02*
X11748570Y-18528930D01*
X11788570Y-19958570D02*
X11811430Y-19981430D01*
X11811430Y-19958570D02*
X11788570Y-19981430D01*
X11788570Y-20858570D02*
X11811430Y-20881430D01*
X11811430Y-20858570D02*
X11788570Y-20881430D01*
X11788570Y-21758570D02*
X11811430Y-21781430D01*
X11811430Y-21758570D02*
X11788570Y-21781430D01*
X11788570Y-22658570D02*
X11811430Y-22681430D01*
X11811430Y-22658570D02*
X11788570Y-22681430D01*
X11788570Y-23558570D02*
X11811430Y-23581430D01*
X11811430Y-23558570D02*
X11788570Y-23581430D01*
X11788570Y-24458570D02*
X11811430Y-24481430D01*
X11811430Y-24458570D02*
X11788570Y-24481430D01*
X11788570Y-25358570D02*
X11811430Y-25381430D01*
X11811430Y-25358570D02*
X11788570Y-25381430D01*
X11788570Y-26258570D02*
X11811430Y-26281430D01*
X11811430Y-26258570D02*
X11788570Y-26281430D01*
X11798570Y-19408570D02*
X11821430Y-19431430D01*
X11821430Y-19408570D02*
X11798570Y-19431430D01*
X11818570Y-8438570D02*
X11841430Y-8461430D01*
X11841430Y-8438570D02*
X11818570Y-8461430D01*
X11818570Y-8498570D02*
X11841430Y-8521430D01*
X11841430Y-8498570D02*
X11818570Y-8521430D01*
X11818570Y-8558570D02*
X11841430Y-8581430D01*
X11841430Y-8558570D02*
X11818570Y-8581430D01*
X11818570Y-9338570D02*
X11841430Y-9361430D01*
X11841430Y-9338570D02*
X11818570Y-9361430D01*
X11818570Y-9398570D02*
X11841430Y-9421430D01*
X11841430Y-9398570D02*
X11818570Y-9421430D01*
X11818570Y-9458570D02*
X11841430Y-9481430D01*
X11841430Y-9458570D02*
X11818570Y-9481430D01*
X11818570Y-10238570D02*
X11841430Y-10261430D01*
X11841430Y-10238570D02*
X11818570Y-10261430D01*
X11818570Y-10298570D02*
X11841430Y-10321430D01*
X11841430Y-10298570D02*
X11818570Y-10321430D01*
X11818570Y-10358570D02*
X11841430Y-10381430D01*
X11841430Y-10358570D02*
X11818570Y-10381430D01*
X11818570Y-11138570D02*
X11841430Y-11161430D01*
X11841430Y-11138570D02*
X11818570Y-11161430D01*
X11818570Y-11198570D02*
X11841430Y-11221430D01*
X11841430Y-11198570D02*
X11818570Y-11221430D01*
X11818570Y-11258570D02*
X11841430Y-11281430D01*
X11841430Y-11258570D02*
X11818570Y-11281430D01*
X11818570Y-12038570D02*
X11841430Y-12061430D01*
X11841430Y-12038570D02*
X11818570Y-12061430D01*
X11818570Y-12098570D02*
X11841430Y-12121430D01*
X11841430Y-12098570D02*
X11818570Y-12121430D01*
X11818570Y-12158570D02*
X11841430Y-12181430D01*
X11841430Y-12158570D02*
X11818570Y-12181430D01*
X11818570Y-12938570D02*
X11841430Y-12961430D01*
X11841430Y-12938570D02*
X11818570Y-12961430D01*
X11818570Y-12998570D02*
X11841430Y-13021430D01*
X11841430Y-12998570D02*
X11818570Y-13021430D01*
X11818570Y-13058570D02*
X11841430Y-13081430D01*
X11841430Y-13058570D02*
X11818570Y-13081430D01*
X11818570Y-13838570D02*
X11841430Y-13861430D01*
X11841430Y-13838570D02*
X11818570Y-13861430D01*
X11818570Y-13898570D02*
X11841430Y-13921430D01*
X11841430Y-13898570D02*
X11818570Y-13921430D01*
X11818570Y-13958570D02*
X11841430Y-13981430D01*
X11841430Y-13958570D02*
X11818570Y-13981430D01*
X11818570Y-14738570D02*
X11841430Y-14761430D01*
X11841430Y-14738570D02*
X11818570Y-14761430D01*
X11818570Y-14798570D02*
X11841430Y-14821430D01*
X11841430Y-14798570D02*
X11818570Y-14821430D01*
X11818570Y-14858570D02*
X11841430Y-14881430D01*
X11841430Y-14858570D02*
X11818570Y-14881430D01*
X11828570Y-7778570D02*
X11851430Y-7801430D01*
X11851430Y-7778570D02*
X11828570Y-7801430D01*
X11898570Y-18506070D02*
X11921430Y-18528930D01*
X11921430Y-18506070D02*
X11898570Y-18528930D01*
X11918570Y-19498570D02*
X11941430Y-19521430D01*
X11941430Y-19498570D02*
X11918570Y-19521430D01*
X12018570Y-19498570D02*
X12041430Y-19521430D01*
X12041430Y-19498570D02*
X12018570Y-19521430D01*
X12068570Y-7898570D02*
X12091430Y-7921430D01*
X12091430Y-7898570D02*
X12068570Y-7921430D01*
X12068570Y-18618570D02*
X12091430Y-18641430D01*
X12091430Y-18618570D02*
X12068570Y-18641430D01*
X12128570Y-7948570D02*
X12151430Y-7971430D01*
X12151430Y-7948570D02*
X12128570Y-7971430D01*
X12128570Y-18558570D02*
X12151430Y-18581430D01*
X12151430Y-18558570D02*
X12128570Y-18581430D01*
X12208570Y-18308570D02*
X12231430Y-18331430D01*
X12231430Y-18308570D02*
X12208570Y-18331430D01*
X12218570Y-18618570D02*
X12241430Y-18641430D01*
X12241430Y-18618570D02*
X12218570Y-18641430D01*
X12268570Y-8318570D02*
X12291430Y-8341430D01*
X12291430Y-8318570D02*
X12268570Y-8341430D01*
X12268570Y-9218570D02*
X12291430Y-9241430D01*
X12291430Y-9218570D02*
X12268570Y-9241430D01*
X12268570Y-10118570D02*
X12291430Y-10141430D01*
X12291430Y-10118570D02*
X12268570Y-10141430D01*
X12268570Y-11018570D02*
X12291430Y-11041430D01*
X12291430Y-11018570D02*
X12268570Y-11041430D01*
X12268570Y-11918570D02*
X12291430Y-11941430D01*
X12291430Y-11918570D02*
X12268570Y-11941430D01*
X12268570Y-12818570D02*
X12291430Y-12841430D01*
X12291430Y-12818570D02*
X12268570Y-12841430D01*
X12268570Y-13718570D02*
X12291430Y-13741430D01*
X12291430Y-13718570D02*
X12268570Y-13741430D01*
X12268570Y-14618570D02*
X12291430Y-14641430D01*
X12291430Y-14618570D02*
X12268570Y-14641430D01*
X12278570Y-18198570D02*
X12301430Y-18221430D01*
X12301430Y-18198570D02*
X12278570Y-18221430D01*
X12278570Y-18308570D02*
X12301430Y-18331430D01*
X12301430Y-18308570D02*
X12278570Y-18331430D01*
X12278570Y-18558570D02*
X12301430Y-18581430D01*
X12301430Y-18558570D02*
X12278570Y-18581430D01*
X12328570Y-8368570D02*
X12351430Y-8391430D01*
X12351430Y-8368570D02*
X12328570Y-8391430D01*
X12328570Y-9268570D02*
X12351430Y-9291430D01*
X12351430Y-9268570D02*
X12328570Y-9291430D01*
X12328570Y-10168570D02*
X12351430Y-10191430D01*
X12351430Y-10168570D02*
X12328570Y-10191430D01*
X12328570Y-11068570D02*
X12351430Y-11091430D01*
X12351430Y-11068570D02*
X12328570Y-11091430D01*
X12328570Y-11968570D02*
X12351430Y-11991430D01*
X12351430Y-11968570D02*
X12328570Y-11991430D01*
X12328570Y-12868570D02*
X12351430Y-12891430D01*
X12351430Y-12868570D02*
X12328570Y-12891430D01*
X12328570Y-13768570D02*
X12351430Y-13791430D01*
X12351430Y-13768570D02*
X12328570Y-13791430D01*
X12328570Y-14668570D02*
X12351430Y-14691430D01*
X12351430Y-14668570D02*
X12328570Y-14691430D01*
X12338570Y-18198570D02*
X12361430Y-18221430D01*
X12361430Y-18198570D02*
X12338570Y-18221430D01*
X12338570Y-18308570D02*
X12361430Y-18331430D01*
X12361430Y-18308570D02*
X12338570Y-18331430D01*
X12366070Y-19158570D02*
X12388930Y-19181430D01*
X12388930Y-19158570D02*
X12366070Y-19181430D01*
X12368570Y-18618570D02*
X12391430Y-18641430D01*
X12391430Y-18618570D02*
X12368570Y-18641430D01*
X12408570Y-18198570D02*
X12431430Y-18221430D01*
X12431430Y-18198570D02*
X12408570Y-18221430D01*
X12408570Y-18308570D02*
X12431430Y-18331430D01*
X12431430Y-18308570D02*
X12408570Y-18331430D01*
X12428570Y-18558570D02*
X12451430Y-18581430D01*
X12451430Y-18558570D02*
X12428570Y-18581430D01*
X12488570Y-19958570D02*
X12511430Y-19981430D01*
X12511430Y-19958570D02*
X12488570Y-19981430D01*
X12488570Y-20858570D02*
X12511430Y-20881430D01*
X12511430Y-20858570D02*
X12488570Y-20881430D01*
X12488570Y-21758570D02*
X12511430Y-21781430D01*
X12511430Y-21758570D02*
X12488570Y-21781430D01*
X12488570Y-22658570D02*
X12511430Y-22681430D01*
X12511430Y-22658570D02*
X12488570Y-22681430D01*
X12488570Y-23558570D02*
X12511430Y-23581430D01*
X12511430Y-23558570D02*
X12488570Y-23581430D01*
X12488570Y-24458570D02*
X12511430Y-24481430D01*
X12511430Y-24458570D02*
X12488570Y-24481430D01*
X12488570Y-25358570D02*
X12511430Y-25381430D01*
X12511430Y-25358570D02*
X12488570Y-25381430D01*
X12488570Y-26258570D02*
X12511430Y-26281430D01*
X12511430Y-26258570D02*
X12488570Y-26281430D01*
X12538570Y-18198570D02*
X12561430Y-18221430D01*
X12561430Y-18198570D02*
X12538570Y-18221430D01*
X12538570Y-18308570D02*
X12561430Y-18331430D01*
X12561430Y-18308570D02*
X12538570Y-18331430D01*
X12538570Y-19158570D02*
X12561430Y-19181430D01*
X12561430Y-19158570D02*
X12538570Y-19181430D01*
X12628570Y-7818570D02*
X12651430Y-7841430D01*
X12651430Y-7818570D02*
X12628570Y-7841430D01*
X12628570Y-18658570D02*
X12651430Y-18681430D01*
X12651430Y-18658570D02*
X12628570Y-18681430D01*
X12628570Y-18718570D02*
X12651430Y-18741430D01*
X12651430Y-18718570D02*
X12628570Y-18741430D01*
X12638570Y-19408570D02*
X12661430Y-19431430D01*
X12661430Y-19408570D02*
X12638570Y-19431430D01*
X12668570Y-18208570D02*
X12691430Y-18231430D01*
X12691430Y-18208570D02*
X12668570Y-18231430D01*
X12678570Y-18818570D02*
X12701430Y-18841430D01*
X12701430Y-18818570D02*
X12678570Y-18841430D01*
X12688570Y-19958570D02*
X12711430Y-19981430D01*
X12711430Y-19958570D02*
X12688570Y-19981430D01*
X12688570Y-20858570D02*
X12711430Y-20881430D01*
X12711430Y-20858570D02*
X12688570Y-20881430D01*
X12688570Y-21758570D02*
X12711430Y-21781430D01*
X12711430Y-21758570D02*
X12688570Y-21781430D01*
X12688570Y-22658570D02*
X12711430Y-22681430D01*
X12711430Y-22658570D02*
X12688570Y-22681430D01*
X12688570Y-23558570D02*
X12711430Y-23581430D01*
X12711430Y-23558570D02*
X12688570Y-23581430D01*
X12688570Y-24458570D02*
X12711430Y-24481430D01*
X12711430Y-24458570D02*
X12688570Y-24481430D01*
X12688570Y-25358570D02*
X12711430Y-25381430D01*
X12711430Y-25358570D02*
X12688570Y-25381430D01*
X12688570Y-26258570D02*
X12711430Y-26281430D01*
X12711430Y-26258570D02*
X12688570Y-26281430D01*
X12698570Y-19408570D02*
X12721430Y-19431430D01*
X12721430Y-19408570D02*
X12698570Y-19431430D01*
X12718570Y-8438570D02*
X12741430Y-8461430D01*
X12741430Y-8438570D02*
X12718570Y-8461430D01*
X12718570Y-8498570D02*
X12741430Y-8521430D01*
X12741430Y-8498570D02*
X12718570Y-8521430D01*
X12718570Y-8558570D02*
X12741430Y-8581430D01*
X12741430Y-8558570D02*
X12718570Y-8581430D01*
X12718570Y-9338570D02*
X12741430Y-9361430D01*
X12741430Y-9338570D02*
X12718570Y-9361430D01*
X12718570Y-9398570D02*
X12741430Y-9421430D01*
X12741430Y-9398570D02*
X12718570Y-9421430D01*
X12718570Y-9458570D02*
X12741430Y-9481430D01*
X12741430Y-9458570D02*
X12718570Y-9481430D01*
X12718570Y-10238570D02*
X12741430Y-10261430D01*
X12741430Y-10238570D02*
X12718570Y-10261430D01*
X12718570Y-10298570D02*
X12741430Y-10321430D01*
X12741430Y-10298570D02*
X12718570Y-10321430D01*
X12718570Y-10358570D02*
X12741430Y-10381430D01*
X12741430Y-10358570D02*
X12718570Y-10381430D01*
X12718570Y-11138570D02*
X12741430Y-11161430D01*
X12741430Y-11138570D02*
X12718570Y-11161430D01*
X12718570Y-11198570D02*
X12741430Y-11221430D01*
X12741430Y-11198570D02*
X12718570Y-11221430D01*
X12718570Y-11258570D02*
X12741430Y-11281430D01*
X12741430Y-11258570D02*
X12718570Y-11281430D01*
X12718570Y-12038570D02*
X12741430Y-12061430D01*
X12741430Y-12038570D02*
X12718570Y-12061430D01*
X12718570Y-12098570D02*
X12741430Y-12121430D01*
X12741430Y-12098570D02*
X12718570Y-12121430D01*
X12718570Y-12158570D02*
X12741430Y-12181430D01*
X12741430Y-12158570D02*
X12718570Y-12181430D01*
X12718570Y-12938570D02*
X12741430Y-12961430D01*
X12741430Y-12938570D02*
X12718570Y-12961430D01*
X12718570Y-12998570D02*
X12741430Y-13021430D01*
X12741430Y-12998570D02*
X12718570Y-13021430D01*
X12718570Y-13058570D02*
X12741430Y-13081430D01*
X12741430Y-13058570D02*
X12718570Y-13081430D01*
X12718570Y-13838570D02*
X12741430Y-13861430D01*
X12741430Y-13838570D02*
X12718570Y-13861430D01*
X12718570Y-13898570D02*
X12741430Y-13921430D01*
X12741430Y-13898570D02*
X12718570Y-13921430D01*
X12718570Y-13958570D02*
X12741430Y-13981430D01*
X12741430Y-13958570D02*
X12718570Y-13981430D01*
X12718570Y-14738570D02*
X12741430Y-14761430D01*
X12741430Y-14738570D02*
X12718570Y-14761430D01*
X12718570Y-14798570D02*
X12741430Y-14821430D01*
X12741430Y-14798570D02*
X12718570Y-14821430D01*
X12718570Y-14858570D02*
X12741430Y-14881430D01*
X12741430Y-14858570D02*
X12718570Y-14881430D01*
X12728570Y-7778570D02*
X12751430Y-7801430D01*
X12751430Y-7778570D02*
X12728570Y-7801430D01*
X12728570Y-18178570D02*
X12751430Y-18201430D01*
X12751430Y-18178570D02*
X12728570Y-18201430D01*
X12738570Y-18878570D02*
X12761430Y-18901430D01*
X12761430Y-18878570D02*
X12738570Y-18901430D01*
X12818570Y-19498570D02*
X12841430Y-19521430D01*
X12841430Y-19498570D02*
X12818570Y-19521430D01*
X12838570Y-18788570D02*
X12861430Y-18811430D01*
X12861430Y-18788570D02*
X12838570Y-18811430D01*
X12888570Y-18788570D02*
X12911430Y-18811430D01*
X12911430Y-18788570D02*
X12888570Y-18811430D01*
X12918570Y-18228570D02*
X12941430Y-18251430D01*
X12941430Y-18228570D02*
X12918570Y-18251430D01*
X12918570Y-19498570D02*
X12941430Y-19521430D01*
X12941430Y-19498570D02*
X12918570Y-19521430D01*
X12938570Y-18788570D02*
X12961430Y-18811430D01*
X12961430Y-18788570D02*
X12938570Y-18811430D01*
X12968570Y-7898570D02*
X12991430Y-7921430D01*
X12991430Y-7898570D02*
X12968570Y-7921430D01*
X13028570Y-7948570D02*
X13051430Y-7971430D01*
X13051430Y-7948570D02*
X13028570Y-7971430D01*
X13078570Y-18788570D02*
X13101430Y-18811430D01*
X13101430Y-18788570D02*
X13078570Y-18811430D01*
X13098570Y-18268570D02*
X13121430Y-18291430D01*
X13121430Y-18268570D02*
X13098570Y-18291430D01*
X13128570Y-18788570D02*
X13151430Y-18811430D01*
X13151430Y-18788570D02*
X13128570Y-18811430D01*
X13158570Y-18228570D02*
X13181430Y-18251430D01*
X13181430Y-18228570D02*
X13158570Y-18251430D01*
X13168570Y-8318570D02*
X13191430Y-8341430D01*
X13191430Y-8318570D02*
X13168570Y-8341430D01*
X13168570Y-9218570D02*
X13191430Y-9241430D01*
X13191430Y-9218570D02*
X13168570Y-9241430D01*
X13168570Y-10118570D02*
X13191430Y-10141430D01*
X13191430Y-10118570D02*
X13168570Y-10141430D01*
X13168570Y-11018570D02*
X13191430Y-11041430D01*
X13191430Y-11018570D02*
X13168570Y-11041430D01*
X13168570Y-11918570D02*
X13191430Y-11941430D01*
X13191430Y-11918570D02*
X13168570Y-11941430D01*
X13168570Y-12818570D02*
X13191430Y-12841430D01*
X13191430Y-12818570D02*
X13168570Y-12841430D01*
X13168570Y-13718570D02*
X13191430Y-13741430D01*
X13191430Y-13718570D02*
X13168570Y-13741430D01*
X13168570Y-14618570D02*
X13191430Y-14641430D01*
X13191430Y-14618570D02*
X13168570Y-14641430D01*
X13178570Y-18788570D02*
X13201430Y-18811430D01*
X13201430Y-18788570D02*
X13178570Y-18811430D01*
X13228570Y-6848570D02*
X13251430Y-6871430D01*
X13251430Y-6848570D02*
X13228570Y-6871430D01*
X13228570Y-8368570D02*
X13251430Y-8391430D01*
X13251430Y-8368570D02*
X13228570Y-8391430D01*
X13228570Y-9268570D02*
X13251430Y-9291430D01*
X13251430Y-9268570D02*
X13228570Y-9291430D01*
X13228570Y-10168570D02*
X13251430Y-10191430D01*
X13251430Y-10168570D02*
X13228570Y-10191430D01*
X13228570Y-11068570D02*
X13251430Y-11091430D01*
X13251430Y-11068570D02*
X13228570Y-11091430D01*
X13228570Y-11968570D02*
X13251430Y-11991430D01*
X13251430Y-11968570D02*
X13228570Y-11991430D01*
X13228570Y-12868570D02*
X13251430Y-12891430D01*
X13251430Y-12868570D02*
X13228570Y-12891430D01*
X13228570Y-13768570D02*
X13251430Y-13791430D01*
X13251430Y-13768570D02*
X13228570Y-13791430D01*
X13228570Y-14668570D02*
X13251430Y-14691430D01*
X13251430Y-14668570D02*
X13228570Y-14691430D01*
X13266070Y-19158570D02*
X13288930Y-19181430D01*
X13288930Y-19158570D02*
X13266070Y-19181430D01*
X13268570Y-6238570D02*
X13291430Y-6261430D01*
X13291430Y-6238570D02*
X13268570Y-6261430D01*
X13278570Y-6788570D02*
X13301430Y-6811430D01*
X13301430Y-6788570D02*
X13278570Y-6811430D01*
X13318570Y-6178570D02*
X13341430Y-6201430D01*
X13341430Y-6178570D02*
X13318570Y-6201430D01*
X13378570Y-6018570D02*
X13401430Y-6041430D01*
X13401430Y-6018570D02*
X13378570Y-6041430D01*
X13388570Y-19958570D02*
X13411430Y-19981430D01*
X13411430Y-19958570D02*
X13388570Y-19981430D01*
X13388570Y-20858570D02*
X13411430Y-20881430D01*
X13411430Y-20858570D02*
X13388570Y-20881430D01*
X13388570Y-21758570D02*
X13411430Y-21781430D01*
X13411430Y-21758570D02*
X13388570Y-21781430D01*
X13388570Y-22658570D02*
X13411430Y-22681430D01*
X13411430Y-22658570D02*
X13388570Y-22681430D01*
X13388570Y-23558570D02*
X13411430Y-23581430D01*
X13411430Y-23558570D02*
X13388570Y-23581430D01*
X13388570Y-24458570D02*
X13411430Y-24481430D01*
X13411430Y-24458570D02*
X13388570Y-24481430D01*
X13388570Y-25358570D02*
X13411430Y-25381430D01*
X13411430Y-25358570D02*
X13388570Y-25381430D01*
X13388570Y-26258570D02*
X13411430Y-26281430D01*
X13411430Y-26258570D02*
X13388570Y-26281430D01*
X13418570Y-6178570D02*
X13441430Y-6201430D01*
X13441430Y-6178570D02*
X13418570Y-6201430D01*
X13428570Y-6078570D02*
X13451430Y-6101430D01*
X13451430Y-6078570D02*
X13428570Y-6101430D01*
X13438570Y-19158570D02*
X13461430Y-19181430D01*
X13461430Y-19158570D02*
X13438570Y-19181430D01*
X13468570Y-6238570D02*
X13491430Y-6261430D01*
X13491430Y-6238570D02*
X13468570Y-6261430D01*
X13528570Y-6078570D02*
X13551430Y-6101430D01*
X13551430Y-6078570D02*
X13528570Y-6101430D01*
X13528570Y-7818570D02*
X13551430Y-7841430D01*
X13551430Y-7818570D02*
X13528570Y-7841430D01*
X13538570Y-19408570D02*
X13561430Y-19431430D01*
X13561430Y-19408570D02*
X13538570Y-19431430D01*
X13558570Y-17398570D02*
X13581430Y-17421430D01*
X13581430Y-17398570D02*
X13558570Y-17421430D01*
X13558570Y-17628570D02*
X13581430Y-17651430D01*
X13581430Y-17628570D02*
X13558570Y-17651430D01*
X13578570Y-6018570D02*
X13601430Y-6041430D01*
X13601430Y-6018570D02*
X13578570Y-6041430D01*
X13588570Y-6178570D02*
X13611430Y-6201430D01*
X13611430Y-6178570D02*
X13588570Y-6201430D01*
X13588570Y-6288570D02*
X13611430Y-6311430D01*
X13611430Y-6288570D02*
X13588570Y-6311430D01*
X13588570Y-19958570D02*
X13611430Y-19981430D01*
X13611430Y-19958570D02*
X13588570Y-19981430D01*
X13588570Y-20858570D02*
X13611430Y-20881430D01*
X13611430Y-20858570D02*
X13588570Y-20881430D01*
X13588570Y-21758570D02*
X13611430Y-21781430D01*
X13611430Y-21758570D02*
X13588570Y-21781430D01*
X13588570Y-22658570D02*
X13611430Y-22681430D01*
X13611430Y-22658570D02*
X13588570Y-22681430D01*
X13588570Y-23558570D02*
X13611430Y-23581430D01*
X13611430Y-23558570D02*
X13588570Y-23581430D01*
X13588570Y-24458570D02*
X13611430Y-24481430D01*
X13611430Y-24458570D02*
X13588570Y-24481430D01*
X13588570Y-25358570D02*
X13611430Y-25381430D01*
X13611430Y-25358570D02*
X13588570Y-25381430D01*
X13588570Y-26258570D02*
X13611430Y-26281430D01*
X13611430Y-26258570D02*
X13588570Y-26281430D01*
X13598570Y-17448570D02*
X13621430Y-17471430D01*
X13621430Y-17448570D02*
X13598570Y-17471430D01*
X13598570Y-19408570D02*
X13621430Y-19431430D01*
X13621430Y-19408570D02*
X13598570Y-19431430D01*
X13618570Y-8438570D02*
X13641430Y-8461430D01*
X13641430Y-8438570D02*
X13618570Y-8461430D01*
X13618570Y-8498570D02*
X13641430Y-8521430D01*
X13641430Y-8498570D02*
X13618570Y-8521430D01*
X13618570Y-8558570D02*
X13641430Y-8581430D01*
X13641430Y-8558570D02*
X13618570Y-8581430D01*
X13618570Y-9338570D02*
X13641430Y-9361430D01*
X13641430Y-9338570D02*
X13618570Y-9361430D01*
X13618570Y-9398570D02*
X13641430Y-9421430D01*
X13641430Y-9398570D02*
X13618570Y-9421430D01*
X13618570Y-9458570D02*
X13641430Y-9481430D01*
X13641430Y-9458570D02*
X13618570Y-9481430D01*
X13618570Y-10238570D02*
X13641430Y-10261430D01*
X13641430Y-10238570D02*
X13618570Y-10261430D01*
X13618570Y-10298570D02*
X13641430Y-10321430D01*
X13641430Y-10298570D02*
X13618570Y-10321430D01*
X13618570Y-10358570D02*
X13641430Y-10381430D01*
X13641430Y-10358570D02*
X13618570Y-10381430D01*
X13618570Y-11138570D02*
X13641430Y-11161430D01*
X13641430Y-11138570D02*
X13618570Y-11161430D01*
X13618570Y-11198570D02*
X13641430Y-11221430D01*
X13641430Y-11198570D02*
X13618570Y-11221430D01*
X13618570Y-11258570D02*
X13641430Y-11281430D01*
X13641430Y-11258570D02*
X13618570Y-11281430D01*
X13618570Y-12038570D02*
X13641430Y-12061430D01*
X13641430Y-12038570D02*
X13618570Y-12061430D01*
X13618570Y-12098570D02*
X13641430Y-12121430D01*
X13641430Y-12098570D02*
X13618570Y-12121430D01*
X13618570Y-12158570D02*
X13641430Y-12181430D01*
X13641430Y-12158570D02*
X13618570Y-12181430D01*
X13618570Y-12938570D02*
X13641430Y-12961430D01*
X13641430Y-12938570D02*
X13618570Y-12961430D01*
X13618570Y-12998570D02*
X13641430Y-13021430D01*
X13641430Y-12998570D02*
X13618570Y-13021430D01*
X13618570Y-13058570D02*
X13641430Y-13081430D01*
X13641430Y-13058570D02*
X13618570Y-13081430D01*
X13618570Y-13838570D02*
X13641430Y-13861430D01*
X13641430Y-13838570D02*
X13618570Y-13861430D01*
X13618570Y-13898570D02*
X13641430Y-13921430D01*
X13641430Y-13898570D02*
X13618570Y-13921430D01*
X13618570Y-13958570D02*
X13641430Y-13981430D01*
X13641430Y-13958570D02*
X13618570Y-13981430D01*
X13618570Y-14738570D02*
X13641430Y-14761430D01*
X13641430Y-14738570D02*
X13618570Y-14761430D01*
X13618570Y-14798570D02*
X13641430Y-14821430D01*
X13641430Y-14798570D02*
X13618570Y-14821430D01*
X13618570Y-14858570D02*
X13641430Y-14881430D01*
X13641430Y-14858570D02*
X13618570Y-14881430D01*
X13628570Y-7778570D02*
X13651430Y-7801430D01*
X13651430Y-7778570D02*
X13628570Y-7801430D01*
X13653570Y-18003570D02*
X13676430Y-18026430D01*
X13676430Y-18003570D02*
X13653570Y-18026430D01*
X13653570Y-18413570D02*
X13676430Y-18436430D01*
X13676430Y-18413570D02*
X13653570Y-18436430D01*
X13658570Y-6768570D02*
X13681430Y-6791430D01*
X13681430Y-6768570D02*
X13658570Y-6791430D01*
X13658570Y-6868570D02*
X13681430Y-6891430D01*
X13681430Y-6868570D02*
X13658570Y-6891430D01*
X13703570Y-18353570D02*
X13726430Y-18376430D01*
X13726430Y-18353570D02*
X13703570Y-18376430D01*
X13718570Y-6768570D02*
X13741430Y-6791430D01*
X13741430Y-6768570D02*
X13718570Y-6791430D01*
X13718570Y-6878570D02*
X13741430Y-6901430D01*
X13741430Y-6878570D02*
X13718570Y-6901430D01*
X13718570Y-19498570D02*
X13741430Y-19521430D01*
X13741430Y-19498570D02*
X13718570Y-19521430D01*
X13753570Y-18073570D02*
X13776430Y-18096430D01*
X13776430Y-18073570D02*
X13753570Y-18096430D01*
X13788570Y-6188570D02*
X13811430Y-6211430D01*
X13811430Y-6188570D02*
X13788570Y-6211430D01*
X13788570Y-6288570D02*
X13811430Y-6311430D01*
X13811430Y-6288570D02*
X13788570Y-6311430D01*
X13818570Y-19498570D02*
X13841430Y-19521430D01*
X13841430Y-19498570D02*
X13818570Y-19521430D01*
X13858570Y-17648570D02*
X13881430Y-17671430D01*
X13881430Y-17648570D02*
X13858570Y-17671430D01*
X13868570Y-7898570D02*
X13891430Y-7921430D01*
X13891430Y-7898570D02*
X13868570Y-7921430D01*
X13928570Y-7948570D02*
X13951430Y-7971430D01*
X13951430Y-7948570D02*
X13928570Y-7971430D01*
X13958570Y-17968570D02*
X13981430Y-17991430D01*
X13981430Y-17968570D02*
X13958570Y-17991430D01*
X13973570Y-17583570D02*
X13996430Y-17606430D01*
X13996430Y-17583570D02*
X13973570Y-17606430D01*
X13978570Y-18038570D02*
X14001430Y-18061430D01*
X14001430Y-18038570D02*
X13978570Y-18061430D01*
X14018570Y-18358570D02*
X14041430Y-18381430D01*
X14041430Y-18358570D02*
X14018570Y-18381430D01*
X14018570Y-18508570D02*
X14041430Y-18531430D01*
X14041430Y-18508570D02*
X14018570Y-18531430D01*
X14038570Y-18208570D02*
X14061430Y-18231430D01*
X14061430Y-18208570D02*
X14038570Y-18231430D01*
X14063570Y-17403570D02*
X14086430Y-17426430D01*
X14086430Y-17403570D02*
X14063570Y-17426430D01*
X14068570Y-8318570D02*
X14091430Y-8341430D01*
X14091430Y-8318570D02*
X14068570Y-8341430D01*
X14068570Y-9218570D02*
X14091430Y-9241430D01*
X14091430Y-9218570D02*
X14068570Y-9241430D01*
X14068570Y-10118570D02*
X14091430Y-10141430D01*
X14091430Y-10118570D02*
X14068570Y-10141430D01*
X14068570Y-11018570D02*
X14091430Y-11041430D01*
X14091430Y-11018570D02*
X14068570Y-11041430D01*
X14068570Y-11918570D02*
X14091430Y-11941430D01*
X14091430Y-11918570D02*
X14068570Y-11941430D01*
X14068570Y-12818570D02*
X14091430Y-12841430D01*
X14091430Y-12818570D02*
X14068570Y-12841430D01*
X14068570Y-13718570D02*
X14091430Y-13741430D01*
X14091430Y-13718570D02*
X14068570Y-13741430D01*
X14068570Y-14618570D02*
X14091430Y-14641430D01*
X14091430Y-14618570D02*
X14068570Y-14641430D01*
X14068570Y-17628570D02*
X14091430Y-17651430D01*
X14091430Y-17628570D02*
X14068570Y-17651430D01*
X14078570Y-18408570D02*
X14101430Y-18431430D01*
X14101430Y-18408570D02*
X14078570Y-18431430D01*
X14078570Y-18558570D02*
X14101430Y-18581430D01*
X14101430Y-18558570D02*
X14078570Y-18581430D01*
X14088570Y-18278570D02*
X14111430Y-18301430D01*
X14111430Y-18278570D02*
X14088570Y-18301430D01*
X14103570Y-17453570D02*
X14126430Y-17476430D01*
X14126430Y-17453570D02*
X14103570Y-17476430D01*
X14128570Y-8368570D02*
X14151430Y-8391430D01*
X14151430Y-8368570D02*
X14128570Y-8391430D01*
X14128570Y-9268570D02*
X14151430Y-9291430D01*
X14151430Y-9268570D02*
X14128570Y-9291430D01*
X14128570Y-10168570D02*
X14151430Y-10191430D01*
X14151430Y-10168570D02*
X14128570Y-10191430D01*
X14128570Y-11068570D02*
X14151430Y-11091430D01*
X14151430Y-11068570D02*
X14128570Y-11091430D01*
X14128570Y-11968570D02*
X14151430Y-11991430D01*
X14151430Y-11968570D02*
X14128570Y-11991430D01*
X14128570Y-12868570D02*
X14151430Y-12891430D01*
X14151430Y-12868570D02*
X14128570Y-12891430D01*
X14128570Y-13768570D02*
X14151430Y-13791430D01*
X14151430Y-13768570D02*
X14128570Y-13791430D01*
X14128570Y-14668570D02*
X14151430Y-14691430D01*
X14151430Y-14668570D02*
X14128570Y-14691430D01*
X14166070Y-19158570D02*
X14188930Y-19181430D01*
X14188930Y-19158570D02*
X14166070Y-19181430D01*
X14178570Y-18128570D02*
X14201430Y-18151430D01*
X14201430Y-18128570D02*
X14178570Y-18151430D01*
X14178570Y-18308570D02*
X14201430Y-18331430D01*
X14201430Y-18308570D02*
X14178570Y-18331430D01*
X14178570Y-18508570D02*
X14201430Y-18531430D01*
X14201430Y-18508570D02*
X14178570Y-18531430D01*
X14228570Y-18308570D02*
X14251430Y-18331430D01*
X14251430Y-18308570D02*
X14228570Y-18331430D01*
X14228570Y-18508570D02*
X14251430Y-18531430D01*
X14251430Y-18508570D02*
X14228570Y-18531430D01*
X14238570Y-18188570D02*
X14261430Y-18211430D01*
X14261430Y-18188570D02*
X14238570Y-18211430D01*
X14248570Y-6508570D02*
X14271430Y-6531430D01*
X14271430Y-6508570D02*
X14248570Y-6531430D01*
X14257371Y-6429668D02*
X14280231Y-6452528D01*
X14280231Y-6429668D02*
X14257371Y-6452528D01*
X14278570Y-18308570D02*
X14301430Y-18331430D01*
X14301430Y-18308570D02*
X14278570Y-18331430D01*
X14278570Y-18508570D02*
X14301430Y-18531430D01*
X14301430Y-18508570D02*
X14278570Y-18531430D01*
X14288570Y-19958570D02*
X14311430Y-19981430D01*
X14311430Y-19958570D02*
X14288570Y-19981430D01*
X14288570Y-20858570D02*
X14311430Y-20881430D01*
X14311430Y-20858570D02*
X14288570Y-20881430D01*
X14288570Y-21758570D02*
X14311430Y-21781430D01*
X14311430Y-21758570D02*
X14288570Y-21781430D01*
X14288570Y-22658570D02*
X14311430Y-22681430D01*
X14311430Y-22658570D02*
X14288570Y-22681430D01*
X14288570Y-23558570D02*
X14311430Y-23581430D01*
X14311430Y-23558570D02*
X14288570Y-23581430D01*
X14288570Y-24458570D02*
X14311430Y-24481430D01*
X14311430Y-24458570D02*
X14288570Y-24481430D01*
X14288570Y-25358570D02*
X14311430Y-25381430D01*
X14311430Y-25358570D02*
X14288570Y-25381430D01*
X14288570Y-26258570D02*
X14311430Y-26281430D01*
X14311430Y-26258570D02*
X14288570Y-26281430D01*
X14298570Y-6378570D02*
X14321430Y-6401430D01*
X14321430Y-6378570D02*
X14298570Y-6401430D01*
X14308570Y-6768570D02*
X14331430Y-6791430D01*
X14331430Y-6768570D02*
X14308570Y-6791430D01*
X14308570Y-6878570D02*
X14331430Y-6901430D01*
X14331430Y-6878570D02*
X14308570Y-6901430D01*
X14338570Y-19158570D02*
X14361430Y-19181430D01*
X14361430Y-19158570D02*
X14338570Y-19181430D01*
X14361070Y-17651070D02*
X14383930Y-17673930D01*
X14383930Y-17651070D02*
X14361070Y-17673930D01*
X14388570Y-18073220D02*
X14411430Y-18096080D01*
X14411430Y-18073220D02*
X14388570Y-18096080D01*
X14388570Y-18353220D02*
X14411430Y-18376080D01*
X14411430Y-18353220D02*
X14388570Y-18376080D01*
X14428570Y-7818570D02*
X14451430Y-7841430D01*
X14451430Y-7818570D02*
X14428570Y-7841430D01*
X14438570Y-19408570D02*
X14461430Y-19431430D01*
X14461430Y-19408570D02*
X14438570Y-19431430D01*
X14448570Y-18413220D02*
X14471430Y-18436080D01*
X14471430Y-18413220D02*
X14448570Y-18436080D01*
X14471070Y-17591070D02*
X14493930Y-17613930D01*
X14493930Y-17591070D02*
X14471070Y-17613930D01*
X14488570Y-19958570D02*
X14511430Y-19981430D01*
X14511430Y-19958570D02*
X14488570Y-19981430D01*
X14488570Y-20858570D02*
X14511430Y-20881430D01*
X14511430Y-20858570D02*
X14488570Y-20881430D01*
X14488570Y-21758570D02*
X14511430Y-21781430D01*
X14511430Y-21758570D02*
X14488570Y-21781430D01*
X14488570Y-22658570D02*
X14511430Y-22681430D01*
X14511430Y-22658570D02*
X14488570Y-22681430D01*
X14488570Y-23558570D02*
X14511430Y-23581430D01*
X14511430Y-23558570D02*
X14488570Y-23581430D01*
X14488570Y-24458570D02*
X14511430Y-24481430D01*
X14511430Y-24458570D02*
X14488570Y-24481430D01*
X14488570Y-25358570D02*
X14511430Y-25381430D01*
X14511430Y-25358570D02*
X14488570Y-25381430D01*
X14488570Y-26258570D02*
X14511430Y-26281430D01*
X14511430Y-26258570D02*
X14488570Y-26281430D01*
X14498570Y-19408570D02*
X14521430Y-19431430D01*
X14521430Y-19408570D02*
X14498570Y-19431430D01*
X14508570Y-18003220D02*
X14531430Y-18026080D01*
X14531430Y-18003220D02*
X14508570Y-18026080D01*
X14518570Y-8438570D02*
X14541430Y-8461430D01*
X14541430Y-8438570D02*
X14518570Y-8461430D01*
X14518570Y-8498570D02*
X14541430Y-8521430D01*
X14541430Y-8498570D02*
X14518570Y-8521430D01*
X14518570Y-8558570D02*
X14541430Y-8581430D01*
X14541430Y-8558570D02*
X14518570Y-8581430D01*
X14518570Y-9338570D02*
X14541430Y-9361430D01*
X14541430Y-9338570D02*
X14518570Y-9361430D01*
X14518570Y-9398570D02*
X14541430Y-9421430D01*
X14541430Y-9398570D02*
X14518570Y-9421430D01*
X14518570Y-9458570D02*
X14541430Y-9481430D01*
X14541430Y-9458570D02*
X14518570Y-9481430D01*
X14518570Y-10238570D02*
X14541430Y-10261430D01*
X14541430Y-10238570D02*
X14518570Y-10261430D01*
X14518570Y-10298570D02*
X14541430Y-10321430D01*
X14541430Y-10298570D02*
X14518570Y-10321430D01*
X14518570Y-10358570D02*
X14541430Y-10381430D01*
X14541430Y-10358570D02*
X14518570Y-10381430D01*
X14518570Y-11138570D02*
X14541430Y-11161430D01*
X14541430Y-11138570D02*
X14518570Y-11161430D01*
X14518570Y-11198570D02*
X14541430Y-11221430D01*
X14541430Y-11198570D02*
X14518570Y-11221430D01*
X14518570Y-11258570D02*
X14541430Y-11281430D01*
X14541430Y-11258570D02*
X14518570Y-11281430D01*
X14518570Y-12038570D02*
X14541430Y-12061430D01*
X14541430Y-12038570D02*
X14518570Y-12061430D01*
X14518570Y-12098570D02*
X14541430Y-12121430D01*
X14541430Y-12098570D02*
X14518570Y-12121430D01*
X14518570Y-12158570D02*
X14541430Y-12181430D01*
X14541430Y-12158570D02*
X14518570Y-12181430D01*
X14518570Y-12938570D02*
X14541430Y-12961430D01*
X14541430Y-12938570D02*
X14518570Y-12961430D01*
X14518570Y-12998570D02*
X14541430Y-13021430D01*
X14541430Y-12998570D02*
X14518570Y-13021430D01*
X14518570Y-13058570D02*
X14541430Y-13081430D01*
X14541430Y-13058570D02*
X14518570Y-13081430D01*
X14518570Y-13838570D02*
X14541430Y-13861430D01*
X14541430Y-13838570D02*
X14518570Y-13861430D01*
X14518570Y-13898570D02*
X14541430Y-13921430D01*
X14541430Y-13898570D02*
X14518570Y-13921430D01*
X14518570Y-13958570D02*
X14541430Y-13981430D01*
X14541430Y-13958570D02*
X14518570Y-13981430D01*
X14518570Y-14738570D02*
X14541430Y-14761430D01*
X14541430Y-14738570D02*
X14518570Y-14761430D01*
X14518570Y-14798570D02*
X14541430Y-14821430D01*
X14541430Y-14798570D02*
X14518570Y-14821430D01*
X14518570Y-14858570D02*
X14541430Y-14881430D01*
X14541430Y-14858570D02*
X14518570Y-14881430D01*
X14528570Y-7778570D02*
X14551430Y-7801430D01*
X14551430Y-7778570D02*
X14528570Y-7801430D01*
X14578570Y-17403570D02*
X14601430Y-17426430D01*
X14601430Y-17403570D02*
X14578570Y-17426430D01*
X14578570Y-17638570D02*
X14601430Y-17661430D01*
X14601430Y-17638570D02*
X14578570Y-17661430D01*
X14618570Y-17453570D02*
X14641430Y-17476430D01*
X14641430Y-17453570D02*
X14618570Y-17476430D01*
X14618570Y-19498570D02*
X14641430Y-19521430D01*
X14641430Y-19498570D02*
X14618570Y-19521430D01*
X14698570Y-17967870D02*
X14721430Y-17990730D01*
X14721430Y-17967870D02*
X14698570Y-17990730D01*
X14718570Y-18037870D02*
X14741430Y-18060730D01*
X14741430Y-18037870D02*
X14718570Y-18060730D01*
X14718570Y-19498570D02*
X14741430Y-19521430D01*
X14741430Y-19498570D02*
X14718570Y-19521430D01*
X14758570Y-18358570D02*
X14781430Y-18381430D01*
X14781430Y-18358570D02*
X14758570Y-18381430D01*
X14758570Y-18508570D02*
X14781430Y-18531430D01*
X14781430Y-18508570D02*
X14758570Y-18531430D01*
X14768570Y-7898570D02*
X14791430Y-7921430D01*
X14791430Y-7898570D02*
X14768570Y-7921430D01*
X14778570Y-18208570D02*
X14801430Y-18231430D01*
X14801430Y-18208570D02*
X14778570Y-18231430D01*
X14798570Y-6378570D02*
X14821430Y-6401430D01*
X14821430Y-6378570D02*
X14798570Y-6401430D01*
X14818570Y-18408570D02*
X14841430Y-18431430D01*
X14841430Y-18408570D02*
X14818570Y-18431430D01*
X14818570Y-18558570D02*
X14841430Y-18581430D01*
X14841430Y-18558570D02*
X14818570Y-18581430D01*
X14828570Y-7948570D02*
X14851430Y-7971430D01*
X14851430Y-7948570D02*
X14828570Y-7971430D01*
X14828570Y-18278570D02*
X14851430Y-18301430D01*
X14851430Y-18278570D02*
X14828570Y-18301430D01*
X14878570Y-17648570D02*
X14901430Y-17671430D01*
X14901430Y-17648570D02*
X14878570Y-17671430D01*
X14918570Y-18127870D02*
X14941430Y-18150730D01*
X14941430Y-18127870D02*
X14918570Y-18150730D01*
X14918570Y-18318570D02*
X14941430Y-18341430D01*
X14941430Y-18318570D02*
X14918570Y-18341430D01*
X14918570Y-18508570D02*
X14941430Y-18531430D01*
X14941430Y-18508570D02*
X14918570Y-18531430D01*
X14968570Y-8318570D02*
X14991430Y-8341430D01*
X14991430Y-8318570D02*
X14968570Y-8341430D01*
X14968570Y-9218570D02*
X14991430Y-9241430D01*
X14991430Y-9218570D02*
X14968570Y-9241430D01*
X14968570Y-10118570D02*
X14991430Y-10141430D01*
X14991430Y-10118570D02*
X14968570Y-10141430D01*
X14968570Y-11018570D02*
X14991430Y-11041430D01*
X14991430Y-11018570D02*
X14968570Y-11041430D01*
X14968570Y-11918570D02*
X14991430Y-11941430D01*
X14991430Y-11918570D02*
X14968570Y-11941430D01*
X14968570Y-12818570D02*
X14991430Y-12841430D01*
X14991430Y-12818570D02*
X14968570Y-12841430D01*
X14968570Y-13718570D02*
X14991430Y-13741430D01*
X14991430Y-13718570D02*
X14968570Y-13741430D01*
X14968570Y-14618570D02*
X14991430Y-14641430D01*
X14991430Y-14618570D02*
X14968570Y-14641430D01*
X14968570Y-18318570D02*
X14991430Y-18341430D01*
X14991430Y-18318570D02*
X14968570Y-18341430D01*
X14968570Y-18508570D02*
X14991430Y-18531430D01*
X14991430Y-18508570D02*
X14968570Y-18531430D01*
X14978570Y-18187870D02*
X15001430Y-18210730D01*
X15001430Y-18187870D02*
X14978570Y-18210730D01*
X14988570Y-17588570D02*
X15011430Y-17611430D01*
X15011430Y-17588570D02*
X14988570Y-17611430D01*
X15018570Y-18318570D02*
X15041430Y-18341430D01*
X15041430Y-18318570D02*
X15018570Y-18341430D01*
X15018570Y-18508570D02*
X15041430Y-18531430D01*
X15041430Y-18508570D02*
X15018570Y-18531430D01*
X15028570Y-8368570D02*
X15051430Y-8391430D01*
X15051430Y-8368570D02*
X15028570Y-8391430D01*
X15028570Y-9268570D02*
X15051430Y-9291430D01*
X15051430Y-9268570D02*
X15028570Y-9291430D01*
X15028570Y-10168570D02*
X15051430Y-10191430D01*
X15051430Y-10168570D02*
X15028570Y-10191430D01*
X15028570Y-11068570D02*
X15051430Y-11091430D01*
X15051430Y-11068570D02*
X15028570Y-11091430D01*
X15028570Y-11968570D02*
X15051430Y-11991430D01*
X15051430Y-11968570D02*
X15028570Y-11991430D01*
X15028570Y-12868570D02*
X15051430Y-12891430D01*
X15051430Y-12868570D02*
X15028570Y-12891430D01*
X15028570Y-13768570D02*
X15051430Y-13791430D01*
X15051430Y-13768570D02*
X15028570Y-13791430D01*
X15028570Y-14668570D02*
X15051430Y-14691430D01*
X15051430Y-14668570D02*
X15028570Y-14691430D01*
X15066070Y-19158570D02*
X15088930Y-19181430D01*
X15088930Y-19158570D02*
X15066070Y-19181430D01*
X15118570Y-6428570D02*
X15141430Y-6451430D01*
X15141430Y-6428570D02*
X15118570Y-6451430D01*
X15188570Y-19958570D02*
X15211430Y-19981430D01*
X15211430Y-19958570D02*
X15188570Y-19981430D01*
X15188570Y-20858570D02*
X15211430Y-20881430D01*
X15211430Y-20858570D02*
X15188570Y-20881430D01*
X15188570Y-21758570D02*
X15211430Y-21781430D01*
X15211430Y-21758570D02*
X15188570Y-21781430D01*
X15188570Y-22658570D02*
X15211430Y-22681430D01*
X15211430Y-22658570D02*
X15188570Y-22681430D01*
X15188570Y-23558570D02*
X15211430Y-23581430D01*
X15211430Y-23558570D02*
X15188570Y-23581430D01*
X15188570Y-24458570D02*
X15211430Y-24481430D01*
X15211430Y-24458570D02*
X15188570Y-24481430D01*
X15188570Y-25358570D02*
X15211430Y-25381430D01*
X15211430Y-25358570D02*
X15188570Y-25381430D01*
X15188570Y-26258570D02*
X15211430Y-26281430D01*
X15211430Y-26258570D02*
X15188570Y-26281430D01*
X15238570Y-19158570D02*
X15261430Y-19181430D01*
X15261430Y-19158570D02*
X15238570Y-19181430D01*
X15328570Y-7818570D02*
X15351430Y-7841430D01*
X15351430Y-7818570D02*
X15328570Y-7841430D01*
X15338570Y-19408570D02*
X15361430Y-19431430D01*
X15361430Y-19408570D02*
X15338570Y-19431430D01*
X15388570Y-19958570D02*
X15411430Y-19981430D01*
X15411430Y-19958570D02*
X15388570Y-19981430D01*
X15388570Y-20858570D02*
X15411430Y-20881430D01*
X15411430Y-20858570D02*
X15388570Y-20881430D01*
X15388570Y-21758570D02*
X15411430Y-21781430D01*
X15411430Y-21758570D02*
X15388570Y-21781430D01*
X15388570Y-22658570D02*
X15411430Y-22681430D01*
X15411430Y-22658570D02*
X15388570Y-22681430D01*
X15388570Y-23558570D02*
X15411430Y-23581430D01*
X15411430Y-23558570D02*
X15388570Y-23581430D01*
X15388570Y-24458570D02*
X15411430Y-24481430D01*
X15411430Y-24458570D02*
X15388570Y-24481430D01*
X15388570Y-25358570D02*
X15411430Y-25381430D01*
X15411430Y-25358570D02*
X15388570Y-25381430D01*
X15388570Y-26258570D02*
X15411430Y-26281430D01*
X15411430Y-26258570D02*
X15388570Y-26281430D01*
X15398570Y-19408570D02*
X15421430Y-19431430D01*
X15421430Y-19408570D02*
X15398570Y-19431430D01*
X15418570Y-8438570D02*
X15441430Y-8461430D01*
X15441430Y-8438570D02*
X15418570Y-8461430D01*
X15418570Y-8498570D02*
X15441430Y-8521430D01*
X15441430Y-8498570D02*
X15418570Y-8521430D01*
X15418570Y-8558570D02*
X15441430Y-8581430D01*
X15441430Y-8558570D02*
X15418570Y-8581430D01*
X15418570Y-9338570D02*
X15441430Y-9361430D01*
X15441430Y-9338570D02*
X15418570Y-9361430D01*
X15418570Y-9398570D02*
X15441430Y-9421430D01*
X15441430Y-9398570D02*
X15418570Y-9421430D01*
X15418570Y-9458570D02*
X15441430Y-9481430D01*
X15441430Y-9458570D02*
X15418570Y-9481430D01*
X15418570Y-10238570D02*
X15441430Y-10261430D01*
X15441430Y-10238570D02*
X15418570Y-10261430D01*
X15418570Y-10298570D02*
X15441430Y-10321430D01*
X15441430Y-10298570D02*
X15418570Y-10321430D01*
X15418570Y-10358570D02*
X15441430Y-10381430D01*
X15441430Y-10358570D02*
X15418570Y-10381430D01*
X15418570Y-11138570D02*
X15441430Y-11161430D01*
X15441430Y-11138570D02*
X15418570Y-11161430D01*
X15418570Y-11198570D02*
X15441430Y-11221430D01*
X15441430Y-11198570D02*
X15418570Y-11221430D01*
X15418570Y-11258570D02*
X15441430Y-11281430D01*
X15441430Y-11258570D02*
X15418570Y-11281430D01*
X15418570Y-12038570D02*
X15441430Y-12061430D01*
X15441430Y-12038570D02*
X15418570Y-12061430D01*
X15418570Y-12098570D02*
X15441430Y-12121430D01*
X15441430Y-12098570D02*
X15418570Y-12121430D01*
X15418570Y-12158570D02*
X15441430Y-12181430D01*
X15441430Y-12158570D02*
X15418570Y-12181430D01*
X15418570Y-12938570D02*
X15441430Y-12961430D01*
X15441430Y-12938570D02*
X15418570Y-12961430D01*
X15418570Y-12998570D02*
X15441430Y-13021430D01*
X15441430Y-12998570D02*
X15418570Y-13021430D01*
X15418570Y-13058570D02*
X15441430Y-13081430D01*
X15441430Y-13058570D02*
X15418570Y-13081430D01*
X15418570Y-13838570D02*
X15441430Y-13861430D01*
X15441430Y-13838570D02*
X15418570Y-13861430D01*
X15418570Y-13898570D02*
X15441430Y-13921430D01*
X15441430Y-13898570D02*
X15418570Y-13921430D01*
X15418570Y-13958570D02*
X15441430Y-13981430D01*
X15441430Y-13958570D02*
X15418570Y-13981430D01*
X15418570Y-14738570D02*
X15441430Y-14761430D01*
X15441430Y-14738570D02*
X15418570Y-14761430D01*
X15418570Y-14798570D02*
X15441430Y-14821430D01*
X15441430Y-14798570D02*
X15418570Y-14821430D01*
X15418570Y-14858570D02*
X15441430Y-14881430D01*
X15441430Y-14858570D02*
X15418570Y-14881430D01*
X15428570Y-7778570D02*
X15451430Y-7801430D01*
X15451430Y-7778570D02*
X15428570Y-7801430D01*
X15518570Y-19498570D02*
X15541430Y-19521430D01*
X15541430Y-19498570D02*
X15518570Y-19521430D01*
X15618570Y-19498570D02*
X15641430Y-19521430D01*
X15641430Y-19498570D02*
X15618570Y-19521430D01*
X15668570Y-7898570D02*
X15691430Y-7921430D01*
X15691430Y-7898570D02*
X15668570Y-7921430D01*
X15728570Y-7948570D02*
X15751430Y-7971430D01*
X15751430Y-7948570D02*
X15728570Y-7971430D01*
X15868570Y-8318570D02*
X15891430Y-8341430D01*
X15891430Y-8318570D02*
X15868570Y-8341430D01*
X15868570Y-9218570D02*
X15891430Y-9241430D01*
X15891430Y-9218570D02*
X15868570Y-9241430D01*
X15868570Y-10118570D02*
X15891430Y-10141430D01*
X15891430Y-10118570D02*
X15868570Y-10141430D01*
X15868570Y-11018570D02*
X15891430Y-11041430D01*
X15891430Y-11018570D02*
X15868570Y-11041430D01*
X15868570Y-11918570D02*
X15891430Y-11941430D01*
X15891430Y-11918570D02*
X15868570Y-11941430D01*
X15868570Y-12818570D02*
X15891430Y-12841430D01*
X15891430Y-12818570D02*
X15868570Y-12841430D01*
X15868570Y-13718570D02*
X15891430Y-13741430D01*
X15891430Y-13718570D02*
X15868570Y-13741430D01*
X15868570Y-14618570D02*
X15891430Y-14641430D01*
X15891430Y-14618570D02*
X15868570Y-14641430D01*
X15878570Y-6508570D02*
X15901430Y-6531430D01*
X15901430Y-6508570D02*
X15878570Y-6531430D01*
X15928570Y-8368570D02*
X15951430Y-8391430D01*
X15951430Y-8368570D02*
X15928570Y-8391430D01*
X15928570Y-9268570D02*
X15951430Y-9291430D01*
X15951430Y-9268570D02*
X15928570Y-9291430D01*
X15928570Y-10168570D02*
X15951430Y-10191430D01*
X15951430Y-10168570D02*
X15928570Y-10191430D01*
X15928570Y-11068570D02*
X15951430Y-11091430D01*
X15951430Y-11068570D02*
X15928570Y-11091430D01*
X15928570Y-11968570D02*
X15951430Y-11991430D01*
X15951430Y-11968570D02*
X15928570Y-11991430D01*
X15928570Y-12868570D02*
X15951430Y-12891430D01*
X15951430Y-12868570D02*
X15928570Y-12891430D01*
X15928570Y-13768570D02*
X15951430Y-13791430D01*
X15951430Y-13768570D02*
X15928570Y-13791430D01*
X15928570Y-14668570D02*
X15951430Y-14691430D01*
X15951430Y-14668570D02*
X15928570Y-14691430D01*
X15966070Y-19158570D02*
X15988930Y-19181430D01*
X15988930Y-19158570D02*
X15966070Y-19181430D01*
X16088570Y-19958570D02*
X16111430Y-19981430D01*
X16111430Y-19958570D02*
X16088570Y-19981430D01*
X16088570Y-20858570D02*
X16111430Y-20881430D01*
X16111430Y-20858570D02*
X16088570Y-20881430D01*
X16088570Y-21758570D02*
X16111430Y-21781430D01*
X16111430Y-21758570D02*
X16088570Y-21781430D01*
X16088570Y-22658570D02*
X16111430Y-22681430D01*
X16111430Y-22658570D02*
X16088570Y-22681430D01*
X16088570Y-23558570D02*
X16111430Y-23581430D01*
X16111430Y-23558570D02*
X16088570Y-23581430D01*
X16088570Y-24458570D02*
X16111430Y-24481430D01*
X16111430Y-24458570D02*
X16088570Y-24481430D01*
X16088570Y-25358570D02*
X16111430Y-25381430D01*
X16111430Y-25358570D02*
X16088570Y-25381430D01*
X16088570Y-26258570D02*
X16111430Y-26281430D01*
X16111430Y-26258570D02*
X16088570Y-26281430D01*
X16138570Y-19158570D02*
X16161430Y-19181430D01*
X16161430Y-19158570D02*
X16138570Y-19181430D01*
X16228570Y-7818570D02*
X16251430Y-7841430D01*
X16251430Y-7818570D02*
X16228570Y-7841430D01*
X16238570Y-19408570D02*
X16261430Y-19431430D01*
X16261430Y-19408570D02*
X16238570Y-19431430D01*
X16288570Y-19958570D02*
X16311430Y-19981430D01*
X16311430Y-19958570D02*
X16288570Y-19981430D01*
X16288570Y-20858570D02*
X16311430Y-20881430D01*
X16311430Y-20858570D02*
X16288570Y-20881430D01*
X16288570Y-21758570D02*
X16311430Y-21781430D01*
X16311430Y-21758570D02*
X16288570Y-21781430D01*
X16288570Y-22658570D02*
X16311430Y-22681430D01*
X16311430Y-22658570D02*
X16288570Y-22681430D01*
X16288570Y-23558570D02*
X16311430Y-23581430D01*
X16311430Y-23558570D02*
X16288570Y-23581430D01*
X16288570Y-24458570D02*
X16311430Y-24481430D01*
X16311430Y-24458570D02*
X16288570Y-24481430D01*
X16288570Y-25358570D02*
X16311430Y-25381430D01*
X16311430Y-25358570D02*
X16288570Y-25381430D01*
X16288570Y-26258570D02*
X16311430Y-26281430D01*
X16311430Y-26258570D02*
X16288570Y-26281430D01*
X16298570Y-19408570D02*
X16321430Y-19431430D01*
X16321430Y-19408570D02*
X16298570Y-19431430D01*
X16318570Y-8438570D02*
X16341430Y-8461430D01*
X16341430Y-8438570D02*
X16318570Y-8461430D01*
X16318570Y-8498570D02*
X16341430Y-8521430D01*
X16341430Y-8498570D02*
X16318570Y-8521430D01*
X16318570Y-8558570D02*
X16341430Y-8581430D01*
X16341430Y-8558570D02*
X16318570Y-8581430D01*
X16318570Y-9338570D02*
X16341430Y-9361430D01*
X16341430Y-9338570D02*
X16318570Y-9361430D01*
X16318570Y-9398570D02*
X16341430Y-9421430D01*
X16341430Y-9398570D02*
X16318570Y-9421430D01*
X16318570Y-9458570D02*
X16341430Y-9481430D01*
X16341430Y-9458570D02*
X16318570Y-9481430D01*
X16318570Y-10238570D02*
X16341430Y-10261430D01*
X16341430Y-10238570D02*
X16318570Y-10261430D01*
X16318570Y-10298570D02*
X16341430Y-10321430D01*
X16341430Y-10298570D02*
X16318570Y-10321430D01*
X16318570Y-10358570D02*
X16341430Y-10381430D01*
X16341430Y-10358570D02*
X16318570Y-10381430D01*
X16318570Y-11138570D02*
X16341430Y-11161430D01*
X16341430Y-11138570D02*
X16318570Y-11161430D01*
X16318570Y-11198570D02*
X16341430Y-11221430D01*
X16341430Y-11198570D02*
X16318570Y-11221430D01*
X16318570Y-11258570D02*
X16341430Y-11281430D01*
X16341430Y-11258570D02*
X16318570Y-11281430D01*
X16318570Y-12038570D02*
X16341430Y-12061430D01*
X16341430Y-12038570D02*
X16318570Y-12061430D01*
X16318570Y-12098570D02*
X16341430Y-12121430D01*
X16341430Y-12098570D02*
X16318570Y-12121430D01*
X16318570Y-12158570D02*
X16341430Y-12181430D01*
X16341430Y-12158570D02*
X16318570Y-12181430D01*
X16318570Y-12938570D02*
X16341430Y-12961430D01*
X16341430Y-12938570D02*
X16318570Y-12961430D01*
X16318570Y-12998570D02*
X16341430Y-13021430D01*
X16341430Y-12998570D02*
X16318570Y-13021430D01*
X16318570Y-13058570D02*
X16341430Y-13081430D01*
X16341430Y-13058570D02*
X16318570Y-13081430D01*
X16318570Y-13838570D02*
X16341430Y-13861430D01*
X16341430Y-13838570D02*
X16318570Y-13861430D01*
X16318570Y-13898570D02*
X16341430Y-13921430D01*
X16341430Y-13898570D02*
X16318570Y-13921430D01*
X16318570Y-13958570D02*
X16341430Y-13981430D01*
X16341430Y-13958570D02*
X16318570Y-13981430D01*
X16318570Y-14738570D02*
X16341430Y-14761430D01*
X16341430Y-14738570D02*
X16318570Y-14761430D01*
X16318570Y-14798570D02*
X16341430Y-14821430D01*
X16341430Y-14798570D02*
X16318570Y-14821430D01*
X16318570Y-14858570D02*
X16341430Y-14881430D01*
X16341430Y-14858570D02*
X16318570Y-14881430D01*
X16328570Y-7778570D02*
X16351430Y-7801430D01*
X16351430Y-7778570D02*
X16328570Y-7801430D01*
X16418570Y-19498570D02*
X16441430Y-19521430D01*
X16441430Y-19498570D02*
X16418570Y-19521430D01*
X16518570Y-19498570D02*
X16541430Y-19521430D01*
X16541430Y-19498570D02*
X16518570Y-19521430D01*
X16568570Y-7898570D02*
X16591430Y-7921430D01*
X16591430Y-7898570D02*
X16568570Y-7921430D01*
X16628570Y-7948570D02*
X16651430Y-7971430D01*
X16651430Y-7948570D02*
X16628570Y-7971430D01*
X16768570Y-8318570D02*
X16791430Y-8341430D01*
X16791430Y-8318570D02*
X16768570Y-8341430D01*
X16768570Y-9218570D02*
X16791430Y-9241430D01*
X16791430Y-9218570D02*
X16768570Y-9241430D01*
X16768570Y-10118570D02*
X16791430Y-10141430D01*
X16791430Y-10118570D02*
X16768570Y-10141430D01*
X16768570Y-11018570D02*
X16791430Y-11041430D01*
X16791430Y-11018570D02*
X16768570Y-11041430D01*
X16768570Y-11918570D02*
X16791430Y-11941430D01*
X16791430Y-11918570D02*
X16768570Y-11941430D01*
X16768570Y-12818570D02*
X16791430Y-12841430D01*
X16791430Y-12818570D02*
X16768570Y-12841430D01*
X16768570Y-13718570D02*
X16791430Y-13741430D01*
X16791430Y-13718570D02*
X16768570Y-13741430D01*
X16768570Y-14618570D02*
X16791430Y-14641430D01*
X16791430Y-14618570D02*
X16768570Y-14641430D01*
X16828570Y-8368570D02*
X16851430Y-8391430D01*
X16851430Y-8368570D02*
X16828570Y-8391430D01*
X16828570Y-9268570D02*
X16851430Y-9291430D01*
X16851430Y-9268570D02*
X16828570Y-9291430D01*
X16828570Y-10168570D02*
X16851430Y-10191430D01*
X16851430Y-10168570D02*
X16828570Y-10191430D01*
X16828570Y-11068570D02*
X16851430Y-11091430D01*
X16851430Y-11068570D02*
X16828570Y-11091430D01*
X16828570Y-11968570D02*
X16851430Y-11991430D01*
X16851430Y-11968570D02*
X16828570Y-11991430D01*
X16828570Y-12868570D02*
X16851430Y-12891430D01*
X16851430Y-12868570D02*
X16828570Y-12891430D01*
X16828570Y-13768570D02*
X16851430Y-13791430D01*
X16851430Y-13768570D02*
X16828570Y-13791430D01*
X16828570Y-14668570D02*
X16851430Y-14691430D01*
X16851430Y-14668570D02*
X16828570Y-14691430D01*
X16866070Y-19158570D02*
X16888930Y-19181430D01*
X16888930Y-19158570D02*
X16866070Y-19181430D01*
X16898570Y-17338570D02*
X16921430Y-17361430D01*
X16921430Y-17338570D02*
X16898570Y-17361430D01*
X16938570Y-17278570D02*
X16961430Y-17301430D01*
X16961430Y-17278570D02*
X16938570Y-17301430D01*
X16988570Y-19958570D02*
X17011430Y-19981430D01*
X17011430Y-19958570D02*
X16988570Y-19981430D01*
X16988570Y-20858570D02*
X17011430Y-20881430D01*
X17011430Y-20858570D02*
X16988570Y-20881430D01*
X16988570Y-21758570D02*
X17011430Y-21781430D01*
X17011430Y-21758570D02*
X16988570Y-21781430D01*
X16988570Y-22658570D02*
X17011430Y-22681430D01*
X17011430Y-22658570D02*
X16988570Y-22681430D01*
X16988570Y-23558570D02*
X17011430Y-23581430D01*
X17011430Y-23558570D02*
X16988570Y-23581430D01*
X16988570Y-24458570D02*
X17011430Y-24481430D01*
X17011430Y-24458570D02*
X16988570Y-24481430D01*
X16988570Y-25358570D02*
X17011430Y-25381430D01*
X17011430Y-25358570D02*
X16988570Y-25381430D01*
X16988570Y-26258570D02*
X17011430Y-26281430D01*
X17011430Y-26258570D02*
X16988570Y-26281430D01*
X17038570Y-19158570D02*
X17061430Y-19181430D01*
X17061430Y-19158570D02*
X17038570Y-19181430D01*
X17098570Y-18018570D02*
X17121430Y-18041430D01*
X17121430Y-18018570D02*
X17098570Y-18041430D01*
X17098570Y-18078570D02*
X17121430Y-18101430D01*
X17121430Y-18078570D02*
X17098570Y-18101430D01*
X17098570Y-18138570D02*
X17121430Y-18161430D01*
X17121430Y-18138570D02*
X17098570Y-18161430D01*
X17128570Y-7818570D02*
X17151430Y-7841430D01*
X17151430Y-7818570D02*
X17128570Y-7841430D01*
X17138570Y-19408570D02*
X17161430Y-19431430D01*
X17161430Y-19408570D02*
X17138570Y-19431430D01*
X17168570Y-17438570D02*
X17191430Y-17461430D01*
X17191430Y-17438570D02*
X17168570Y-17461430D01*
X17168570Y-17498570D02*
X17191430Y-17521430D01*
X17191430Y-17498570D02*
X17168570Y-17521430D01*
X17168570Y-17558570D02*
X17191430Y-17581430D01*
X17191430Y-17558570D02*
X17168570Y-17581430D01*
X17188570Y-19958570D02*
X17211430Y-19981430D01*
X17211430Y-19958570D02*
X17188570Y-19981430D01*
X17188570Y-20858570D02*
X17211430Y-20881430D01*
X17211430Y-20858570D02*
X17188570Y-20881430D01*
X17188570Y-21758570D02*
X17211430Y-21781430D01*
X17211430Y-21758570D02*
X17188570Y-21781430D01*
X17188570Y-22658570D02*
X17211430Y-22681430D01*
X17211430Y-22658570D02*
X17188570Y-22681430D01*
X17188570Y-23558570D02*
X17211430Y-23581430D01*
X17211430Y-23558570D02*
X17188570Y-23581430D01*
X17188570Y-24458570D02*
X17211430Y-24481430D01*
X17211430Y-24458570D02*
X17188570Y-24481430D01*
X17188570Y-25358570D02*
X17211430Y-25381430D01*
X17211430Y-25358570D02*
X17188570Y-25381430D01*
X17188570Y-26258570D02*
X17211430Y-26281430D01*
X17211430Y-26258570D02*
X17188570Y-26281430D01*
X17198570Y-19408570D02*
X17221430Y-19431430D01*
X17221430Y-19408570D02*
X17198570Y-19431430D01*
X17218570Y-8438570D02*
X17241430Y-8461430D01*
X17241430Y-8438570D02*
X17218570Y-8461430D01*
X17218570Y-8498570D02*
X17241430Y-8521430D01*
X17241430Y-8498570D02*
X17218570Y-8521430D01*
X17218570Y-8558570D02*
X17241430Y-8581430D01*
X17241430Y-8558570D02*
X17218570Y-8581430D01*
X17218570Y-9338570D02*
X17241430Y-9361430D01*
X17241430Y-9338570D02*
X17218570Y-9361430D01*
X17218570Y-9398570D02*
X17241430Y-9421430D01*
X17241430Y-9398570D02*
X17218570Y-9421430D01*
X17218570Y-9458570D02*
X17241430Y-9481430D01*
X17241430Y-9458570D02*
X17218570Y-9481430D01*
X17218570Y-10238570D02*
X17241430Y-10261430D01*
X17241430Y-10238570D02*
X17218570Y-10261430D01*
X17218570Y-10298570D02*
X17241430Y-10321430D01*
X17241430Y-10298570D02*
X17218570Y-10321430D01*
X17218570Y-10358570D02*
X17241430Y-10381430D01*
X17241430Y-10358570D02*
X17218570Y-10381430D01*
X17218570Y-11138570D02*
X17241430Y-11161430D01*
X17241430Y-11138570D02*
X17218570Y-11161430D01*
X17218570Y-11198570D02*
X17241430Y-11221430D01*
X17241430Y-11198570D02*
X17218570Y-11221430D01*
X17218570Y-11258570D02*
X17241430Y-11281430D01*
X17241430Y-11258570D02*
X17218570Y-11281430D01*
X17218570Y-12038570D02*
X17241430Y-12061430D01*
X17241430Y-12038570D02*
X17218570Y-12061430D01*
X17218570Y-12098570D02*
X17241430Y-12121430D01*
X17241430Y-12098570D02*
X17218570Y-12121430D01*
X17218570Y-12158570D02*
X17241430Y-12181430D01*
X17241430Y-12158570D02*
X17218570Y-12181430D01*
X17218570Y-12938570D02*
X17241430Y-12961430D01*
X17241430Y-12938570D02*
X17218570Y-12961430D01*
X17218570Y-12998570D02*
X17241430Y-13021430D01*
X17241430Y-12998570D02*
X17218570Y-13021430D01*
X17218570Y-13058570D02*
X17241430Y-13081430D01*
X17241430Y-13058570D02*
X17218570Y-13081430D01*
X17218570Y-13838570D02*
X17241430Y-13861430D01*
X17241430Y-13838570D02*
X17218570Y-13861430D01*
X17218570Y-13898570D02*
X17241430Y-13921430D01*
X17241430Y-13898570D02*
X17218570Y-13921430D01*
X17218570Y-13958570D02*
X17241430Y-13981430D01*
X17241430Y-13958570D02*
X17218570Y-13981430D01*
X17218570Y-14738570D02*
X17241430Y-14761430D01*
X17241430Y-14738570D02*
X17218570Y-14761430D01*
X17218570Y-14798570D02*
X17241430Y-14821430D01*
X17241430Y-14798570D02*
X17218570Y-14821430D01*
X17218570Y-14858570D02*
X17241430Y-14881430D01*
X17241430Y-14858570D02*
X17218570Y-14881430D01*
X17228570Y-7778570D02*
X17251430Y-7801430D01*
X17251430Y-7778570D02*
X17228570Y-7801430D01*
X17228570Y-17468570D02*
X17251430Y-17491430D01*
X17251430Y-17468570D02*
X17228570Y-17491430D01*
X17228570Y-17528570D02*
X17251430Y-17551430D01*
X17251430Y-17528570D02*
X17228570Y-17551430D01*
X17231070Y-17158570D02*
X17253930Y-17181430D01*
X17253930Y-17158570D02*
X17231070Y-17181430D01*
X17231070Y-17308570D02*
X17253930Y-17331430D01*
X17253930Y-17308570D02*
X17231070Y-17331430D01*
X17298570Y-17448570D02*
X17321430Y-17471430D01*
X17321430Y-17448570D02*
X17298570Y-17471430D01*
X17318570Y-19498570D02*
X17341430Y-19521430D01*
X17341430Y-19498570D02*
X17318570Y-19521430D01*
X17358570Y-17548570D02*
X17381430Y-17571430D01*
X17381430Y-17548570D02*
X17358570Y-17571430D01*
X17388570Y-17158570D02*
X17411430Y-17181430D01*
X17411430Y-17158570D02*
X17388570Y-17181430D01*
X17388570Y-17308570D02*
X17411430Y-17331430D01*
X17411430Y-17308570D02*
X17388570Y-17331430D01*
X17418570Y-19498570D02*
X17441430Y-19521430D01*
X17441430Y-19498570D02*
X17418570Y-19521430D01*
X17428570Y-17448570D02*
X17451430Y-17471430D01*
X17451430Y-17448570D02*
X17428570Y-17471430D01*
X17468570Y-7898570D02*
X17491430Y-7921430D01*
X17491430Y-7898570D02*
X17468570Y-7921430D01*
X17488570Y-17548570D02*
X17511430Y-17571430D01*
X17511430Y-17548570D02*
X17488570Y-17571430D01*
X17528570Y-7948570D02*
X17551430Y-7971430D01*
X17551430Y-7948570D02*
X17528570Y-7971430D01*
X17558570Y-17448570D02*
X17581430Y-17471430D01*
X17581430Y-17448570D02*
X17558570Y-17471430D01*
X17618570Y-17548570D02*
X17641430Y-17571430D01*
X17641430Y-17548570D02*
X17618570Y-17571430D01*
X17668570Y-8318570D02*
X17691430Y-8341430D01*
X17691430Y-8318570D02*
X17668570Y-8341430D01*
X17668570Y-9218570D02*
X17691430Y-9241430D01*
X17691430Y-9218570D02*
X17668570Y-9241430D01*
X17668570Y-10118570D02*
X17691430Y-10141430D01*
X17691430Y-10118570D02*
X17668570Y-10141430D01*
X17668570Y-11018570D02*
X17691430Y-11041430D01*
X17691430Y-11018570D02*
X17668570Y-11041430D01*
X17668570Y-11918570D02*
X17691430Y-11941430D01*
X17691430Y-11918570D02*
X17668570Y-11941430D01*
X17668570Y-12818570D02*
X17691430Y-12841430D01*
X17691430Y-12818570D02*
X17668570Y-12841430D01*
X17668570Y-13718570D02*
X17691430Y-13741430D01*
X17691430Y-13718570D02*
X17668570Y-13741430D01*
X17668570Y-14618570D02*
X17691430Y-14641430D01*
X17691430Y-14618570D02*
X17668570Y-14641430D01*
X17688570Y-17448570D02*
X17711430Y-17471430D01*
X17711430Y-17448570D02*
X17688570Y-17471430D01*
X17728570Y-8368570D02*
X17751430Y-8391430D01*
X17751430Y-8368570D02*
X17728570Y-8391430D01*
X17728570Y-9268570D02*
X17751430Y-9291430D01*
X17751430Y-9268570D02*
X17728570Y-9291430D01*
X17728570Y-10168570D02*
X17751430Y-10191430D01*
X17751430Y-10168570D02*
X17728570Y-10191430D01*
X17728570Y-11068570D02*
X17751430Y-11091430D01*
X17751430Y-11068570D02*
X17728570Y-11091430D01*
X17728570Y-11968570D02*
X17751430Y-11991430D01*
X17751430Y-11968570D02*
X17728570Y-11991430D01*
X17728570Y-12868570D02*
X17751430Y-12891430D01*
X17751430Y-12868570D02*
X17728570Y-12891430D01*
X17728570Y-13768570D02*
X17751430Y-13791430D01*
X17751430Y-13768570D02*
X17728570Y-13791430D01*
X17728570Y-14668570D02*
X17751430Y-14691430D01*
X17751430Y-14668570D02*
X17728570Y-14691430D01*
X17748570Y-17548570D02*
X17771430Y-17571430D01*
X17771430Y-17548570D02*
X17748570Y-17571430D01*
X17766070Y-19158570D02*
X17788930Y-19181430D01*
X17788930Y-19158570D02*
X17766070Y-19181430D01*
X17818570Y-17458570D02*
X17841430Y-17481430D01*
X17841430Y-17458570D02*
X17818570Y-17481430D01*
X17818570Y-17518570D02*
X17841430Y-17541430D01*
X17841430Y-17518570D02*
X17818570Y-17541430D01*
X17888570Y-19958570D02*
X17911430Y-19981430D01*
X17911430Y-19958570D02*
X17888570Y-19981430D01*
X17888570Y-20858570D02*
X17911430Y-20881430D01*
X17911430Y-20858570D02*
X17888570Y-20881430D01*
X17888570Y-21758570D02*
X17911430Y-21781430D01*
X17911430Y-21758570D02*
X17888570Y-21781430D01*
X17888570Y-22658570D02*
X17911430Y-22681430D01*
X17911430Y-22658570D02*
X17888570Y-22681430D01*
X17888570Y-23558570D02*
X17911430Y-23581430D01*
X17911430Y-23558570D02*
X17888570Y-23581430D01*
X17888570Y-24458570D02*
X17911430Y-24481430D01*
X17911430Y-24458570D02*
X17888570Y-24481430D01*
X17888570Y-25358570D02*
X17911430Y-25381430D01*
X17911430Y-25358570D02*
X17888570Y-25381430D01*
X17888570Y-26258570D02*
X17911430Y-26281430D01*
X17911430Y-26258570D02*
X17888570Y-26281430D01*
X17938570Y-19158570D02*
X17961430Y-19181430D01*
X17961430Y-19158570D02*
X17938570Y-19181430D01*
X18028570Y-7818570D02*
X18051430Y-7841430D01*
X18051430Y-7818570D02*
X18028570Y-7841430D01*
X18038570Y-19408570D02*
X18061430Y-19431430D01*
X18061430Y-19408570D02*
X18038570Y-19431430D01*
X18088570Y-19958570D02*
X18111430Y-19981430D01*
X18111430Y-19958570D02*
X18088570Y-19981430D01*
X18088570Y-20858570D02*
X18111430Y-20881430D01*
X18111430Y-20858570D02*
X18088570Y-20881430D01*
X18088570Y-21758570D02*
X18111430Y-21781430D01*
X18111430Y-21758570D02*
X18088570Y-21781430D01*
X18088570Y-22658570D02*
X18111430Y-22681430D01*
X18111430Y-22658570D02*
X18088570Y-22681430D01*
X18088570Y-23558570D02*
X18111430Y-23581430D01*
X18111430Y-23558570D02*
X18088570Y-23581430D01*
X18088570Y-24458570D02*
X18111430Y-24481430D01*
X18111430Y-24458570D02*
X18088570Y-24481430D01*
X18088570Y-25358570D02*
X18111430Y-25381430D01*
X18111430Y-25358570D02*
X18088570Y-25381430D01*
X18088570Y-26258570D02*
X18111430Y-26281430D01*
X18111430Y-26258570D02*
X18088570Y-26281430D01*
X18098570Y-19408570D02*
X18121430Y-19431430D01*
X18121430Y-19408570D02*
X18098570Y-19431430D01*
X18118570Y-8438570D02*
X18141430Y-8461430D01*
X18141430Y-8438570D02*
X18118570Y-8461430D01*
X18118570Y-8498570D02*
X18141430Y-8521430D01*
X18141430Y-8498570D02*
X18118570Y-8521430D01*
X18118570Y-8558570D02*
X18141430Y-8581430D01*
X18141430Y-8558570D02*
X18118570Y-8581430D01*
X18118570Y-9338570D02*
X18141430Y-9361430D01*
X18141430Y-9338570D02*
X18118570Y-9361430D01*
X18118570Y-9398570D02*
X18141430Y-9421430D01*
X18141430Y-9398570D02*
X18118570Y-9421430D01*
X18118570Y-9458570D02*
X18141430Y-9481430D01*
X18141430Y-9458570D02*
X18118570Y-9481430D01*
X18118570Y-10238570D02*
X18141430Y-10261430D01*
X18141430Y-10238570D02*
X18118570Y-10261430D01*
X18118570Y-10298570D02*
X18141430Y-10321430D01*
X18141430Y-10298570D02*
X18118570Y-10321430D01*
X18118570Y-10358570D02*
X18141430Y-10381430D01*
X18141430Y-10358570D02*
X18118570Y-10381430D01*
X18118570Y-11138570D02*
X18141430Y-11161430D01*
X18141430Y-11138570D02*
X18118570Y-11161430D01*
X18118570Y-11198570D02*
X18141430Y-11221430D01*
X18141430Y-11198570D02*
X18118570Y-11221430D01*
X18118570Y-11258570D02*
X18141430Y-11281430D01*
X18141430Y-11258570D02*
X18118570Y-11281430D01*
X18118570Y-12038570D02*
X18141430Y-12061430D01*
X18141430Y-12038570D02*
X18118570Y-12061430D01*
X18118570Y-12098570D02*
X18141430Y-12121430D01*
X18141430Y-12098570D02*
X18118570Y-12121430D01*
X18118570Y-12158570D02*
X18141430Y-12181430D01*
X18141430Y-12158570D02*
X18118570Y-12181430D01*
X18118570Y-12938570D02*
X18141430Y-12961430D01*
X18141430Y-12938570D02*
X18118570Y-12961430D01*
X18118570Y-12998570D02*
X18141430Y-13021430D01*
X18141430Y-12998570D02*
X18118570Y-13021430D01*
X18118570Y-13058570D02*
X18141430Y-13081430D01*
X18141430Y-13058570D02*
X18118570Y-13081430D01*
X18118570Y-13838570D02*
X18141430Y-13861430D01*
X18141430Y-13838570D02*
X18118570Y-13861430D01*
X18118570Y-13898570D02*
X18141430Y-13921430D01*
X18141430Y-13898570D02*
X18118570Y-13921430D01*
X18118570Y-13958570D02*
X18141430Y-13981430D01*
X18141430Y-13958570D02*
X18118570Y-13981430D01*
X18118570Y-14738570D02*
X18141430Y-14761430D01*
X18141430Y-14738570D02*
X18118570Y-14761430D01*
X18118570Y-14798570D02*
X18141430Y-14821430D01*
X18141430Y-14798570D02*
X18118570Y-14821430D01*
X18118570Y-14858570D02*
X18141430Y-14881430D01*
X18141430Y-14858570D02*
X18118570Y-14881430D01*
X18128570Y-7778570D02*
X18151430Y-7801430D01*
X18151430Y-7778570D02*
X18128570Y-7801430D01*
X18218570Y-19498570D02*
X18241430Y-19521430D01*
X18241430Y-19498570D02*
X18218570Y-19521430D01*
X18318570Y-19498570D02*
X18341430Y-19521430D01*
X18341430Y-19498570D02*
X18318570Y-19521430D01*
X18368570Y-7898570D02*
X18391430Y-7921430D01*
X18391430Y-7898570D02*
X18368570Y-7921430D01*
X18428570Y-7948570D02*
X18451430Y-7971430D01*
X18451430Y-7948570D02*
X18428570Y-7971430D01*
X18568570Y-8318570D02*
X18591430Y-8341430D01*
X18591430Y-8318570D02*
X18568570Y-8341430D01*
X18568570Y-9218570D02*
X18591430Y-9241430D01*
X18591430Y-9218570D02*
X18568570Y-9241430D01*
X18568570Y-10118570D02*
X18591430Y-10141430D01*
X18591430Y-10118570D02*
X18568570Y-10141430D01*
X18568570Y-11018570D02*
X18591430Y-11041430D01*
X18591430Y-11018570D02*
X18568570Y-11041430D01*
X18568570Y-11918570D02*
X18591430Y-11941430D01*
X18591430Y-11918570D02*
X18568570Y-11941430D01*
X18568570Y-12818570D02*
X18591430Y-12841430D01*
X18591430Y-12818570D02*
X18568570Y-12841430D01*
X18568570Y-13718570D02*
X18591430Y-13741430D01*
X18591430Y-13718570D02*
X18568570Y-13741430D01*
X18568570Y-14618570D02*
X18591430Y-14641430D01*
X18591430Y-14618570D02*
X18568570Y-14641430D01*
X18628570Y-8368570D02*
X18651430Y-8391430D01*
X18651430Y-8368570D02*
X18628570Y-8391430D01*
X18628570Y-9268570D02*
X18651430Y-9291430D01*
X18651430Y-9268570D02*
X18628570Y-9291430D01*
X18628570Y-10168570D02*
X18651430Y-10191430D01*
X18651430Y-10168570D02*
X18628570Y-10191430D01*
X18628570Y-11068570D02*
X18651430Y-11091430D01*
X18651430Y-11068570D02*
X18628570Y-11091430D01*
X18628570Y-11968570D02*
X18651430Y-11991430D01*
X18651430Y-11968570D02*
X18628570Y-11991430D01*
X18628570Y-12868570D02*
X18651430Y-12891430D01*
X18651430Y-12868570D02*
X18628570Y-12891430D01*
X18628570Y-13768570D02*
X18651430Y-13791430D01*
X18651430Y-13768570D02*
X18628570Y-13791430D01*
X18628570Y-14668570D02*
X18651430Y-14691430D01*
X18651430Y-14668570D02*
X18628570Y-14691430D01*
X18666070Y-19158570D02*
X18688930Y-19181430D01*
X18688930Y-19158570D02*
X18666070Y-19181430D01*
X18788570Y-19958570D02*
X18811430Y-19981430D01*
X18811430Y-19958570D02*
X18788570Y-19981430D01*
X18788570Y-20858570D02*
X18811430Y-20881430D01*
X18811430Y-20858570D02*
X18788570Y-20881430D01*
X18788570Y-21758570D02*
X18811430Y-21781430D01*
X18811430Y-21758570D02*
X18788570Y-21781430D01*
X18788570Y-22658570D02*
X18811430Y-22681430D01*
X18811430Y-22658570D02*
X18788570Y-22681430D01*
X18788570Y-23558570D02*
X18811430Y-23581430D01*
X18811430Y-23558570D02*
X18788570Y-23581430D01*
X18788570Y-24458570D02*
X18811430Y-24481430D01*
X18811430Y-24458570D02*
X18788570Y-24481430D01*
X18788570Y-25358570D02*
X18811430Y-25381430D01*
X18811430Y-25358570D02*
X18788570Y-25381430D01*
X18788570Y-26258570D02*
X18811430Y-26281430D01*
X18811430Y-26258570D02*
X18788570Y-26281430D01*
X18838570Y-19158570D02*
X18861430Y-19181430D01*
X18861430Y-19158570D02*
X18838570Y-19181430D01*
X18928570Y-7818570D02*
X18951430Y-7841430D01*
X18951430Y-7818570D02*
X18928570Y-7841430D01*
X18938570Y-19408570D02*
X18961430Y-19431430D01*
X18961430Y-19408570D02*
X18938570Y-19431430D01*
X18988570Y-19958570D02*
X19011430Y-19981430D01*
X19011430Y-19958570D02*
X18988570Y-19981430D01*
X18988570Y-20858570D02*
X19011430Y-20881430D01*
X19011430Y-20858570D02*
X18988570Y-20881430D01*
X18988570Y-21758570D02*
X19011430Y-21781430D01*
X19011430Y-21758570D02*
X18988570Y-21781430D01*
X18988570Y-22658570D02*
X19011430Y-22681430D01*
X19011430Y-22658570D02*
X18988570Y-22681430D01*
X18988570Y-23558570D02*
X19011430Y-23581430D01*
X19011430Y-23558570D02*
X18988570Y-23581430D01*
X18988570Y-24458570D02*
X19011430Y-24481430D01*
X19011430Y-24458570D02*
X18988570Y-24481430D01*
X18988570Y-25358570D02*
X19011430Y-25381430D01*
X19011430Y-25358570D02*
X18988570Y-25381430D01*
X18988570Y-26258570D02*
X19011430Y-26281430D01*
X19011430Y-26258570D02*
X18988570Y-26281430D01*
X18998570Y-19408570D02*
X19021430Y-19431430D01*
X19021430Y-19408570D02*
X18998570Y-19431430D01*
X19018570Y-8438570D02*
X19041430Y-8461430D01*
X19041430Y-8438570D02*
X19018570Y-8461430D01*
X19018570Y-8498570D02*
X19041430Y-8521430D01*
X19041430Y-8498570D02*
X19018570Y-8521430D01*
X19018570Y-8558570D02*
X19041430Y-8581430D01*
X19041430Y-8558570D02*
X19018570Y-8581430D01*
X19018570Y-9338570D02*
X19041430Y-9361430D01*
X19041430Y-9338570D02*
X19018570Y-9361430D01*
X19018570Y-9398570D02*
X19041430Y-9421430D01*
X19041430Y-9398570D02*
X19018570Y-9421430D01*
X19018570Y-9458570D02*
X19041430Y-9481430D01*
X19041430Y-9458570D02*
X19018570Y-9481430D01*
X19018570Y-10238570D02*
X19041430Y-10261430D01*
X19041430Y-10238570D02*
X19018570Y-10261430D01*
X19018570Y-10298570D02*
X19041430Y-10321430D01*
X19041430Y-10298570D02*
X19018570Y-10321430D01*
X19018570Y-10358570D02*
X19041430Y-10381430D01*
X19041430Y-10358570D02*
X19018570Y-10381430D01*
X19018570Y-11138570D02*
X19041430Y-11161430D01*
X19041430Y-11138570D02*
X19018570Y-11161430D01*
X19018570Y-11198570D02*
X19041430Y-11221430D01*
X19041430Y-11198570D02*
X19018570Y-11221430D01*
X19018570Y-11258570D02*
X19041430Y-11281430D01*
X19041430Y-11258570D02*
X19018570Y-11281430D01*
X19018570Y-12038570D02*
X19041430Y-12061430D01*
X19041430Y-12038570D02*
X19018570Y-12061430D01*
X19018570Y-12098570D02*
X19041430Y-12121430D01*
X19041430Y-12098570D02*
X19018570Y-12121430D01*
X19018570Y-12158570D02*
X19041430Y-12181430D01*
X19041430Y-12158570D02*
X19018570Y-12181430D01*
X19018570Y-12938570D02*
X19041430Y-12961430D01*
X19041430Y-12938570D02*
X19018570Y-12961430D01*
X19018570Y-12998570D02*
X19041430Y-13021430D01*
X19041430Y-12998570D02*
X19018570Y-13021430D01*
X19018570Y-13058570D02*
X19041430Y-13081430D01*
X19041430Y-13058570D02*
X19018570Y-13081430D01*
X19018570Y-13838570D02*
X19041430Y-13861430D01*
X19041430Y-13838570D02*
X19018570Y-13861430D01*
X19018570Y-13898570D02*
X19041430Y-13921430D01*
X19041430Y-13898570D02*
X19018570Y-13921430D01*
X19018570Y-13958570D02*
X19041430Y-13981430D01*
X19041430Y-13958570D02*
X19018570Y-13981430D01*
X19018570Y-14738570D02*
X19041430Y-14761430D01*
X19041430Y-14738570D02*
X19018570Y-14761430D01*
X19018570Y-14798570D02*
X19041430Y-14821430D01*
X19041430Y-14798570D02*
X19018570Y-14821430D01*
X19018570Y-14858570D02*
X19041430Y-14881430D01*
X19041430Y-14858570D02*
X19018570Y-14881430D01*
X19028570Y-7778570D02*
X19051430Y-7801430D01*
X19051430Y-7778570D02*
X19028570Y-7801430D01*
X19076070Y-6248570D02*
X19098930Y-6271430D01*
X19098930Y-6248570D02*
X19076070Y-6271430D01*
X19076070Y-6438570D02*
X19098930Y-6461430D01*
X19098930Y-6438570D02*
X19076070Y-6461430D01*
X19118570Y-19498570D02*
X19141430Y-19521430D01*
X19141430Y-19498570D02*
X19118570Y-19521430D01*
X19176070Y-6318570D02*
X19198930Y-6341430D01*
X19198930Y-6318570D02*
X19176070Y-6341430D01*
X19176070Y-6508570D02*
X19198930Y-6531430D01*
X19198930Y-6508570D02*
X19176070Y-6531430D01*
X19218570Y-19498570D02*
X19241430Y-19521430D01*
X19241430Y-19498570D02*
X19218570Y-19521430D01*
X19268570Y-7898570D02*
X19291430Y-7921430D01*
X19291430Y-7898570D02*
X19268570Y-7921430D01*
X19276070Y-6508570D02*
X19298930Y-6531430D01*
X19298930Y-6508570D02*
X19276070Y-6531430D01*
X19286070Y-6288570D02*
X19308930Y-6311430D01*
X19308930Y-6288570D02*
X19286070Y-6311430D01*
X19326070Y-6258570D02*
X19348930Y-6281430D01*
X19348930Y-6258570D02*
X19326070Y-6281430D01*
X19328570Y-7948570D02*
X19351430Y-7971430D01*
X19351430Y-7948570D02*
X19328570Y-7971430D01*
X19336070Y-6408570D02*
X19358930Y-6431430D01*
X19358930Y-6408570D02*
X19336070Y-6431430D01*
X19366070Y-6228570D02*
X19388930Y-6251430D01*
X19388930Y-6228570D02*
X19366070Y-6251430D01*
X19406070Y-6198570D02*
X19428930Y-6221430D01*
X19428930Y-6198570D02*
X19406070Y-6221430D01*
X19466070Y-6408570D02*
X19488930Y-6431430D01*
X19488930Y-6408570D02*
X19466070Y-6431430D01*
X19468570Y-8318570D02*
X19491430Y-8341430D01*
X19491430Y-8318570D02*
X19468570Y-8341430D01*
X19468570Y-9218570D02*
X19491430Y-9241430D01*
X19491430Y-9218570D02*
X19468570Y-9241430D01*
X19468570Y-10118570D02*
X19491430Y-10141430D01*
X19491430Y-10118570D02*
X19468570Y-10141430D01*
X19468570Y-11018570D02*
X19491430Y-11041430D01*
X19491430Y-11018570D02*
X19468570Y-11041430D01*
X19468570Y-11918570D02*
X19491430Y-11941430D01*
X19491430Y-11918570D02*
X19468570Y-11941430D01*
X19468570Y-12818570D02*
X19491430Y-12841430D01*
X19491430Y-12818570D02*
X19468570Y-12841430D01*
X19468570Y-13718570D02*
X19491430Y-13741430D01*
X19491430Y-13718570D02*
X19468570Y-13741430D01*
X19468570Y-14618570D02*
X19491430Y-14641430D01*
X19491430Y-14618570D02*
X19468570Y-14641430D01*
X19528570Y-8368570D02*
X19551430Y-8391430D01*
X19551430Y-8368570D02*
X19528570Y-8391430D01*
X19528570Y-9268570D02*
X19551430Y-9291430D01*
X19551430Y-9268570D02*
X19528570Y-9291430D01*
X19528570Y-10168570D02*
X19551430Y-10191430D01*
X19551430Y-10168570D02*
X19528570Y-10191430D01*
X19528570Y-11068570D02*
X19551430Y-11091430D01*
X19551430Y-11068570D02*
X19528570Y-11091430D01*
X19528570Y-11968570D02*
X19551430Y-11991430D01*
X19551430Y-11968570D02*
X19528570Y-11991430D01*
X19528570Y-12868570D02*
X19551430Y-12891430D01*
X19551430Y-12868570D02*
X19528570Y-12891430D01*
X19528570Y-13768570D02*
X19551430Y-13791430D01*
X19551430Y-13768570D02*
X19528570Y-13791430D01*
X19528570Y-14668570D02*
X19551430Y-14691430D01*
X19551430Y-14668570D02*
X19528570Y-14691430D01*
X19536070Y-6508570D02*
X19558930Y-6531430D01*
X19558930Y-6508570D02*
X19536070Y-6531430D01*
X19688570Y-19958570D02*
X19711430Y-19981430D01*
X19711430Y-19958570D02*
X19688570Y-19981430D01*
X19688570Y-20858570D02*
X19711430Y-20881430D01*
X19711430Y-20858570D02*
X19688570Y-20881430D01*
X19688570Y-21758570D02*
X19711430Y-21781430D01*
X19711430Y-21758570D02*
X19688570Y-21781430D01*
X19688570Y-22658570D02*
X19711430Y-22681430D01*
X19711430Y-22658570D02*
X19688570Y-22681430D01*
X19688570Y-23558570D02*
X19711430Y-23581430D01*
X19711430Y-23558570D02*
X19688570Y-23581430D01*
X19688570Y-24458570D02*
X19711430Y-24481430D01*
X19711430Y-24458570D02*
X19688570Y-24481430D01*
X19688570Y-25358570D02*
X19711430Y-25381430D01*
X19711430Y-25358570D02*
X19688570Y-25381430D01*
X19688570Y-26258570D02*
X19711430Y-26281430D01*
X19711430Y-26258570D02*
X19688570Y-26281430D01*
X19736070Y-5988570D02*
X19758930Y-6011430D01*
X19758930Y-5988570D02*
X19736070Y-6011430D01*
X19736070Y-6308570D02*
X19758930Y-6331430D01*
X19758930Y-6308570D02*
X19736070Y-6331430D01*
X19738570Y-19158570D02*
X19761430Y-19181430D01*
X19761430Y-19158570D02*
X19738570Y-19181430D01*
X19746070Y-6078570D02*
X19768930Y-6101430D01*
X19768930Y-6078570D02*
X19746070Y-6101430D01*
X19746070Y-6218570D02*
X19768930Y-6241430D01*
X19768930Y-6218570D02*
X19746070Y-6241430D01*
X19828570Y-7818570D02*
X19851430Y-7841430D01*
X19851430Y-7818570D02*
X19828570Y-7841430D01*
X19838570Y-19408570D02*
X19861430Y-19431430D01*
X19861430Y-19408570D02*
X19838570Y-19431430D01*
X19876070Y-6308570D02*
X19898930Y-6331430D01*
X19898930Y-6308570D02*
X19876070Y-6331430D01*
X19888570Y-19958570D02*
X19911430Y-19981430D01*
X19911430Y-19958570D02*
X19888570Y-19981430D01*
X19888570Y-20858570D02*
X19911430Y-20881430D01*
X19911430Y-20858570D02*
X19888570Y-20881430D01*
X19888570Y-21758570D02*
X19911430Y-21781430D01*
X19911430Y-21758570D02*
X19888570Y-21781430D01*
X19888570Y-22658570D02*
X19911430Y-22681430D01*
X19911430Y-22658570D02*
X19888570Y-22681430D01*
X19888570Y-23558570D02*
X19911430Y-23581430D01*
X19911430Y-23558570D02*
X19888570Y-23581430D01*
X19888570Y-24458570D02*
X19911430Y-24481430D01*
X19911430Y-24458570D02*
X19888570Y-24481430D01*
X19888570Y-25358570D02*
X19911430Y-25381430D01*
X19911430Y-25358570D02*
X19888570Y-25381430D01*
X19888570Y-26258570D02*
X19911430Y-26281430D01*
X19911430Y-26258570D02*
X19888570Y-26281430D01*
X19898570Y-19408570D02*
X19921430Y-19431430D01*
X19921430Y-19408570D02*
X19898570Y-19431430D01*
X19918570Y-8438570D02*
X19941430Y-8461430D01*
X19941430Y-8438570D02*
X19918570Y-8461430D01*
X19918570Y-8498570D02*
X19941430Y-8521430D01*
X19941430Y-8498570D02*
X19918570Y-8521430D01*
X19918570Y-8558570D02*
X19941430Y-8581430D01*
X19941430Y-8558570D02*
X19918570Y-8581430D01*
X19918570Y-9338570D02*
X19941430Y-9361430D01*
X19941430Y-9338570D02*
X19918570Y-9361430D01*
X19918570Y-9398570D02*
X19941430Y-9421430D01*
X19941430Y-9398570D02*
X19918570Y-9421430D01*
X19918570Y-9458570D02*
X19941430Y-9481430D01*
X19941430Y-9458570D02*
X19918570Y-9481430D01*
X19918570Y-10238570D02*
X19941430Y-10261430D01*
X19941430Y-10238570D02*
X19918570Y-10261430D01*
X19918570Y-10298570D02*
X19941430Y-10321430D01*
X19941430Y-10298570D02*
X19918570Y-10321430D01*
X19918570Y-10358570D02*
X19941430Y-10381430D01*
X19941430Y-10358570D02*
X19918570Y-10381430D01*
X19918570Y-11138570D02*
X19941430Y-11161430D01*
X19941430Y-11138570D02*
X19918570Y-11161430D01*
X19918570Y-11198570D02*
X19941430Y-11221430D01*
X19941430Y-11198570D02*
X19918570Y-11221430D01*
X19918570Y-11258570D02*
X19941430Y-11281430D01*
X19941430Y-11258570D02*
X19918570Y-11281430D01*
X19918570Y-12038570D02*
X19941430Y-12061430D01*
X19941430Y-12038570D02*
X19918570Y-12061430D01*
X19918570Y-12098570D02*
X19941430Y-12121430D01*
X19941430Y-12098570D02*
X19918570Y-12121430D01*
X19918570Y-12158570D02*
X19941430Y-12181430D01*
X19941430Y-12158570D02*
X19918570Y-12181430D01*
X19918570Y-12938570D02*
X19941430Y-12961430D01*
X19941430Y-12938570D02*
X19918570Y-12961430D01*
X19918570Y-12998570D02*
X19941430Y-13021430D01*
X19941430Y-12998570D02*
X19918570Y-13021430D01*
X19918570Y-13058570D02*
X19941430Y-13081430D01*
X19941430Y-13058570D02*
X19918570Y-13081430D01*
X19918570Y-13838570D02*
X19941430Y-13861430D01*
X19941430Y-13838570D02*
X19918570Y-13861430D01*
X19918570Y-13898570D02*
X19941430Y-13921430D01*
X19941430Y-13898570D02*
X19918570Y-13921430D01*
X19918570Y-13958570D02*
X19941430Y-13981430D01*
X19941430Y-13958570D02*
X19918570Y-13981430D01*
X19918570Y-14738570D02*
X19941430Y-14761430D01*
X19941430Y-14738570D02*
X19918570Y-14761430D01*
X19918570Y-14798570D02*
X19941430Y-14821430D01*
X19941430Y-14798570D02*
X19918570Y-14821430D01*
X19918570Y-14858570D02*
X19941430Y-14881430D01*
X19941430Y-14858570D02*
X19918570Y-14881430D01*
X19926070Y-6208570D02*
X19948930Y-6231430D01*
X19948930Y-6208570D02*
X19926070Y-6231430D01*
X19928570Y-7778570D02*
X19951430Y-7801430D01*
X19951430Y-7778570D02*
X19928570Y-7801430D01*
X20018570Y-19498570D02*
X20041430Y-19521430D01*
X20041430Y-19498570D02*
X20018570Y-19521430D01*
X20116070Y-6208570D02*
X20138930Y-6231430D01*
X20138930Y-6208570D02*
X20116070Y-6231430D01*
X20116070Y-6308570D02*
X20138930Y-6331430D01*
X20138930Y-6308570D02*
X20116070Y-6331430D01*
X20118570Y-19498570D02*
X20141430Y-19521430D01*
X20141430Y-19498570D02*
X20118570Y-19521430D01*
X20168570Y-7898570D02*
X20191430Y-7921430D01*
X20191430Y-7898570D02*
X20168570Y-7921430D01*
X20228570Y-7948570D02*
X20251430Y-7971430D01*
X20251430Y-7948570D02*
X20228570Y-7971430D01*
X20368570Y-8318570D02*
X20391430Y-8341430D01*
X20391430Y-8318570D02*
X20368570Y-8341430D01*
X20368570Y-9218570D02*
X20391430Y-9241430D01*
X20391430Y-9218570D02*
X20368570Y-9241430D01*
X20368570Y-10118570D02*
X20391430Y-10141430D01*
X20391430Y-10118570D02*
X20368570Y-10141430D01*
X20368570Y-11018570D02*
X20391430Y-11041430D01*
X20391430Y-11018570D02*
X20368570Y-11041430D01*
X20368570Y-11918570D02*
X20391430Y-11941430D01*
X20391430Y-11918570D02*
X20368570Y-11941430D01*
X20368570Y-12818570D02*
X20391430Y-12841430D01*
X20391430Y-12818570D02*
X20368570Y-12841430D01*
X20368570Y-13718570D02*
X20391430Y-13741430D01*
X20391430Y-13718570D02*
X20368570Y-13741430D01*
X20368570Y-14618570D02*
X20391430Y-14641430D01*
X20391430Y-14618570D02*
X20368570Y-14641430D01*
X20428570Y-8368570D02*
X20451430Y-8391430D01*
X20451430Y-8368570D02*
X20428570Y-8391430D01*
X20428570Y-9268570D02*
X20451430Y-9291430D01*
X20451430Y-9268570D02*
X20428570Y-9291430D01*
X20428570Y-10168570D02*
X20451430Y-10191430D01*
X20451430Y-10168570D02*
X20428570Y-10191430D01*
X20428570Y-11068570D02*
X20451430Y-11091430D01*
X20451430Y-11068570D02*
X20428570Y-11091430D01*
X20428570Y-11968570D02*
X20451430Y-11991430D01*
X20451430Y-11968570D02*
X20428570Y-11991430D01*
X20428570Y-12868570D02*
X20451430Y-12891430D01*
X20451430Y-12868570D02*
X20428570Y-12891430D01*
X20428570Y-13768570D02*
X20451430Y-13791430D01*
X20451430Y-13768570D02*
X20428570Y-13791430D01*
X20428570Y-14668570D02*
X20451430Y-14691430D01*
X20451430Y-14668570D02*
X20428570Y-14691430D01*
X20588570Y-19958570D02*
X20611430Y-19981430D01*
X20611430Y-19958570D02*
X20588570Y-19981430D01*
X20588570Y-20858570D02*
X20611430Y-20881430D01*
X20611430Y-20858570D02*
X20588570Y-20881430D01*
X20588570Y-21758570D02*
X20611430Y-21781430D01*
X20611430Y-21758570D02*
X20588570Y-21781430D01*
X20588570Y-22658570D02*
X20611430Y-22681430D01*
X20611430Y-22658570D02*
X20588570Y-22681430D01*
X20588570Y-23558570D02*
X20611430Y-23581430D01*
X20611430Y-23558570D02*
X20588570Y-23581430D01*
X20588570Y-24458570D02*
X20611430Y-24481430D01*
X20611430Y-24458570D02*
X20588570Y-24481430D01*
X20588570Y-25358570D02*
X20611430Y-25381430D01*
X20611430Y-25358570D02*
X20588570Y-25381430D01*
X20588570Y-26258570D02*
X20611430Y-26281430D01*
X20611430Y-26258570D02*
X20588570Y-26281430D01*
X20638570Y-19158570D02*
X20661430Y-19181430D01*
X20661430Y-19158570D02*
X20638570Y-19181430D01*
X20728570Y-7818570D02*
X20751430Y-7841430D01*
X20751430Y-7818570D02*
X20728570Y-7841430D01*
X20738570Y-19408570D02*
X20761430Y-19431430D01*
X20761430Y-19408570D02*
X20738570Y-19431430D01*
X20788570Y-19958570D02*
X20811430Y-19981430D01*
X20811430Y-19958570D02*
X20788570Y-19981430D01*
X20788570Y-20858570D02*
X20811430Y-20881430D01*
X20811430Y-20858570D02*
X20788570Y-20881430D01*
X20788570Y-21758570D02*
X20811430Y-21781430D01*
X20811430Y-21758570D02*
X20788570Y-21781430D01*
X20788570Y-22658570D02*
X20811430Y-22681430D01*
X20811430Y-22658570D02*
X20788570Y-22681430D01*
X20788570Y-23558570D02*
X20811430Y-23581430D01*
X20811430Y-23558570D02*
X20788570Y-23581430D01*
X20788570Y-24458570D02*
X20811430Y-24481430D01*
X20811430Y-24458570D02*
X20788570Y-24481430D01*
X20788570Y-25358570D02*
X20811430Y-25381430D01*
X20811430Y-25358570D02*
X20788570Y-25381430D01*
X20788570Y-26258570D02*
X20811430Y-26281430D01*
X20811430Y-26258570D02*
X20788570Y-26281430D01*
X20798570Y-19408570D02*
X20821430Y-19431430D01*
X20821430Y-19408570D02*
X20798570Y-19431430D01*
X20818570Y-8438570D02*
X20841430Y-8461430D01*
X20841430Y-8438570D02*
X20818570Y-8461430D01*
X20818570Y-8498570D02*
X20841430Y-8521430D01*
X20841430Y-8498570D02*
X20818570Y-8521430D01*
X20818570Y-8558570D02*
X20841430Y-8581430D01*
X20841430Y-8558570D02*
X20818570Y-8581430D01*
X20818570Y-9338570D02*
X20841430Y-9361430D01*
X20841430Y-9338570D02*
X20818570Y-9361430D01*
X20818570Y-9398570D02*
X20841430Y-9421430D01*
X20841430Y-9398570D02*
X20818570Y-9421430D01*
X20818570Y-9458570D02*
X20841430Y-9481430D01*
X20841430Y-9458570D02*
X20818570Y-9481430D01*
X20818570Y-10238570D02*
X20841430Y-10261430D01*
X20841430Y-10238570D02*
X20818570Y-10261430D01*
X20818570Y-10298570D02*
X20841430Y-10321430D01*
X20841430Y-10298570D02*
X20818570Y-10321430D01*
X20818570Y-10358570D02*
X20841430Y-10381430D01*
X20841430Y-10358570D02*
X20818570Y-10381430D01*
X20818570Y-11138570D02*
X20841430Y-11161430D01*
X20841430Y-11138570D02*
X20818570Y-11161430D01*
X20818570Y-11198570D02*
X20841430Y-11221430D01*
X20841430Y-11198570D02*
X20818570Y-11221430D01*
X20818570Y-11258570D02*
X20841430Y-11281430D01*
X20841430Y-11258570D02*
X20818570Y-11281430D01*
X20818570Y-12038570D02*
X20841430Y-12061430D01*
X20841430Y-12038570D02*
X20818570Y-12061430D01*
X20818570Y-12098570D02*
X20841430Y-12121430D01*
X20841430Y-12098570D02*
X20818570Y-12121430D01*
X20818570Y-12158570D02*
X20841430Y-12181430D01*
X20841430Y-12158570D02*
X20818570Y-12181430D01*
X20818570Y-12938570D02*
X20841430Y-12961430D01*
X20841430Y-12938570D02*
X20818570Y-12961430D01*
X20818570Y-12998570D02*
X20841430Y-13021430D01*
X20841430Y-12998570D02*
X20818570Y-13021430D01*
X20818570Y-13058570D02*
X20841430Y-13081430D01*
X20841430Y-13058570D02*
X20818570Y-13081430D01*
X20818570Y-13838570D02*
X20841430Y-13861430D01*
X20841430Y-13838570D02*
X20818570Y-13861430D01*
X20818570Y-13898570D02*
X20841430Y-13921430D01*
X20841430Y-13898570D02*
X20818570Y-13921430D01*
X20818570Y-13958570D02*
X20841430Y-13981430D01*
X20841430Y-13958570D02*
X20818570Y-13981430D01*
X20818570Y-14738570D02*
X20841430Y-14761430D01*
X20841430Y-14738570D02*
X20818570Y-14761430D01*
X20818570Y-14798570D02*
X20841430Y-14821430D01*
X20841430Y-14798570D02*
X20818570Y-14821430D01*
X20818570Y-14858570D02*
X20841430Y-14881430D01*
X20841430Y-14858570D02*
X20818570Y-14881430D01*
X20828570Y-7778570D02*
X20851430Y-7801430D01*
X20851430Y-7778570D02*
X20828570Y-7801430D01*
X20918570Y-19498570D02*
X20941430Y-19521430D01*
X20941430Y-19498570D02*
X20918570Y-19521430D01*
X21018570Y-19498570D02*
X21041430Y-19521430D01*
X21041430Y-19498570D02*
X21018570Y-19521430D01*
X21068570Y-7898570D02*
X21091430Y-7921430D01*
X21091430Y-7898570D02*
X21068570Y-7921430D01*
X21128570Y-7948570D02*
X21151430Y-7971430D01*
X21151430Y-7948570D02*
X21128570Y-7971430D01*
X21268570Y-8318570D02*
X21291430Y-8341430D01*
X21291430Y-8318570D02*
X21268570Y-8341430D01*
X21268570Y-9218570D02*
X21291430Y-9241430D01*
X21291430Y-9218570D02*
X21268570Y-9241430D01*
X21268570Y-10118570D02*
X21291430Y-10141430D01*
X21291430Y-10118570D02*
X21268570Y-10141430D01*
X21268570Y-11018570D02*
X21291430Y-11041430D01*
X21291430Y-11018570D02*
X21268570Y-11041430D01*
X21268570Y-11918570D02*
X21291430Y-11941430D01*
X21291430Y-11918570D02*
X21268570Y-11941430D01*
X21268570Y-12818570D02*
X21291430Y-12841430D01*
X21291430Y-12818570D02*
X21268570Y-12841430D01*
X21268570Y-13718570D02*
X21291430Y-13741430D01*
X21291430Y-13718570D02*
X21268570Y-13741430D01*
X21268570Y-14618570D02*
X21291430Y-14641430D01*
X21291430Y-14618570D02*
X21268570Y-14641430D01*
X21328570Y-8368570D02*
X21351430Y-8391430D01*
X21351430Y-8368570D02*
X21328570Y-8391430D01*
X21328570Y-9268570D02*
X21351430Y-9291430D01*
X21351430Y-9268570D02*
X21328570Y-9291430D01*
X21328570Y-10168570D02*
X21351430Y-10191430D01*
X21351430Y-10168570D02*
X21328570Y-10191430D01*
X21328570Y-11068570D02*
X21351430Y-11091430D01*
X21351430Y-11068570D02*
X21328570Y-11091430D01*
X21328570Y-11968570D02*
X21351430Y-11991430D01*
X21351430Y-11968570D02*
X21328570Y-11991430D01*
X21328570Y-12868570D02*
X21351430Y-12891430D01*
X21351430Y-12868570D02*
X21328570Y-12891430D01*
X21328570Y-13768570D02*
X21351430Y-13791430D01*
X21351430Y-13768570D02*
X21328570Y-13791430D01*
X21328570Y-14668570D02*
X21351430Y-14691430D01*
X21351430Y-14668570D02*
X21328570Y-14691430D01*
X21488570Y-19958570D02*
X21511430Y-19981430D01*
X21511430Y-19958570D02*
X21488570Y-19981430D01*
X21488570Y-20858570D02*
X21511430Y-20881430D01*
X21511430Y-20858570D02*
X21488570Y-20881430D01*
X21488570Y-21758570D02*
X21511430Y-21781430D01*
X21511430Y-21758570D02*
X21488570Y-21781430D01*
X21488570Y-22658570D02*
X21511430Y-22681430D01*
X21511430Y-22658570D02*
X21488570Y-22681430D01*
X21488570Y-23558570D02*
X21511430Y-23581430D01*
X21511430Y-23558570D02*
X21488570Y-23581430D01*
X21488570Y-24458570D02*
X21511430Y-24481430D01*
X21511430Y-24458570D02*
X21488570Y-24481430D01*
X21488570Y-25358570D02*
X21511430Y-25381430D01*
X21511430Y-25358570D02*
X21488570Y-25381430D01*
X21488570Y-26258570D02*
X21511430Y-26281430D01*
X21511430Y-26258570D02*
X21488570Y-26281430D01*
X21538570Y-19158570D02*
X21561430Y-19181430D01*
X21561430Y-19158570D02*
X21538570Y-19181430D01*
X21628570Y-7818570D02*
X21651430Y-7841430D01*
X21651430Y-7818570D02*
X21628570Y-7841430D01*
X21638570Y-19408570D02*
X21661430Y-19431430D01*
X21661430Y-19408570D02*
X21638570Y-19431430D01*
X21688570Y-19958570D02*
X21711430Y-19981430D01*
X21711430Y-19958570D02*
X21688570Y-19981430D01*
X21688570Y-20858570D02*
X21711430Y-20881430D01*
X21711430Y-20858570D02*
X21688570Y-20881430D01*
X21688570Y-21758570D02*
X21711430Y-21781430D01*
X21711430Y-21758570D02*
X21688570Y-21781430D01*
X21688570Y-22658570D02*
X21711430Y-22681430D01*
X21711430Y-22658570D02*
X21688570Y-22681430D01*
X21688570Y-23558570D02*
X21711430Y-23581430D01*
X21711430Y-23558570D02*
X21688570Y-23581430D01*
X21688570Y-24458570D02*
X21711430Y-24481430D01*
X21711430Y-24458570D02*
X21688570Y-24481430D01*
X21688570Y-25358570D02*
X21711430Y-25381430D01*
X21711430Y-25358570D02*
X21688570Y-25381430D01*
X21688570Y-26258570D02*
X21711430Y-26281430D01*
X21711430Y-26258570D02*
X21688570Y-26281430D01*
X21698570Y-19408570D02*
X21721430Y-19431430D01*
X21721430Y-19408570D02*
X21698570Y-19431430D01*
X21718570Y-8438570D02*
X21741430Y-8461430D01*
X21741430Y-8438570D02*
X21718570Y-8461430D01*
X21718570Y-8498570D02*
X21741430Y-8521430D01*
X21741430Y-8498570D02*
X21718570Y-8521430D01*
X21718570Y-8558570D02*
X21741430Y-8581430D01*
X21741430Y-8558570D02*
X21718570Y-8581430D01*
X21718570Y-9338570D02*
X21741430Y-9361430D01*
X21741430Y-9338570D02*
X21718570Y-9361430D01*
X21718570Y-9398570D02*
X21741430Y-9421430D01*
X21741430Y-9398570D02*
X21718570Y-9421430D01*
X21718570Y-9458570D02*
X21741430Y-9481430D01*
X21741430Y-9458570D02*
X21718570Y-9481430D01*
X21718570Y-10238570D02*
X21741430Y-10261430D01*
X21741430Y-10238570D02*
X21718570Y-10261430D01*
X21718570Y-10298570D02*
X21741430Y-10321430D01*
X21741430Y-10298570D02*
X21718570Y-10321430D01*
X21718570Y-10358570D02*
X21741430Y-10381430D01*
X21741430Y-10358570D02*
X21718570Y-10381430D01*
X21718570Y-11138570D02*
X21741430Y-11161430D01*
X21741430Y-11138570D02*
X21718570Y-11161430D01*
X21718570Y-11198570D02*
X21741430Y-11221430D01*
X21741430Y-11198570D02*
X21718570Y-11221430D01*
X21718570Y-11258570D02*
X21741430Y-11281430D01*
X21741430Y-11258570D02*
X21718570Y-11281430D01*
X21718570Y-12038570D02*
X21741430Y-12061430D01*
X21741430Y-12038570D02*
X21718570Y-12061430D01*
X21718570Y-12098570D02*
X21741430Y-12121430D01*
X21741430Y-12098570D02*
X21718570Y-12121430D01*
X21718570Y-12158570D02*
X21741430Y-12181430D01*
X21741430Y-12158570D02*
X21718570Y-12181430D01*
X21718570Y-12938570D02*
X21741430Y-12961430D01*
X21741430Y-12938570D02*
X21718570Y-12961430D01*
X21718570Y-12998570D02*
X21741430Y-13021430D01*
X21741430Y-12998570D02*
X21718570Y-13021430D01*
X21718570Y-13058570D02*
X21741430Y-13081430D01*
X21741430Y-13058570D02*
X21718570Y-13081430D01*
X21718570Y-13838570D02*
X21741430Y-13861430D01*
X21741430Y-13838570D02*
X21718570Y-13861430D01*
X21718570Y-13898570D02*
X21741430Y-13921430D01*
X21741430Y-13898570D02*
X21718570Y-13921430D01*
X21718570Y-13958570D02*
X21741430Y-13981430D01*
X21741430Y-13958570D02*
X21718570Y-13981430D01*
X21718570Y-14738570D02*
X21741430Y-14761430D01*
X21741430Y-14738570D02*
X21718570Y-14761430D01*
X21718570Y-14798570D02*
X21741430Y-14821430D01*
X21741430Y-14798570D02*
X21718570Y-14821430D01*
X21718570Y-14858570D02*
X21741430Y-14881430D01*
X21741430Y-14858570D02*
X21718570Y-14881430D01*
X21728570Y-7778570D02*
X21751430Y-7801430D01*
X21751430Y-7778570D02*
X21728570Y-7801430D01*
X21818570Y-19498570D02*
X21841430Y-19521430D01*
X21841430Y-19498570D02*
X21818570Y-19521430D01*
X21918570Y-19498570D02*
X21941430Y-19521430D01*
X21941430Y-19498570D02*
X21918570Y-19521430D01*
X22438570Y-19158570D02*
X22461430Y-19181430D01*
X22461430Y-19158570D02*
X22438570Y-19181430D01*
D13*
X9583950Y-20170000D02*
G75*
G03*
X9583950Y-20170000I-11450J0D01*
G01*
X9583950Y-21070000D02*
G75*
G03*
X9583950Y-21070000I-11450J0D01*
G01*
X9583950Y-21970000D02*
G75*
G03*
X9583950Y-21970000I-11450J0D01*
G01*
X9583950Y-22870000D02*
G75*
G03*
X9583950Y-22870000I-11450J0D01*
G01*
X9583950Y-23770000D02*
G75*
G03*
X9583950Y-23770000I-11450J0D01*
G01*
X9583950Y-24670000D02*
G75*
G03*
X9583950Y-24670000I-11450J0D01*
G01*
X9583950Y-25570000D02*
G75*
G03*
X9583950Y-25570000I-11450J0D01*
G01*
X9583950Y-26470000D02*
G75*
G03*
X9583950Y-26470000I-11450J0D01*
G01*
X10871450Y-18682500D02*
G75*
G03*
X10871450Y-18682500I-11450J0D01*
G01*
X11021450Y-18682500D02*
G75*
G03*
X11021450Y-18682500I-11450J0D01*
G01*
X11171450Y-18682500D02*
G75*
G03*
X11171450Y-18682500I-11450J0D01*
G01*
X11271450Y-17540000D02*
G75*
G03*
X11271450Y-17540000I-11450J0D01*
G01*
X11321450Y-18682500D02*
G75*
G03*
X11321450Y-18682500I-11450J0D01*
G01*
X11471450Y-18682500D02*
G75*
G03*
X11471450Y-18682500I-11450J0D01*
G01*
X11621450Y-18682500D02*
G75*
G03*
X11621450Y-18682500I-11450J0D01*
G01*
X11771450Y-18682500D02*
G75*
G03*
X11771450Y-18682500I-11450J0D01*
G01*
X11921450Y-18682500D02*
G75*
G03*
X11921450Y-18682500I-11450J0D01*
G01*
X12171450Y-18210000D02*
G75*
G03*
X12171450Y-18210000I-11450J0D01*
G01*
D14*
X21080000Y-5840000D02*
X21080000Y-5920000D01*
X21040000Y-5880000D02*
X21120000Y-5880000D01*
D11*
X21050000Y-5770000D02*
X21050000Y-5990000D01*
X21110000Y-5770000D02*
X21110000Y-5990000D01*
X21050000Y-5990000D02*
G75*
G03*
X21110000Y-5990000I30000J0D01*
G01*
X21110000Y-5770000D02*
G75*
G03*
X21050000Y-5770000I-30000J0D01*
G01*
D14*
X21560000Y-5560000D02*
X21560000Y-5640000D01*
X21520000Y-5600000D02*
X21600000Y-5600000D01*
D11*
X21670000Y-5570000D02*
X21450000Y-5570000D01*
X21670000Y-5630000D02*
X21450000Y-5630000D01*
X21450000Y-5570000D02*
G75*
G03*
X21450000Y-5630000I0J-30000D01*
G01*
X21670000Y-5630000D02*
G75*
G03*
X21670000Y-5570000I0J30000D01*
G01*
D14*
X21560000Y-6140000D02*
X21560000Y-6220000D01*
X21520000Y-6180000D02*
X21600000Y-6180000D01*
D11*
X21690000Y-6150000D02*
X21430000Y-6150000D01*
X21690000Y-6210000D02*
X21430000Y-6210000D01*
X21430000Y-6150000D02*
G75*
G03*
X21430000Y-6210000I0J-30000D01*
G01*
X21690000Y-6210000D02*
G75*
G03*
X21690000Y-6150000I0J30000D01*
G01*
D15*
X9145356Y-7533356D02*
X9145356Y-7462644D01*
X9074644Y-7462644D01*
X9074644Y-7533356D01*
X9145356Y-7533356D01*
X9145356Y-7787356D02*
X9145356Y-7716644D01*
X9074644Y-7716644D01*
X9074644Y-7787356D01*
X9145356Y-7787356D01*
X9145356Y-8041356D02*
X9145356Y-7970644D01*
X9074644Y-7970644D01*
X9074644Y-8041356D01*
X9145356Y-8041356D01*
X9145356Y-8295356D02*
X9145356Y-8224644D01*
X9074644Y-8224644D01*
X9074644Y-8295356D01*
X9145356Y-8295356D01*
D16*
X9260000Y-6095000D02*
X9475000Y-5880000D01*
X9260000Y-5665000D01*
X9045000Y-5880000D01*
X9260000Y-6095000D01*
X9260000Y-16195000D02*
X9475000Y-15980000D01*
X9260000Y-15765000D01*
X9045000Y-15980000D01*
X9260000Y-16195000D01*
X9260000Y-17735000D02*
X9475000Y-17520000D01*
X9260000Y-17305000D01*
X9045000Y-17520000D01*
X9260000Y-17735000D01*
X9260000Y-27835000D02*
X9475000Y-27620000D01*
X9260000Y-27405000D01*
X9045000Y-27620000D01*
X9260000Y-27835000D01*
X23560000Y-6095000D02*
X23775000Y-5880000D01*
X23560000Y-5665000D01*
X23345000Y-5880000D01*
X23560000Y-6095000D01*
X23560000Y-16195000D02*
X23775000Y-15980000D01*
X23560000Y-15765000D01*
X23345000Y-15980000D01*
X23560000Y-16195000D01*
X23560000Y-17735000D02*
X23775000Y-17520000D01*
X23560000Y-17305000D01*
X23345000Y-17520000D01*
X23560000Y-17735000D01*
X23560000Y-27835000D02*
X23775000Y-27620000D01*
X23560000Y-27405000D01*
X23345000Y-27620000D01*
X23560000Y-27835000D01*
D11*
X8865119Y-28582976D02*
X8865119Y-28382976D01*
X8912738Y-28382976D01*
X8941310Y-28392500D01*
X8960357Y-28411548D01*
X8969881Y-28430595D01*
X8979405Y-28468690D01*
X8979405Y-28497262D01*
X8969881Y-28535357D01*
X8960357Y-28554405D01*
X8941310Y-28573452D01*
X8912738Y-28582976D01*
X8865119Y-28582976D01*
X9065119Y-28582976D02*
X9065119Y-28449643D01*
X9065119Y-28487738D02*
X9074643Y-28468690D01*
X9084167Y-28459167D01*
X9103214Y-28449643D01*
X9122262Y-28449643D01*
X9188929Y-28582976D02*
X9188929Y-28449643D01*
X9188929Y-28382976D02*
X9179405Y-28392500D01*
X9188929Y-28402024D01*
X9198452Y-28392500D01*
X9188929Y-28382976D01*
X9188929Y-28402024D01*
X9312738Y-28582976D02*
X9293690Y-28573452D01*
X9284167Y-28554405D01*
X9284167Y-28382976D01*
X9417500Y-28582976D02*
X9398452Y-28573452D01*
X9388929Y-28554405D01*
X9388929Y-28382976D01*
X9646071Y-28582976D02*
X9646071Y-28382976D01*
X9712738Y-28525833D01*
X9779405Y-28382976D01*
X9779405Y-28582976D01*
X9960357Y-28582976D02*
X9960357Y-28478214D01*
X9950833Y-28459167D01*
X9931786Y-28449643D01*
X9893690Y-28449643D01*
X9874643Y-28459167D01*
X9960357Y-28573452D02*
X9941310Y-28582976D01*
X9893690Y-28582976D01*
X9874643Y-28573452D01*
X9865119Y-28554405D01*
X9865119Y-28535357D01*
X9874643Y-28516309D01*
X9893690Y-28506786D01*
X9941310Y-28506786D01*
X9960357Y-28497262D01*
X10055595Y-28449643D02*
X10055595Y-28649643D01*
X10055595Y-28459167D02*
X10074643Y-28449643D01*
X10112738Y-28449643D01*
X10131786Y-28459167D01*
X10141310Y-28468690D01*
X10150833Y-28487738D01*
X10150833Y-28544881D01*
X10141310Y-28563928D01*
X10131786Y-28573452D01*
X10112738Y-28582976D01*
X10074643Y-28582976D01*
X10055595Y-28573452D01*
X10236548Y-28563928D02*
X10246071Y-28573452D01*
X10236548Y-28582976D01*
X10227024Y-28573452D01*
X10236548Y-28563928D01*
X10236548Y-28582976D01*
X10236548Y-28459167D02*
X10246071Y-28468690D01*
X10236548Y-28478214D01*
X10227024Y-28468690D01*
X10236548Y-28459167D01*
X10236548Y-28478214D01*
D12*
X8584640Y-28901070D02*
X8607500Y-28923930D01*
X8607500Y-28901070D02*
X8584640Y-28923930D01*
D11*
X8903214Y-28802976D02*
X8922262Y-28802976D01*
X8941310Y-28812500D01*
X8950833Y-28822024D01*
X8960357Y-28841071D01*
X8969881Y-28879167D01*
X8969881Y-28926786D01*
X8960357Y-28964881D01*
X8950833Y-28983928D01*
X8941310Y-28993452D01*
X8922262Y-29002976D01*
X8903214Y-29002976D01*
X8884167Y-28993452D01*
X8874643Y-28983928D01*
X8865119Y-28964881D01*
X8855595Y-28926786D01*
X8855595Y-28879167D01*
X8865119Y-28841071D01*
X8874643Y-28822024D01*
X8884167Y-28812500D01*
X8903214Y-28802976D01*
X9055595Y-28983928D02*
X9065119Y-28993452D01*
X9055595Y-29002976D01*
X9046071Y-28993452D01*
X9055595Y-28983928D01*
X9055595Y-29002976D01*
X9141310Y-28822024D02*
X9150833Y-28812500D01*
X9169881Y-28802976D01*
X9217500Y-28802976D01*
X9236548Y-28812500D01*
X9246071Y-28822024D01*
X9255595Y-28841071D01*
X9255595Y-28860119D01*
X9246071Y-28888690D01*
X9131786Y-29002976D01*
X9255595Y-29002976D01*
X9331786Y-28822024D02*
X9341310Y-28812500D01*
X9360357Y-28802976D01*
X9407976Y-28802976D01*
X9427024Y-28812500D01*
X9436548Y-28822024D01*
X9446071Y-28841071D01*
X9446071Y-28860119D01*
X9436548Y-28888690D01*
X9322262Y-29002976D01*
X9446071Y-29002976D01*
X9541310Y-29002976D02*
X9579405Y-29002976D01*
X9598452Y-28993452D01*
X9607976Y-28983928D01*
X9627024Y-28955357D01*
X9636548Y-28917262D01*
X9636548Y-28841071D01*
X9627024Y-28822024D01*
X9617500Y-28812500D01*
X9598452Y-28802976D01*
X9560357Y-28802976D01*
X9541310Y-28812500D01*
X9531786Y-28822024D01*
X9522262Y-28841071D01*
X9522262Y-28888690D01*
X9531786Y-28907738D01*
X9541310Y-28917262D01*
X9560357Y-28926786D01*
X9598452Y-28926786D01*
X9617500Y-28917262D01*
X9627024Y-28907738D01*
X9636548Y-28888690D01*
X9722262Y-29002976D02*
X9722262Y-28869643D01*
X9722262Y-28888690D02*
X9731786Y-28879167D01*
X9750833Y-28869643D01*
X9779405Y-28869643D01*
X9798452Y-28879167D01*
X9807976Y-28898214D01*
X9807976Y-29002976D01*
X9807976Y-28898214D02*
X9817500Y-28879167D01*
X9836548Y-28869643D01*
X9865119Y-28869643D01*
X9884167Y-28879167D01*
X9893690Y-28898214D01*
X9893690Y-29002976D01*
X9988929Y-29002976D02*
X9988929Y-28869643D01*
X9988929Y-28888690D02*
X9998452Y-28879167D01*
X10017500Y-28869643D01*
X10046071Y-28869643D01*
X10065119Y-28879167D01*
X10074643Y-28898214D01*
X10074643Y-29002976D01*
X10074643Y-28898214D02*
X10084167Y-28879167D01*
X10103214Y-28869643D01*
X10131786Y-28869643D01*
X10150833Y-28879167D01*
X10160357Y-28898214D01*
X10160357Y-29002976D01*
X10550833Y-28793452D02*
X10379405Y-29050595D01*
X10807976Y-28802976D02*
X10827024Y-28802976D01*
X10846071Y-28812500D01*
X10855595Y-28822024D01*
X10865119Y-28841071D01*
X10874643Y-28879167D01*
X10874643Y-28926786D01*
X10865119Y-28964881D01*
X10855595Y-28983928D01*
X10846071Y-28993452D01*
X10827024Y-29002976D01*
X10807976Y-29002976D01*
X10788929Y-28993452D01*
X10779405Y-28983928D01*
X10769881Y-28964881D01*
X10760357Y-28926786D01*
X10760357Y-28879167D01*
X10769881Y-28841071D01*
X10779405Y-28822024D01*
X10788929Y-28812500D01*
X10807976Y-28802976D01*
X10960357Y-28983928D02*
X10969881Y-28993452D01*
X10960357Y-29002976D01*
X10950833Y-28993452D01*
X10960357Y-28983928D01*
X10960357Y-29002976D01*
X11093690Y-28802976D02*
X11112738Y-28802976D01*
X11131786Y-28812500D01*
X11141310Y-28822024D01*
X11150833Y-28841071D01*
X11160357Y-28879167D01*
X11160357Y-28926786D01*
X11150833Y-28964881D01*
X11141310Y-28983928D01*
X11131786Y-28993452D01*
X11112738Y-29002976D01*
X11093690Y-29002976D01*
X11074643Y-28993452D01*
X11065119Y-28983928D01*
X11055595Y-28964881D01*
X11046071Y-28926786D01*
X11046071Y-28879167D01*
X11055595Y-28841071D01*
X11065119Y-28822024D01*
X11074643Y-28812500D01*
X11093690Y-28802976D01*
X11284167Y-28802976D02*
X11303214Y-28802976D01*
X11322262Y-28812500D01*
X11331786Y-28822024D01*
X11341309Y-28841071D01*
X11350833Y-28879167D01*
X11350833Y-28926786D01*
X11341309Y-28964881D01*
X11331786Y-28983928D01*
X11322262Y-28993452D01*
X11303214Y-29002976D01*
X11284167Y-29002976D01*
X11265119Y-28993452D01*
X11255595Y-28983928D01*
X11246071Y-28964881D01*
X11236548Y-28926786D01*
X11236548Y-28879167D01*
X11246071Y-28841071D01*
X11255595Y-28822024D01*
X11265119Y-28812500D01*
X11284167Y-28802976D01*
X11446071Y-29002976D02*
X11484167Y-29002976D01*
X11503214Y-28993452D01*
X11512738Y-28983928D01*
X11531786Y-28955357D01*
X11541309Y-28917262D01*
X11541309Y-28841071D01*
X11531786Y-28822024D01*
X11522262Y-28812500D01*
X11503214Y-28802976D01*
X11465119Y-28802976D01*
X11446071Y-28812500D01*
X11436548Y-28822024D01*
X11427024Y-28841071D01*
X11427024Y-28888690D01*
X11436548Y-28907738D01*
X11446071Y-28917262D01*
X11465119Y-28926786D01*
X11503214Y-28926786D01*
X11522262Y-28917262D01*
X11531786Y-28907738D01*
X11541309Y-28888690D01*
X11665119Y-28802976D02*
X11684167Y-28802976D01*
X11703214Y-28812500D01*
X11712738Y-28822024D01*
X11722262Y-28841071D01*
X11731786Y-28879167D01*
X11731786Y-28926786D01*
X11722262Y-28964881D01*
X11712738Y-28983928D01*
X11703214Y-28993452D01*
X11684167Y-29002976D01*
X11665119Y-29002976D01*
X11646071Y-28993452D01*
X11636548Y-28983928D01*
X11627024Y-28964881D01*
X11617500Y-28926786D01*
X11617500Y-28879167D01*
X11627024Y-28841071D01*
X11636548Y-28822024D01*
X11646071Y-28812500D01*
X11665119Y-28802976D01*
X11807976Y-28802976D02*
X11807976Y-28841071D01*
X11884167Y-28802976D02*
X11884167Y-28841071D01*
X12179405Y-29079167D02*
X12169881Y-29069643D01*
X12150833Y-29041071D01*
X12141309Y-29022024D01*
X12131786Y-28993452D01*
X12122262Y-28945833D01*
X12122262Y-28907738D01*
X12131786Y-28860119D01*
X12141309Y-28831548D01*
X12150833Y-28812500D01*
X12169881Y-28783928D01*
X12179405Y-28774405D01*
X12360357Y-29002976D02*
X12246071Y-29002976D01*
X12303214Y-29002976D02*
X12303214Y-28802976D01*
X12284167Y-28831548D01*
X12265119Y-28850595D01*
X12246071Y-28860119D01*
X12427024Y-28802976D02*
X12550833Y-28802976D01*
X12484167Y-28879167D01*
X12512738Y-28879167D01*
X12531786Y-28888690D01*
X12541309Y-28898214D01*
X12550833Y-28917262D01*
X12550833Y-28964881D01*
X12541309Y-28983928D01*
X12531786Y-28993452D01*
X12512738Y-29002976D01*
X12455595Y-29002976D01*
X12436548Y-28993452D01*
X12427024Y-28983928D01*
X12722262Y-28869643D02*
X12722262Y-29002976D01*
X12674643Y-28793452D02*
X12627024Y-28936309D01*
X12750833Y-28936309D01*
X12807976Y-28802976D02*
X12931786Y-28802976D01*
X12865119Y-28879167D01*
X12893690Y-28879167D01*
X12912738Y-28888690D01*
X12922262Y-28898214D01*
X12931786Y-28917262D01*
X12931786Y-28964881D01*
X12922262Y-28983928D01*
X12912738Y-28993452D01*
X12893690Y-29002976D01*
X12836548Y-29002976D01*
X12817500Y-28993452D01*
X12807976Y-28983928D01*
X13169881Y-29002976D02*
X13169881Y-28802976D01*
X13255595Y-29002976D02*
X13255595Y-28898214D01*
X13246071Y-28879167D01*
X13227024Y-28869643D01*
X13198452Y-28869643D01*
X13179405Y-28879167D01*
X13169881Y-28888690D01*
X13379405Y-29002976D02*
X13360357Y-28993452D01*
X13350833Y-28983928D01*
X13341309Y-28964881D01*
X13341309Y-28907738D01*
X13350833Y-28888690D01*
X13360357Y-28879167D01*
X13379405Y-28869643D01*
X13407976Y-28869643D01*
X13427024Y-28879167D01*
X13436548Y-28888690D01*
X13446071Y-28907738D01*
X13446071Y-28964881D01*
X13436548Y-28983928D01*
X13427024Y-28993452D01*
X13407976Y-29002976D01*
X13379405Y-29002976D01*
X13560357Y-29002976D02*
X13541309Y-28993452D01*
X13531786Y-28974405D01*
X13531786Y-28802976D01*
X13712738Y-28993452D02*
X13693690Y-29002976D01*
X13655595Y-29002976D01*
X13636548Y-28993452D01*
X13627024Y-28974405D01*
X13627024Y-28898214D01*
X13636548Y-28879167D01*
X13655595Y-28869643D01*
X13693690Y-28869643D01*
X13712738Y-28879167D01*
X13722262Y-28898214D01*
X13722262Y-28917262D01*
X13627024Y-28936309D01*
X13798452Y-28993452D02*
X13817500Y-29002976D01*
X13855595Y-29002976D01*
X13874643Y-28993452D01*
X13884167Y-28974405D01*
X13884167Y-28964881D01*
X13874643Y-28945833D01*
X13855595Y-28936309D01*
X13827024Y-28936309D01*
X13807976Y-28926786D01*
X13798452Y-28907738D01*
X13798452Y-28898214D01*
X13807976Y-28879167D01*
X13827024Y-28869643D01*
X13855595Y-28869643D01*
X13874643Y-28879167D01*
X13950833Y-29079167D02*
X13960357Y-29069643D01*
X13979405Y-29041071D01*
X13988928Y-29022024D01*
X13998452Y-28993452D01*
X14007976Y-28945833D01*
X14007976Y-28907738D01*
X13998452Y-28860119D01*
X13988928Y-28831548D01*
X13979405Y-28812500D01*
X13960357Y-28783928D01*
X13950833Y-28774405D01*
D13*
X8607500Y-29176500D02*
G75*
G03*
X8607500Y-29176500I-11450J0D01*
G01*
D11*
X8903214Y-29066976D02*
X8922262Y-29066976D01*
X8941310Y-29076500D01*
X8950833Y-29086024D01*
X8960357Y-29105071D01*
X8969881Y-29143167D01*
X8969881Y-29190786D01*
X8960357Y-29228881D01*
X8950833Y-29247928D01*
X8941310Y-29257452D01*
X8922262Y-29266976D01*
X8903214Y-29266976D01*
X8884167Y-29257452D01*
X8874643Y-29247928D01*
X8865119Y-29228881D01*
X8855595Y-29190786D01*
X8855595Y-29143167D01*
X8865119Y-29105071D01*
X8874643Y-29086024D01*
X8884167Y-29076500D01*
X8903214Y-29066976D01*
X9055595Y-29247928D02*
X9065119Y-29257452D01*
X9055595Y-29266976D01*
X9046071Y-29257452D01*
X9055595Y-29247928D01*
X9055595Y-29266976D01*
X9141310Y-29086024D02*
X9150833Y-29076500D01*
X9169881Y-29066976D01*
X9217500Y-29066976D01*
X9236548Y-29076500D01*
X9246071Y-29086024D01*
X9255595Y-29105071D01*
X9255595Y-29124119D01*
X9246071Y-29152690D01*
X9131786Y-29266976D01*
X9255595Y-29266976D01*
X9331786Y-29086024D02*
X9341310Y-29076500D01*
X9360357Y-29066976D01*
X9407976Y-29066976D01*
X9427024Y-29076500D01*
X9436548Y-29086024D01*
X9446071Y-29105071D01*
X9446071Y-29124119D01*
X9436548Y-29152690D01*
X9322262Y-29266976D01*
X9446071Y-29266976D01*
X9541310Y-29266976D02*
X9579405Y-29266976D01*
X9598452Y-29257452D01*
X9607976Y-29247928D01*
X9627024Y-29219357D01*
X9636548Y-29181262D01*
X9636548Y-29105071D01*
X9627024Y-29086024D01*
X9617500Y-29076500D01*
X9598452Y-29066976D01*
X9560357Y-29066976D01*
X9541310Y-29076500D01*
X9531786Y-29086024D01*
X9522262Y-29105071D01*
X9522262Y-29152690D01*
X9531786Y-29171738D01*
X9541310Y-29181262D01*
X9560357Y-29190786D01*
X9598452Y-29190786D01*
X9617500Y-29181262D01*
X9627024Y-29171738D01*
X9636548Y-29152690D01*
X9722262Y-29266976D02*
X9722262Y-29133643D01*
X9722262Y-29152690D02*
X9731786Y-29143167D01*
X9750833Y-29133643D01*
X9779405Y-29133643D01*
X9798452Y-29143167D01*
X9807976Y-29162214D01*
X9807976Y-29266976D01*
X9807976Y-29162214D02*
X9817500Y-29143167D01*
X9836548Y-29133643D01*
X9865119Y-29133643D01*
X9884167Y-29143167D01*
X9893690Y-29162214D01*
X9893690Y-29266976D01*
X9988929Y-29266976D02*
X9988929Y-29133643D01*
X9988929Y-29152690D02*
X9998452Y-29143167D01*
X10017500Y-29133643D01*
X10046071Y-29133643D01*
X10065119Y-29143167D01*
X10074643Y-29162214D01*
X10074643Y-29266976D01*
X10074643Y-29162214D02*
X10084167Y-29143167D01*
X10103214Y-29133643D01*
X10131786Y-29133643D01*
X10150833Y-29143167D01*
X10160357Y-29162214D01*
X10160357Y-29266976D01*
X10550833Y-29057452D02*
X10379405Y-29314595D01*
X10807976Y-29066976D02*
X10827024Y-29066976D01*
X10846071Y-29076500D01*
X10855595Y-29086024D01*
X10865119Y-29105071D01*
X10874643Y-29143167D01*
X10874643Y-29190786D01*
X10865119Y-29228881D01*
X10855595Y-29247928D01*
X10846071Y-29257452D01*
X10827024Y-29266976D01*
X10807976Y-29266976D01*
X10788929Y-29257452D01*
X10779405Y-29247928D01*
X10769881Y-29228881D01*
X10760357Y-29190786D01*
X10760357Y-29143167D01*
X10769881Y-29105071D01*
X10779405Y-29086024D01*
X10788929Y-29076500D01*
X10807976Y-29066976D01*
X10960357Y-29247928D02*
X10969881Y-29257452D01*
X10960357Y-29266976D01*
X10950833Y-29257452D01*
X10960357Y-29247928D01*
X10960357Y-29266976D01*
X11093690Y-29066976D02*
X11112738Y-29066976D01*
X11131786Y-29076500D01*
X11141310Y-29086024D01*
X11150833Y-29105071D01*
X11160357Y-29143167D01*
X11160357Y-29190786D01*
X11150833Y-29228881D01*
X11141310Y-29247928D01*
X11131786Y-29257452D01*
X11112738Y-29266976D01*
X11093690Y-29266976D01*
X11074643Y-29257452D01*
X11065119Y-29247928D01*
X11055595Y-29228881D01*
X11046071Y-29190786D01*
X11046071Y-29143167D01*
X11055595Y-29105071D01*
X11065119Y-29086024D01*
X11074643Y-29076500D01*
X11093690Y-29066976D01*
X11284167Y-29066976D02*
X11303214Y-29066976D01*
X11322262Y-29076500D01*
X11331786Y-29086024D01*
X11341309Y-29105071D01*
X11350833Y-29143167D01*
X11350833Y-29190786D01*
X11341309Y-29228881D01*
X11331786Y-29247928D01*
X11322262Y-29257452D01*
X11303214Y-29266976D01*
X11284167Y-29266976D01*
X11265119Y-29257452D01*
X11255595Y-29247928D01*
X11246071Y-29228881D01*
X11236548Y-29190786D01*
X11236548Y-29143167D01*
X11246071Y-29105071D01*
X11255595Y-29086024D01*
X11265119Y-29076500D01*
X11284167Y-29066976D01*
X11446071Y-29266976D02*
X11484167Y-29266976D01*
X11503214Y-29257452D01*
X11512738Y-29247928D01*
X11531786Y-29219357D01*
X11541309Y-29181262D01*
X11541309Y-29105071D01*
X11531786Y-29086024D01*
X11522262Y-29076500D01*
X11503214Y-29066976D01*
X11465119Y-29066976D01*
X11446071Y-29076500D01*
X11436548Y-29086024D01*
X11427024Y-29105071D01*
X11427024Y-29152690D01*
X11436548Y-29171738D01*
X11446071Y-29181262D01*
X11465119Y-29190786D01*
X11503214Y-29190786D01*
X11522262Y-29181262D01*
X11531786Y-29171738D01*
X11541309Y-29152690D01*
X11665119Y-29066976D02*
X11684167Y-29066976D01*
X11703214Y-29076500D01*
X11712738Y-29086024D01*
X11722262Y-29105071D01*
X11731786Y-29143167D01*
X11731786Y-29190786D01*
X11722262Y-29228881D01*
X11712738Y-29247928D01*
X11703214Y-29257452D01*
X11684167Y-29266976D01*
X11665119Y-29266976D01*
X11646071Y-29257452D01*
X11636548Y-29247928D01*
X11627024Y-29228881D01*
X11617500Y-29190786D01*
X11617500Y-29143167D01*
X11627024Y-29105071D01*
X11636548Y-29086024D01*
X11646071Y-29076500D01*
X11665119Y-29066976D01*
X11807976Y-29066976D02*
X11807976Y-29105071D01*
X11884167Y-29066976D02*
X11884167Y-29105071D01*
X12179405Y-29343167D02*
X12169881Y-29333643D01*
X12150833Y-29305071D01*
X12141309Y-29286024D01*
X12131786Y-29257452D01*
X12122262Y-29209833D01*
X12122262Y-29171738D01*
X12131786Y-29124119D01*
X12141309Y-29095548D01*
X12150833Y-29076500D01*
X12169881Y-29047928D01*
X12179405Y-29038405D01*
X12360357Y-29266976D02*
X12246071Y-29266976D01*
X12303214Y-29266976D02*
X12303214Y-29066976D01*
X12284167Y-29095548D01*
X12265119Y-29114595D01*
X12246071Y-29124119D01*
X12474643Y-29152690D02*
X12455595Y-29143167D01*
X12446071Y-29133643D01*
X12436548Y-29114595D01*
X12436548Y-29105071D01*
X12446071Y-29086024D01*
X12455595Y-29076500D01*
X12474643Y-29066976D01*
X12512738Y-29066976D01*
X12531786Y-29076500D01*
X12541309Y-29086024D01*
X12550833Y-29105071D01*
X12550833Y-29114595D01*
X12541309Y-29133643D01*
X12531786Y-29143167D01*
X12512738Y-29152690D01*
X12474643Y-29152690D01*
X12455595Y-29162214D01*
X12446071Y-29171738D01*
X12436548Y-29190786D01*
X12436548Y-29228881D01*
X12446071Y-29247928D01*
X12455595Y-29257452D01*
X12474643Y-29266976D01*
X12512738Y-29266976D01*
X12531786Y-29257452D01*
X12541309Y-29247928D01*
X12550833Y-29228881D01*
X12550833Y-29190786D01*
X12541309Y-29171738D01*
X12531786Y-29162214D01*
X12512738Y-29152690D01*
X12788928Y-29266976D02*
X12788928Y-29066976D01*
X12874643Y-29266976D02*
X12874643Y-29162214D01*
X12865119Y-29143167D01*
X12846071Y-29133643D01*
X12817500Y-29133643D01*
X12798452Y-29143167D01*
X12788928Y-29152690D01*
X12998452Y-29266976D02*
X12979405Y-29257452D01*
X12969881Y-29247928D01*
X12960357Y-29228881D01*
X12960357Y-29171738D01*
X12969881Y-29152690D01*
X12979405Y-29143167D01*
X12998452Y-29133643D01*
X13027024Y-29133643D01*
X13046071Y-29143167D01*
X13055595Y-29152690D01*
X13065119Y-29171738D01*
X13065119Y-29228881D01*
X13055595Y-29247928D01*
X13046071Y-29257452D01*
X13027024Y-29266976D01*
X12998452Y-29266976D01*
X13179405Y-29266976D02*
X13160357Y-29257452D01*
X13150833Y-29238405D01*
X13150833Y-29066976D01*
X13331786Y-29257452D02*
X13312738Y-29266976D01*
X13274643Y-29266976D01*
X13255595Y-29257452D01*
X13246071Y-29238405D01*
X13246071Y-29162214D01*
X13255595Y-29143167D01*
X13274643Y-29133643D01*
X13312738Y-29133643D01*
X13331786Y-29143167D01*
X13341309Y-29162214D01*
X13341309Y-29181262D01*
X13246071Y-29200309D01*
X13417500Y-29257452D02*
X13436548Y-29266976D01*
X13474643Y-29266976D01*
X13493690Y-29257452D01*
X13503214Y-29238405D01*
X13503214Y-29228881D01*
X13493690Y-29209833D01*
X13474643Y-29200309D01*
X13446071Y-29200309D01*
X13427024Y-29190786D01*
X13417500Y-29171738D01*
X13417500Y-29162214D01*
X13427024Y-29143167D01*
X13446071Y-29133643D01*
X13474643Y-29133643D01*
X13493690Y-29143167D01*
X13569881Y-29343167D02*
X13579405Y-29333643D01*
X13598452Y-29305071D01*
X13607976Y-29286024D01*
X13617500Y-29257452D01*
X13627024Y-29209833D01*
X13627024Y-29171738D01*
X13617500Y-29124119D01*
X13607976Y-29095548D01*
X13598452Y-29076500D01*
X13579405Y-29047928D01*
X13569881Y-29038405D01*
D14*
X8567500Y-29400500D02*
X8567500Y-29480500D01*
X8527500Y-29440500D02*
X8607500Y-29440500D01*
D11*
X8903214Y-29330976D02*
X8922262Y-29330976D01*
X8941310Y-29340500D01*
X8950833Y-29350024D01*
X8960357Y-29369071D01*
X8969881Y-29407167D01*
X8969881Y-29454786D01*
X8960357Y-29492881D01*
X8950833Y-29511928D01*
X8941310Y-29521452D01*
X8922262Y-29530976D01*
X8903214Y-29530976D01*
X8884167Y-29521452D01*
X8874643Y-29511928D01*
X8865119Y-29492881D01*
X8855595Y-29454786D01*
X8855595Y-29407167D01*
X8865119Y-29369071D01*
X8874643Y-29350024D01*
X8884167Y-29340500D01*
X8903214Y-29330976D01*
X9055595Y-29511928D02*
X9065119Y-29521452D01*
X9055595Y-29530976D01*
X9046071Y-29521452D01*
X9055595Y-29511928D01*
X9055595Y-29530976D01*
X9179405Y-29416690D02*
X9160357Y-29407167D01*
X9150833Y-29397643D01*
X9141310Y-29378595D01*
X9141310Y-29369071D01*
X9150833Y-29350024D01*
X9160357Y-29340500D01*
X9179405Y-29330976D01*
X9217500Y-29330976D01*
X9236548Y-29340500D01*
X9246071Y-29350024D01*
X9255595Y-29369071D01*
X9255595Y-29378595D01*
X9246071Y-29397643D01*
X9236548Y-29407167D01*
X9217500Y-29416690D01*
X9179405Y-29416690D01*
X9160357Y-29426214D01*
X9150833Y-29435738D01*
X9141310Y-29454786D01*
X9141310Y-29492881D01*
X9150833Y-29511928D01*
X9160357Y-29521452D01*
X9179405Y-29530976D01*
X9217500Y-29530976D01*
X9236548Y-29521452D01*
X9246071Y-29511928D01*
X9255595Y-29492881D01*
X9255595Y-29454786D01*
X9246071Y-29435738D01*
X9236548Y-29426214D01*
X9217500Y-29416690D01*
X9379405Y-29330976D02*
X9398452Y-29330976D01*
X9417500Y-29340500D01*
X9427024Y-29350024D01*
X9436548Y-29369071D01*
X9446071Y-29407167D01*
X9446071Y-29454786D01*
X9436548Y-29492881D01*
X9427024Y-29511928D01*
X9417500Y-29521452D01*
X9398452Y-29530976D01*
X9379405Y-29530976D01*
X9360357Y-29521452D01*
X9350833Y-29511928D01*
X9341310Y-29492881D01*
X9331786Y-29454786D01*
X9331786Y-29407167D01*
X9341310Y-29369071D01*
X9350833Y-29350024D01*
X9360357Y-29340500D01*
X9379405Y-29330976D01*
X9569881Y-29330976D02*
X9588929Y-29330976D01*
X9607976Y-29340500D01*
X9617500Y-29350024D01*
X9627024Y-29369071D01*
X9636548Y-29407167D01*
X9636548Y-29454786D01*
X9627024Y-29492881D01*
X9617500Y-29511928D01*
X9607976Y-29521452D01*
X9588929Y-29530976D01*
X9569881Y-29530976D01*
X9550833Y-29521452D01*
X9541310Y-29511928D01*
X9531786Y-29492881D01*
X9522262Y-29454786D01*
X9522262Y-29407167D01*
X9531786Y-29369071D01*
X9541310Y-29350024D01*
X9550833Y-29340500D01*
X9569881Y-29330976D01*
X9722262Y-29530976D02*
X9722262Y-29397643D01*
X9722262Y-29416690D02*
X9731786Y-29407167D01*
X9750833Y-29397643D01*
X9779405Y-29397643D01*
X9798452Y-29407167D01*
X9807976Y-29426214D01*
X9807976Y-29530976D01*
X9807976Y-29426214D02*
X9817500Y-29407167D01*
X9836548Y-29397643D01*
X9865119Y-29397643D01*
X9884167Y-29407167D01*
X9893690Y-29426214D01*
X9893690Y-29530976D01*
X9988929Y-29530976D02*
X9988929Y-29397643D01*
X9988929Y-29416690D02*
X9998452Y-29407167D01*
X10017500Y-29397643D01*
X10046071Y-29397643D01*
X10065119Y-29407167D01*
X10074643Y-29426214D01*
X10074643Y-29530976D01*
X10074643Y-29426214D02*
X10084167Y-29407167D01*
X10103214Y-29397643D01*
X10131786Y-29397643D01*
X10150833Y-29407167D01*
X10160357Y-29426214D01*
X10160357Y-29530976D01*
X10550833Y-29321452D02*
X10379405Y-29578595D01*
X10807976Y-29330976D02*
X10827024Y-29330976D01*
X10846071Y-29340500D01*
X10855595Y-29350024D01*
X10865119Y-29369071D01*
X10874643Y-29407167D01*
X10874643Y-29454786D01*
X10865119Y-29492881D01*
X10855595Y-29511928D01*
X10846071Y-29521452D01*
X10827024Y-29530976D01*
X10807976Y-29530976D01*
X10788929Y-29521452D01*
X10779405Y-29511928D01*
X10769881Y-29492881D01*
X10760357Y-29454786D01*
X10760357Y-29407167D01*
X10769881Y-29369071D01*
X10779405Y-29350024D01*
X10788929Y-29340500D01*
X10807976Y-29330976D01*
X10960357Y-29511928D02*
X10969881Y-29521452D01*
X10960357Y-29530976D01*
X10950833Y-29521452D01*
X10960357Y-29511928D01*
X10960357Y-29530976D01*
X11093690Y-29330976D02*
X11112738Y-29330976D01*
X11131786Y-29340500D01*
X11141310Y-29350024D01*
X11150833Y-29369071D01*
X11160357Y-29407167D01*
X11160357Y-29454786D01*
X11150833Y-29492881D01*
X11141310Y-29511928D01*
X11131786Y-29521452D01*
X11112738Y-29530976D01*
X11093690Y-29530976D01*
X11074643Y-29521452D01*
X11065119Y-29511928D01*
X11055595Y-29492881D01*
X11046071Y-29454786D01*
X11046071Y-29407167D01*
X11055595Y-29369071D01*
X11065119Y-29350024D01*
X11074643Y-29340500D01*
X11093690Y-29330976D01*
X11227024Y-29330976D02*
X11350833Y-29330976D01*
X11284167Y-29407167D01*
X11312738Y-29407167D01*
X11331786Y-29416690D01*
X11341309Y-29426214D01*
X11350833Y-29445262D01*
X11350833Y-29492881D01*
X11341309Y-29511928D01*
X11331786Y-29521452D01*
X11312738Y-29530976D01*
X11255595Y-29530976D01*
X11236548Y-29521452D01*
X11227024Y-29511928D01*
X11541309Y-29530976D02*
X11427024Y-29530976D01*
X11484167Y-29530976D02*
X11484167Y-29330976D01*
X11465119Y-29359548D01*
X11446071Y-29378595D01*
X11427024Y-29388119D01*
X11722262Y-29330976D02*
X11627024Y-29330976D01*
X11617500Y-29426214D01*
X11627024Y-29416690D01*
X11646071Y-29407167D01*
X11693690Y-29407167D01*
X11712738Y-29416690D01*
X11722262Y-29426214D01*
X11731786Y-29445262D01*
X11731786Y-29492881D01*
X11722262Y-29511928D01*
X11712738Y-29521452D01*
X11693690Y-29530976D01*
X11646071Y-29530976D01*
X11627024Y-29521452D01*
X11617500Y-29511928D01*
X11807976Y-29330976D02*
X11807976Y-29369071D01*
X11884167Y-29330976D02*
X11884167Y-29369071D01*
X12179405Y-29607167D02*
X12169881Y-29597643D01*
X12150833Y-29569071D01*
X12141309Y-29550024D01*
X12131786Y-29521452D01*
X12122262Y-29473833D01*
X12122262Y-29435738D01*
X12131786Y-29388119D01*
X12141309Y-29359548D01*
X12150833Y-29340500D01*
X12169881Y-29311928D01*
X12179405Y-29302405D01*
X12293690Y-29330976D02*
X12312738Y-29330976D01*
X12331786Y-29340500D01*
X12341309Y-29350024D01*
X12350833Y-29369071D01*
X12360357Y-29407167D01*
X12360357Y-29454786D01*
X12350833Y-29492881D01*
X12341309Y-29511928D01*
X12331786Y-29521452D01*
X12312738Y-29530976D01*
X12293690Y-29530976D01*
X12274643Y-29521452D01*
X12265119Y-29511928D01*
X12255595Y-29492881D01*
X12246071Y-29454786D01*
X12246071Y-29407167D01*
X12255595Y-29369071D01*
X12265119Y-29350024D01*
X12274643Y-29340500D01*
X12293690Y-29330976D01*
X12598452Y-29530976D02*
X12598452Y-29330976D01*
X12684167Y-29530976D02*
X12684167Y-29426214D01*
X12674643Y-29407167D01*
X12655595Y-29397643D01*
X12627024Y-29397643D01*
X12607976Y-29407167D01*
X12598452Y-29416690D01*
X12807976Y-29530976D02*
X12788928Y-29521452D01*
X12779405Y-29511928D01*
X12769881Y-29492881D01*
X12769881Y-29435738D01*
X12779405Y-29416690D01*
X12788928Y-29407167D01*
X12807976Y-29397643D01*
X12836548Y-29397643D01*
X12855595Y-29407167D01*
X12865119Y-29416690D01*
X12874643Y-29435738D01*
X12874643Y-29492881D01*
X12865119Y-29511928D01*
X12855595Y-29521452D01*
X12836548Y-29530976D01*
X12807976Y-29530976D01*
X12988928Y-29530976D02*
X12969881Y-29521452D01*
X12960357Y-29502405D01*
X12960357Y-29330976D01*
X13141309Y-29521452D02*
X13122262Y-29530976D01*
X13084167Y-29530976D01*
X13065119Y-29521452D01*
X13055595Y-29502405D01*
X13055595Y-29426214D01*
X13065119Y-29407167D01*
X13084167Y-29397643D01*
X13122262Y-29397643D01*
X13141309Y-29407167D01*
X13150833Y-29426214D01*
X13150833Y-29445262D01*
X13055595Y-29464309D01*
X13227024Y-29521452D02*
X13246071Y-29530976D01*
X13284167Y-29530976D01*
X13303214Y-29521452D01*
X13312738Y-29502405D01*
X13312738Y-29492881D01*
X13303214Y-29473833D01*
X13284167Y-29464309D01*
X13255595Y-29464309D01*
X13236548Y-29454786D01*
X13227024Y-29435738D01*
X13227024Y-29426214D01*
X13236548Y-29407167D01*
X13255595Y-29397643D01*
X13284167Y-29397643D01*
X13303214Y-29407167D01*
X13550833Y-29454786D02*
X13703214Y-29454786D01*
X13627024Y-29530976D02*
X13627024Y-29378595D01*
X13931786Y-29330976D02*
X14055595Y-29330976D01*
X13988928Y-29407167D01*
X14017500Y-29407167D01*
X14036548Y-29416690D01*
X14046071Y-29426214D01*
X14055595Y-29445262D01*
X14055595Y-29492881D01*
X14046071Y-29511928D01*
X14036548Y-29521452D01*
X14017500Y-29530976D01*
X13960357Y-29530976D01*
X13941309Y-29521452D01*
X13931786Y-29511928D01*
X14284167Y-29521452D02*
X14303214Y-29530976D01*
X14341309Y-29530976D01*
X14360357Y-29521452D01*
X14369881Y-29502405D01*
X14369881Y-29492881D01*
X14360357Y-29473833D01*
X14341309Y-29464309D01*
X14312738Y-29464309D01*
X14293690Y-29454786D01*
X14284167Y-29435738D01*
X14284167Y-29426214D01*
X14293690Y-29407167D01*
X14312738Y-29397643D01*
X14341309Y-29397643D01*
X14360357Y-29407167D01*
X14484167Y-29530976D02*
X14465119Y-29521452D01*
X14455595Y-29502405D01*
X14455595Y-29330976D01*
X14588928Y-29530976D02*
X14569881Y-29521452D01*
X14560357Y-29511928D01*
X14550833Y-29492881D01*
X14550833Y-29435738D01*
X14560357Y-29416690D01*
X14569881Y-29407167D01*
X14588928Y-29397643D01*
X14617500Y-29397643D01*
X14636548Y-29407167D01*
X14646071Y-29416690D01*
X14655595Y-29435738D01*
X14655595Y-29492881D01*
X14646071Y-29511928D01*
X14636548Y-29521452D01*
X14617500Y-29530976D01*
X14588928Y-29530976D01*
X14712738Y-29397643D02*
X14788928Y-29397643D01*
X14741309Y-29330976D02*
X14741309Y-29502405D01*
X14750833Y-29521452D01*
X14769881Y-29530976D01*
X14788928Y-29530976D01*
X14846071Y-29521452D02*
X14865119Y-29530976D01*
X14903214Y-29530976D01*
X14922262Y-29521452D01*
X14931786Y-29502405D01*
X14931786Y-29492881D01*
X14922262Y-29473833D01*
X14903214Y-29464309D01*
X14874643Y-29464309D01*
X14855595Y-29454786D01*
X14846071Y-29435738D01*
X14846071Y-29426214D01*
X14855595Y-29407167D01*
X14874643Y-29397643D01*
X14903214Y-29397643D01*
X14922262Y-29407167D01*
X14998452Y-29607167D02*
X15007976Y-29597643D01*
X15027024Y-29569071D01*
X15036548Y-29550024D01*
X15046071Y-29521452D01*
X15055595Y-29473833D01*
X15055595Y-29435738D01*
X15046071Y-29388119D01*
X15036548Y-29359548D01*
X15027024Y-29340500D01*
X15007976Y-29311928D01*
X14998452Y-29302405D01*
D15*
X8592856Y-29739856D02*
X8592856Y-29669144D01*
X8522144Y-29669144D01*
X8522144Y-29739856D01*
X8592856Y-29739856D01*
D11*
X8969881Y-29794976D02*
X8855595Y-29794976D01*
X8912738Y-29794976D02*
X8912738Y-29594976D01*
X8893690Y-29623548D01*
X8874643Y-29642595D01*
X8855595Y-29652119D01*
X9055595Y-29775928D02*
X9065119Y-29785452D01*
X9055595Y-29794976D01*
X9046071Y-29785452D01*
X9055595Y-29775928D01*
X9055595Y-29794976D01*
X9188929Y-29594976D02*
X9207976Y-29594976D01*
X9227024Y-29604500D01*
X9236548Y-29614024D01*
X9246071Y-29633071D01*
X9255595Y-29671167D01*
X9255595Y-29718786D01*
X9246071Y-29756881D01*
X9236548Y-29775928D01*
X9227024Y-29785452D01*
X9207976Y-29794976D01*
X9188929Y-29794976D01*
X9169881Y-29785452D01*
X9160357Y-29775928D01*
X9150833Y-29756881D01*
X9141310Y-29718786D01*
X9141310Y-29671167D01*
X9150833Y-29633071D01*
X9160357Y-29614024D01*
X9169881Y-29604500D01*
X9188929Y-29594976D01*
X9379405Y-29594976D02*
X9398452Y-29594976D01*
X9417500Y-29604500D01*
X9427024Y-29614024D01*
X9436548Y-29633071D01*
X9446071Y-29671167D01*
X9446071Y-29718786D01*
X9436548Y-29756881D01*
X9427024Y-29775928D01*
X9417500Y-29785452D01*
X9398452Y-29794976D01*
X9379405Y-29794976D01*
X9360357Y-29785452D01*
X9350833Y-29775928D01*
X9341310Y-29756881D01*
X9331786Y-29718786D01*
X9331786Y-29671167D01*
X9341310Y-29633071D01*
X9350833Y-29614024D01*
X9360357Y-29604500D01*
X9379405Y-29594976D01*
X9569881Y-29594976D02*
X9588929Y-29594976D01*
X9607976Y-29604500D01*
X9617500Y-29614024D01*
X9627024Y-29633071D01*
X9636548Y-29671167D01*
X9636548Y-29718786D01*
X9627024Y-29756881D01*
X9617500Y-29775928D01*
X9607976Y-29785452D01*
X9588929Y-29794976D01*
X9569881Y-29794976D01*
X9550833Y-29785452D01*
X9541310Y-29775928D01*
X9531786Y-29756881D01*
X9522262Y-29718786D01*
X9522262Y-29671167D01*
X9531786Y-29633071D01*
X9541310Y-29614024D01*
X9550833Y-29604500D01*
X9569881Y-29594976D01*
X9722262Y-29794976D02*
X9722262Y-29661643D01*
X9722262Y-29680690D02*
X9731786Y-29671167D01*
X9750833Y-29661643D01*
X9779405Y-29661643D01*
X9798452Y-29671167D01*
X9807976Y-29690214D01*
X9807976Y-29794976D01*
X9807976Y-29690214D02*
X9817500Y-29671167D01*
X9836548Y-29661643D01*
X9865119Y-29661643D01*
X9884167Y-29671167D01*
X9893690Y-29690214D01*
X9893690Y-29794976D01*
X9988929Y-29794976D02*
X9988929Y-29661643D01*
X9988929Y-29680690D02*
X9998452Y-29671167D01*
X10017500Y-29661643D01*
X10046071Y-29661643D01*
X10065119Y-29671167D01*
X10074643Y-29690214D01*
X10074643Y-29794976D01*
X10074643Y-29690214D02*
X10084167Y-29671167D01*
X10103214Y-29661643D01*
X10131786Y-29661643D01*
X10150833Y-29671167D01*
X10160357Y-29690214D01*
X10160357Y-29794976D01*
X10550833Y-29585452D02*
X10379405Y-29842595D01*
X10807976Y-29594976D02*
X10827024Y-29594976D01*
X10846071Y-29604500D01*
X10855595Y-29614024D01*
X10865119Y-29633071D01*
X10874643Y-29671167D01*
X10874643Y-29718786D01*
X10865119Y-29756881D01*
X10855595Y-29775928D01*
X10846071Y-29785452D01*
X10827024Y-29794976D01*
X10807976Y-29794976D01*
X10788929Y-29785452D01*
X10779405Y-29775928D01*
X10769881Y-29756881D01*
X10760357Y-29718786D01*
X10760357Y-29671167D01*
X10769881Y-29633071D01*
X10779405Y-29614024D01*
X10788929Y-29604500D01*
X10807976Y-29594976D01*
X10960357Y-29775928D02*
X10969881Y-29785452D01*
X10960357Y-29794976D01*
X10950833Y-29785452D01*
X10960357Y-29775928D01*
X10960357Y-29794976D01*
X11093690Y-29594976D02*
X11112738Y-29594976D01*
X11131786Y-29604500D01*
X11141310Y-29614024D01*
X11150833Y-29633071D01*
X11160357Y-29671167D01*
X11160357Y-29718786D01*
X11150833Y-29756881D01*
X11141310Y-29775928D01*
X11131786Y-29785452D01*
X11112738Y-29794976D01*
X11093690Y-29794976D01*
X11074643Y-29785452D01*
X11065119Y-29775928D01*
X11055595Y-29756881D01*
X11046071Y-29718786D01*
X11046071Y-29671167D01*
X11055595Y-29633071D01*
X11065119Y-29614024D01*
X11074643Y-29604500D01*
X11093690Y-29594976D01*
X11227024Y-29594976D02*
X11350833Y-29594976D01*
X11284167Y-29671167D01*
X11312738Y-29671167D01*
X11331786Y-29680690D01*
X11341309Y-29690214D01*
X11350833Y-29709262D01*
X11350833Y-29756881D01*
X11341309Y-29775928D01*
X11331786Y-29785452D01*
X11312738Y-29794976D01*
X11255595Y-29794976D01*
X11236548Y-29785452D01*
X11227024Y-29775928D01*
X11446071Y-29794976D02*
X11484167Y-29794976D01*
X11503214Y-29785452D01*
X11512738Y-29775928D01*
X11531786Y-29747357D01*
X11541309Y-29709262D01*
X11541309Y-29633071D01*
X11531786Y-29614024D01*
X11522262Y-29604500D01*
X11503214Y-29594976D01*
X11465119Y-29594976D01*
X11446071Y-29604500D01*
X11436548Y-29614024D01*
X11427024Y-29633071D01*
X11427024Y-29680690D01*
X11436548Y-29699738D01*
X11446071Y-29709262D01*
X11465119Y-29718786D01*
X11503214Y-29718786D01*
X11522262Y-29709262D01*
X11531786Y-29699738D01*
X11541309Y-29680690D01*
X11712738Y-29661643D02*
X11712738Y-29794976D01*
X11665119Y-29585452D02*
X11617500Y-29728309D01*
X11741309Y-29728309D01*
X11807976Y-29594976D02*
X11807976Y-29633071D01*
X11884167Y-29594976D02*
X11884167Y-29633071D01*
X12179405Y-29871167D02*
X12169881Y-29861643D01*
X12150833Y-29833071D01*
X12141309Y-29814024D01*
X12131786Y-29785452D01*
X12122262Y-29737833D01*
X12122262Y-29699738D01*
X12131786Y-29652119D01*
X12141309Y-29623548D01*
X12150833Y-29604500D01*
X12169881Y-29575928D01*
X12179405Y-29566405D01*
X12341309Y-29661643D02*
X12341309Y-29794976D01*
X12293690Y-29585452D02*
X12246071Y-29728309D01*
X12369881Y-29728309D01*
X12598452Y-29794976D02*
X12598452Y-29594976D01*
X12684167Y-29794976D02*
X12684167Y-29690214D01*
X12674643Y-29671167D01*
X12655595Y-29661643D01*
X12627024Y-29661643D01*
X12607976Y-29671167D01*
X12598452Y-29680690D01*
X12807976Y-29794976D02*
X12788928Y-29785452D01*
X12779405Y-29775928D01*
X12769881Y-29756881D01*
X12769881Y-29699738D01*
X12779405Y-29680690D01*
X12788928Y-29671167D01*
X12807976Y-29661643D01*
X12836548Y-29661643D01*
X12855595Y-29671167D01*
X12865119Y-29680690D01*
X12874643Y-29699738D01*
X12874643Y-29756881D01*
X12865119Y-29775928D01*
X12855595Y-29785452D01*
X12836548Y-29794976D01*
X12807976Y-29794976D01*
X12988928Y-29794976D02*
X12969881Y-29785452D01*
X12960357Y-29766405D01*
X12960357Y-29594976D01*
X13141309Y-29785452D02*
X13122262Y-29794976D01*
X13084167Y-29794976D01*
X13065119Y-29785452D01*
X13055595Y-29766405D01*
X13055595Y-29690214D01*
X13065119Y-29671167D01*
X13084167Y-29661643D01*
X13122262Y-29661643D01*
X13141309Y-29671167D01*
X13150833Y-29690214D01*
X13150833Y-29709262D01*
X13055595Y-29728309D01*
X13227024Y-29785452D02*
X13246071Y-29794976D01*
X13284167Y-29794976D01*
X13303214Y-29785452D01*
X13312738Y-29766405D01*
X13312738Y-29756881D01*
X13303214Y-29737833D01*
X13284167Y-29728309D01*
X13255595Y-29728309D01*
X13236548Y-29718786D01*
X13227024Y-29699738D01*
X13227024Y-29690214D01*
X13236548Y-29671167D01*
X13255595Y-29661643D01*
X13284167Y-29661643D01*
X13303214Y-29671167D01*
X13379405Y-29871167D02*
X13388928Y-29861643D01*
X13407976Y-29833071D01*
X13417500Y-29814024D01*
X13427024Y-29785452D01*
X13436548Y-29737833D01*
X13436548Y-29699738D01*
X13427024Y-29652119D01*
X13417500Y-29623548D01*
X13407976Y-29604500D01*
X13388928Y-29575928D01*
X13379405Y-29566405D01*
X8507500Y-30068500D02*
X8607500Y-29968500D01*
X8507500Y-29868500D01*
X8407500Y-29968500D01*
X8507500Y-30068500D01*
X8950833Y-29925643D02*
X8950833Y-30058976D01*
X8903214Y-29849452D02*
X8855595Y-29992309D01*
X8979405Y-29992309D01*
X9055595Y-30039928D02*
X9065119Y-30049452D01*
X9055595Y-30058976D01*
X9046071Y-30049452D01*
X9055595Y-30039928D01*
X9055595Y-30058976D01*
X9131786Y-29858976D02*
X9255595Y-29858976D01*
X9188929Y-29935167D01*
X9217500Y-29935167D01*
X9236548Y-29944690D01*
X9246071Y-29954214D01*
X9255595Y-29973262D01*
X9255595Y-30020881D01*
X9246071Y-30039928D01*
X9236548Y-30049452D01*
X9217500Y-30058976D01*
X9160357Y-30058976D01*
X9141310Y-30049452D01*
X9131786Y-30039928D01*
X9379405Y-29858976D02*
X9398452Y-29858976D01*
X9417500Y-29868500D01*
X9427024Y-29878024D01*
X9436548Y-29897071D01*
X9446071Y-29935167D01*
X9446071Y-29982786D01*
X9436548Y-30020881D01*
X9427024Y-30039928D01*
X9417500Y-30049452D01*
X9398452Y-30058976D01*
X9379405Y-30058976D01*
X9360357Y-30049452D01*
X9350833Y-30039928D01*
X9341310Y-30020881D01*
X9331786Y-29982786D01*
X9331786Y-29935167D01*
X9341310Y-29897071D01*
X9350833Y-29878024D01*
X9360357Y-29868500D01*
X9379405Y-29858976D01*
X9569881Y-29858976D02*
X9588929Y-29858976D01*
X9607976Y-29868500D01*
X9617500Y-29878024D01*
X9627024Y-29897071D01*
X9636548Y-29935167D01*
X9636548Y-29982786D01*
X9627024Y-30020881D01*
X9617500Y-30039928D01*
X9607976Y-30049452D01*
X9588929Y-30058976D01*
X9569881Y-30058976D01*
X9550833Y-30049452D01*
X9541310Y-30039928D01*
X9531786Y-30020881D01*
X9522262Y-29982786D01*
X9522262Y-29935167D01*
X9531786Y-29897071D01*
X9541310Y-29878024D01*
X9550833Y-29868500D01*
X9569881Y-29858976D01*
X9722262Y-30058976D02*
X9722262Y-29925643D01*
X9722262Y-29944690D02*
X9731786Y-29935167D01*
X9750833Y-29925643D01*
X9779405Y-29925643D01*
X9798452Y-29935167D01*
X9807976Y-29954214D01*
X9807976Y-30058976D01*
X9807976Y-29954214D02*
X9817500Y-29935167D01*
X9836548Y-29925643D01*
X9865119Y-29925643D01*
X9884167Y-29935167D01*
X9893690Y-29954214D01*
X9893690Y-30058976D01*
X9988929Y-30058976D02*
X9988929Y-29925643D01*
X9988929Y-29944690D02*
X9998452Y-29935167D01*
X10017500Y-29925643D01*
X10046071Y-29925643D01*
X10065119Y-29935167D01*
X10074643Y-29954214D01*
X10074643Y-30058976D01*
X10074643Y-29954214D02*
X10084167Y-29935167D01*
X10103214Y-29925643D01*
X10131786Y-29925643D01*
X10150833Y-29935167D01*
X10160357Y-29954214D01*
X10160357Y-30058976D01*
X10550833Y-29849452D02*
X10379405Y-30106595D01*
X10807976Y-29858976D02*
X10827024Y-29858976D01*
X10846071Y-29868500D01*
X10855595Y-29878024D01*
X10865119Y-29897071D01*
X10874643Y-29935167D01*
X10874643Y-29982786D01*
X10865119Y-30020881D01*
X10855595Y-30039928D01*
X10846071Y-30049452D01*
X10827024Y-30058976D01*
X10807976Y-30058976D01*
X10788929Y-30049452D01*
X10779405Y-30039928D01*
X10769881Y-30020881D01*
X10760357Y-29982786D01*
X10760357Y-29935167D01*
X10769881Y-29897071D01*
X10779405Y-29878024D01*
X10788929Y-29868500D01*
X10807976Y-29858976D01*
X10960357Y-30039928D02*
X10969881Y-30049452D01*
X10960357Y-30058976D01*
X10950833Y-30049452D01*
X10960357Y-30039928D01*
X10960357Y-30058976D01*
X11160357Y-30058976D02*
X11046071Y-30058976D01*
X11103214Y-30058976D02*
X11103214Y-29858976D01*
X11084167Y-29887548D01*
X11065119Y-29906595D01*
X11046071Y-29916119D01*
X11331786Y-29858976D02*
X11293690Y-29858976D01*
X11274643Y-29868500D01*
X11265119Y-29878024D01*
X11246071Y-29906595D01*
X11236548Y-29944690D01*
X11236548Y-30020881D01*
X11246071Y-30039928D01*
X11255595Y-30049452D01*
X11274643Y-30058976D01*
X11312738Y-30058976D01*
X11331786Y-30049452D01*
X11341309Y-30039928D01*
X11350833Y-30020881D01*
X11350833Y-29973262D01*
X11341309Y-29954214D01*
X11331786Y-29944690D01*
X11312738Y-29935167D01*
X11274643Y-29935167D01*
X11255595Y-29944690D01*
X11246071Y-29954214D01*
X11236548Y-29973262D01*
X11446071Y-30058976D02*
X11484167Y-30058976D01*
X11503214Y-30049452D01*
X11512738Y-30039928D01*
X11531786Y-30011357D01*
X11541309Y-29973262D01*
X11541309Y-29897071D01*
X11531786Y-29878024D01*
X11522262Y-29868500D01*
X11503214Y-29858976D01*
X11465119Y-29858976D01*
X11446071Y-29868500D01*
X11436548Y-29878024D01*
X11427024Y-29897071D01*
X11427024Y-29944690D01*
X11436548Y-29963738D01*
X11446071Y-29973262D01*
X11465119Y-29982786D01*
X11503214Y-29982786D01*
X11522262Y-29973262D01*
X11531786Y-29963738D01*
X11541309Y-29944690D01*
X11607976Y-29858976D02*
X11731786Y-29858976D01*
X11665119Y-29935167D01*
X11693690Y-29935167D01*
X11712738Y-29944690D01*
X11722262Y-29954214D01*
X11731786Y-29973262D01*
X11731786Y-30020881D01*
X11722262Y-30039928D01*
X11712738Y-30049452D01*
X11693690Y-30058976D01*
X11636548Y-30058976D01*
X11617500Y-30049452D01*
X11607976Y-30039928D01*
X11807976Y-29858976D02*
X11807976Y-29897071D01*
X11884167Y-29858976D02*
X11884167Y-29897071D01*
X12179405Y-30135167D02*
X12169881Y-30125643D01*
X12150833Y-30097071D01*
X12141309Y-30078024D01*
X12131786Y-30049452D01*
X12122262Y-30001833D01*
X12122262Y-29963738D01*
X12131786Y-29916119D01*
X12141309Y-29887548D01*
X12150833Y-29868500D01*
X12169881Y-29839928D01*
X12179405Y-29830405D01*
X12284167Y-29944690D02*
X12265119Y-29935167D01*
X12255595Y-29925643D01*
X12246071Y-29906595D01*
X12246071Y-29897071D01*
X12255595Y-29878024D01*
X12265119Y-29868500D01*
X12284167Y-29858976D01*
X12322262Y-29858976D01*
X12341309Y-29868500D01*
X12350833Y-29878024D01*
X12360357Y-29897071D01*
X12360357Y-29906595D01*
X12350833Y-29925643D01*
X12341309Y-29935167D01*
X12322262Y-29944690D01*
X12284167Y-29944690D01*
X12265119Y-29954214D01*
X12255595Y-29963738D01*
X12246071Y-29982786D01*
X12246071Y-30020881D01*
X12255595Y-30039928D01*
X12265119Y-30049452D01*
X12284167Y-30058976D01*
X12322262Y-30058976D01*
X12341309Y-30049452D01*
X12350833Y-30039928D01*
X12360357Y-30020881D01*
X12360357Y-29982786D01*
X12350833Y-29963738D01*
X12341309Y-29954214D01*
X12322262Y-29944690D01*
X12598452Y-30058976D02*
X12598452Y-29858976D01*
X12684167Y-30058976D02*
X12684167Y-29954214D01*
X12674643Y-29935167D01*
X12655595Y-29925643D01*
X12627024Y-29925643D01*
X12607976Y-29935167D01*
X12598452Y-29944690D01*
X12807976Y-30058976D02*
X12788928Y-30049452D01*
X12779405Y-30039928D01*
X12769881Y-30020881D01*
X12769881Y-29963738D01*
X12779405Y-29944690D01*
X12788928Y-29935167D01*
X12807976Y-29925643D01*
X12836548Y-29925643D01*
X12855595Y-29935167D01*
X12865119Y-29944690D01*
X12874643Y-29963738D01*
X12874643Y-30020881D01*
X12865119Y-30039928D01*
X12855595Y-30049452D01*
X12836548Y-30058976D01*
X12807976Y-30058976D01*
X12988928Y-30058976D02*
X12969881Y-30049452D01*
X12960357Y-30030405D01*
X12960357Y-29858976D01*
X13141309Y-30049452D02*
X13122262Y-30058976D01*
X13084167Y-30058976D01*
X13065119Y-30049452D01*
X13055595Y-30030405D01*
X13055595Y-29954214D01*
X13065119Y-29935167D01*
X13084167Y-29925643D01*
X13122262Y-29925643D01*
X13141309Y-29935167D01*
X13150833Y-29954214D01*
X13150833Y-29973262D01*
X13055595Y-29992309D01*
X13227024Y-30049452D02*
X13246071Y-30058976D01*
X13284167Y-30058976D01*
X13303214Y-30049452D01*
X13312738Y-30030405D01*
X13312738Y-30020881D01*
X13303214Y-30001833D01*
X13284167Y-29992309D01*
X13255595Y-29992309D01*
X13236548Y-29982786D01*
X13227024Y-29963738D01*
X13227024Y-29954214D01*
X13236548Y-29935167D01*
X13255595Y-29925643D01*
X13284167Y-29925643D01*
X13303214Y-29935167D01*
X13379405Y-30135167D02*
X13388928Y-30125643D01*
X13407976Y-30097071D01*
X13417500Y-30078024D01*
X13427024Y-30049452D01*
X13436548Y-30001833D01*
X13436548Y-29963738D01*
X13427024Y-29916119D01*
X13417500Y-29887548D01*
X13407976Y-29868500D01*
X13388928Y-29839928D01*
X13379405Y-29830405D01*
M02*
