%TF.GenerationSoftware,KiCad,Pcbnew,(6.0.5)*%
%TF.CreationDate,2022-11-15T17:21:09-05:00*%
%TF.ProjectId,OPSpec_v0.1.0-rounded,4f505370-6563-45f7-9630-2e312e302d72,rev?*%
%TF.SameCoordinates,Original*%
%TF.FileFunction,Soldermask,Bot*%
%TF.FilePolarity,Negative*%
%FSLAX46Y46*%
G04 Gerber Fmt 4.6, Leading zero omitted, Abs format (unit mm)*
G04 Created by KiCad (PCBNEW (6.0.5)) date 2022-11-15 17:21:09*
%MOMM*%
%LPD*%
G01*
G04 APERTURE LIST*
G04 Aperture macros list*
%AMRoundRect*
0 Rectangle with rounded corners*
0 $1 Rounding radius*
0 $2 $3 $4 $5 $6 $7 $8 $9 X,Y pos of 4 corners*
0 Add a 4 corners polygon primitive as box body*
4,1,4,$2,$3,$4,$5,$6,$7,$8,$9,$2,$3,0*
0 Add four circle primitives for the rounded corners*
1,1,$1+$1,$2,$3*
1,1,$1+$1,$4,$5*
1,1,$1+$1,$6,$7*
1,1,$1+$1,$8,$9*
0 Add four rect primitives between the rounded corners*
20,1,$1+$1,$2,$3,$4,$5,0*
20,1,$1+$1,$4,$5,$6,$7,0*
20,1,$1+$1,$6,$7,$8,$9,0*
20,1,$1+$1,$8,$9,$2,$3,0*%
G04 Aperture macros list end*
%ADD10RoundRect,0.225000X0.225000X-0.250000X0.225000X0.250000X-0.225000X0.250000X-0.225000X-0.250000X0*%
%ADD11C,8.600000*%
%ADD12R,4.400000X1.800000*%
%ADD13O,4.000000X1.800000*%
%ADD14O,1.800000X4.000000*%
%ADD15R,1.700000X1.700000*%
%ADD16O,1.700000X1.700000*%
%ADD17RoundRect,0.200000X0.275000X-0.200000X0.275000X0.200000X-0.275000X0.200000X-0.275000X-0.200000X0*%
%ADD18RoundRect,0.250000X0.475000X-0.250000X0.475000X0.250000X-0.475000X0.250000X-0.475000X-0.250000X0*%
%ADD19RoundRect,0.200000X-0.275000X0.200000X-0.275000X-0.200000X0.275000X-0.200000X0.275000X0.200000X0*%
%ADD20RoundRect,0.225000X-0.225000X-0.250000X0.225000X-0.250000X0.225000X0.250000X-0.225000X0.250000X0*%
%ADD21RoundRect,0.225000X0.250000X-0.225000X0.250000X0.225000X-0.250000X0.225000X-0.250000X-0.225000X0*%
%ADD22RoundRect,0.225000X0.225000X0.250000X-0.225000X0.250000X-0.225000X-0.250000X0.225000X-0.250000X0*%
%ADD23R,0.695000X0.540000*%
%ADD24RoundRect,0.200000X0.200000X0.275000X-0.200000X0.275000X-0.200000X-0.275000X0.200000X-0.275000X0*%
%ADD25R,0.350000X1.000000*%
%ADD26R,1.000000X0.350000*%
%ADD27R,2.250000X2.250000*%
%ADD28RoundRect,0.250000X0.250000X0.475000X-0.250000X0.475000X-0.250000X-0.475000X0.250000X-0.475000X0*%
%ADD29RoundRect,0.225000X-0.250000X0.225000X-0.250000X-0.225000X0.250000X-0.225000X0.250000X0.225000X0*%
%ADD30R,0.800000X1.000000*%
%ADD31R,0.600000X1.000000*%
%ADD32RoundRect,0.200000X-0.200000X-0.275000X0.200000X-0.275000X0.200000X0.275000X-0.200000X0.275000X0*%
%ADD33RoundRect,0.150000X0.587500X0.150000X-0.587500X0.150000X-0.587500X-0.150000X0.587500X-0.150000X0*%
%ADD34RoundRect,0.100000X-0.100000X0.637500X-0.100000X-0.637500X0.100000X-0.637500X0.100000X0.637500X0*%
%ADD35R,0.540000X0.695000*%
%ADD36R,0.300000X1.100000*%
%ADD37R,2.300000X3.100000*%
%ADD38RoundRect,0.250000X-0.475000X0.250000X-0.475000X-0.250000X0.475000X-0.250000X0.475000X0.250000X0*%
%ADD39R,0.600000X1.400000*%
%ADD40R,0.450000X1.475000*%
G04 APERTURE END LIST*
D10*
X151980000Y-230240000D03*
X153980000Y-230240000D03*
X151980000Y-226740000D03*
X153980000Y-226740000D03*
X133980000Y-257240000D03*
X135980000Y-257240000D03*
X133980000Y-253740000D03*
X135980000Y-253740000D03*
X196980000Y-230240000D03*
X198980000Y-230240000D03*
X196980000Y-226740000D03*
X198980000Y-226740000D03*
X169980000Y-221240000D03*
X171980000Y-221240000D03*
X169980000Y-217740000D03*
X171980000Y-217740000D03*
X205980000Y-239240000D03*
X207980000Y-239240000D03*
X205980000Y-235740000D03*
X207980000Y-235740000D03*
X151980000Y-221240000D03*
X153980000Y-221240000D03*
X151980000Y-217740000D03*
X153980000Y-217740000D03*
X187980000Y-212240000D03*
X189980000Y-212240000D03*
X187980000Y-208740000D03*
X189980000Y-208740000D03*
X115980000Y-239240000D03*
X117980000Y-239240000D03*
X115980000Y-235740000D03*
X117980000Y-235740000D03*
X133980000Y-221240000D03*
X135980000Y-221240000D03*
X133980000Y-217740000D03*
X135980000Y-217740000D03*
X187980000Y-266240000D03*
X189980000Y-266240000D03*
X187980000Y-262740000D03*
X189980000Y-262740000D03*
X187980000Y-203240000D03*
X189980000Y-203240000D03*
X187980000Y-199740000D03*
X189980000Y-199740000D03*
X214980000Y-212240000D03*
X216980000Y-212240000D03*
X214980000Y-208740000D03*
X216980000Y-208740000D03*
X169980000Y-266240000D03*
X171980000Y-266240000D03*
X169980000Y-262740000D03*
X171980000Y-262740000D03*
X196980000Y-248240000D03*
X198980000Y-248240000D03*
X196980000Y-244740000D03*
X198980000Y-244740000D03*
X115980000Y-230240000D03*
X117980000Y-230240000D03*
X115980000Y-226740000D03*
X117980000Y-226740000D03*
X160980000Y-212240000D03*
X162980000Y-212240000D03*
X160980000Y-208740000D03*
X162980000Y-208740000D03*
X196980000Y-257240000D03*
X198980000Y-257240000D03*
X196980000Y-253740000D03*
X198980000Y-253740000D03*
X133980000Y-203240000D03*
X135980000Y-203240000D03*
X133980000Y-199740000D03*
X135980000Y-199740000D03*
X124980000Y-239240000D03*
X126980000Y-239240000D03*
X124980000Y-235740000D03*
X126980000Y-235740000D03*
X115980000Y-203240000D03*
X117980000Y-203240000D03*
X115980000Y-199740000D03*
X117980000Y-199740000D03*
X115980000Y-221240000D03*
X117980000Y-221240000D03*
X115980000Y-217740000D03*
X117980000Y-217740000D03*
X178980000Y-248240000D03*
X180980000Y-248240000D03*
X178980000Y-244740000D03*
X180980000Y-244740000D03*
X196980000Y-212240000D03*
X198980000Y-212240000D03*
X196980000Y-208740000D03*
X198980000Y-208740000D03*
X214980000Y-257240000D03*
X216980000Y-257240000D03*
X214980000Y-253740000D03*
X216980000Y-253740000D03*
X151980000Y-248240000D03*
X153980000Y-248240000D03*
X151980000Y-244740000D03*
X153980000Y-244740000D03*
X196980000Y-221240000D03*
X198980000Y-221240000D03*
X196980000Y-217740000D03*
X198980000Y-217740000D03*
X205980000Y-266240000D03*
X207980000Y-266240000D03*
X205980000Y-262740000D03*
X207980000Y-262740000D03*
X151980000Y-266240000D03*
X153980000Y-266240000D03*
X151980000Y-262740000D03*
X153980000Y-262740000D03*
X205980000Y-212240000D03*
X207980000Y-212240000D03*
X205980000Y-208740000D03*
X207980000Y-208740000D03*
X142980000Y-203240000D03*
X144980000Y-203240000D03*
X142980000Y-199740000D03*
X144980000Y-199740000D03*
X187980000Y-239240000D03*
X189980000Y-239240000D03*
X187980000Y-235740000D03*
X189980000Y-235740000D03*
X133980000Y-239240000D03*
X135980000Y-239240000D03*
X133980000Y-235740000D03*
X135980000Y-235740000D03*
X142980000Y-230240000D03*
X144980000Y-230240000D03*
X142980000Y-226740000D03*
X144980000Y-226740000D03*
X214980000Y-230240000D03*
X216980000Y-230240000D03*
X214980000Y-226740000D03*
X216980000Y-226740000D03*
X214980000Y-239240000D03*
X216980000Y-239240000D03*
X214980000Y-235740000D03*
X216980000Y-235740000D03*
X151980000Y-257240000D03*
X153980000Y-257240000D03*
X151980000Y-253740000D03*
X153980000Y-253740000D03*
X187980000Y-248240000D03*
X189980000Y-248240000D03*
X187980000Y-244740000D03*
X189980000Y-244740000D03*
X169980000Y-203240000D03*
X171980000Y-203240000D03*
X169980000Y-199740000D03*
X171980000Y-199740000D03*
X124980000Y-257240000D03*
X126980000Y-257240000D03*
X124980000Y-253740000D03*
X126980000Y-253740000D03*
X115980000Y-248240000D03*
X117980000Y-248240000D03*
X115980000Y-244740000D03*
X117980000Y-244740000D03*
X178980000Y-266240000D03*
X180980000Y-266240000D03*
X178980000Y-262740000D03*
X180980000Y-262740000D03*
X115980000Y-266240000D03*
X117980000Y-266240000D03*
X115980000Y-262740000D03*
X117980000Y-262740000D03*
X142980000Y-248240000D03*
X144980000Y-248240000D03*
X142980000Y-244740000D03*
X144980000Y-244740000D03*
X160980000Y-266240000D03*
X162980000Y-266240000D03*
X160980000Y-262740000D03*
X162980000Y-262740000D03*
X133980000Y-266240000D03*
X135980000Y-266240000D03*
X133980000Y-262740000D03*
X135980000Y-262740000D03*
X151980000Y-212240000D03*
X153980000Y-212240000D03*
X151980000Y-208740000D03*
X153980000Y-208740000D03*
X187980000Y-230240000D03*
X189980000Y-230240000D03*
X187980000Y-226740000D03*
X189980000Y-226740000D03*
X205980000Y-203240000D03*
X207980000Y-203240000D03*
X205980000Y-199740000D03*
X207980000Y-199740000D03*
X196980000Y-266240000D03*
X198980000Y-266240000D03*
X196980000Y-262740000D03*
X198980000Y-262740000D03*
X142980000Y-266240000D03*
X144980000Y-266240000D03*
X142980000Y-262740000D03*
X144980000Y-262740000D03*
X169980000Y-239240000D03*
X171980000Y-239240000D03*
X169980000Y-235740000D03*
X171980000Y-235740000D03*
X169980000Y-257240000D03*
X171980000Y-257240000D03*
X169980000Y-253740000D03*
X171980000Y-253740000D03*
X142980000Y-257240000D03*
X144980000Y-257240000D03*
X142980000Y-253740000D03*
X144980000Y-253740000D03*
X178980000Y-230240000D03*
X180980000Y-230240000D03*
X178980000Y-226740000D03*
X180980000Y-226740000D03*
X142980000Y-212240000D03*
X144980000Y-212240000D03*
X142980000Y-208740000D03*
X144980000Y-208740000D03*
X178980000Y-212240000D03*
X180980000Y-212240000D03*
X178980000Y-208740000D03*
X180980000Y-208740000D03*
X160980000Y-203240000D03*
X162980000Y-203240000D03*
X160980000Y-199740000D03*
X162980000Y-199740000D03*
X169980000Y-248240000D03*
X171980000Y-248240000D03*
X169980000Y-244740000D03*
X171980000Y-244740000D03*
X178980000Y-257240000D03*
X180980000Y-257240000D03*
X178980000Y-253740000D03*
X180980000Y-253740000D03*
X124980000Y-203240000D03*
X126980000Y-203240000D03*
X124980000Y-199740000D03*
X126980000Y-199740000D03*
X169980000Y-230240000D03*
X171980000Y-230240000D03*
X169980000Y-226740000D03*
X171980000Y-226740000D03*
X115980000Y-212240000D03*
X117980000Y-212240000D03*
X115980000Y-208740000D03*
X117980000Y-208740000D03*
X187980000Y-257240000D03*
X189980000Y-257240000D03*
X187980000Y-253740000D03*
X189980000Y-253740000D03*
X133980000Y-212240000D03*
X135980000Y-212240000D03*
X133980000Y-208740000D03*
X135980000Y-208740000D03*
X133980000Y-248240000D03*
X135980000Y-248240000D03*
X133980000Y-244740000D03*
X135980000Y-244740000D03*
X160980000Y-248240000D03*
X162980000Y-248240000D03*
X160980000Y-244740000D03*
X162980000Y-244740000D03*
X133980000Y-230240000D03*
X135980000Y-230240000D03*
X133980000Y-226740000D03*
X135980000Y-226740000D03*
X205980000Y-257240000D03*
X207980000Y-257240000D03*
X205980000Y-253740000D03*
X207980000Y-253740000D03*
X124980000Y-221240000D03*
X126980000Y-221240000D03*
X124980000Y-217740000D03*
X126980000Y-217740000D03*
X142980000Y-221240000D03*
X144980000Y-221240000D03*
X142980000Y-217740000D03*
X144980000Y-217740000D03*
X196980000Y-239240000D03*
X198980000Y-239240000D03*
X196980000Y-235740000D03*
X198980000Y-235740000D03*
X169980000Y-212240000D03*
X171980000Y-212240000D03*
X169980000Y-208740000D03*
X171980000Y-208740000D03*
X124980000Y-248240000D03*
X126980000Y-248240000D03*
X124980000Y-244740000D03*
X126980000Y-244740000D03*
X214980000Y-203240000D03*
X216980000Y-203240000D03*
X214980000Y-199740000D03*
X216980000Y-199740000D03*
X178980000Y-203240000D03*
X180980000Y-203240000D03*
X178980000Y-199740000D03*
X180980000Y-199740000D03*
X124980000Y-212240000D03*
X126980000Y-212240000D03*
X124980000Y-208740000D03*
X126980000Y-208740000D03*
X214980000Y-221240000D03*
X216980000Y-221240000D03*
X214980000Y-217740000D03*
X216980000Y-217740000D03*
X178980000Y-221240000D03*
X180980000Y-221240000D03*
X178980000Y-217740000D03*
X180980000Y-217740000D03*
X187980000Y-221240000D03*
X189980000Y-221240000D03*
X187980000Y-217740000D03*
X189980000Y-217740000D03*
X205980000Y-230240000D03*
X207980000Y-230240000D03*
X205980000Y-226740000D03*
X207980000Y-226740000D03*
X214980000Y-266240000D03*
X216980000Y-266240000D03*
X214980000Y-262740000D03*
X216980000Y-262740000D03*
X151980000Y-203240000D03*
X153980000Y-203240000D03*
X151980000Y-199740000D03*
X153980000Y-199740000D03*
X151980000Y-239240000D03*
X153980000Y-239240000D03*
X151980000Y-235740000D03*
X153980000Y-235740000D03*
X124980000Y-230240000D03*
X126980000Y-230240000D03*
X124980000Y-226740000D03*
X126980000Y-226740000D03*
X160980000Y-257240000D03*
X162980000Y-257240000D03*
X160980000Y-253740000D03*
X162980000Y-253740000D03*
X214980000Y-248240000D03*
X216980000Y-248240000D03*
X214980000Y-244740000D03*
X216980000Y-244740000D03*
X160980000Y-221240000D03*
X162980000Y-221240000D03*
X160980000Y-217740000D03*
X162980000Y-217740000D03*
X178980000Y-239240000D03*
X180980000Y-239240000D03*
X178980000Y-235740000D03*
X180980000Y-235740000D03*
X142980000Y-239240000D03*
X144980000Y-239240000D03*
X142980000Y-235740000D03*
X144980000Y-235740000D03*
X160980000Y-230240000D03*
X162980000Y-230240000D03*
X160980000Y-226740000D03*
X162980000Y-226740000D03*
X205980000Y-221240000D03*
X207980000Y-221240000D03*
X205980000Y-217740000D03*
X207980000Y-217740000D03*
X196980000Y-203240000D03*
X198980000Y-203240000D03*
X196980000Y-199740000D03*
X198980000Y-199740000D03*
X115980000Y-257240000D03*
X117980000Y-257240000D03*
X115980000Y-253740000D03*
X117980000Y-253740000D03*
X205980000Y-248240000D03*
X207980000Y-248240000D03*
X205980000Y-244740000D03*
X207980000Y-244740000D03*
X160980000Y-239240000D03*
X162980000Y-239240000D03*
X160980000Y-235740000D03*
X162980000Y-235740000D03*
X124980000Y-266240000D03*
X126980000Y-266240000D03*
X124980000Y-262740000D03*
X126980000Y-262740000D03*
D11*
X92600000Y-58800000D03*
D12*
X215600000Y-61800000D03*
D13*
X215600000Y-56000000D03*
D14*
X210800000Y-58800000D03*
D11*
X235600000Y-58800000D03*
X92600000Y-159800000D03*
D15*
X91100000Y-74980000D03*
D16*
X91100000Y-77520000D03*
X91100000Y-80060000D03*
X91100000Y-82600000D03*
D11*
X235600000Y-159800000D03*
D17*
X107300000Y-269525000D03*
X107300000Y-267875000D03*
D18*
X89898500Y-195548500D03*
X89898500Y-193648500D03*
D19*
X110100000Y-185175000D03*
X110100000Y-186825000D03*
D20*
X103025000Y-247300000D03*
X104575000Y-247300000D03*
D21*
X102700000Y-206175000D03*
X102700000Y-204625000D03*
D20*
X98025000Y-224500000D03*
X99575000Y-224500000D03*
D22*
X127174338Y-188600000D03*
X125624338Y-188600000D03*
D20*
X96950000Y-226600000D03*
X98500000Y-226600000D03*
X98025000Y-242500000D03*
X99575000Y-242500000D03*
D18*
X128999338Y-187750000D03*
X128999338Y-185850000D03*
D20*
X96950000Y-217600000D03*
X98500000Y-217600000D03*
D11*
X92600000Y-175200000D03*
D17*
X212300000Y-193225000D03*
X212300000Y-191575000D03*
D21*
X102700000Y-215175000D03*
X102700000Y-213625000D03*
D23*
X137672000Y-175750000D03*
X137672000Y-177050000D03*
X135728000Y-176400000D03*
D19*
X106100000Y-227675000D03*
X106100000Y-229325000D03*
D20*
X103025000Y-220300000D03*
X104575000Y-220300000D03*
X96950000Y-235600000D03*
X98500000Y-235600000D03*
D24*
X152425000Y-191700000D03*
X150775000Y-191700000D03*
D20*
X98025000Y-233500000D03*
X99575000Y-233500000D03*
D25*
X100175000Y-267850000D03*
X99525000Y-267850000D03*
X98875000Y-267850000D03*
X98225000Y-267850000D03*
D26*
X97350000Y-266975000D03*
X97350000Y-266325000D03*
X97350000Y-265675000D03*
X97350000Y-265025000D03*
D25*
X98225000Y-264150000D03*
X98875000Y-264150000D03*
X99525000Y-264150000D03*
X100175000Y-264150000D03*
D26*
X101050000Y-265025000D03*
X101050000Y-265675000D03*
X101050000Y-266325000D03*
X101050000Y-266975000D03*
D27*
X99200000Y-266000000D03*
D20*
X172425000Y-173200000D03*
X173975000Y-173200000D03*
D19*
X116100000Y-185175000D03*
X116100000Y-186825000D03*
D28*
X98750000Y-197400000D03*
X96850000Y-197400000D03*
D29*
X108900000Y-230300000D03*
X108900000Y-231850000D03*
D30*
X138850000Y-180146500D03*
D31*
X139800000Y-180146500D03*
D30*
X140750000Y-180146500D03*
X140750000Y-182546500D03*
X138850000Y-182546500D03*
D21*
X102700000Y-251175000D03*
X102700000Y-249625000D03*
D19*
X106100000Y-236675000D03*
X106100000Y-238325000D03*
X111600000Y-185175000D03*
X111600000Y-186825000D03*
D17*
X203300000Y-193225000D03*
X203300000Y-191575000D03*
D24*
X101625000Y-226600000D03*
X99975000Y-226600000D03*
D17*
X131300000Y-193225000D03*
X131300000Y-191575000D03*
D11*
X235600000Y-175200000D03*
D20*
X96950000Y-244600000D03*
X98500000Y-244600000D03*
D21*
X102700000Y-269175000D03*
X102700000Y-267625000D03*
D20*
X96950000Y-262600000D03*
X98500000Y-262600000D03*
X96950000Y-253600000D03*
X98500000Y-253600000D03*
X103025000Y-211300000D03*
X104575000Y-211300000D03*
D17*
X107300000Y-251525000D03*
X107300000Y-249875000D03*
D30*
X146250000Y-180146500D03*
D31*
X147200000Y-180146500D03*
D30*
X148150000Y-180146500D03*
X148150000Y-182546500D03*
X146250000Y-182546500D03*
D17*
X95700000Y-222925000D03*
X95700000Y-221275000D03*
D25*
X100175000Y-213850000D03*
X99525000Y-213850000D03*
X98875000Y-213850000D03*
X98225000Y-213850000D03*
D26*
X97350000Y-212975000D03*
X97350000Y-212325000D03*
X97350000Y-211675000D03*
X97350000Y-211025000D03*
D25*
X98225000Y-210150000D03*
X98875000Y-210150000D03*
X99525000Y-210150000D03*
X100175000Y-210150000D03*
D26*
X101050000Y-211025000D03*
X101050000Y-211675000D03*
X101050000Y-212325000D03*
X101050000Y-212975000D03*
D27*
X99200000Y-212000000D03*
D20*
X98025000Y-206500000D03*
X99575000Y-206500000D03*
D32*
X94075000Y-201700000D03*
X95725000Y-201700000D03*
D19*
X113100000Y-185175000D03*
X113100000Y-186825000D03*
D25*
X100175000Y-258850000D03*
X99525000Y-258850000D03*
X98875000Y-258850000D03*
X98225000Y-258850000D03*
D26*
X97350000Y-257975000D03*
X97350000Y-257325000D03*
X97350000Y-256675000D03*
X97350000Y-256025000D03*
D25*
X98225000Y-255150000D03*
X98875000Y-255150000D03*
X99525000Y-255150000D03*
X100175000Y-255150000D03*
D26*
X101050000Y-256025000D03*
X101050000Y-256675000D03*
X101050000Y-257325000D03*
X101050000Y-257975000D03*
D27*
X99200000Y-257000000D03*
D24*
X125425000Y-191700000D03*
X123775000Y-191700000D03*
D25*
X100175000Y-249850000D03*
X99525000Y-249850000D03*
X98875000Y-249850000D03*
X98225000Y-249850000D03*
D26*
X97350000Y-248975000D03*
X97350000Y-248325000D03*
X97350000Y-247675000D03*
X97350000Y-247025000D03*
D25*
X98225000Y-246150000D03*
X98875000Y-246150000D03*
X99525000Y-246150000D03*
X100175000Y-246150000D03*
D26*
X101050000Y-247025000D03*
X101050000Y-247675000D03*
X101050000Y-248325000D03*
X101050000Y-248975000D03*
D27*
X99200000Y-248000000D03*
D29*
X122600000Y-184425000D03*
X122600000Y-185975000D03*
D24*
X101625000Y-244600000D03*
X99975000Y-244600000D03*
D32*
X94075000Y-228700000D03*
X95725000Y-228700000D03*
D33*
X128837500Y-193250000D03*
X128837500Y-195150000D03*
X126962500Y-194200000D03*
X155837500Y-193250000D03*
X155837500Y-195150000D03*
X153962500Y-194200000D03*
D19*
X106100000Y-263675000D03*
X106100000Y-265325000D03*
D18*
X144325000Y-176325000D03*
X144325000Y-174425000D03*
D23*
X142772000Y-175750000D03*
X142772000Y-177050000D03*
X140828000Y-176400000D03*
D21*
X124100000Y-185975000D03*
X124100000Y-184425000D03*
D17*
X107300000Y-233525000D03*
X107300000Y-231875000D03*
D19*
X106100000Y-254675000D03*
X106100000Y-256325000D03*
D32*
X104850000Y-183700000D03*
X106500000Y-183700000D03*
D33*
X164837500Y-193250000D03*
X164837500Y-195150000D03*
X162962500Y-194200000D03*
D32*
X94075000Y-237700000D03*
X95725000Y-237700000D03*
D24*
X143425000Y-191700000D03*
X141775000Y-191700000D03*
X147725000Y-174400000D03*
X146075000Y-174400000D03*
D20*
X136875000Y-183950000D03*
X138425000Y-183950000D03*
D19*
X106100000Y-218675000D03*
X106100000Y-220325000D03*
D17*
X122300000Y-193225000D03*
X122300000Y-191575000D03*
D34*
X120925000Y-176937500D03*
X121575000Y-176937500D03*
X122225000Y-176937500D03*
X122875000Y-176937500D03*
X123525000Y-176937500D03*
X124175000Y-176937500D03*
X124825000Y-176937500D03*
X125475000Y-176937500D03*
X125475000Y-182662500D03*
X124825000Y-182662500D03*
X124175000Y-182662500D03*
X123525000Y-182662500D03*
X122875000Y-182662500D03*
X122225000Y-182662500D03*
X121575000Y-182662500D03*
X120925000Y-182662500D03*
D20*
X103025000Y-256300000D03*
X104575000Y-256300000D03*
D32*
X104850000Y-185200000D03*
X106500000Y-185200000D03*
D17*
X107300000Y-242525000D03*
X107300000Y-240875000D03*
D32*
X94075000Y-255700000D03*
X95725000Y-255700000D03*
D17*
X107300000Y-215525000D03*
X107300000Y-213875000D03*
D11*
X92600000Y-276200000D03*
D20*
X103025000Y-229300000D03*
X104575000Y-229300000D03*
D21*
X142200000Y-181675000D03*
X142200000Y-180125000D03*
D24*
X215425000Y-191700000D03*
X213775000Y-191700000D03*
D18*
X89898500Y-190348500D03*
X89898500Y-188448500D03*
D19*
X119100000Y-185175000D03*
X119100000Y-186825000D03*
D32*
X104850000Y-177700000D03*
X106500000Y-177700000D03*
D24*
X179425000Y-191700000D03*
X177775000Y-191700000D03*
D17*
X95700000Y-249925000D03*
X95700000Y-248275000D03*
D29*
X108900000Y-203300000D03*
X108900000Y-204850000D03*
D32*
X104850000Y-182200000D03*
X106500000Y-182200000D03*
D24*
X101625000Y-253600000D03*
X99975000Y-253600000D03*
D29*
X108900000Y-266300000D03*
X108900000Y-267850000D03*
D20*
X103025000Y-238300000D03*
X104575000Y-238300000D03*
X96950000Y-208600000D03*
X98500000Y-208600000D03*
D35*
X93448500Y-188226500D03*
X94748500Y-188226500D03*
X94098500Y-190170500D03*
D24*
X224425000Y-191700000D03*
X222775000Y-191700000D03*
D25*
X100175000Y-231850000D03*
X99525000Y-231850000D03*
X98875000Y-231850000D03*
X98225000Y-231850000D03*
D26*
X97350000Y-230975000D03*
X97350000Y-230325000D03*
X97350000Y-229675000D03*
X97350000Y-229025000D03*
D25*
X98225000Y-228150000D03*
X98875000Y-228150000D03*
X99525000Y-228150000D03*
X100175000Y-228150000D03*
D26*
X101050000Y-229025000D03*
X101050000Y-229675000D03*
X101050000Y-230325000D03*
X101050000Y-230975000D03*
D27*
X99200000Y-230000000D03*
D32*
X94075000Y-210700000D03*
X95725000Y-210700000D03*
D19*
X106100000Y-245675000D03*
X106100000Y-247325000D03*
D33*
X182837500Y-193250000D03*
X182837500Y-195150000D03*
X180962500Y-194200000D03*
D21*
X140600000Y-185475000D03*
X140600000Y-183925000D03*
D25*
X100175000Y-222850000D03*
X99525000Y-222850000D03*
X98875000Y-222850000D03*
X98225000Y-222850000D03*
D26*
X97350000Y-221975000D03*
X97350000Y-221325000D03*
X97350000Y-220675000D03*
X97350000Y-220025000D03*
D25*
X98225000Y-219150000D03*
X98875000Y-219150000D03*
X99525000Y-219150000D03*
X100175000Y-219150000D03*
D26*
X101050000Y-220025000D03*
X101050000Y-220675000D03*
X101050000Y-221325000D03*
X101050000Y-221975000D03*
D27*
X99200000Y-221000000D03*
D24*
X101625000Y-262600000D03*
X99975000Y-262600000D03*
D22*
X98375000Y-195600000D03*
X96825000Y-195600000D03*
D17*
X95700000Y-231925000D03*
X95700000Y-230275000D03*
D24*
X188425000Y-191700000D03*
X186775000Y-191700000D03*
D35*
X129949338Y-184472000D03*
X128649338Y-184472000D03*
X129299338Y-182528000D03*
D29*
X96598500Y-188023500D03*
X96598500Y-189573500D03*
D33*
X200837500Y-193250000D03*
X200837500Y-195150000D03*
X198962500Y-194200000D03*
D17*
X95700000Y-267925000D03*
X95700000Y-266275000D03*
D33*
X218837500Y-193250000D03*
X218837500Y-195150000D03*
X216962500Y-194200000D03*
D17*
X176300000Y-193225000D03*
X176300000Y-191575000D03*
D24*
X170925000Y-173200000D03*
X169275000Y-173200000D03*
D19*
X108600000Y-185175000D03*
X108600000Y-186825000D03*
X106100000Y-200675000D03*
X106100000Y-202325000D03*
D29*
X108900000Y-257300000D03*
X108900000Y-258850000D03*
D17*
X95700000Y-204925000D03*
X95700000Y-203275000D03*
D21*
X102700000Y-233175000D03*
X102700000Y-231625000D03*
X102700000Y-224175000D03*
X102700000Y-222625000D03*
D19*
X91898500Y-193548500D03*
X91898500Y-195198500D03*
D36*
X109350000Y-172775000D03*
X109850000Y-172775000D03*
X110350000Y-172775000D03*
X110850000Y-172775000D03*
X111350000Y-172775000D03*
X111850000Y-172775000D03*
X112350000Y-172775000D03*
X112850000Y-172775000D03*
X113350000Y-172775000D03*
X113850000Y-172775000D03*
X114350000Y-172775000D03*
X114850000Y-172775000D03*
X115350000Y-172775000D03*
X115850000Y-172775000D03*
D37*
X117520000Y-171075000D03*
X107680000Y-171075000D03*
D38*
X137150000Y-180500000D03*
X137150000Y-182400000D03*
D29*
X108900000Y-212300000D03*
X108900000Y-213850000D03*
D20*
X98025000Y-269500000D03*
X99575000Y-269500000D03*
D24*
X161425000Y-191700000D03*
X159775000Y-191700000D03*
D38*
X99198500Y-187648500D03*
X99198500Y-189548500D03*
D24*
X197425000Y-191700000D03*
X195775000Y-191700000D03*
D38*
X144600000Y-180496500D03*
X144600000Y-182396500D03*
D30*
X127349338Y-187000000D03*
D31*
X126399338Y-187000000D03*
D30*
X125449338Y-187000000D03*
X125449338Y-184600000D03*
X127349338Y-184600000D03*
D33*
X173837500Y-193250000D03*
X173837500Y-195150000D03*
X171962500Y-194200000D03*
D29*
X108900000Y-221300000D03*
X108900000Y-222850000D03*
D25*
X100175000Y-240850000D03*
X99525000Y-240850000D03*
X98875000Y-240850000D03*
X98225000Y-240850000D03*
D26*
X97350000Y-239975000D03*
X97350000Y-239325000D03*
X97350000Y-238675000D03*
X97350000Y-238025000D03*
D25*
X98225000Y-237150000D03*
X98875000Y-237150000D03*
X99525000Y-237150000D03*
X100175000Y-237150000D03*
D26*
X101050000Y-238025000D03*
X101050000Y-238675000D03*
X101050000Y-239325000D03*
X101050000Y-239975000D03*
D27*
X99200000Y-239000000D03*
D19*
X117600000Y-185175000D03*
X117600000Y-186825000D03*
X106100000Y-209675000D03*
X106100000Y-211325000D03*
D20*
X103025000Y-265300000D03*
X104575000Y-265300000D03*
D17*
X194300000Y-193225000D03*
X194300000Y-191575000D03*
D20*
X98025000Y-260500000D03*
X99575000Y-260500000D03*
D29*
X108900000Y-239300000D03*
X108900000Y-240850000D03*
D21*
X148000000Y-185475000D03*
X148000000Y-183925000D03*
D24*
X101625000Y-208600000D03*
X99975000Y-208600000D03*
D23*
X147872000Y-175850000D03*
X147872000Y-177150000D03*
X145928000Y-176500000D03*
D32*
X104850000Y-179200000D03*
X106500000Y-179200000D03*
D17*
X95700000Y-240925000D03*
X95700000Y-239275000D03*
X149300000Y-193225000D03*
X149300000Y-191575000D03*
D18*
X149800000Y-185150000D03*
X149800000Y-183250000D03*
D32*
X104850000Y-180700000D03*
X106500000Y-180700000D03*
D19*
X91898500Y-188373500D03*
X91898500Y-190023500D03*
D17*
X107300000Y-206525000D03*
X107300000Y-204875000D03*
D20*
X98025000Y-215500000D03*
X99575000Y-215500000D03*
D33*
X191837500Y-193250000D03*
X191837500Y-195150000D03*
X189962500Y-194200000D03*
D32*
X94075000Y-246700000D03*
X95725000Y-246700000D03*
D29*
X108900000Y-248300000D03*
X108900000Y-249850000D03*
D17*
X95700000Y-258925000D03*
X95700000Y-257275000D03*
D20*
X103025000Y-202300000D03*
X104575000Y-202300000D03*
D32*
X104850000Y-176200000D03*
X106500000Y-176200000D03*
D18*
X149450000Y-176300000D03*
X149450000Y-174400000D03*
D17*
X185300000Y-193225000D03*
X185300000Y-191575000D03*
D32*
X94075000Y-219700000D03*
X95725000Y-219700000D03*
D20*
X96950000Y-199600000D03*
X98500000Y-199600000D03*
D11*
X235600000Y-276200000D03*
D17*
X158300000Y-193225000D03*
X158300000Y-191575000D03*
D18*
X142400000Y-185150000D03*
X142400000Y-183250000D03*
D17*
X107300000Y-224525000D03*
X107300000Y-222875000D03*
X167300000Y-193225000D03*
X167300000Y-191575000D03*
D24*
X101625000Y-217600000D03*
X99975000Y-217600000D03*
D17*
X131399338Y-184225000D03*
X131399338Y-182575000D03*
D24*
X170425000Y-191700000D03*
X168775000Y-191700000D03*
D33*
X209837500Y-193250000D03*
X209837500Y-195150000D03*
X207962500Y-194200000D03*
D17*
X221300000Y-193225000D03*
X221300000Y-191575000D03*
D24*
X101625000Y-235600000D03*
X99975000Y-235600000D03*
D18*
X131400000Y-187750000D03*
X131400000Y-185850000D03*
D33*
X137837500Y-193250000D03*
X137837500Y-195150000D03*
X135962500Y-194200000D03*
D21*
X102700000Y-260175000D03*
X102700000Y-258625000D03*
D24*
X137525000Y-174350000D03*
X135875000Y-174350000D03*
D17*
X95700000Y-213925000D03*
X95700000Y-212275000D03*
D20*
X98025000Y-251500000D03*
X99575000Y-251500000D03*
D21*
X102700000Y-242175000D03*
X102700000Y-240625000D03*
D24*
X101625000Y-199600000D03*
X99975000Y-199600000D03*
D35*
X93448500Y-193401500D03*
X94748500Y-193401500D03*
X94098500Y-195345500D03*
D24*
X134425000Y-191700000D03*
X132775000Y-191700000D03*
D17*
X140300000Y-193225000D03*
X140300000Y-191575000D03*
D32*
X94075000Y-264700000D03*
X95725000Y-264700000D03*
D17*
X107300000Y-260525000D03*
X107300000Y-258875000D03*
D39*
X96948500Y-191348500D03*
X97898500Y-191348500D03*
X98848500Y-191348500D03*
X98848500Y-193848500D03*
X96948500Y-193848500D03*
D21*
X127100000Y-182075000D03*
X127100000Y-180525000D03*
X149600000Y-181668000D03*
X149600000Y-180118000D03*
D33*
X119837500Y-193250000D03*
X119837500Y-195150000D03*
X117962500Y-194200000D03*
D18*
X139250000Y-176300000D03*
X139250000Y-174400000D03*
D33*
X146837500Y-193250000D03*
X146837500Y-195150000D03*
X144962500Y-194200000D03*
D25*
X100175000Y-204850000D03*
X99525000Y-204850000D03*
X98875000Y-204850000D03*
X98225000Y-204850000D03*
D26*
X97350000Y-203975000D03*
X97350000Y-203325000D03*
X97350000Y-202675000D03*
X97350000Y-202025000D03*
D25*
X98225000Y-201150000D03*
X98875000Y-201150000D03*
X99525000Y-201150000D03*
X100175000Y-201150000D03*
D26*
X101050000Y-202025000D03*
X101050000Y-202675000D03*
X101050000Y-203325000D03*
X101050000Y-203975000D03*
D27*
X99200000Y-203000000D03*
D32*
X104850000Y-174700000D03*
X106500000Y-174700000D03*
D40*
X171125000Y-175062000D03*
X171775000Y-175062000D03*
X172425000Y-175062000D03*
X173075000Y-175062000D03*
X173725000Y-175062000D03*
X174375000Y-175062000D03*
X175025000Y-175062000D03*
X175675000Y-175062000D03*
X176325000Y-175062000D03*
X176975000Y-175062000D03*
X177625000Y-175062000D03*
X178275000Y-175062000D03*
X178275000Y-180938000D03*
X177625000Y-180938000D03*
X176975000Y-180938000D03*
X176325000Y-180938000D03*
X175675000Y-180938000D03*
X175025000Y-180938000D03*
X174375000Y-180938000D03*
X173725000Y-180938000D03*
X173075000Y-180938000D03*
X172425000Y-180938000D03*
X171775000Y-180938000D03*
X171125000Y-180938000D03*
D20*
X144325000Y-183946500D03*
X145875000Y-183946500D03*
D22*
X173975000Y-171700000D03*
X172425000Y-171700000D03*
D24*
X206425000Y-191700000D03*
X204775000Y-191700000D03*
X142625000Y-174400000D03*
X140975000Y-174400000D03*
D21*
X121100000Y-185975000D03*
X121100000Y-184425000D03*
D19*
X114600000Y-185175000D03*
X114600000Y-186825000D03*
M02*
